<?xml version="1.0" standalone="no"?>
<!DOCTYPE svg PUBLIC "-//W3C//DTD SVG 1.1//EN" "http://www.w3.org/Graphics/SVG/1.1/DTD/svg11.dtd" >
<svg xmlns="http://www.w3.org/2000/svg" xmlns:xlink="http://www.w3.org/1999/xlink" version="1.1">
<metadata>
Created by FontForge 20150102 at Mon Jan  5 18:07:23 2015
 By uniteet7
Copyright (c) 2011, Juan Pablo del Peral (juan@huertatipografica.com.ar), with Reserved Font Names "Alegreya" "Alegreya SC"
</metadata>
<defs>
<font id="AlegreyaBoldItalic" horiz-adv-x="384" >
  <font-face 
    font-family="AlegreyaBoldItalic"
    font-weight="700"
    font-style="italic"
    font-stretch="normal"
    units-per-em="1000"
    panose-1="2 0 5 3 5 0 0 2 0 4"
    ascent="800"
    descent="-200"
    x-height="465"
    cap-height="649"
    bbox="-233 -318 1005 977"
    underline-thickness="56"
    underline-position="-59"
    unicode-range="U+0020-FB02"
  />
<missing-glyph horiz-adv-x="166" 
 />
    <glyph glyph-name=".notdef" horiz-adv-x="166" 
 />
    <glyph glyph-name=".null" horiz-adv-x="0" 
 />
    <glyph glyph-name="nonmarkingreturn" horiz-adv-x="333" 
 />
    <glyph glyph-name="space" unicode=" " horiz-adv-x="166" 
 />
    <glyph glyph-name="exclam" unicode="!" horiz-adv-x="274" 
d="M91 -11q-31 0 -48 18t-17 47q0 41 25.5 67t65.5 26q31 0 48 -17.5t17 -47.5q0 -40 -25 -66.5t-66 -26.5zM89 236l32 430l15 17l135 22l15 -18l-117 -453l-66 -11z" />
    <glyph glyph-name="quotedbl" unicode="&#x22;" horiz-adv-x="311" 
d="M192 654l6 -10q-28 -110 -63 -216l-51 -20l-14 4q8 51 13 108t7 88l1 32zM334 654l6 -10q-28 -110 -63 -216l-51 -20l-14 4q7 51 12 108t6 88l2 32z" />
    <glyph glyph-name="numbersign" unicode="#" horiz-adv-x="510" 
d="M62 351l-4 11l22 70l95 -1l43 139l74 7l10 -6l-46 -140h44l44 -1l43 140l74 7l10 -6l-46 -140l93 2l4 -12l-22 -70h-100l-9 -28l-20 -65l92 1l4 -12l-21 -69h-98l-41 -134l-72 -11l-10 8l44 137l-53 1l-37 -1l-41 -134l-73 -11l-9 8l43 137l-91 -1l-4 12l22 69l97 -1
l16 52l13 42h-90zM222 323l-20 -66h42l48 -1l17 53l13 43h-91z" />
    <glyph glyph-name="dollar" unicode="$" horiz-adv-x="436" 
d="M103 -159l-6 7l33 145q-29 3 -56.5 10t-40.5 13l-13 5l-6 12q22 70 31 131l76 6q-7 -57 8.5 -79.5t61.5 -22.5q37 0 59.5 15.5t22.5 41.5q0 22 -21 38t-64 37q-31 16 -46.5 25t-38 26.5t-32.5 39t-10 47.5q0 66 51.5 112t135.5 57l33 142l71 9l5 -9l-32 -140q29 -2 58 -7
t43 -9l15 -4l5 -12q-22 -63 -36 -134l-70 -5l-7 5q5 24 5 36q0 49 -66 49q-33 0 -55 -15.5t-22 -39.5q0 -30 59 -61q8 -4 32.5 -16t37 -19t32 -20.5t29.5 -25.5t18 -30.5t8 -38.5q0 -70 -55 -115.5t-150 -53.5l-33 -144z" />
    <glyph glyph-name="percent" unicode="%" horiz-adv-x="692" 
d="M188 408q86 0 86 76q0 31 -20.5 49t-59.5 18q-85 0 -85 -76q0 -34 21.5 -50.5t57.5 -16.5zM168 309q-57 0 -90.5 36.5t-33.5 101.5q0 93 48.5 150t125.5 57q58 0 90 -37.5t32 -98.5q0 -92 -47 -150.5t-125 -58.5zM529 88q86 0 86 75q0 32 -20.5 50t-59.5 18
q-41 0 -63.5 -20t-22.5 -56q0 -67 80 -67zM508 -12q-57 0 -90 37t-33 101q0 93 48.5 150t125.5 57q58 0 90 -37.5t32 -98.5q0 -92 -47.5 -150.5t-125.5 -58.5zM602 653l7 -19q-176 -267 -266 -407l-202 -320l-65 27l-5 14q121 180 207 316l262 414z" />
    <glyph glyph-name="ampersand" unicode="&#x26;" horiz-adv-x="571" 
d="M198 468q0 -44 28.5 -72.5t74.5 -28.5l248 19q33 2 58 14t58 41l22 -16l-41 -81q-14 -28 -32 -38.5t-51 -10.5h-71l-5 -7q23 -25 23 -68q0 -91 -83 -161.5t-189 -70.5q-94 0 -150.5 43.5t-56.5 116.5q0 55 41 101.5t109 69.5q-92 44 -92 142q0 78 71 135.5t165 57.5
q75 0 160 -25l6 -10q-33 -89 -42 -154l-80 -5q7 33 7 46q0 28 -18 43.5t-52 15.5q-50 0 -79 -26t-29 -71zM411 213q0 36 -14.5 59t-37.5 23h-110q-53 -25 -75.5 -53t-22.5 -67q0 -45 30 -73.5t79 -28.5q66 0 108.5 39t42.5 101z" />
    <glyph glyph-name="quotesingle" unicode="'" horiz-adv-x="170" 
d="M192 654l6 -10q-28 -110 -63 -216l-51 -20l-14 4q8 51 13 108t7 88l1 32z" />
    <glyph glyph-name="parenleft" unicode="(" horiz-adv-x="298" 
d="M58 163l21 173q8 69 33 126.5t54 90.5t57.5 56t46.5 31l19 9h11l27 -46l-2 -6q-5 -2 -12.5 -7t-28 -24.5t-37 -44.5t-33.5 -70.5t-23 -99.5l-21 -173q-7 -62 -2.5 -108.5t17 -78t26 -51t23.5 -28.5l10 -8l-1 -8l-46 -42h-8q-7 3 -17.5 9t-36.5 30.5t-44.5 56t-29.5 88.5
t-3 125z" />
    <glyph glyph-name="parenright" unicode=")" horiz-adv-x="302" 
d="M246 340l-22 -173q-8 -69 -33 -126.5t-54 -90.5t-57 -56t-46 -32l-19 -8h-11l-26 46l1 6q4 2 12 7t28 24.5t37 44.5t33.5 70.5t23.5 99.5l21 173q7 62 2.5 108.5t-17 78t-26 51t-23.5 27.5l-10 9l1 8l46 42h8q6 -3 17 -9t37 -30.5t44 -56t29.5 -88.5t3.5 -125z" />
    <glyph glyph-name="asterisk" unicode="*" horiz-adv-x="393" 
d="M101 673q50 -26 102 -66l-7 -41l-8 -6l-108 30q0 45 11 80zM101 469q40 39 94 77l37 -20l3 -8l-61 -95q-44 14 -73 36v10zM294 406q-24 50 -44 114l31 29h9l70 -88q-26 -37 -56 -58zM414 571q-6 -1 -17 -2t-43 -3t-61 -2l-18 37l2 10l106 40q27 -37 37 -72zM295 736
q-11 -55 -31 -118l-42 -5l-7 4l-7 113q44 14 80 14z" />
    <glyph glyph-name="plus" unicode="+" horiz-adv-x="488" 
d="M317 497l11 -7q-18 -106 -28 -184l176 6l5 -12l-22 -92l-172 -1l-19 -168l-91 -15l-9 8q12 93 22 175l-169 -1l-6 11l25 90q86 -1 163 -1l22 180z" />
    <glyph glyph-name="comma" unicode="," horiz-adv-x="229" 
d="M18 94l2 14q45 34 79 34q30 0 49 -24t19 -65q0 -52 -44 -104t-109 -89l-38 30v17q32 22 52 53t20 61q0 41 -30 73z" />
    <glyph glyph-name="hyphen" unicode="-" horiz-adv-x="312" 
d="M280 313l8 -13l-18 -80l-231 -26l-8 12l17 78l159 19z" />
    <glyph glyph-name="period" unicode="." horiz-adv-x="230" 
d="M82 -11q-32 0 -48.5 17.5t-16.5 47.5q0 41 25.5 67t65.5 26q31 0 48 -17.5t17 -47.5q0 -40 -25.5 -66.5t-65.5 -26.5z" />
    <glyph glyph-name="slash" unicode="/" horiz-adv-x="317" 
d="M352 675l11 -15q-111 -283 -172 -445l-121 -325h-85l-7 11q71 173 127 325l166 449h81z" />
    <glyph glyph-name="zero" unicode="0" horiz-adv-x="481" 
d="M200 -12q-84 0 -131 55.5t-47 152.5q0 138 75 226t191 88q83 0 129.5 -55t46.5 -151q0 -139 -74 -227.5t-190 -88.5zM231 119q69 0 108.5 37.5t39.5 101.5q0 54 -33.5 85t-93.5 31q-68 0 -107 -38t-39 -102q0 -53 33 -84t92 -31z" />
    <glyph glyph-name="one" unicode="1" horiz-adv-x="353" 
d="M271 402q-45 -216 -45 -291q0 -46 36 -46l47 3l2 -5l-19 -67q-90 4 -139 4q-17 0 -39 -1t-41.5 -3t-36.5 -3.5t-26 -2.5l-10 -1l14 63q50 5 71 24t26 68l27 215q4 35 -5 46t-37 11l-48 -5l-5 7l13 57q48 4 119 15q42 6 76 11t47 7l13 2l7 -30q-33 -25 -47 -78z" />
    <glyph glyph-name="two" unicode="2" horiz-adv-x="467" 
d="M-8 -9l-4 33l82 83q91 94 130.5 150.5t40.5 93.5q3 53 -52 53q-60 0 -116 -77h-13l-9 74q45 51 99 80t105 29q63 0 100.5 -31.5t37.5 -83.5q0 -51 -39 -105.5t-175 -188.5l4 -8h87q44 0 65 19t37 72l78 7q-34 -107 -50 -188l-16 -12q-237 9 -329 9z" />
    <glyph glyph-name="three" unicode="3" horiz-adv-x="418" 
d="M-17 2l15 14q33 -13 81 -13q64 0 107.5 30t43.5 75q0 70 -131 70l-8 10l1 62l64 14q37 17 60 44.5t23 57.5q0 22 -14.5 35t-37.5 13q-49 0 -111 -49q-1 0 -5.5 -0.5t-6.5 -0.5l-12 71q36 24 91.5 49.5t98.5 25.5q61 0 96.5 -28.5t35.5 -75.5q0 -45 -34 -85.5t-91 -63.5
l-1 -8q119 -34 119 -120q0 -53 -48.5 -107t-123 -88t-146.5 -34q-41 0 -55.5 23t-10.5 79z" />
    <glyph glyph-name="four" unicode="4" horiz-adv-x="454" 
d="M-17 73q2 11 5.5 33.5t5.5 33.5l300 368q1 0 4 1l2 1l84 -11l-42 -342h78l7 -11l-19 -83q-31 1 -76 3l-12 -145l-9 -9l-117 -12l-6 10q14 87 25 159q-150 4 -230 4zM237 335l-140 -178h127l23 178h-10z" />
    <glyph glyph-name="five" unicode="5" horiz-adv-x="412" 
d="M361 145q0 -91 -105 -168t-218 -77q-39 0 -54.5 22.5t-11.5 79.5l15 14q35 -13 82 -13q65 0 109.5 29.5t44.5 74.5q0 35 -38 56t-131 35l-7 11l53 270l8 8l188 7q28 2 41.5 10t24.5 30l55 4l-43 -147l-14 -13q-86 8 -190 8l-18 -92q104 -19 156.5 -54t52.5 -95z" />
    <glyph glyph-name="six" unicode="6" horiz-adv-x="448" 
d="M430 538q-7 -2 -18 -7t-43 -23t-60.5 -40t-62 -59t-55.5 -79l3 -6q1 0 36 17.5t49 19.5q68 0 106 -42.5t38 -106.5q0 -96 -67 -160t-171 -64q-77 0 -120.5 51t-43.5 134q0 66 21.5 125.5t55.5 101t75 77t82.5 57t75.5 37t55 21.5l22 6l9 -5zM230 273q-37 0 -79 -28
q-10 -52 -10 -72q0 -49 18.5 -76.5t52.5 -27.5q43 0 65.5 30.5t22.5 84.5q0 39 -18.5 64t-51.5 25z" />
    <glyph glyph-name="seven" unicode="7" horiz-adv-x="413" 
d="M156 -100h-17l-86 27l-8 25l267 442l-126 -8q-46 -4 -63 -20t-32 -68l-60 -6q27 114 43 205l7 5q57 -4 117 -4h210l33 -48q-97 -167 -240 -437z" />
    <glyph glyph-name="eight" unicode="8" horiz-adv-x="462" 
d="M22 117q0 104 126 161q-77 55 -77 133q0 76 64 131.5t154 55.5q64 0 108 -34.5t44 -91.5q0 -96 -104 -149q82 -54 82 -132q0 -84 -68.5 -143.5t-163.5 -59.5q-72 0 -118.5 35.5t-46.5 93.5zM211 62q36 0 62 24.5t26 60.5q0 16 -7 29.5t-26 27.5t-29 20.5t-39 22.5
q-64 -42 -64 -102q0 -35 21.5 -59t55.5 -24zM191 446q0 -29 22 -48.5t67 -44.5q48 39 48 95q0 34 -17 52.5t-45 18.5q-32 0 -53.5 -21.5t-21.5 -51.5z" />
    <glyph glyph-name="nine" unicode="9" horiz-adv-x="448" 
d="M23 -40q7 2 18 7t43 23t60.5 39.5t62 58.5t55.5 79l-4 7q-3 -1 -19.5 -10t-35.5 -17.5t-29 -9.5q-68 0 -105.5 42.5t-37.5 106.5q0 96 66.5 160t170.5 64q77 0 121 -51t44 -134q0 -66 -21.5 -125.5t-55.5 -101.5t-75 -77t-82.5 -57t-75.5 -37t-55 -21l-22 -7l-9 6z
M223 225q36 0 78 27q10 39 10 72q0 49 -18 77t-51 28q-43 0 -66 -31t-23 -85q0 -39 18.5 -63.5t51.5 -24.5z" />
    <glyph glyph-name="colon" unicode=":" horiz-adv-x="229" 
d="M82 -11q-32 0 -48.5 17.5t-16.5 47.5q0 41 25.5 67t65.5 26q31 0 48 -17.5t17 -47.5q0 -40 -25.5 -66.5t-65.5 -26.5zM115 262q-32 0 -48.5 17.5t-16.5 47.5q0 41 25.5 67t65.5 26q31 0 48 -17.5t17 -47.5q0 -40 -25.5 -66.5t-65.5 -26.5z" />
    <glyph glyph-name="semicolon" unicode=";" horiz-adv-x="229" 
d="M17 94l2 14q45 34 79 34q30 0 49 -24t19 -65q0 -52 -44 -104t-109 -89l-38 30v17q32 22 52 53t20 61q0 41 -30 73zM115 262q-32 0 -48.5 17.5t-16.5 47.5q0 41 25.5 67t65.5 26q31 0 48 -17.5t17 -47.5q0 -40 -25.5 -66.5t-65.5 -26.5z" />
    <glyph glyph-name="less" unicode="&#x3c;" horiz-adv-x="450" 
d="M33 213l-7 13l14 97l193 82l178 76l12 -8l11 -76q-103 -38 -182 -71l-122 -50l-1 -7l121 -60l148 -72l3 -15l-50 -65q-77 39 -147 74z" />
    <glyph glyph-name="equal" unicode="=" horiz-adv-x="488" 
d="M465 224l5 -12l-22 -92l-219 -1l-219 -1l-6 11l25 90q140 -1 225 -1zM487 402l5 -12l-21 -92l-220 -1l-219 -1l-6 11l25 90q139 -1 225 -1z" />
    <glyph glyph-name="greater" unicode="&#x3e;" horiz-adv-x="450" 
d="M428 325l6 -13l-13 -98l-193 -82l-179 -75l-11 7l-12 77q103 37 182 70l122 50l1 7l-121 60l-148 72l-3 16l50 65q77 -40 147 -75z" />
    <glyph glyph-name="question" unicode="?" horiz-adv-x="358" 
d="M96 221l-8 126l5 14l111 63q59 34 59 80q0 86 -163 96l-6 14l46 84l16 7q101 -3 166.5 -48.5t65.5 -112.5q0 -44 -24.5 -80.5t-50 -56t-94.5 -63.5q-10 -7 -15 -10l-3 -7l3 -83l-7 -11l-90 -18zM118 -11q-31 0 -48 18t-17 47q0 41 25 67t66 26q31 0 48 -17.5t17 -47.5
q0 -40 -25.5 -66.5t-65.5 -26.5z" />
    <glyph glyph-name="at" unicode="@" horiz-adv-x="836" 
d="M485 -12q-21 0 -32.5 11t-11.5 30q0 31 34 164l-8 1q-83 -151 -161 -206q-55 0 -85 39t-30 107q0 122 77.5 227t163.5 105l87 -18l7 22l12 7l80 -14l8 -17q-53 -204 -77 -362l6 -6q88 0 138.5 59.5t50.5 156.5q0 126 -80.5 197t-218.5 71q-149 0 -244.5 -103.5
t-95.5 -253.5q0 -163 96.5 -260.5t282.5 -102.5v-16l-31 -50q-206 4 -321.5 115t-115.5 288q0 90 35.5 174.5t95.5 148t145.5 102t180.5 38.5q162 0 260 -88t98 -228q0 -147 -92.5 -242.5t-253.5 -95.5zM337 105q22 0 68 75t85 178q-51 29 -88 29q-32 0 -59 -62t-27 -136
q0 -35 6 -59.5t15 -24.5z" />
    <glyph glyph-name="A" unicode="A" horiz-adv-x="604" 
d="M522 131q6 -36 20 -50.5t46 -18.5l4 -7l-14 -58q-77 3 -119 3q-37 0 -78 -2t-64 -4l-23 -2l-4 8l12 59q48 4 63.5 12t15.5 30q0 7 -2 29l-9 77q-26 2 -87 2q-47 0 -93 -7l-32 -77q-10 -24 -10 -37q0 -26 39 -26h42l3 -6l-14 -62q-79 6 -140 6l-117 -3l15 66q43 7 71 67
l230 506l157 17l11 -5q46 -345 77 -517zM321 512l-96 -227h67q27 0 71 4l-28 223h-14z" />
    <glyph glyph-name="B" unicode="B" horiz-adv-x="607" 
d="M149 0q-25 0 -61 -2.5t-60 -5.5l-23 -2l15 66q43 8 60 24.5t21 55.5l49 392q3 28 -2.5 39t-22.5 11l-33 -2l-6 8l17 60q100 -3 134 -3l140 6q93 0 145 -35.5t52 -100.5q0 -108 -124 -172q57 -18 88 -53.5t31 -82.5q0 -95 -75 -154t-197 -59q-14 0 -70 5t-78 5zM338 282
l-88 -1l-23 -148q-5 -32 15 -45.5t69 -13.5q51 0 81 30.5t30 82.5q0 75 -84 95zM262 368q73 -9 90 -9q3 1 8.5 3.5t19.5 12.5t24.5 22.5t19 35t8.5 48.5q0 85 -120 85q-10 0 -14 -3.5t-6 -14.5q-12 -59 -30 -180z" />
    <glyph glyph-name="C" unicode="C" horiz-adv-x="594" 
d="M294 -12q-122 0 -192 71.5t-70 196.5q0 181 100.5 289t269.5 108q36 0 85 -6t81 -12l31 -6l4 -13q-30 -83 -49 -188l-97 -6q9 47 9 66q0 71 -99 71q-85 0 -132 -73.5t-47 -210.5q0 -95 33.5 -145t97.5 -50q52 0 84 32t54 106l97 7q-29 -103 -42 -185l-10 -12
q-88 -40 -208 -40z" />
    <glyph glyph-name="D" unicode="D" horiz-adv-x="668" 
d="M283 -12q-95 12 -150 12q-23 0 -54.5 -2.5t-51.5 -5.5l-20 -2l15 67q41 7 57.5 24.5t22.5 59.5l47 382q4 32 -1 43t-22 11l-33 -2l-4 9l15 60q85 -3 123 -3l145 5q132 0 209.5 -68.5t77.5 -189.5q0 -172 -107 -286t-269 -114zM320 562q-16 0 -22 -5t-8 -19
q-63 -385 -63 -413q0 -31 15.5 -42t56.5 -11q95 0 150 81.5t55 222.5q0 186 -184 186z" />
    <glyph glyph-name="E" unicode="E" horiz-adv-x="576" 
d="M225 114q0 -24 11 -30.5t46 -6.5q89 0 116.5 19t47.5 95l83 7l6 -10q-29 -89 -50 -185l-11 -10q-179 7 -299 7q-38 0 -80.5 -2.5t-66.5 -5.5l-23 -2l16 67q41 6 57.5 24t21.5 61l48 382q4 33 -0.5 43.5t-23.5 10.5l-30 -2l-5 9l15 59q106 -3 178 -3q206 0 296 12l6 -10
q-28 -88 -44 -181l-90 -6q8 35 8 57q0 30 -22 38.5t-93 8.5q-34 0 -42.5 -5t-12.5 -28l-26 -158q9 0 42 -0.5t48 -0.5l113 8l6 -8l-24 -85q-77 3 -125 3q-23 0 -74 -6q-23 -157 -23 -166z" />
    <glyph glyph-name="F" unicode="F" horiz-adv-x="514" 
d="M246 262l-18 -122q-5 -36 2.5 -50t31.5 -14l63 5l7 -10l-19 -75q-102 4 -150 4q-33 0 -72.5 -3t-62.5 -5l-23 -3l15 66q42 8 58.5 26t21.5 61l48 382q4 33 -0.5 43.5t-23.5 10.5l-30 -2l-5 9l15 59q106 -3 178 -3q189 0 273 12l6 -10q-26 -90 -42 -182l-89 -6q8 36 8 59
q0 29 -19 37.5t-76 8.5q-34 0 -42.5 -5t-12.5 -28l-28 -175l90 -1l102 8l6 -8l-23 -85q-71 3 -115 3q-34 0 -74 -7z" />
    <glyph glyph-name="G" unicode="G" horiz-adv-x="629" 
d="M294 -12q-122 0 -192 71.5t-70 196.5q0 181 100.5 289t269.5 108q36 0 85 -6t81 -12l31 -6l4 -13q-30 -76 -49 -181l-97 -7q9 43 9 62q0 69 -99 69q-85 0 -132 -73.5t-47 -210.5q0 -95 33.5 -145t97.5 -50q25 0 49.5 6.5t35.5 13.5l12 6l11 95q3 29 -4 38.5t-32 9.5h-50
l-4 8l19 70h4q5 0 13 -0.5t18.5 -0.5h23.5t25.5 -0.5t26 -0.5h24.5q18 0 41.5 1t38.5 2t15 2l2 -38q-35 -22 -44 -82q-17 -87 -17 -136l1 -33l-10 -12q-10 -5 -27.5 -11.5t-76 -18t-120.5 -11.5z" />
    <glyph glyph-name="H" unicode="H" horiz-adv-x="720" 
d="M656 529q-19 -108 -40.5 -250.5t-21.5 -170.5q0 -25 7.5 -34.5t25.5 -9.5l36 3q0 -1 1.5 -3t2.5 -4l-16 -63q-67 3 -119 3h-40l-118 -2l16 65q40 1 56.5 19.5t23.5 72.5l16 129q-68 1 -103 1l-136 -10l-14 -110q-9 -59 -7 -73q1 -16 7.5 -22t22.5 -6l35 3l4 -7l-16 -63
q-82 3 -118 3q-28 0 -65 -1.5t-63.5 -4t-26.5 -3.5l15 64q46 10 61 28.5t21 72.5l45 370q4 32 -1.5 42t-26.5 10l-29 -1l-4 8l14 58q76 -2 116 -2l147 8l-13 -66q-37 -6 -48.5 -18.5t-17.5 -53.5l-24 -144q42 0 122 -2q60 0 113 7l20 154q4 30 -2 41t-26 11l-30 -1l-4 8
l15 58q-1 0 26.5 -0.5t61.5 -1t48 -0.5l130 8l-12 -65q-36 -5 -49 -15.5t-18 -39.5z" />
    <glyph glyph-name="I" unicode="I" horiz-adv-x="352" 
d="M288 529q-63 -365 -63 -425q0 -23 7 -31.5t24 -8.5l42 3l3 -7l-16 -63q-100 3 -143 3q-24 0 -58.5 -2t-56.5 -4l-22 -3l15 64q43 9 59.5 26t21.5 58l47 387q4 31 -1.5 41.5t-26.5 10.5l-33 -1l-4 8l14 58q11 0 60 -1t75 -1l139 8l-14 -66q-37 -5 -50.5 -15.5t-18.5 -38.5
z" />
    <glyph glyph-name="J" unicode="J" horiz-adv-x="321" 
d="M89 123l50 403q4 31 -1.5 41.5t-24.5 10.5l-42 -3l-3 8l14 58l120 1q30 0 67 2t59 4l22 2l-14 -67q-32 -6 -42 -15.5t-15 -38.5q-39 -223 -64 -427q-13 -100 -69 -160.5t-165 -94.5l-23 40l4 11q64 41 89.5 86.5t37.5 138.5z" />
    <glyph glyph-name="K" unicode="K" horiz-adv-x="637" 
d="M101 139l47 387q4 32 -1.5 42t-26.5 10l-29 -1l-4 8l15 59q103 -3 130 -3l135 8l-13 -66q-37 -7 -51 -19t-18 -39l-58 -393q-5 -40 0.5 -54t28.5 -14l38 3l4 -7l-17 -63q-97 3 -139 3l-136 -3l17 63q43 7 58 22t20 57zM269 316l5 21l157 158q35 35 35 57q0 24 -46 27
l-3 7l15 61q81 -6 121 -6l114 5l5 -11l-14 -56q-34 -13 -61 -34.5t-71 -68.5l-122 -129l102 -202q23 -46 45 -66t53 -22l6 -8l-14 -52q-98 -12 -115 -12q-57 0 -97 84z" />
    <glyph glyph-name="L" unicode="L" horiz-adv-x="513" 
d="M178 0q-38 0 -80 -2.5t-65 -5.5l-23 -2l16 67q38 6 53.5 24t20.5 61l48 384q4 31 -2 41.5t-27 10.5l-29 -1l-4 8l15 58q10 0 58.5 -1t72.5 -1l151 8l-15 -69q-47 -6 -61.5 -18.5t-22.5 -56.5q-15 -80 -36 -220.5t-21 -166.5q0 -24 11 -32.5t42 -8.5q68 0 94 27.5
t48 123.5l84 8l6 -9q-29 -108 -54 -225l-11 -10q-155 8 -269 8z" />
    <glyph glyph-name="M" unicode="M" horiz-adv-x="811" 
d="M397 -8l-73 -8q-42 232 -89 465h-8q-63 -343 -63 -359q0 -26 27 -26l33 1l5 -5l-19 -64q-83 4 -115 4l-98 -8l15 66q29 4 43.5 19.5t22.5 52.5q85 390 85 413q0 18 -14.5 27t-52.5 12l-5 6l16 58q87 -5 122 -5l107 4q14 -101 31.5 -204.5t28.5 -156.5l11 -54h8
q84 189 172 413q12 0 55.5 -1t64.5 0l98 5l4 -4l-14 -60q-41 -3 -56.5 -14t-18.5 -39q-12 -105 -19 -374q-2 -54 5 -73t30 -19l28 2l3 -5l-16 -64q-58 3 -99 3q-22 0 -80 -3t-63 -5l16 66q29 4 42.5 15.5t16.5 34.5l24 341h-9q-117 -257 -202 -457z" />
    <glyph glyph-name="N" unicode="N" horiz-adv-x="703" 
d="M501 230h10l35 305q4 43 -26 43q-8 0 -20 -0.5t-13 -0.5l-3 8l14 60q82 -4 125 -4l115 6l-13 -66q-32 -5 -48 -19t-20 -44l-78 -533l-106 -13q-52 112 -108 224.5t-86 169.5l-30 57h-9l-40 -315q-3 -25 3 -35t25 -10l41 2l5 -6l-17 -63q-83 4 -125 4q-23 0 -53 -2t-49 -4
l-18 -2l16 66q57 7 65 63l61 397q4 32 -10 44.5t-61 17.5l-6 10l13 56q64 -5 113 -5l93 4q44 -95 95.5 -199t80.5 -160z" />
    <glyph glyph-name="O" unicode="O" horiz-adv-x="650" 
d="M311 73q80 0 127 78.5t47 219.5q0 88 -34.5 138t-94.5 50q-79 0 -125 -79t-46 -219q0 -88 33.5 -138t92.5 -50zM285 -12q-115 0 -184 72t-69 195q0 178 97 288t256 110q118 0 187 -70t69 -193q0 -178 -99 -290t-257 -112z" />
    <glyph glyph-name="P" unicode="P" horiz-adv-x="558" 
d="M86 584l16 59q9 0 53.5 -1t67.5 -1l139 5q113 0 167 -46.5t54 -118.5q0 -99 -78 -176t-177 -77h-87l-15 -103q-5 -35 3 -48t36 -13l42 3l3 -6l-17 -64q-86 3 -122 3q-22 0 -62 -2t-69.5 -3.5t-30.5 -2.5l15 66q41 8 56.5 24.5t20.5 58.5l47 383q4 32 -1 43t-22 11l-34 -2
zM254 315l82 -12q107 24 107 158q0 53 -31.5 77.5t-97.5 24.5q-14 0 -17 -2.5t-5 -14.5q-23 -123 -38 -231z" />
    <glyph glyph-name="Q" unicode="Q" horiz-adv-x="654" 
d="M280 -12q-113 2 -180.5 73.5t-67.5 193.5q0 178 97 288t256 110q118 0 187 -70t69 -193q0 -140 -63 -241t-170 -140v-3q137 -114 243 -114q20 0 40.5 2.5t31.5 5.5l11 2l7 -6l6 -41q-113 -82 -140 -82q-64 0 -124.5 39.5t-202.5 175.5zM311 73q80 0 127 78.5t47 219.5
q0 88 -34.5 138t-94.5 50q-79 0 -125 -79t-46 -219q0 -88 33.5 -138t92.5 -50z" />
    <glyph glyph-name="R" unicode="R" horiz-adv-x="621" 
d="M317 253h-73l-15 -113q-7 -50 3 -63t56 -14l3 -6l-17 -61q-86 3 -129 3l-140 -5l17 66q42 6 58 22.5t21 58.5l48 388q3 29 -2 39t-22 10l-34 -2l-5 8l16 60q83 -3 121 -3l140 5q103 0 161 -39.5t58 -110.5q0 -138 -148 -211l65 -143q22 -46 44.5 -66t52.5 -20l6 -9
l-13 -52l-117 -11q-63 0 -95 93zM257 340l86 -10q98 40 98 143q0 93 -131 93q-10 0 -13.5 -4t-6.5 -18q-14 -75 -33 -204z" />
    <glyph glyph-name="S" unicode="S" horiz-adv-x="521" 
d="M193 -12q-45 0 -89 9.5t-66 18.5l-21 10l-7 14q27 86 38 169l83 7q-10 -81 8.5 -111t79.5 -30q48 0 78.5 23.5t30.5 61.5q0 30 -26 52t-78 50q-31 17 -45 25t-39.5 26.5t-37.5 34t-22.5 39.5t-10.5 51q0 93 77 154t197 61q43 0 86 -6.5t65 -12.5l21 -7l6 -13
q-27 -80 -44 -171l-75 -6l-8 6q7 34 7 52q0 36 -20 51.5t-64 15.5t-72.5 -23t-28.5 -57q0 -42 70 -84q10 -6 48.5 -26t55 -31.5t42 -33t36.5 -46.5t11 -56q0 -97 -78 -157t-208 -60z" />
    <glyph glyph-name="T" unicode="T" horiz-adv-x="549" 
d="M200 165l49 401q-28 -1 -44.5 -2.5t-31.5 -8t-22 -13t-15 -24t-12.5 -34t-11.5 -49.5l-83 -6q23 116 37 213l13 11l94 -11h302l101 11l9 -11l-16 -207l-83 -6q1 93 -13 113.5t-85 23.5q-14 -78 -39.5 -251t-25.5 -199q0 -27 10.5 -39t34.5 -12l53 3l3 -5l-17 -67
q-118 4 -169 4l-163 -6l16 65q64 6 82.5 24t26.5 82z" />
    <glyph glyph-name="U" unicode="U" horiz-adv-x="631" 
d="M256 528l-43 -291q-2 -28 -2 -40q-1 -59 25 -89.5t76 -30.5q116 0 132 132l36 315q3 33 -1.5 43.5t-22.5 10.5l-32 -2l-2 4l16 64q76 -3 112 -3l117 7l-14 -66q-37 -7 -48 -16t-14 -34l-39 -313q-14 -113 -83.5 -172t-188.5 -59q-205 0 -205 177q0 19 3 40l40 319
q4 33 -1 43.5t-25 10.5l-30 -2l-2 4l17 64q82 -3 138 -3l116 7l-15 -67q-31 -4 -43.5 -15.5t-16.5 -37.5z" />
    <glyph glyph-name="V" unicode="V" horiz-adv-x="603" 
d="M104 516q-8 59 -64 62l-3 7l15 59q79 -3 121 -3q32 0 73.5 2.5t67.5 4.5l25 2l3 -8l-12 -60q-49 -4 -64 -13.5t-15 -33.5q0 -29 9.5 -130.5t18.5 -188.5l9 -87h15q172 382 172 422q0 28 -45 28h-38l-4 7l14 61q82 -6 143 -6l113 3l-15 -65q-24 -4 -34.5 -13.5
t-24.5 -38.5l-235 -522l-165 -20q-47 340 -80 531z" />
    <glyph glyph-name="W" unicode="W" horiz-adv-x="930" 
d="M681 5l-159 -20l-38 361h-10l-140 -341l-160 -20q-41 340 -71 531q-6 32 -20 46t-41 16l-4 7l15 59q76 -3 116 -3q35 0 75 2.5t62 4.5l23 2l4 -8l-12 -60q-47 -4 -62.5 -13.5t-15.5 -33.5q0 -32 8.5 -133.5t17.5 -187.5l9 -85h14q15 36 47 114.5t58 141t45 106.5
q2 27 -3 42q-2 25 -16.5 34.5t-48.5 10.5l-4 7l16 59q87 -3 131 -3q32 0 72 2.5t63 4.5l24 2l4 -8l-12 -60q-49 -4 -64 -13.5t-15 -33.5q0 -29 9 -130.5t18 -188.5l9 -87h14q168 392 168 426q0 13 -10 18.5t-34 5.5h-36l-4 7l15 61q79 -6 138 -6l107 3l-14 -65
q-23 -4 -33.5 -14t-23.5 -38z" />
    <glyph glyph-name="X" unicode="X" horiz-adv-x="659" 
d="M148 199l112 131l-83 163q-21 40 -47 58t-67 25l-2 5l15 63q81 -3 153 -3l150 8l3 -9l-12 -57q-61 -3 -61 -32q0 -21 66 -153q9 12 44.5 57t52.5 70t17 36q0 19 -44 22l-1 2v3l12 57q10 0 57 -2t71 -2l109 4l3 -7l-13 -60q-44 -14 -71.5 -35.5t-68.5 -70.5l-122 -150
l92 -172q23 -42 49.5 -61.5t66.5 -22.5l-14 -68q-84 3 -124 3l-175 -8l-4 7l12 59q56 4 56 32q0 13 -11 33l-65 130l-76 -95q-41 -50 -41 -71q0 -24 43 -27l3 -6l-13 -61q-92 7 -126 7l-111 -5l-3 10l12 59q61 22 156 134z" />
    <glyph glyph-name="Y" unicode="Y" horiz-adv-x="578" 
d="M261 551q0 -31 56 -207h8l97 168q19 32 19 50t-46 21l-2 5l15 57q10 0 57 -2t71 -2l100 4l3 -7l-15 -60q-40 -13 -66.5 -39.5t-65.5 -88.5l-114 -179q-3 -5 -6 -10.5t-5.5 -10t-4.5 -11.5t-3.5 -11t-3 -12.5t-2.5 -13t-2.5 -15.5t-2 -16t-2.5 -19.5t-3 -20.5
q-5 -37 2.5 -51.5t34.5 -14.5l48 3l3 -5l-17 -67q-111 4 -159 4q-25 0 -63.5 -3t-64.5 -5l-26 -3l15 67q57 8 75.5 26t23.5 69l4 31q6 50 -15 103l-71 190q-18 50 -36.5 71t-59.5 30l-3 5l16 63q86 -3 124 -3l156 8l4 -9l-13 -57q-35 -2 -47.5 -9t-12.5 -23z" />
    <glyph glyph-name="Z" unicode="Z" horiz-adv-x="560" 
d="M487 16l-19 -19l-380 6l-75 -8l-18 44l403 531l-123 -8q-61 -4 -86 -30t-39 -97l-84 -6q29 123 42 215l12 10l171 -11l283 -4l12 -40q-184 -218 -412 -528l151 11q48 4 78.5 40t51.5 115l84 7q-37 -131 -52 -228z" />
    <glyph glyph-name="bracketleft" unicode="[" horiz-adv-x="307" 
d="M243 -132l-209 11q45 276 57 376l36 379l214 11l3 -8l-14 -57l-101 -20l-75 -607l100 -21l3 -9z" />
    <glyph glyph-name="backslash" unicode="\" horiz-adv-x="317" 
d="M63 660l14 15h81l55 -449q8 -68 20 -149t20 -129l8 -47l-10 -11h-86q-20 160 -41 325z" />
    <glyph glyph-name="bracketright" unicode="]" horiz-adv-x="307" 
d="M71 645l209 -11q-44 -276 -57 -376l-36 -379l-215 -11l-3 8l15 56l101 21l74 607l-99 20l-3 9z" />
    <glyph glyph-name="asciicircum" unicode="^" horiz-adv-x="470" 
d="M308 482l12 -8q35 -121 56 -192l52 -164l-69 -42l-16 5q-27 87 -50 163l-40 137h-7l-62 -124q-19 -34 -41.5 -79t-35.5 -73l-13 -28l-74 20l-6 13q49 93 94 177l102 191z" />
    <glyph glyph-name="underscore" unicode="_" horiz-adv-x="437" 
d="M400 -87l6 -14l-21 -77q-81 0 -238.5 -1t-197.5 -1l-7 14l21 76q15 0 100.5 -0.5t132.5 -0.5q42 0 124 2z" />
    <glyph glyph-name="grave" unicode="`" 
d="M75 651l-2 14l55 70l13 1q85 -90 168 -170l-30 -39l-16 -4q-41 31 -88 63t-73 48z" />
    <glyph glyph-name="a" unicode="a" horiz-adv-x="493" 
d="M384 109l4 -4q9 0 66 50l17 -2l16 -35q-70 -74 -107.5 -102t-66.5 -28q-43 0 -43 38q0 31 34 167l-8 1q-85 -153 -161 -206q-54 0 -84 38.5t-30 107.5q0 79 35.5 156.5t92 126.5t113.5 49l87 -18l7 22l11 7l81 -14l8 -17q-48 -179 -72 -337zM167 105q22 0 68 76.5
t84 176.5q-48 29 -88 29q-32 0 -59 -62t-27 -135q0 -36 6.5 -60.5t15.5 -24.5z" />
    <glyph glyph-name="b" unicode="b" horiz-adv-x="488" 
d="M37 54q89 543 89 579t-38 36h-34l8 59q34 0 82 2t80 4l31 3l12 -16q-56 -254 -91 -471l6 -1q45 89 80 139t73 80q60 0 95 -43.5t35 -117.5q0 -125 -75.5 -221t-173.5 -96q-44 0 -86 10t-62 20l-19 11zM312 358q-20 0 -61 -74t-83 -183q68 -24 86 -24q35 0 61.5 55.5
t26.5 129.5q0 39 -8.5 67.5t-21.5 28.5z" />
    <glyph glyph-name="c" unicode="c" horiz-adv-x="368" 
d="M241 385q-38 0 -67.5 -57.5t-29.5 -133.5q0 -51 16 -79.5t43 -28.5q26 0 51 22t42 59l17 -2l33 -41q-26 -58 -79 -97t-105 -39q-64 0 -101 46.5t-37 125.5q0 124 76 218.5t176 94.5q61 0 97 -22l4 -15l-42 -96l-28 -2q-28 47 -66 47z" />
    <glyph glyph-name="d" unicode="d" horiz-adv-x="495" 
d="M384 109l4 -4q7 0 66 50l17 -2l16 -35q-72 -75 -109 -102.5t-65 -27.5q-43 0 -43 38q0 24 34 167l-8 1q-83 -150 -161 -206q-54 0 -84 38.5t-30 107.5q0 79 35.5 156.5t92 126.5t113.5 49l70 -16l24 176q3 23 -5.5 33t-31.5 10h-35l9 59q33 0 81.5 2t79.5 4l32 3l12 -16
q-82 -406 -114 -612zM167 105q22 0 67.5 75.5t83.5 177.5q-49 29 -87 29q-32 0 -59 -62t-27 -135q0 -36 6.5 -60.5t15.5 -24.5z" />
    <glyph glyph-name="e" unicode="e" horiz-adv-x="393" 
d="M385 379q0 -66 -55.5 -110t-187.5 -86q0 -45 16.5 -71.5t46.5 -26.5q57 0 101 79l17 -2l33 -40q-27 -58 -82 -96t-111 -38q-64 0 -101.5 47.5t-37.5 127.5q0 121 77.5 215.5t176.5 94.5q50 0 78.5 -25t28.5 -69zM243 385q-33 0 -60.5 -39.5t-37.5 -101.5q131 43 131 106
q0 35 -33 35z" />
    <glyph glyph-name="f" unicode="f" horiz-adv-x="290" 
d="M24 393l-3 5l5 46l84 13l7 64q10 89 85.5 155t164.5 66q63 0 106 -15l4 -11l-45 -96l-19 -3q-55 38 -94 38q-36 0 -55.5 -23.5t-26.5 -75.5l-12 -101h136l5 -5l-10 -56l-129 1l-9 -6l-47 -431q-9 -81 -67.5 -140.5t-129.5 -59.5q-39 0 -71 15.5t-40 38.5q7 22 23 55.5
t29 51.5h16q3 -81 71 -81q28 0 47.5 21.5t21.5 58.5q2 25 4 66.5t2 48.5l27 351l-9 7z" />
    <glyph glyph-name="g" unicode="g" horiz-adv-x="471" 
d="M188 114q19 0 58.5 69t83.5 176q-53 28 -88 28q-31 0 -56.5 -58.5t-25.5 -126.5q0 -37 8 -62.5t20 -25.5zM160 0q-11 -8 -30.5 -21l-33 -22t-27.5 -19t-21 -17t-7 -11q0 -23 32 -42t71 -19q58 0 96.5 38t47.5 107l23 191l-9 3q-54 -91 -82.5 -128.5t-59.5 -59.5zM393 17
q-10 -85 -108.5 -171.5t-184.5 -86.5q-77 -1 -129.5 39.5t-47.5 96.5l3 8q34 25 172 101l1 8q-62 32 -62 135q0 75 35 149.5t90 122t110 47.5l88 -18l8 23l12 6l80 -13l11 -18q-51 -103 -60 -187q-3 -25 -9 -120.5t-9 -121.5z" />
    <glyph glyph-name="h" unicode="h" horiz-adv-x="506" 
d="M387 110l3 -3q9 0 66 50l18 -3l16 -35q-67 -71 -106 -100.5t-68 -29.5q-48 0 -48 44q0 26 34.5 138.5t34.5 139.5q0 35 -26 35q-25 0 -66.5 -68t-84.5 -177l-9 -72q-2 -13 -36 -25t-68 -12l-13 16q89 561 95 620q1 22 -7 31.5t-30 9.5h-35l9 59q33 0 81.5 2t80.5 4l31 3
l12 -16q-58 -254 -91 -471l6 -1q86 179 162 225q50 0 81.5 -28.5t31.5 -73.5q0 -31 -34.5 -135.5t-39.5 -126.5z" />
    <glyph glyph-name="i" unicode="i" horiz-adv-x="283" 
d="M180 570q-28 0 -43.5 17t-15.5 44q0 39 25 64.5t64 25.5q27 0 42 -16t15 -43q0 -40 -24.5 -66t-62.5 -26zM169 109l4 -4q9 0 66 50l17 -2l17 -35q-120 -130 -174 -130q-47 0 -47 50q48 286 48 318q0 20 -9 29t-29 9h-35l10 59q33 0 80.5 2.5t78.5 4.5l32 2l12 -16
q-47 -168 -71 -337z" />
    <glyph glyph-name="j" unicode="j" horiz-adv-x="271" 
d="M164 18q-23 -178 -200 -262l-27 30l3 12q57 42 82 91.5t37 146.5q50 288 50 320q0 38 -39 38h-35l10 59q33 0 80.5 2.5t78.5 4.5l31 2l13 -16q-52 -206 -84 -428zM187 570q-28 0 -43.5 16.5t-15.5 44.5q0 40 25 65t64 25q28 0 43 -15.5t15 -43.5q0 -40 -25 -66t-63 -26z
" />
    <glyph glyph-name="k" unicode="k" horiz-adv-x="460" 
d="M309 -12l-81 200l7 17q107 53 107 111q0 30 -26 30q-25 0 -68.5 -68.5t-87.5 -177.5l-9 -71q-2 -13 -36 -25t-68 -12l-13 16q96 588 96 625q0 36 -38 36h-35l9 59q33 0 81.5 2t80.5 4l31 3l12 -16q-58 -254 -91 -471l6 -1q85 179 162 225q52 0 83.5 -28t31.5 -73
q0 -95 -133 -182q20 -36 45.5 -77.5t40.5 -65.5l16 -23l-1 -17l-109 -27z" />
    <glyph glyph-name="l" unicode="l" horiz-adv-x="270" 
d="M157 109l3 -4q9 0 66 50l18 -2l16 -35q-65 -71 -105 -100.5t-69 -29.5q-47 0 -47 47q0 12 45.5 296t45.5 302q0 36 -38 36h-35l9 59q34 0 82 2t80 4l31 3l12 -16q-86 -406 -114 -612z" />
    <glyph glyph-name="m" unicode="m" horiz-adv-x="764" 
d="M645 110l3 -3q8 0 66 50l18 -3l16 -35q-68 -71 -107.5 -100.5t-67.5 -29.5q-48 0 -48 44q0 25 36 138t36 140q0 35 -26 35q-25 0 -71 -73t-93 -187l-9 -57q-1 -13 -35 -25t-68 -12l-13 16q65 268 65 306q0 32 -26 32q-24 0 -65 -68t-83 -177l-9 -72q-2 -13 -36 -25
t-68 -12l-13 16q49 300 54 345q1 22 -7.5 31.5t-30.5 9.5h-35l10 59q33 0 80.5 2.5t79.5 4.5l31 2l11 -16q-32 -100 -47 -196l5 -1q85 180 160 225q49 0 79.5 -27.5t30.5 -71.5q0 -13 -7 -44.5t-14 -56.5l-7 -24l5 -1q84 177 164 225q50 0 80 -27.5t30 -72.5
q0 -32 -35 -138.5t-39 -125.5z" />
    <glyph glyph-name="n" unicode="n" horiz-adv-x="519" 
d="M400 110l3 -3q9 0 66 50l18 -3l16 -35q-66 -71 -105.5 -100.5t-68.5 -29.5q-48 0 -48 44q0 26 34.5 138.5t34.5 139.5q0 35 -26 35q-25 0 -66.5 -68t-84.5 -178l-9 -71q-2 -13 -36 -25t-68 -12l-13 16q49 300 54 345q1 22 -7.5 31.5t-30.5 9.5h-35l10 59q33 0 80.5 2.5
t79.5 4.5l31 2l11 -16q-32 -100 -47 -196l6 -1q86 179 162 225q50 0 80.5 -28t30.5 -73q0 -32 -34 -137t-38 -126z" />
    <glyph glyph-name="o" unicode="o" horiz-adv-x="444" 
d="M210 68q39 0 61.5 51.5t22.5 143.5q0 122 -61 122q-37 0 -60 -52t-23 -134q0 -61 16 -96t44 -35zM171 -12q-67 0 -105.5 47.5t-38.5 131.5q0 130 71 218.5t176 88.5q70 0 108 -44t38 -125q0 -135 -71 -226t-178 -91z" />
    <glyph glyph-name="p" unicode="p" horiz-adv-x="501" 
d="M-41 -236l11 58q25 3 36.5 16t20.5 50q13 54 42.5 246.5t29.5 222.5q0 37 -38 37h-35l10 59q33 0 80.5 2.5t79.5 4.5l31 2l12 -15q-30 -91 -48 -190l6 -1q81 160 152 218q60 0 95 -43t35 -115q0 -76 -35 -151.5t-89.5 -122t-107.5 -46.5l-96 16l-19 -131q-4 -29 5 -39
t37 -10h44l1 -6l-11 -55q-54 0 -116 -1.5t-98 -3.5zM326 365q-19 0 -61 -72.5t-82 -181.5q62 -28 96 -28q29 0 53 61t24 127q0 38 -9 66t-21 28z" />
    <glyph glyph-name="q" unicode="q" horiz-adv-x="473" 
d="M247 -111l29 160l28 144l-8 1q-86 -154 -153 -206q-55 0 -88 41.5t-33 112.5q0 118 76.5 221t163.5 103l85 -18l18 50l13 7l80 -13l7 -17q-15 -27 -64.5 -280t-49.5 -327q0 -19 6 -27t21 -8h34l2 -5l-10 -56q-65 0 -127 -3t-91 -6l-29 -3l11 59q43 4 57 16.5t22 53.5z
M172 105q20 0 61 71.5t85 181.5q-47 29 -87 29q-32 0 -59 -60.5t-27 -130.5q0 -38 8 -64.5t19 -26.5z" />
    <glyph glyph-name="r" unicode="r" horiz-adv-x="380" 
d="M47 8q54 310 54 347q0 21 -8.5 30t-29.5 9h-35l10 59q33 0 80.5 2.5t79.5 4.5l31 2l11 -16q-27 -89 -41 -170h5q32 79 78 137.5t75 58.5q44 -34 44 -98q0 -22 -10 -53l-14 -6q-15 12 -40 12q-40 0 -82.5 -53.5t-79.5 -152.5l-11 -92q-2 -13 -36 -25t-68 -12z" />
    <glyph glyph-name="s" unicode="s" horiz-adv-x="369" 
d="M48 158l20 -1q1 -40 25.5 -64t63.5 -24q25 0 40.5 12.5t15.5 32.5q0 13 -10.5 26.5t-20.5 21.5t-33 23q-31 21 -46.5 33.5t-32 38.5t-16.5 56q0 67 55 114t134 47q82 0 126 -41q-20 -52 -48 -102h-20q-23 59 -74 59q-19 0 -32.5 -12t-13.5 -30q0 -23 30 -46q9 -7 38 -27
t44 -33t30 -37.5t15 -52.5q0 -68 -59 -116t-141 -48q-53 0 -91 16.5t-47 43.5q13 63 48 110z" />
    <glyph glyph-name="t" unicode="t" horiz-adv-x="307" 
d="M266 161l17 -3l16 -36q-47 -60 -89 -97t-65 -37q-49 0 -74 26.5t-20 73.5l50 297l-7 6l-62 2l-3 5l6 46l76 12l15 116l128 35l10 -12q-20 -67 -36 -140h109l5 -5l-9 -56l-107 1l-12 -7l-48 -252q-4 -33 20 -33q22 0 80 58z" />
    <glyph glyph-name="u" unicode="u" horiz-adv-x="508" 
d="M320 201l-9 1q-75 -158 -150 -213q-55 0 -86.5 25.5t-31.5 69.5q0 29 33 141.5t33 134.5q0 34 -38 34h-34l10 59q33 0 80.5 2.5t78.5 4.5l32 2l12 -16q-86 -260 -86 -307q0 -29 23 -29t67 71t91 184l14 92l15 8l82 -6l13 -15q-47 -177 -71 -335l4 -4q6 0 14.5 6.5
t51.5 43.5l17 -2l16 -35q-73 -76 -109 -103t-65 -27q-43 0 -43 38q0 23 36 175z" />
    <glyph glyph-name="v" unicode="v" horiz-adv-x="450" 
d="M246 -6l-113 -5l-17 15q-8 185 -38 353q-4 20 -11 27.5t-23 7.5l-42 -3l4 58l177 20l11 -9q18 -169 17 -358h13q100 177 100 243q0 29 -17 49t-33 25l7 32l133 25q31 -28 31 -87q0 -109 -199 -393z" />
    <glyph glyph-name="w" unicode="w" horiz-adv-x="682" 
d="M211 100h13q72 136 94 203l-20 132l9 14l102 25q31 -28 31 -85q0 -27 -15 -70l20 -219h13q98 179 98 244q0 28 -17 48t-33 25l7 32l133 25q31 -29 31 -89q0 -104 -197 -391l-99 -5l-16 15l-17 168h-9q-45 -92 -98 -178l-108 -5l-17 15q-8 188 -38 353q-4 20 -11 27.5
t-23 7.5l-42 -3l4 58l177 20l11 -9q18 -171 17 -358z" />
    <glyph glyph-name="x" unicode="x" horiz-adv-x="481" 
d="M424 474q45 0 77 -35q-26 -63 -50 -112h-20q-13 55 -42 55q-21 0 -42 -28.5t-51 -98.5q27 -100 40 -133t28 -33t70 48l11 -1l19 -40q-59 -61 -95 -84.5t-68 -23.5q-29 0 -48 32t-46 126q-38 -84 -74.5 -121t-79.5 -37q-53 0 -75 37q18 59 50 116h20q3 -65 37 -65
q41 0 98 137q-29 101 -41.5 130.5t-26.5 29.5q-15 0 -64 -48h-12l-18 40q101 109 162 109q28 0 46 -30.5t44 -120.5q37 79 73 115t78 36z" />
    <glyph glyph-name="y" unicode="y" horiz-adv-x="462" 
d="M286 417l7 32l132 25q32 -27 32 -87q0 -105 -189 -376q-96 -136 -164.5 -195t-131.5 -59q-36 0 -65 15t-35 36q7 45 41 109l20 -1q6 -27 26 -44t45 -17q32 0 62 21.5t72 74.5q-22 236 -49 406q-4 20 -12 27.5t-24 7.5l-40 -3l4 58l177 20l11 -9q15 -146 15 -369h12
q104 181 104 254q0 48 -50 74z" />
    <glyph glyph-name="z" unicode="z" horiz-adv-x="425" 
d="M100 292l-56 -5q27 95 40 176l27 11q123 -29 200 -29q32 0 48 19l21 25l55 -35l5 -19q-143 -153 -286 -321l26 5q16 0 58.5 -7.5t60.5 -7.5q26 0 44.5 20t24.5 55l24 -1q13 -32 13 -67q0 -51 -32.5 -87t-78.5 -36q-30 0 -87.5 22.5t-90.5 22.5q-49 0 -106 -34l-19 30
l276 329l-73 1q-41 0 -61.5 -14.5t-32.5 -52.5z" />
    <glyph glyph-name="braceleft" unicode="{" horiz-adv-x="311" 
d="M43 241l11 48q86 25 86 82q0 19 -13 73.5t-13 80.5q0 55 45 92t117 37q15 0 32.5 -2t27.5 -4l11 -3l5 -10l-20 -56q-23 5 -38 5q-30 0 -46 -20.5t-16 -53.5q0 -16 4.5 -60.5t4.5 -62.5q0 -45 -23 -72.5t-60 -37.5l-1 -6q60 -21 60 -84q0 -28 -24 -97.5t-24 -91.5
q0 -24 12.5 -38.5t36.5 -14.5l40 6l6 -10l-17 -54q-32 -15 -81 -15q-54 0 -86.5 29.5t-32.5 74.5q0 35 34.5 103.5t34.5 89.5q0 54 -73 72z" />
    <glyph glyph-name="bar" unicode="|" horiz-adv-x="319" 
d="M267 807l15 -11q-48 -339 -68 -505l-66 -549l-88 -11l-10 11q43 355 66 534l65 520z" />
    <glyph glyph-name="braceright" unicode="}" horiz-adv-x="311" 
d="M277 289l-10 -47q-38 -11 -62 -32t-24 -51q0 -19 12.5 -73t12.5 -80q0 -57 -45 -95.5t-117 -38.5q-15 0 -32.5 2t-27.5 4l-11 3l-5 10l20 55q23 -5 38 -5q30 0 46 21t16 54q0 17 -4.5 62.5t-4.5 64.5q0 85 83 110l1 6q-60 22 -60 85q0 27 24 94t24 89q0 24 -12.5 38.5
t-36.5 14.5l-40 -5l-6 9l17 55q31 15 81 15q53 0 86 -30t33 -75q0 -34 -34 -100.5t-34 -87.5q0 -57 72 -72z" />
    <glyph glyph-name="asciitilde" unicode="~" horiz-adv-x="488" 
d="M64 178h-11l-30 37l1 11l102 101l19 4q25 0 106.5 -19.5t101.5 -19.5q12 0 32 14t35 28l14 15h10l30 -38l-1 -10l-101 -102l-19 -4q-25 0 -106.5 19.5t-101.5 19.5q-12 0 -32.5 -14t-34.5 -28z" />
    <glyph glyph-name="nbspace" unicode="&#xa0;" horiz-adv-x="166" 
 />
    <glyph glyph-name="exclamdown" unicode="&#xa1;" horiz-adv-x="274" 
d="M184 474q31 0 48 -18t17 -47q0 -41 -25.5 -67t-65.5 -26q-31 0 -48 17.5t-17 47.5q0 40 25.5 66.5t65.5 26.5zM186 227l-32 -430l-14 -17l-136 -22l-14 18l116 453l66 11z" />
    <glyph glyph-name="cent" unicode="&#xa2;" horiz-adv-x="368" 
d="M241 385q-38 0 -67.5 -57.5t-29.5 -133.5q0 -51 16 -79.5t43 -28.5q26 0 51 22t42 59l17 -2l33 -41q-21 -47 -62 -83t-85 -48l-33 -144l-70 -8l-5 7l33 145q-47 13 -73.5 56.5t-26.5 110.5q0 109 61 198t147 109l42 182l72 9l4 -9l-41 -178q40 -6 64 -20l4 -15l-42 -96
l-28 -2q-28 47 -66 47z" />
    <glyph glyph-name="sterling" unicode="&#xa3;" horiz-adv-x="500" 
d="M422 178l23 -2q13 -22 13 -67q0 -52 -31.5 -86.5t-77.5 -34.5q-32 0 -103.5 24.5t-105.5 24.5q-53 0 -112 -36l-11 5l-12 61q95 56 105 136l5 41q1 23 -10 30.5t-48 9.5l-3 6l14 52l60 10l3 21q11 92 86 158.5t165 66.5q72 0 107 -15l4 -11l-44 -96l-19 -3
q-61 38 -101 38q-33 0 -51 -22.5t-26 -72.5l-11 -68l145 3l3 -5l-19 -68q-64 3 -139 3l-9 -60q-12 -73 -58 -111l57 12q19 0 65 -9.5t65 -9.5q27 0 46 19.5t25 55.5z" />
    <glyph glyph-name="currency" unicode="&#xa4;" horiz-adv-x="428" 
d="M79 333q0 50 29 93l-64 71l5 17l77 50l55 -72q36 18 73 18q36 0 67 -18l76 77l17 -4l43 -71l-78 -67q11 -25 11 -59q0 -46 -28 -90l63 -67l-5 -17l-78 -52l-54 70q-34 -20 -73 -20t-71 21l-75 -73l-17 4l-41 71q11 7 77 63q-9 24 -9 55zM151 342q0 -33 20.5 -55.5
t52.5 -22.5q37 0 65.5 28.5t28.5 67.5q0 33 -21 55.5t-52 22.5q-37 0 -65.5 -28.5t-28.5 -67.5z" />
    <glyph glyph-name="yen" unicode="&#xa5;" horiz-adv-x="550" 
d="M248 426q0 -6 11 -43l6 -23l33 -81l76 129q11 18 11 27q0 15 -35 15l-2 8l10 47q11 0 52 -1.5t62 -1.5l85 3l4 -6l-13 -55q-34 -11 -51.5 -25.5t-39.5 -47.5l-28 -40l91 2l6 -9l-12 -57h-130l-30 -45q-6 -8 -12 -27q78 1 160 4l6 -10l-12 -57h-174q-5 -15 -5 -45
q0 -28 35 -28l40 2l2 -6l-14 -58q-98 3 -140 3l-136 -9l13 60q46 6 60.5 21t21.5 60q-40 0 -97.5 -0.5t-66.5 -0.5l-7 8l15 56h156q-7 27 -11 37l-14 35q-31 0 -73 -0.5t-48 -0.5l-7 7l15 56h83q-40 97 -99 115q2 8 4 24l10 37q63 -3 101 -3q12 0 75 3t68 4l3 -10l-11 -51
q-28 -2 -37.5 -7t-9.5 -15z" />
    <glyph glyph-name="brokenbar" unicode="&#xa6;" horiz-adv-x="319" 
d="M224 375l-89 -12l-8 7l54 426l86 11l15 -11q-35 -246 -58 -421zM101 158l88 15l9 -10l-51 -421l-88 -11l-10 11q5 35 23 183t29 233z" />
    <glyph glyph-name="section" unicode="&#xa7;" horiz-adv-x="480" 
d="M355 54q-6 -59 -67 -106.5t-139 -47.5q-51 0 -87.5 21.5t-36.5 52.5q0 23 12 56t29 53l20 -1q2 -44 27 -72.5t62 -28.5q24 0 40.5 15.5t16.5 39.5t-20 46.5t-49 42.5t-58 42.5t-49 55t-20 70.5q0 90 112 157q-8 21 -8 41q0 66 57 114.5t134 48.5q45 0 79.5 -14.5
t34.5 -33.5t-16 -57t-27 -48h-19q-7 30 -27.5 49t-44.5 19q-19 0 -33 -14.5t-14 -35.5q0 -23 20 -46t49 -44t57.5 -44.5t48.5 -55.5t20 -68q0 -45 -30 -86.5t-79 -71.5q8 -23 5 -49zM145 342q0 -26 19.5 -52t45 -44t58.5 -44t52 -48q26 28 26 61t-28.5 63.5t-75.5 66
t-68 61.5q-29 -26 -29 -64z" />
    <glyph glyph-name="dieresis" unicode="&#xa8;" 
d="M316 563q-26 0 -39.5 14t-13.5 38q0 32 21.5 54t54.5 22q25 0 38.5 -14t13.5 -38q0 -33 -21 -54.5t-54 -21.5zM142 563q-25 0 -38.5 14t-13.5 38q0 32 21.5 54t54.5 22q25 0 38 -14t13 -38q0 -33 -21 -54.5t-54 -21.5z" />
    <glyph glyph-name="copyright" unicode="&#xa9;" horiz-adv-x="671" 
d="M47 261q0 136 100.5 236.5t233.5 100.5q111 0 185 -79t74 -194q0 -136 -101 -236.5t-233 -100.5q-111 0 -185 79t-74 194zM98 266q0 -97 61 -163t153 -66q110 0 194 84t84 199q0 97 -61.5 163t-153.5 66q-110 0 -193.5 -84t-83.5 -199zM337 129q-66 0 -103 36t-37 100
q0 93 52 146t143 53q20 0 46.5 -3t43.5 -6l17 -3l3 -8q-15 -43 -26 -98l-58 -4q5 26 5 35q0 33 -49 33q-85 0 -85 -134q0 -95 62 -95q26 0 42 15t26 52l57 4q-14 -54 -20 -97l-6 -7q-48 -19 -113 -19z" />
    <glyph glyph-name="ordfeminine" unicode="&#xaa;" horiz-adv-x="356" 
d="M280 423l2 -2q5 0 40 30l13 -1l12 -27q-51 -54 -77 -73t-49 -19q-31 0 -31 29q0 15 20 95l-6 1q-52 -92 -98 -125q-41 0 -64 26.5t-23 72.5q0 78 52 145.5t111 67.5l54 -11l4 14l10 5l68 -8l5 -13q-29 -112 -43 -207zM130 418q13 0 40 46t47 103q-28 18 -55 18
q-16 0 -30 -37t-14 -79q0 -51 12 -51z" />
    <glyph glyph-name="guillemotleft" unicode="&#xab;" horiz-adv-x="436" 
d="M396 411l39 -25l2 -16q-7 -11 -52 -72.5t-50 -68.5q3 -9 33.5 -72.5t33.5 -71.5l-6 -16l-44 -25q-12 18 -46.5 60.5t-62.5 76.5l-28 34l2 21q143 135 179 175zM216 411l39 -25l2 -16q-7 -11 -52 -72.5t-50 -68.5q3 -9 33.5 -72.5t33.5 -71.5l-6 -16l-44 -25
q-12 18 -46 60.5t-62 76.5l-29 34l2 21q143 135 179 175z" />
    <glyph glyph-name="logicalnot" unicode="&#xac;" horiz-adv-x="488" 
d="M449 327l5 -13q-19 -70 -28 -143l-16 -136l-93 -14l-9 7q13 102 25 194h-91l-219 -1l-7 10l26 91q139 -1 225 -1z" />
    <glyph glyph-name="registered" unicode="&#xae;" horiz-adv-x="451" 
d="M62 485q0 92 67 159t156 67q74 0 123.5 -53t49.5 -129q0 -92 -67 -159t-156 -67q-74 0 -123.5 53t-49.5 129zM99 489q0 -62 40 -105t100 -43q72 0 127 55t55 129q0 62 -40 105t-100 43q-72 0 -127 -55t-55 -129zM155 412l5 24q13 2 18.5 9t7.5 24l13 107q2 18 -7 18h-11
l-2 3l5 21q3 0 19 -0.5t23 -0.5h10q22 2 35 2q77 0 77 -49q0 -44 -48 -68l18 -38q13 -28 30 -30l3 -3q-2 -14 -7.5 -17.5t-33.5 -4.5q-15 0 -23 6t-14 24l-16 51h-20q-6 -30 -6 -38q0 -9 4.5 -11.5t16.5 -2.5q1 -1 1 -3l-5 -22q-25 2 -38 2h-11zM251 580l-10 -58q3 0 12 -1
t13 -1q29 9 29 41q0 27 -38 27q-5 0 -6 -8z" />
    <glyph glyph-name="macron" unicode="&#xaf;" 
d="M388 672l6 -14l-22 -76l-136 -1l-134 -1l-9 11l23 76q92 -1 149 -1z" />
    <glyph glyph-name="degree" unicode="&#xb0;" horiz-adv-x="291" 
d="M55 510q0 59 43 101.5t100 42.5q48 0 79.5 -34t31.5 -83q0 -59 -43 -101.5t-100 -42.5q-48 0 -79.5 34t-31.5 83zM113 515q0 -27 17.5 -45.5t44.5 -18.5q32 0 54 23.5t22 57.5q0 27 -18 45.5t-45 18.5q-31 0 -53 -23.5t-22 -57.5z" />
    <glyph glyph-name="plusminus" unicode="&#xb1;" horiz-adv-x="488" 
d="M318 509l12 -7q-18 -101 -28 -178l176 6l5 -13l-22 -92q-29 0 -86 -0.5t-85 -0.5l-19 -163l-91 -14l-10 7q12 89 22 170l-169 -1l-6 11l25 91q85 -1 163 -1l22 174zM427 -5l6 -15l-20 -77q-79 0 -231 -1t-190 -1l-6 14l19 76h223q81 0 119 1q80 2 80 3z" />
    <glyph glyph-name="two.sups" unicode="&#xb2;" horiz-adv-x="342" 
d="M7 334l-1 48l90 87q90 95 90 140q0 32 -36 32q-45 0 -88 -54h-11l-6 63q30 35 69 56.5t75 21.5q48 0 78 -23t30 -61q0 -42 -33.5 -92t-121.5 -136l3 -6h52q27 0 40 12.5t23 46.5l62 5q-24 -77 -34 -132l-11 -9q-152 6 -215 6z" />
    <glyph glyph-name="three.sups" unicode="&#xb3;" horiz-adv-x="302" 
d="M10 407l13 12q25 -11 56 -11q36 0 59 15.5t23 39.5q0 40 -78 40l-7 8v48l43 9q50 22 50 60q0 13 -8 20.5t-22 7.5q-32 0 -72 -28h-9l-10 55q26 16 64 30.5t66 14.5q43 0 68.5 -19t25.5 -51q0 -31 -22.5 -57t-59.5 -39l-1 -7q80 -26 80 -84q0 -52 -67 -96t-144 -44
q-30 0 -40 17t-8 59z" />
    <glyph glyph-name="acute" unicode="&#xb4;" 
d="M356 666l-1 -14q-96 -60 -189 -129l-15 4l-30 39q37 36 79 78.5t66 67.5l23 25l13 -1z" />
    <glyph glyph-name="mu" unicode="&#xb5;" horiz-adv-x="515" 
d="M83 450l135 24l7 -17q-16 -29 -39 -151.5t-23 -148.5q0 -63 52 -63q11 0 25 5.5t24 11.5t20 13l11 7l24 204q3 21 3.5 45t-0.5 38l-1 14l10 17l140 23l8 -17q-13 -22 -40 -159.5t-27 -169.5q0 -34 29 -34q10 0 21.5 4t17.5 8l7 5l13 -21q-7 -10 -19.5 -25t-43 -42.5
t-52.5 -32.5q-44 0 -67.5 19t-22.5 56l-8 4q-71 -71 -107 -78q-29 0 -48 17l-5 -3l-13 -94q-4 -23 -6 -53.5t-2 -49.5v-19l-8 -9l-111 -20l-9 13q29 141 53 302l39 254q3 24 4 50.5t0 40.5v15z" />
    <glyph glyph-name="mu" unicode="&#x3bc;" horiz-adv-x="515" 
d="M83 450l135 24l7 -17q-16 -29 -39 -151.5t-23 -148.5q0 -63 52 -63q11 0 25 5.5t24 11.5t20 13l11 7l24 204q3 21 3.5 45t-0.5 38l-1 14l10 17l140 23l8 -17q-13 -22 -40 -159.5t-27 -169.5q0 -34 29 -34q10 0 21.5 4t17.5 8l7 5l13 -21q-7 -10 -19.5 -25t-43 -42.5
t-52.5 -32.5q-44 0 -67.5 19t-22.5 56l-8 4q-71 -71 -107 -78q-29 0 -48 17l-5 -3l-13 -94q-4 -23 -6 -53.5t-2 -49.5v-19l-8 -9l-111 -20l-9 13q29 141 53 302l39 254q3 24 4 50.5t0 40.5v15z" />
    <glyph glyph-name="paragraph" unicode="&#xb6;" horiz-adv-x="548" 
d="M304 121l55 441q1 10 -3 12.5t-22 2.5q-46 0 -71 -53t-25 -139q0 -87 41 -156l-3 -24q-104 4 -167.5 57t-63.5 146q0 101 71 169.5t177 68.5q26 0 75.5 -2t65.5 -2l140 3l-13 -62l-3 -4q-35 -3 -47 -11.5t-17 -34.5q-18 -67 -57 -362q-15 -121 -84 -196t-177 -75
q-51 0 -87.5 25t-36.5 64q0 24 16.5 58t38.5 58h16q-4 -61 17 -95t61 -34q50 0 72 32t31 113z" />
    <glyph glyph-name="periodcentered" unicode="&#xb7;" horiz-adv-x="230" 
d="M103 161q-32 0 -48 17.5t-16 47.5q0 40 25 66.5t65 26.5q31 0 48 -17.5t17 -47.5q0 -41 -25.5 -67t-65.5 -26z" />
    <glyph glyph-name="cedilla" unicode="&#xb8;" horiz-adv-x="387" 
d="M97 -86l45 115h52l-29 -73q84 -51 84 -92q0 -40 -45 -71t-99 -31q-26 0 -49 12t-23 30q0 17 46 66h8q-2 -27 9.5 -41.5t33.5 -14.5q18 0 30 9t12 23q0 24 -75 68z" />
    <glyph glyph-name="one.sups" unicode="&#xb9;" horiz-adv-x="257" 
d="M205 656q-8 -32 -21.5 -124.5t-13.5 -113.5q0 -30 22 -30l30 1l2 -3l-15 -49q-61 2 -95 2l-111 -7l11 47q58 4 63 47l24 197q3 23 -2.5 30t-23.5 7l-32 -2l-4 4l9 43q31 3 82 10l101 13l6 -23q-22 -18 -32 -49z" />
    <glyph glyph-name="ordmasculine" unicode="&#xba;" horiz-adv-x="325" 
d="M155 391q47 0 47 118q0 75 -34 75q-21 0 -34 -32t-13 -83q0 -78 34 -78zM130 331q-50 0 -78 32t-28 90q0 86 48 141.5t122 55.5q51 0 78.5 -30t27.5 -86q0 -89 -47.5 -146t-122.5 -57z" />
    <glyph glyph-name="guillemotright" unicode="&#xbb;" horiz-adv-x="436" 
d="M265 44l-39 25l-1 16q5 8 29.5 41t46 63t24.5 37q-2 6 -16 36t-30.5 65.5t-19.5 41.5l6 16l44 26q12 -18 46.5 -61t62.5 -77l29 -34l-3 -20q-142 -135 -179 -175zM85 44l-39 25l-1 16q5 8 29.5 41t46 63t24.5 37q-2 6 -16 36t-30.5 65.5t-19.5 41.5l6 16l44 26
q12 -18 46.5 -61t62.5 -77l29 -34l-3 -20q-142 -135 -179 -175z" />
    <glyph glyph-name="onequarter" unicode="&#xbc;" horiz-adv-x="762" 
d="M598 653l7 -19q-176 -267 -266 -407l-202 -320l-65 27l-5 14q121 180 207 316l262 414zM205 577q-8 -31 -21.5 -124t-13.5 -113q0 -31 22 -31l30 2l2 -4l-15 -49q-61 3 -95 3l-111 -7l11 46q30 2 45 13t18 34l24 197q3 23 -2.5 30t-23.5 7l-32 -2l-4 5l9 42q31 3 82 10
l101 13l6 -23q-21 -16 -32 -49zM426 96l8 53l193 238l5 2l71 -8l-26 -221h48l5 -8l-14 -62l-47 1l-7 -84l-6 -7l-91 -7l-6 6q10 50 16 95zM589 264l-79 -104h74l12 104h-7z" />
    <glyph glyph-name="onehalf" unicode="&#xbd;" horiz-adv-x="792" 
d="M598 653l7 -19q-176 -267 -266 -407l-202 -320l-65 27l-5 14q121 180 207 316l262 414zM205 577q-8 -31 -21.5 -124t-13.5 -113q0 -31 22 -31l30 2l2 -4l-15 -49q-61 3 -95 3l-111 -7l11 46q30 2 45 13t18 34l24 197q3 23 -2.5 30t-23.5 7l-32 -2l-4 5l9 42q31 3 82 10
l101 13l6 -23q-21 -16 -32 -49zM447 -6l-1 48l90 87q90 95 90 140q0 32 -36 32q-44 0 -88 -53h-11l-6 62q30 36 69 57.5t75 21.5q48 0 78 -23.5t30 -61.5q0 -42 -33.5 -91t-121.5 -137l3 -5h52q27 0 40 12.5t23 46.5l62 5q-24 -77 -34 -132l-11 -9q-152 6 -215 6z" />
    <glyph glyph-name="threequarters" unicode="&#xbe;" horiz-adv-x="762" 
d="M598 653l7 -19q-176 -267 -266 -407l-202 -320l-65 27l-5 14q121 180 207 316l262 414zM426 96l8 53l193 238l5 2l71 -8l-26 -221h48l5 -8l-14 -62l-47 1l-7 -84l-6 -7l-91 -7l-6 6q10 50 16 95zM589 264l-79 -104h74l12 104h-7zM10 328l13 12q25 -11 56 -11
q35 0 58.5 15.5t23.5 40.5q0 39 -78 39l-7 8v48l43 9q50 22 50 60q0 13 -8 20.5t-22 7.5q-31 0 -72 -27h-9l-10 54q26 16 64 30.5t66 14.5q43 0 68.5 -19t25.5 -51q0 -30 -22.5 -56t-59.5 -40l-1 -7q80 -26 80 -84q0 -52 -67 -95.5t-144 -43.5q-30 0 -40 16.5t-8 58.5z" />
    <glyph glyph-name="questiondown" unicode="&#xbf;" horiz-adv-x="358" 
d="M263 242l8 -126l-5 -14l-111 -63q-60 -34 -60 -81q0 -85 164 -95l6 -14l-46 -84l-16 -7q-101 3 -166.5 48.5t-65.5 112.5q0 34 11 60.5t36 50.5t51.5 43t72.5 48l4.5 3t4 2.5t4.5 2.5l3 7l-3 83l7 11l90 18zM241 474q31 0 48 -18t17 -47q0 -41 -25.5 -67t-65.5 -26
q-31 0 -48 17.5t-17 47.5q0 40 25.5 66.5t65.5 26.5z" />
    <glyph glyph-name="Agrave" unicode="&#xc0;" horiz-adv-x="607" 
d="M522 131q6 -36 20 -50.5t46 -18.5l4 -7l-14 -58q-77 3 -119 3q-37 0 -78 -2t-64 -4l-23 -2l-4 8l12 59q48 4 63.5 12t15.5 30q0 7 -2 29l-9 77q-26 2 -87 2q-47 0 -93 -7l-32 -77q-10 -24 -10 -37q0 -26 39 -26h42l3 -6l-14 -62q-79 6 -140 6l-117 -3l15 66q43 7 71 67
l230 506l157 17l11 -5q46 -345 77 -517zM321 512l-96 -227h67q27 0 71 4l-28 223h-14zM229 762l-5 13l25 77l13 5q115 -57 223 -104l-13 -47l-14 -9q-51 16 -108 32.5t-89 24.5z" />
    <glyph glyph-name="Aacute" unicode="&#xc1;" horiz-adv-x="607" 
d="M522 131q6 -36 20 -50.5t46 -18.5l4 -7l-14 -58q-77 3 -119 3q-37 0 -78 -2t-64 -4l-23 -2l-4 8l12 59q48 4 63.5 12t15.5 30q0 7 -2 29l-9 77q-26 2 -87 2q-47 0 -93 -7l-32 -77q-10 -24 -10 -37q0 -26 39 -26h42l3 -6l-14 -62q-79 6 -140 6l-117 -3l15 66q43 7 71 67
l230 506l157 17l11 -5q46 -345 77 -517zM321 512l-96 -227h67q27 0 71 4l-28 223h-14zM530 775l-5 -13q-115 -29 -229 -65l-13 9l-14 47l223 104l13 -5z" />
    <glyph glyph-name="Acircumflex" unicode="&#xc2;" horiz-adv-x="607" 
d="M522 131q6 -36 20 -50.5t46 -18.5l4 -7l-14 -58q-77 3 -119 3q-37 0 -78 -2t-64 -4l-23 -2l-4 8l12 59q48 4 63.5 12t15.5 30q0 7 -2 29l-9 77q-26 2 -87 2q-47 0 -93 -7l-32 -77q-10 -24 -10 -37q0 -26 39 -26h42l3 -6l-14 -62q-79 6 -140 6l-117 -3l15 66q43 7 71 67
l230 506l157 17l11 -5q46 -345 77 -517zM321 512l-96 -227h67q27 0 71 4l-28 223h-14zM231 711l-19 41l168 124h20q0 1 26 -23t61.5 -56.5t49.5 -44.5l-29 -41l-17 -4q-7 3 -57.5 29t-57.5 29q-8 -3 -63.5 -28.5t-66.5 -29.5z" />
    <glyph glyph-name="Atilde" unicode="&#xc3;" horiz-adv-x="607" 
d="M522 131q6 -36 20 -50.5t46 -18.5l4 -7l-14 -58q-77 3 -119 3q-37 0 -78 -2t-64 -4l-23 -2l-4 8l12 59q48 4 63.5 12t15.5 30q0 7 -2 29l-9 77q-26 2 -87 2q-47 0 -93 -7l-32 -77q-10 -24 -10 -37q0 -26 39 -26h42l3 -6l-14 -62q-79 6 -140 6l-117 -3l15 66q43 7 71 67
l230 506l157 17l11 -5q46 -345 77 -517zM321 512l-96 -227h67q27 0 71 4l-28 223h-14zM244 687h-11l-35 37l1 11l88 96l16 4q17 0 72.5 -17t68.5 -17q10 0 27.5 13t29.5 26l12 13h11l35 -37l-1 -10l-88 -97l-17 -4q-16 0 -71.5 17t-68.5 17q-11 0 -28 -13t-29 -26z" />
    <glyph glyph-name="Adieresis" unicode="&#xc4;" horiz-adv-x="607" 
d="M522 131q6 -36 20 -50.5t46 -18.5l4 -7l-14 -58q-77 3 -119 3q-37 0 -78 -2t-64 -4l-23 -2l-4 8l12 59q48 4 63.5 12t15.5 30q0 7 -2 29l-9 77q-26 2 -87 2q-47 0 -93 -7l-32 -77q-10 -24 -10 -37q0 -26 39 -26h42l3 -6l-14 -62q-79 6 -140 6l-117 -3l15 66q43 7 71 67
l230 506l157 17l11 -5q46 -345 77 -517zM321 512l-96 -227h67q27 0 71 4l-28 223h-14zM452 711q-25 0 -38.5 14t-13.5 38q0 33 21.5 54.5t53.5 21.5q25 0 38.5 -14t13.5 -38q0 -33 -21 -54.5t-54 -21.5zM279 711q-52 0 -52 52q0 33 21 54.5t54 21.5q25 0 38.5 -14t13.5 -38
q0 -33 -21 -54.5t-54 -21.5z" />
    <glyph glyph-name="Aring" unicode="&#xc5;" horiz-adv-x="607" 
d="M522 131q6 -36 20 -50.5t46 -18.5l4 -7l-14 -58q-77 3 -119 3q-37 0 -78 -2t-64 -4l-23 -2l-4 8l12 59q48 4 63.5 12t15.5 30q0 7 -2 29l-9 77q-26 2 -87 2q-47 0 -93 -7l-32 -77q-10 -24 -10 -37q0 -26 39 -26h42l3 -6l-14 -62q-79 6 -140 6l-117 -3l15 66q43 7 71 67
l230 506l157 17l11 -5q46 -345 77 -517zM321 512l-96 -227h67q27 0 71 4l-28 223h-14zM375 731q44 0 44 42q0 36 -40 36q-20 0 -31 -11.5t-11 -29.5t12 -27.5t26 -9.5zM362 678q-37 0 -56.5 21.5t-19.5 56.5q0 46 30.5 77t76.5 31q39 0 58 -21.5t19 -53.5q0 -44 -30 -77.5
t-78 -33.5z" />
    <glyph glyph-name="AE" unicode="&#xc6;" horiz-adv-x="844" 
d="M288 60q85 7 86 63q2 20 2 34v92l-85 -10l-83 -16l-53 -98q-15 -29 -15 -41q0 -13 10.5 -17t39.5 -4l30 -5l-14 -64q-1 1 -29.5 2t-68 2.5t-64.5 1.5l-72 -3l3 59q11 2 30 22.5t37 51.5l248 426q-3 22 -22 22l-30 -2l-6 9l16 60q0 -3 238 -3q233 0 312 12l7 -11
q-28 -88 -45 -181l-91 -7q8 35 8 57q0 29 -22.5 38t-94.5 9q-31 0 -41.5 -6t-10.5 -22l4 -182l94 12l95 19l9 -11l-22 -83l-89 -6l-86 -11l4 -124q1 -35 14.5 -51t44.5 -16q79 0 104.5 19.5t45.5 94.5l85 7l7 -9q-29 -90 -50 -186l-11 -11q1 1 -48 2.5t-128.5 3t-144.5 1.5
q-35 0 -74 -2t-60 -4l-21 -2l-4 8zM257 317l60 4l61 8l1 181h-15z" />
    <glyph glyph-name="Ccedilla" unicode="&#xc7;" horiz-adv-x="594" 
d="M236 -86l29 75q-109 8 -171 79t-62 188q0 181 100.5 289t269.5 108q36 0 85 -6t81 -12l31 -6l4 -13q-30 -83 -49 -188l-97 -6q9 47 9 66q0 71 -99 71q-85 0 -132 -73.5t-47 -210.5q0 -95 33.5 -145t97.5 -50q52 0 84 32t54 106l97 7q-29 -103 -42 -185l-10 -12
q-77 -35 -185 -39l-13 -33q84 -51 84 -92q0 -40 -45 -71t-99 -31q-26 0 -49 12t-23 30q0 17 46 66h8q-2 -27 9.5 -41.5t33.5 -14.5q18 0 30 9t12 23q0 24 -75 68z" />
    <glyph glyph-name="Egrave" unicode="&#xc8;" horiz-adv-x="577" 
d="M225 114q0 -24 11 -30.5t46 -6.5q89 0 116.5 19t47.5 95l83 7l6 -10q-29 -89 -50 -185l-11 -10q-179 7 -299 7q-38 0 -80.5 -2.5t-66.5 -5.5l-23 -2l16 67q41 6 57.5 24t21.5 61l48 382q4 33 -0.5 43.5t-23.5 10.5l-30 -2l-5 9l15 59q106 -3 178 -3q206 0 296 12l6 -10
q-28 -88 -44 -181l-90 -6q8 35 8 57q0 30 -22 38.5t-93 8.5q-34 0 -42.5 -5t-12.5 -28l-26 -158q9 0 42 -0.5t48 -0.5l113 8l6 -8l-24 -85q-77 3 -125 3q-23 0 -74 -6q-23 -157 -23 -166zM222 762l-5 13l25 77l13 5q115 -57 223 -104l-13 -47l-14 -9q-51 16 -108 32.5
t-89 24.5z" />
    <glyph glyph-name="Eacute" unicode="&#xc9;" horiz-adv-x="577" 
d="M225 114q0 -24 11 -30.5t46 -6.5q89 0 116.5 19t47.5 95l83 7l6 -10q-29 -89 -50 -185l-11 -10q-179 7 -299 7q-38 0 -80.5 -2.5t-66.5 -5.5l-23 -2l16 67q41 6 57.5 24t21.5 61l48 382q4 33 -0.5 43.5t-23.5 10.5l-30 -2l-5 9l15 59q106 -3 178 -3q206 0 296 12l6 -10
q-28 -88 -44 -181l-90 -6q8 35 8 57q0 30 -22 38.5t-93 8.5q-34 0 -42.5 -5t-12.5 -28l-26 -158q9 0 42 -0.5t48 -0.5l113 8l6 -8l-24 -85q-77 3 -125 3q-23 0 -74 -6q-23 -157 -23 -166zM500 775l-5 -13q-115 -29 -229 -65l-13 9l-14 47l223 104l13 -5z" />
    <glyph glyph-name="Ecircumflex" unicode="&#xca;" horiz-adv-x="577" 
d="M225 114q0 -24 11 -30.5t46 -6.5q89 0 116.5 19t47.5 95l83 7l6 -10q-29 -89 -50 -185l-11 -10q-179 7 -299 7q-38 0 -80.5 -2.5t-66.5 -5.5l-23 -2l16 67q41 6 57.5 24t21.5 61l48 382q4 33 -0.5 43.5t-23.5 10.5l-30 -2l-5 9l15 59q106 -3 178 -3q206 0 296 12l6 -10
q-28 -88 -44 -181l-90 -6q8 35 8 57q0 30 -22 38.5t-93 8.5q-34 0 -42.5 -5t-12.5 -28l-26 -158q9 0 42 -0.5t48 -0.5l113 8l6 -8l-24 -85q-77 3 -125 3q-23 0 -74 -6q-23 -157 -23 -166zM232 711l-19 41l168 124h20q0 1 26 -23t61.5 -56.5t49.5 -44.5l-29 -41l-17 -4
q-7 3 -57.5 29t-57.5 29q-8 -3 -63.5 -28.5t-66.5 -29.5z" />
    <glyph glyph-name="Edieresis" unicode="&#xcb;" horiz-adv-x="577" 
d="M225 114q0 -24 11 -30.5t46 -6.5q89 0 116.5 19t47.5 95l83 7l6 -10q-29 -89 -50 -185l-11 -10q-179 7 -299 7q-38 0 -80.5 -2.5t-66.5 -5.5l-23 -2l16 67q41 6 57.5 24t21.5 61l48 382q4 33 -0.5 43.5t-23.5 10.5l-30 -2l-5 9l15 59q106 -3 178 -3q206 0 296 12l6 -10
q-28 -88 -44 -181l-90 -6q8 35 8 57q0 30 -22 38.5t-93 8.5q-34 0 -42.5 -5t-12.5 -28l-26 -158q9 0 42 -0.5t48 -0.5l113 8l6 -8l-24 -85q-77 3 -125 3q-23 0 -74 -6q-23 -157 -23 -166zM452 711q-25 0 -38.5 14t-13.5 38q0 33 21.5 54.5t53.5 21.5q25 0 38.5 -14t13.5 -38
q0 -33 -21 -54.5t-54 -21.5zM279 711q-52 0 -52 52q0 33 21 54.5t54 21.5q25 0 38.5 -14t13.5 -38q0 -33 -21 -54.5t-54 -21.5z" />
    <glyph glyph-name="Igrave" unicode="&#xcc;" horiz-adv-x="353" 
d="M288 529q-63 -365 -63 -425q0 -23 7 -31.5t24 -8.5l42 3l3 -7l-16 -63q-100 3 -143 3q-24 0 -58.5 -2t-56.5 -4l-22 -3l15 64q43 9 59.5 26t21.5 58l47 387q4 31 -1.5 41.5t-26.5 10.5l-33 -1l-4 8l14 58q11 0 60 -1t75 -1l139 8l-14 -66q-37 -5 -50.5 -15.5t-18.5 -38.5
zM93 762l-5 13l25 77l13 5q115 -57 223 -104l-13 -47l-14 -9q-51 16 -108 32.5t-89 24.5z" />
    <glyph glyph-name="Iacute" unicode="&#xcd;" horiz-adv-x="353" 
d="M288 529q-63 -365 -63 -425q0 -23 7 -31.5t24 -8.5l42 3l3 -7l-16 -63q-100 3 -143 3q-24 0 -58.5 -2t-56.5 -4l-22 -3l15 64q43 9 59.5 26t21.5 58l47 387q4 31 -1.5 41.5t-26.5 10.5l-33 -1l-4 8l14 58q11 0 60 -1t75 -1l139 8l-14 -66q-37 -5 -50.5 -15.5t-18.5 -38.5
zM394 775l-5 -13q-115 -29 -229 -65l-13 9l-14 47l223 104l13 -5z" />
    <glyph glyph-name="Icircumflex" unicode="&#xce;" horiz-adv-x="353" 
d="M288 529q-63 -365 -63 -425q0 -23 7 -31.5t24 -8.5l42 3l3 -7l-16 -63q-100 3 -143 3q-24 0 -58.5 -2t-56.5 -4l-22 -3l15 64q43 9 59.5 26t21.5 58l47 387q4 31 -1.5 41.5t-26.5 10.5l-33 -1l-4 8l14 58q11 0 60 -1t75 -1l139 8l-14 -66q-37 -5 -50.5 -15.5t-18.5 -38.5
zM99 711l-19 41l168 124h20q0 1 26 -23t61.5 -56.5t49.5 -44.5l-29 -41l-17 -4q-7 3 -57.5 29t-57.5 29q-8 -3 -63.5 -28.5t-66.5 -29.5z" />
    <glyph glyph-name="Idieresis" unicode="&#xcf;" horiz-adv-x="353" 
d="M288 529q-63 -365 -63 -425q0 -23 7 -31.5t24 -8.5l42 3l3 -7l-16 -63q-100 3 -143 3q-24 0 -58.5 -2t-56.5 -4l-22 -3l15 64q43 9 59.5 26t21.5 58l47 387q4 31 -1.5 41.5t-26.5 10.5l-33 -1l-4 8l14 58q11 0 60 -1t75 -1l139 8l-14 -66q-37 -5 -50.5 -15.5t-18.5 -38.5
zM320 711q-25 0 -38.5 14t-13.5 38q0 33 21.5 54.5t53.5 21.5q25 0 38.5 -14t13.5 -38q0 -33 -21 -54.5t-54 -21.5zM147 711q-52 0 -52 52q0 33 21 54.5t54 21.5q25 0 38.5 -14t13.5 -38q0 -33 -21 -54.5t-54 -21.5z" />
    <glyph glyph-name="Eth" unicode="&#xd0;" horiz-adv-x="682" 
d="M298 -12q-95 12 -150 12q-23 0 -54.5 -2.5t-51.5 -5.5l-20 -2l15 67q41 7 57.5 24.5t22.5 59.5l18 145h-112l-7 7l17 60h110l21 170q4 32 -1 43t-22 11l-33 -2l-4 9l15 60q85 -3 123 -3l145 5q132 0 209.5 -68.5t77.5 -189.5q0 -172 -107 -286t-269 -114zM335 562
q-16 0 -22 -5t-8 -19q-2 -11 -30 -185l117 2l6 -9l-14 -60h-120q-22 -140 -22 -161q0 -31 15.5 -42t56.5 -11q95 0 150 81.5t55 222.5q0 186 -184 186z" />
    <glyph glyph-name="Ntilde" unicode="&#xd1;" horiz-adv-x="704" 
d="M501 230h10l35 305q4 43 -26 43q-8 0 -20 -0.5t-13 -0.5l-3 8l14 60q82 -4 125 -4l115 6l-13 -66q-32 -5 -48 -19t-20 -44l-78 -533l-106 -13q-52 112 -108 224.5t-86 169.5l-30 57h-9l-40 -315q-3 -25 3 -35t25 -10l41 2l5 -6l-17 -63q-83 4 -125 4q-23 0 -53 -2t-49 -4
l-18 -2l16 66q57 7 65 63l61 397q4 32 -10 44.5t-61 17.5l-6 10l13 56q64 -5 113 -5l93 4q44 -95 95.5 -199t80.5 -160zM294 687h-11l-35 37l1 11l88 96l16 4q17 0 72.5 -17t68.5 -17q10 0 27.5 13t29.5 26l12 13h11l35 -37l-1 -10l-88 -97l-17 -4q-17 0 -72 17t-68 17
q-11 0 -28 -13t-29 -26z" />
    <glyph glyph-name="Ograve" unicode="&#xd2;" horiz-adv-x="649" 
d="M311 73q80 0 127 78.5t47 219.5q0 88 -34.5 138t-94.5 50q-79 0 -125 -79t-46 -219q0 -88 33.5 -138t92.5 -50zM285 -12q-115 0 -184 72t-69 195q0 178 97 288t256 110q118 0 187 -70t69 -193q0 -178 -99 -290t-257 -112zM246 762l-5 13l25 77l13 5q115 -57 223 -104
l-13 -47l-14 -9q-51 16 -108 32.5t-89 24.5z" />
    <glyph glyph-name="Oacute" unicode="&#xd3;" horiz-adv-x="649" 
d="M311 73q80 0 127 78.5t47 219.5q0 88 -34.5 138t-94.5 50q-79 0 -125 -79t-46 -219q0 -88 33.5 -138t92.5 -50zM285 -12q-115 0 -184 72t-69 195q0 178 97 288t256 110q118 0 187 -70t69 -193q0 -178 -99 -290t-257 -112zM528 775l-5 -13q-115 -29 -229 -65l-13 9l-14 47
l223 104l13 -5z" />
    <glyph glyph-name="Ocircumflex" unicode="&#xd4;" horiz-adv-x="649" 
d="M311 73q80 0 127 78.5t47 219.5q0 88 -34.5 138t-94.5 50q-79 0 -125 -79t-46 -219q0 -88 33.5 -138t92.5 -50zM285 -12q-115 0 -184 72t-69 195q0 178 97 288t256 110q118 0 187 -70t69 -193q0 -178 -99 -290t-257 -112zM242 711l-19 41l168 124h20q0 1 26 -23
t61.5 -56.5t49.5 -44.5l-29 -41l-17 -4q-7 3 -57.5 29t-57.5 29q-8 -3 -63.5 -28.5t-66.5 -29.5z" />
    <glyph glyph-name="Otilde" unicode="&#xd5;" horiz-adv-x="649" 
d="M311 73q80 0 127 78.5t47 219.5q0 88 -34.5 138t-94.5 50q-79 0 -125 -79t-46 -219q0 -88 33.5 -138t92.5 -50zM285 -12q-115 0 -184 72t-69 195q0 178 97 288t256 110q118 0 187 -70t69 -193q0 -178 -99 -290t-257 -112zM260 687h-11l-35 37l1 11l88 96l16 4
q17 0 72.5 -17t68.5 -17q10 0 27.5 13t29.5 26l12 13h11l35 -37l-1 -10l-88 -97l-17 -4q-16 0 -71.5 17t-68.5 17q-11 0 -28 -13t-29 -26z" />
    <glyph glyph-name="Odieresis" unicode="&#xd6;" horiz-adv-x="649" 
d="M311 73q80 0 127 78.5t47 219.5q0 88 -34.5 138t-94.5 50q-79 0 -125 -79t-46 -219q0 -88 33.5 -138t92.5 -50zM285 -12q-115 0 -184 72t-69 195q0 178 97 288t256 110q118 0 187 -70t69 -193q0 -178 -99 -290t-257 -112zM463 711q-25 0 -38.5 14t-13.5 38
q0 33 21.5 54.5t53.5 21.5q25 0 38.5 -14t13.5 -38q0 -33 -21 -54.5t-54 -21.5zM290 711q-52 0 -52 52q0 33 21 54.5t54 21.5q25 0 38.5 -14t13.5 -38q0 -33 -21 -54.5t-54 -21.5z" />
    <glyph glyph-name="multiply" unicode="&#xd7;" horiz-adv-x="488" 
d="M392 452l12 -5l48 -70l-137 -128l110 -122l-7 -13l-78 -58l-104 123l-133 -125l-12 3l-43 72q67 62 128 118l-109 129l4 14l81 53q55 -68 103 -125z" />
    <glyph glyph-name="Oslash" unicode="&#xd8;" horiz-adv-x="649" 
d="M60 -68l65 106q-93 71 -93 217q0 178 97 288t256 110q49 0 93 -14l54 90l61 -29l3 -13l-50 -82q95 -70 95 -215q0 -178 -99 -290t-257 -112q-51 0 -95 15l-67 -110l-60 29zM311 73q80 0 127 78.5t47 219.5q0 60 -17 105l-223 -382q27 -21 66 -21zM185 261q0 -56 14 -100
l220 379q-29 19 -63 19q-79 0 -125 -79t-46 -219z" />
    <glyph glyph-name="Ugrave" unicode="&#xd9;" horiz-adv-x="629" 
d="M256 528l-43 -291q-2 -28 -2 -40q-1 -59 25 -89.5t76 -30.5q116 0 132 132l36 315q3 33 -1.5 43.5t-22.5 10.5l-32 -2l-2 4l16 64q76 -3 112 -3l117 7l-14 -66q-37 -7 -48 -16t-14 -34l-39 -313q-14 -113 -83.5 -172t-188.5 -59q-205 0 -205 177q0 19 3 40l40 319
q4 33 -1 43.5t-25 10.5l-30 -2l-2 4l17 64q82 -3 138 -3l116 7l-15 -67q-31 -4 -43.5 -15.5t-16.5 -37.5zM244 762l-5 13l25 77l13 5q115 -57 223 -104l-13 -47l-14 -9q-51 16 -108 32.5t-89 24.5z" />
    <glyph glyph-name="Uacute" unicode="&#xda;" horiz-adv-x="629" 
d="M256 528l-43 -291q-2 -28 -2 -40q-1 -59 25 -89.5t76 -30.5q116 0 132 132l36 315q3 33 -1.5 43.5t-22.5 10.5l-32 -2l-2 4l16 64q76 -3 112 -3l117 7l-14 -66q-37 -7 -48 -16t-14 -34l-39 -313q-14 -113 -83.5 -172t-188.5 -59q-205 0 -205 177q0 19 3 40l40 319
q4 33 -1 43.5t-25 10.5l-30 -2l-2 4l17 64q82 -3 138 -3l116 7l-15 -67q-31 -4 -43.5 -15.5t-16.5 -37.5zM544 775l-5 -13q-115 -29 -229 -65l-13 9l-14 47l223 104l13 -5z" />
    <glyph glyph-name="Ucircumflex" unicode="&#xdb;" horiz-adv-x="629" 
d="M256 528l-43 -291q-2 -28 -2 -40q-1 -59 25 -89.5t76 -30.5q116 0 132 132l36 315q3 33 -1.5 43.5t-22.5 10.5l-32 -2l-2 4l16 64q76 -3 112 -3l117 7l-14 -66q-37 -7 -48 -16t-14 -34l-39 -313q-14 -113 -83.5 -172t-188.5 -59q-205 0 -205 177q0 19 3 40l40 319
q4 33 -1 43.5t-25 10.5l-30 -2l-2 4l17 64q82 -3 138 -3l116 7l-15 -67q-31 -4 -43.5 -15.5t-16.5 -37.5zM254 711l-19 41l168 124h20q0 1 26 -23t61.5 -56.5t49.5 -44.5l-29 -41l-17 -4q-7 3 -57.5 29t-57.5 29q-8 -3 -63.5 -28.5t-66.5 -29.5z" />
    <glyph glyph-name="Udieresis" unicode="&#xdc;" horiz-adv-x="629" 
d="M256 528l-43 -291q-2 -28 -2 -40q-1 -59 25 -89.5t76 -30.5q116 0 132 132l36 315q3 33 -1.5 43.5t-22.5 10.5l-32 -2l-2 4l16 64q76 -3 112 -3l117 7l-14 -66q-37 -7 -48 -16t-14 -34l-39 -313q-14 -113 -83.5 -172t-188.5 -59q-205 0 -205 177q0 19 3 40l40 319
q4 33 -1 43.5t-25 10.5l-30 -2l-2 4l17 64q82 -3 138 -3l116 7l-15 -67q-31 -4 -43.5 -15.5t-16.5 -37.5zM474 711q-25 0 -38.5 14t-13.5 38q0 33 21.5 54.5t53.5 21.5q25 0 38.5 -14t13.5 -38q0 -33 -21 -54.5t-54 -21.5zM301 711q-52 0 -52 52q0 33 21 54.5t54 21.5
q25 0 38.5 -14t13.5 -38q0 -33 -21 -54.5t-54 -21.5z" />
    <glyph glyph-name="Yacute" unicode="&#xdd;" horiz-adv-x="582" 
d="M261 551q0 -31 56 -207h8l97 168q19 32 19 50t-46 21l-2 5l15 57q10 0 57 -2t71 -2l100 4l3 -7l-15 -60q-40 -13 -66.5 -39.5t-65.5 -88.5l-114 -179q-3 -5 -6 -10.5t-5.5 -10t-4.5 -11.5t-3.5 -11t-3 -12.5t-2.5 -13t-2.5 -15.5t-2 -16t-2.5 -19.5t-3 -20.5
q-5 -37 2.5 -51.5t34.5 -14.5l48 3l3 -5l-17 -67q-111 4 -159 4q-25 0 -63.5 -3t-64.5 -5l-26 -3l15 67q57 8 75.5 26t23.5 69l4 31q6 50 -15 103l-71 190q-18 50 -36.5 71t-59.5 30l-3 5l16 63q86 -3 124 -3l156 8l4 -9l-13 -57q-35 -2 -47.5 -9t-12.5 -23zM527 775l-5 -13
q-115 -29 -229 -65l-13 9l-14 47l223 104l13 -5z" />
    <glyph glyph-name="Thorn" unicode="&#xde;" horiz-adv-x="555" 
d="M291 536l-4 -24h72q201 0 201 -152q0 -92 -76 -154t-184 -62h-68l-4 -30q-4 -30 2 -39.5t28 -9.5l46 3l4 -7l-16 -64q-105 3 -150 3q-24 0 -58.5 -2t-57.5 -4l-22 -3l15 65q43 9 59 25.5t21 58.5l48 385q4 31 -2 41.5t-27 10.5l-32 -1l-5 8l15 59q11 0 61 -0.5t75 -0.5
l140 7l-13 -67q-39 -6 -51.5 -14.5t-16.5 -31.5zM271 417l-28 -185q48 -14 78 -14q95 16 95 124q0 46 -29.5 67.5t-91.5 21.5q-21 0 -24 -14z" />
    <glyph glyph-name="germandbls" unicode="&#xdf;" horiz-adv-x="610" 
d="M24 393l-3 5l5 46l84 13l7 64q10 90 85.5 155.5t167.5 65.5q78 0 128.5 -35.5t50.5 -92.5q0 -32 -13.5 -59.5t-32 -46.5t-37.5 -37t-32.5 -38t-13.5 -40q0 -24 28 -47.5t61.5 -41.5t61.5 -53t28 -80q0 -76 -62 -129.5t-150 -53.5q-50 0 -87.5 17t-40.5 42q4 22 21.5 56.5
t34.5 53.5l20 -1q-3 -40 16 -64t54 -24q25 0 44.5 20.5t19.5 46.5q0 22 -18 41.5t-43.5 35.5t-51.5 34t-44 45.5t-18 62.5q0 36 20.5 68t45 52.5t45 48t20.5 54.5q0 34 -24.5 56t-68.5 22q-81 0 -95 -99l-66 -598q-9 -81 -67.5 -140.5t-129.5 -59.5q-39 0 -71 15.5t-40 38.5
q7 22 23 55.5t29 51.5h16q3 -81 71 -81q28 0 47.5 21.5t21.5 58.5q-1 -2 -3 -16q-2 -13 -1 2q2 21 10 129l27 351l-9 7z" />
    <glyph glyph-name="agrave" unicode="&#xe0;" horiz-adv-x="493" 
d="M384 109l4 -4q9 0 66 50l17 -2l16 -35q-70 -74 -107.5 -102t-66.5 -28q-43 0 -43 38q0 31 34 167l-8 1q-85 -153 -161 -206q-54 0 -84 38.5t-30 107.5q0 79 35.5 156.5t92 126.5t113.5 49l87 -18l7 22l11 7l81 -14l8 -17q-48 -179 -72 -337zM167 105q22 0 68 76.5
t84 176.5q-48 29 -88 29q-32 0 -59 -62t-27 -135q0 -36 6.5 -60.5t15.5 -24.5zM160 652l-2 14l55 70l13 1q85 -90 168 -170l-30 -39l-16 -4q-41 31 -88 63t-74 49z" />
    <glyph glyph-name="aacute" unicode="&#xe1;" horiz-adv-x="493" 
d="M384 109l4 -4q9 0 66 50l17 -2l16 -35q-70 -74 -107.5 -102t-66.5 -28q-43 0 -43 38q0 31 34 167l-8 1q-85 -153 -161 -206q-54 0 -84 38.5t-30 107.5q0 79 35.5 156.5t92 126.5t113.5 49l87 -18l7 22l11 7l81 -14l8 -17q-48 -179 -72 -337zM167 105q22 0 68 76.5
t84 176.5q-48 29 -88 29q-32 0 -59 -62t-27 -135q0 -36 6.5 -60.5t15.5 -24.5zM432 666l-1 -14q-96 -60 -189 -129l-15 4l-30 39q37 36 79 78.5t66 67.5l23 25l13 -1z" />
    <glyph glyph-name="acircumflex" unicode="&#xe2;" horiz-adv-x="493" 
d="M384 109l4 -4q9 0 66 50l17 -2l16 -35q-70 -74 -107.5 -102t-66.5 -28q-43 0 -43 38q0 31 34 167l-8 1q-85 -153 -161 -206q-54 0 -84 38.5t-30 107.5q0 79 35.5 156.5t92 126.5t113.5 49l87 -18l7 22l11 7l81 -14l8 -17q-48 -179 -72 -337zM167 105q22 0 68 76.5
t84 176.5q-48 29 -88 29q-32 0 -59 -62t-27 -135q0 -36 6.5 -60.5t15.5 -24.5zM161 535l-24 41q18 15 59.5 53.5t73.5 69.5l33 31h20q97 -121 129 -154l-34 -41l-16 -4q-6 5 -51.5 42t-51.5 41q-3 -2 -122 -83z" />
    <glyph glyph-name="atilde" unicode="&#xe3;" horiz-adv-x="493" 
d="M384 109l4 -4q9 0 66 50l17 -2l16 -35q-70 -74 -107.5 -102t-66.5 -28q-43 0 -43 38q0 31 34 167l-8 1q-85 -153 -161 -206q-54 0 -84 38.5t-30 107.5q0 79 35.5 156.5t92 126.5t113.5 49l87 -18l7 22l11 7l81 -14l8 -17q-48 -179 -72 -337zM167 105q22 0 68 76.5
t84 176.5q-48 29 -88 29q-32 0 -59 -62t-27 -135q0 -36 6.5 -60.5t15.5 -24.5zM162 540h-11l-35 36l1 11l88 101l16 4q17 0 73 -16.5t69 -16.5q10 0 27 14t30 28l12 14h11l36 -37l-2 -10l-88 -102l-16 -4q-17 0 -72.5 17t-68.5 17q-11 0 -28.5 -14t-29.5 -28z" />
    <glyph glyph-name="adieresis" unicode="&#xe4;" horiz-adv-x="493" 
d="M384 109l4 -4q9 0 66 50l17 -2l16 -35q-70 -74 -107.5 -102t-66.5 -28q-43 0 -43 38q0 31 34 167l-8 1q-85 -153 -161 -206q-54 0 -84 38.5t-30 107.5q0 79 35.5 156.5t92 126.5t113.5 49l87 -18l7 22l11 7l81 -14l8 -17q-48 -179 -72 -337zM167 105q22 0 68 76.5
t84 176.5q-48 29 -88 29q-32 0 -59 -62t-27 -135q0 -36 6.5 -60.5t15.5 -24.5zM384 564q-26 0 -39.5 14t-13.5 38q0 32 21.5 54t54.5 22q25 0 38.5 -14t13.5 -38q0 -33 -21 -54.5t-54 -21.5zM210 564q-25 0 -38.5 14t-13.5 38q0 32 21.5 54t54.5 22q25 0 38 -14t13 -38
q0 -33 -21 -54.5t-54 -21.5z" />
    <glyph glyph-name="aring" unicode="&#xe5;" horiz-adv-x="493" 
d="M384 109l4 -4q9 0 66 50l17 -2l16 -35q-70 -74 -107.5 -102t-66.5 -28q-43 0 -43 38q0 31 34 167l-8 1q-85 -153 -161 -206q-54 0 -84 38.5t-30 107.5q0 79 35.5 156.5t92 126.5t113.5 49l87 -18l7 22l11 7l81 -14l8 -17q-48 -179 -72 -337zM167 105q22 0 68 76.5
t84 176.5q-48 29 -88 29q-32 0 -59 -62t-27 -135q0 -36 6.5 -60.5t15.5 -24.5zM279 596q43 0 43 42q0 36 -39 36q-42 0 -42 -41q0 -18 12 -27.5t26 -9.5zM266 543q-37 0 -56.5 21.5t-19.5 56.5q0 46 30.5 77t76.5 31q39 0 58 -21.5t19 -53.5q0 -44 -30 -77.5t-78 -33.5z" />
    <glyph glyph-name="ae" unicode="&#xe6;" horiz-adv-x="635" 
d="M627 379q0 -66 -55.5 -110t-187.5 -86q0 -45 16.5 -71.5t46.5 -26.5q57 0 100 79l18 -2l33 -40q-27 -58 -82 -96t-111 -38q-60 0 -96.5 41.5t-41.5 113.5q-68 -111 -132 -155q-54 0 -84 38.5t-30 107.5q0 79 35.5 156.5t92 126.5t113.5 49l154 -24q50 31 104 31
q50 0 78.5 -25t28.5 -69zM167 105q22 0 68 79.5t84 183.5q-47 19 -88 19q-32 0 -59 -62t-27 -135q0 -36 6.5 -60.5t15.5 -24.5zM485 385q-33 0 -60.5 -39.5t-37.5 -101.5q131 43 131 106q0 35 -33 35z" />
    <glyph glyph-name="ccedilla" unicode="&#xe7;" horiz-adv-x="368" 
d="M118 -86l29 75q-57 5 -90 50.5t-33 120.5q0 124 76 218.5t176 94.5q61 0 97 -22l4 -15l-42 -96l-28 -2q-28 47 -66 47t-67.5 -57.5t-29.5 -133.5q0 -51 16 -79.5t43 -28.5q26 0 51 22t42 59l17 -2l33 -41q-22 -47 -61.5 -82.5t-83.5 -47.5l-15 -38q84 -51 84 -92
q0 -40 -45 -71t-99 -31q-26 0 -49 12t-23 30q0 17 46 66h8q-2 -27 9.5 -41.5t33.5 -14.5q18 0 30 9t12 23q0 24 -75 68z" />
    <glyph glyph-name="egrave" unicode="&#xe8;" horiz-adv-x="393" 
d="M385 379q0 -66 -55.5 -110t-187.5 -86q0 -45 16.5 -71.5t46.5 -26.5q57 0 101 79l17 -2l33 -40q-27 -58 -82 -96t-111 -38q-64 0 -101.5 47.5t-37.5 127.5q0 121 77.5 215.5t176.5 94.5q50 0 78.5 -25t28.5 -69zM243 385q-33 0 -60.5 -39.5t-37.5 -101.5q131 43 131 106
q0 35 -33 35zM132 651l-2 14l55 70l13 1q85 -90 168 -170l-30 -39l-16 -4q-41 31 -88 63t-74 48z" />
    <glyph glyph-name="eacute" unicode="&#xe9;" horiz-adv-x="393" 
d="M385 379q0 -66 -55.5 -110t-187.5 -86q0 -45 16.5 -71.5t46.5 -26.5q57 0 101 79l17 -2l33 -40q-27 -58 -82 -96t-111 -38q-64 0 -101.5 47.5t-37.5 127.5q0 121 77.5 215.5t176.5 94.5q50 0 78.5 -25t28.5 -69zM243 385q-33 0 -60.5 -39.5t-37.5 -101.5q131 43 131 106
q0 35 -33 35zM384 667l-1 -14q-96 -60 -189 -129l-15 4l-30 39q37 36 79 78.5t66 67.5l23 25l13 -1z" />
    <glyph glyph-name="ecircumflex" unicode="&#xea;" horiz-adv-x="393" 
d="M385 379q0 -66 -55.5 -110t-187.5 -86q0 -45 16.5 -71.5t46.5 -26.5q57 0 101 79l17 -2l33 -40q-27 -58 -82 -96t-111 -38q-64 0 -101.5 47.5t-37.5 127.5q0 121 77.5 215.5t176.5 94.5q50 0 78.5 -25t28.5 -69zM243 385q-33 0 -60.5 -39.5t-37.5 -101.5q131 43 131 106
q0 35 -33 35zM138 535l-24 41q18 15 59.5 53.5t74.5 69.5l32 31h20q97 -121 129 -154l-34 -41l-16 -4q-6 5 -51.5 42t-51.5 41q-3 -2 -122 -83z" />
    <glyph glyph-name="edieresis" unicode="&#xeb;" horiz-adv-x="393" 
d="M385 379q0 -66 -55.5 -110t-187.5 -86q0 -45 16.5 -71.5t46.5 -26.5q57 0 101 79l17 -2l33 -40q-27 -58 -82 -96t-111 -38q-64 0 -101.5 47.5t-37.5 127.5q0 121 77.5 215.5t176.5 94.5q50 0 78.5 -25t28.5 -69zM243 385q-33 0 -60.5 -39.5t-37.5 -101.5q131 43 131 106
q0 35 -33 35zM349 563q-26 0 -39.5 14t-13.5 38q0 32 21.5 54t54.5 22q25 0 38.5 -14t13.5 -38q0 -33 -21 -54.5t-54 -21.5zM175 563q-25 0 -38.5 14t-13.5 38q0 32 21.5 54t54.5 22q25 0 38 -14t13 -38q0 -33 -21 -54.5t-54 -21.5z" />
    <glyph glyph-name="igrave" unicode="&#xec;" horiz-adv-x="293" 
d="M45 651l-2 14l55 70l13 1q85 -90 168 -170l-30 -39l-16 -4q-41 31 -88 63t-73 48zM169 109l4 -4q9 0 66 50l17 -2l17 -35q-120 -130 -174 -130q-47 0 -47 50q48 286 48 318q0 20 -9 29t-29 9h-35l10 59q33 0 80.5 2.5t78.5 4.5l32 2l12 -16q-47 -168 -71 -337z" />
    <glyph glyph-name="iacute" unicode="&#xed;" horiz-adv-x="293" 
d="M308 666l-1 -14q-96 -60 -189 -129l-15 4l-30 39q37 36 79 78.5t66 67.5l23 25l13 -1zM169 109l4 -4q9 0 66 50l17 -2l17 -35q-120 -130 -174 -130q-47 0 -47 50q48 286 48 318q0 20 -9 29t-29 9h-35l10 59q33 0 80.5 2.5t78.5 4.5l32 2l12 -16q-47 -168 -71 -337z" />
    <glyph glyph-name="icircumflex" unicode="&#xee;" horiz-adv-x="293" 
d="M169 109l4 -4q9 0 66 50l17 -2l17 -35q-120 -130 -174 -130q-47 0 -47 50q48 286 48 318q0 20 -9 29t-29 9h-35l10 59q33 0 80.5 2.5t78.5 4.5l32 2l12 -16q-47 -168 -71 -337zM51 534l-24 41q18 15 59.5 53.5t73.5 69.5l33 31h20q97 -121 129 -154l-34 -41l-16 -4
q-6 5 -51.5 42t-51.5 41q-3 -2 -122 -83z" />
    <glyph glyph-name="idieresis" unicode="&#xef;" horiz-adv-x="293" 
d="M263 563q-26 0 -39.5 14t-13.5 38q0 32 21.5 54t54.5 22q25 0 38.5 -14t13.5 -38q0 -33 -21 -54.5t-54 -21.5zM89 563q-25 0 -38.5 14t-13.5 38q0 32 21.5 54t54.5 22q25 0 38 -14t13 -38q0 -33 -21 -54.5t-54 -21.5zM169 109l4 -4q9 0 66 50l17 -2l17 -35
q-120 -130 -174 -130q-47 0 -47 50q48 286 48 318q0 20 -9 29t-29 9h-35l10 59q33 0 80.5 2.5t78.5 4.5l32 2l12 -16q-47 -168 -71 -337z" />
    <glyph glyph-name="eth" unicode="&#xf0;" horiz-adv-x="490" 
d="M437 716l8 -5l10 -59l-108 -53q123 -131 123 -307q0 -134 -74.5 -219t-189.5 -85q-86 0 -135 51t-49 139q0 116 68.5 200.5t159.5 84.5q9 -2 19.5 -7t20.5 -11l11 -6l4 5q-20 58 -59 106l-133 -64l-8 3l-10 61l99 49q-42 43 -105 81l40 56l13 5q86 -40 150 -95zM331 280
q0 52 -2 69q-26 26 -68 26q-48 0 -76.5 -52t-28.5 -137q0 -58 21 -89.5t59 -31.5q40 0 67.5 62.5t27.5 152.5z" />
    <glyph glyph-name="ntilde" unicode="&#xf1;" horiz-adv-x="519" 
d="M400 110l3 -3q9 0 66 50l18 -3l16 -35q-66 -71 -105.5 -100.5t-68.5 -29.5q-48 0 -48 44q0 26 34.5 138.5t34.5 139.5q0 35 -26 35q-25 0 -66.5 -68t-84.5 -178l-9 -71q-2 -13 -36 -25t-68 -12l-13 16q49 300 54 345q1 22 -7.5 31.5t-30.5 9.5h-35l10 59q33 0 80.5 2.5
t79.5 4.5l31 2l11 -16q-32 -100 -47 -196l6 -1q86 179 162 225q50 0 80.5 -28t30.5 -73q0 -32 -34 -137t-38 -126zM184 539h-11l-35 36l1 11l88 101l16 4q17 0 73 -16.5t69 -16.5q10 0 27 14t30 28l12 14h11l36 -37l-2 -10l-88 -102l-16 -4q-17 0 -72.5 17t-68.5 17
q-11 0 -28.5 -14t-29.5 -28z" />
    <glyph glyph-name="ograve" unicode="&#xf2;" horiz-adv-x="444" 
d="M210 68q39 0 61.5 51.5t22.5 143.5q0 122 -61 122q-37 0 -60 -52t-23 -134q0 -61 16 -96t44 -35zM171 -12q-67 0 -105.5 47.5t-38.5 131.5q0 130 71 218.5t176 88.5q70 0 108 -44t38 -125q0 -135 -71 -226t-178 -91zM126 651l-2 14l55 70l13 1q85 -90 168 -170l-30 -39
l-16 -4q-41 31 -88 63t-74 48z" />
    <glyph glyph-name="oacute" unicode="&#xf3;" horiz-adv-x="444" 
d="M210 68q39 0 61.5 51.5t22.5 143.5q0 122 -61 122q-37 0 -60 -52t-23 -134q0 -61 16 -96t44 -35zM171 -12q-67 0 -105.5 47.5t-38.5 131.5q0 130 71 218.5t176 88.5q70 0 108 -44t38 -125q0 -135 -71 -226t-178 -91zM410 666l-1 -14q-96 -60 -189 -129l-15 4l-30 39
q37 36 79 78.5t66 67.5l23 25l13 -1z" />
    <glyph glyph-name="ocircumflex" unicode="&#xf4;" horiz-adv-x="444" 
d="M210 68q39 0 61.5 51.5t22.5 143.5q0 122 -61 122q-37 0 -60 -52t-23 -134q0 -61 16 -96t44 -35zM171 -12q-67 0 -105.5 47.5t-38.5 131.5q0 130 71 218.5t176 88.5q70 0 108 -44t38 -125q0 -135 -71 -226t-178 -91zM137 535l-24 41q18 15 59.5 53.5t73.5 69.5l33 31h20
q97 -121 129 -154l-34 -41l-16 -4q-6 5 -51.5 42t-51.5 41q-3 -2 -122 -83z" />
    <glyph glyph-name="otilde" unicode="&#xf5;" horiz-adv-x="444" 
d="M210 68q39 0 61.5 51.5t22.5 143.5q0 122 -61 122q-37 0 -60 -52t-23 -134q0 -61 16 -96t44 -35zM171 -12q-67 0 -105.5 47.5t-38.5 131.5q0 130 71 218.5t176 88.5q70 0 108 -44t38 -125q0 -135 -71 -226t-178 -91zM143 539h-11l-35 36l1 11l88 101l16 4q17 0 73 -16.5
t69 -16.5q10 0 27 14t29 28l13 14h11l36 -37l-2 -10l-88 -102l-16 -4q-17 0 -72.5 17t-68.5 17q-11 0 -28.5 -14t-29.5 -28z" />
    <glyph glyph-name="odieresis" unicode="&#xf6;" horiz-adv-x="444" 
d="M210 68q39 0 61.5 51.5t22.5 143.5q0 122 -61 122q-37 0 -60 -52t-23 -134q0 -61 16 -96t44 -35zM171 -12q-67 0 -105.5 47.5t-38.5 131.5q0 130 71 218.5t176 88.5q70 0 108 -44t38 -125q0 -135 -71 -226t-178 -91zM351 563q-26 0 -39.5 14t-13.5 38q0 32 21.5 54
t54.5 22q25 0 38.5 -14t13.5 -38q0 -33 -21 -54.5t-54 -21.5zM177 563q-25 0 -38.5 14t-13.5 38q0 32 21.5 54t54.5 22q25 0 38 -14t13 -38q0 -33 -21 -54.5t-54 -21.5z" />
    <glyph glyph-name="divide" unicode="&#xf7;" horiz-adv-x="488" 
d="M476 312l5 -12l-22 -92l-219 -1l-219 -1l-6 11l25 90q139 -1 225 -1zM210 7q-29 0 -44 16t-15 43q0 37 23 61t59 24q29 0 44 -16t15 -43q0 -37 -23 -61t-59 -24zM253 362q-29 0 -43.5 16t-14.5 43q0 37 22.5 61t59.5 24q29 0 44 -16t15 -43q0 -37 -23 -61t-60 -24z" />
    <glyph glyph-name="oslash" unicode="&#xf8;" horiz-adv-x="444" 
d="M-2 -78l68 112q-39 48 -39 133q0 130 71 218.5t176 88.5q24 0 47 -6l62 104l62 -30l3 -12l-63 -104q35 -43 35 -121q0 -135 -71 -226t-178 -91q-23 0 -43 6l-68 -111l-60 29zM150 199v-24l115 198q-13 12 -32 12q-37 0 -60 -52t-23 -134zM210 68q39 0 61.5 51.5
t22.5 143.5v10l-113 -193q12 -12 29 -12z" />
    <glyph glyph-name="ugrave" unicode="&#xf9;" horiz-adv-x="508" 
d="M320 201l-9 1q-75 -158 -150 -213q-55 0 -86.5 25.5t-31.5 69.5q0 29 33 141.5t33 134.5q0 34 -38 34h-34l10 59q33 0 80.5 2.5t78.5 4.5l32 2l12 -16q-86 -260 -86 -307q0 -29 23 -29t67 71t91 184l14 92l15 8l82 -6l13 -15q-47 -177 -71 -335l4 -4q6 0 14.5 6.5
t51.5 43.5l17 -2l16 -35q-73 -76 -109 -103t-65 -27q-43 0 -43 38q0 23 36 175zM163 651l-2 14l55 70l13 1q85 -90 168 -170l-30 -39l-16 -4q-41 31 -88 63t-73 48z" />
    <glyph glyph-name="uacute" unicode="&#xfa;" horiz-adv-x="508" 
d="M320 201l-9 1q-75 -158 -150 -213q-55 0 -86.5 25.5t-31.5 69.5q0 29 33 141.5t33 134.5q0 34 -38 34h-34l10 59q33 0 80.5 2.5t78.5 4.5l32 2l12 -16q-86 -260 -86 -307q0 -29 23 -29t67 71t91 184l14 92l15 8l82 -6l13 -15q-47 -177 -71 -335l4 -4q6 0 14.5 6.5
t51.5 43.5l17 -2l16 -35q-73 -76 -109 -103t-65 -27q-43 0 -43 38q0 23 36 175zM441 666l-1 -14q-96 -60 -189 -129l-15 4l-30 39q37 36 79 78.5t65 67.5l24 25l13 -1z" />
    <glyph glyph-name="ucircumflex" unicode="&#xfb;" horiz-adv-x="508" 
d="M320 201l-9 1q-75 -158 -150 -213q-55 0 -86.5 25.5t-31.5 69.5q0 29 33 141.5t33 134.5q0 34 -38 34h-34l10 59q33 0 80.5 2.5t78.5 4.5l32 2l12 -16q-86 -260 -86 -307q0 -29 23 -29t67 71t91 184l14 92l15 8l82 -6l13 -15q-47 -177 -71 -335l4 -4q6 0 14.5 6.5
t51.5 43.5l17 -2l16 -35q-73 -76 -109 -103t-65 -27q-43 0 -43 38q0 23 36 175zM168 535l-24 41q18 15 59.5 53.5t74.5 69.5l32 31h20q97 -121 129 -154l-34 -41l-16 -4q-6 5 -51.5 42t-51.5 41q-3 -2 -122 -83z" />
    <glyph glyph-name="udieresis" unicode="&#xfc;" horiz-adv-x="508" 
d="M320 201l-9 1q-75 -158 -150 -213q-55 0 -86.5 25.5t-31.5 69.5q0 29 33 141.5t33 134.5q0 34 -38 34h-34l10 59q33 0 80.5 2.5t78.5 4.5l32 2l12 -16q-86 -260 -86 -307q0 -29 23 -29t67 71t91 184l14 92l15 8l82 -6l13 -15q-47 -177 -71 -335l4 -4q6 0 14.5 6.5
t51.5 43.5l17 -2l16 -35q-73 -76 -109 -103t-65 -27q-43 0 -43 38q0 23 36 175zM381 563q-26 0 -39.5 14t-13.5 38q0 32 21.5 54t54.5 22q25 0 38.5 -14t13.5 -38q0 -33 -21 -54.5t-54 -21.5zM207 563q-25 0 -38.5 14t-13.5 38q0 32 21.5 54t54.5 22q25 0 38 -14t13 -38
q0 -33 -21 -54.5t-54 -21.5z" />
    <glyph glyph-name="yacute" unicode="&#xfd;" horiz-adv-x="462" 
d="M286 417l7 32l132 25q32 -27 32 -87q0 -105 -189 -376q-96 -136 -164.5 -195t-131.5 -59q-36 0 -65 15t-35 36q7 45 41 109l20 -1q6 -27 26 -44t45 -17q32 0 62 21.5t72 74.5q-22 236 -49 406q-4 20 -12 27.5t-24 7.5l-40 -3l4 58l177 20l11 -9q15 -146 15 -369h12
q104 181 104 254q0 48 -50 74zM416 666l-1 -14q-96 -60 -189 -129l-15 4l-30 39q37 36 79 78.5t66 67.5l23 25l13 -1z" />
    <glyph glyph-name="thorn" unicode="&#xfe;" horiz-adv-x="488" 
d="M12 -112q114 717 114 745q0 36 -38 36h-34l8 59q34 0 82 2t80 4l31 3l12 -16q-56 -254 -91 -471l6 -1q45 89 80 139t73 80q60 0 95 -43.5t35 -117.5q0 -125 -75.5 -221t-173.5 -96q-42 0 -83 9l-16 -118q-4 -29 5 -39t37 -10h43q0 -1 0.5 -3t0.5 -3l-10 -55
q-54 0 -116 -1.5t-97 -3.5l-36 -2l10 58q27 3 39.5 16.5t18.5 49.5zM312 358q-20 0 -61 -74t-83 -183q68 -24 86 -24q35 0 61.5 55.5t26.5 129.5q0 39 -8.5 67.5t-21.5 28.5z" />
    <glyph glyph-name="ydieresis" unicode="&#xff;" horiz-adv-x="462" 
d="M286 417l7 32l132 25q32 -27 32 -87q0 -105 -189 -376q-96 -136 -164.5 -195t-131.5 -59q-36 0 -65 15t-35 36q7 45 41 109l20 -1q6 -27 26 -44t45 -17q32 0 62 21.5t72 74.5q-22 236 -49 406q-4 20 -12 27.5t-24 7.5l-40 -3l4 58l177 20l11 -9q15 -146 15 -369h12
q104 181 104 254q0 48 -50 74zM351 563q-26 0 -39.5 14t-13.5 38q0 32 21.5 54t54.5 22q25 0 38.5 -14t13.5 -38q0 -33 -21 -54.5t-54 -21.5zM177 563q-25 0 -38.5 14t-13.5 38q0 32 21.5 54t54.5 22q25 0 38 -14t13 -38q0 -33 -21 -54.5t-54 -21.5z" />
    <glyph glyph-name="Amacron" unicode="&#x100;" horiz-adv-x="607" 
d="M522 131q6 -36 20 -50.5t46 -18.5l4 -7l-14 -58q-77 3 -119 3q-37 0 -78 -2t-64 -4l-23 -2l-4 8l12 59q48 4 63.5 12t15.5 30q0 7 -2 29l-9 77q-26 2 -87 2q-47 0 -93 -7l-32 -77q-10 -24 -10 -37q0 -26 39 -26h42l3 -6l-14 -62q-79 6 -140 6l-117 -3l15 66q43 7 71 67
l230 506l157 17l11 -5q46 -345 77 -517zM321 512l-96 -227h67q27 0 71 4l-28 223h-14zM521 805l7 -14l-22 -77l-136 -1l-134 -1l-9 12l23 76q92 -1 148 -1z" />
    <glyph glyph-name="amacron" unicode="&#x101;" horiz-adv-x="493" 
d="M384 109l4 -4q9 0 66 50l17 -2l16 -35q-70 -74 -107.5 -102t-66.5 -28q-43 0 -43 38q0 31 34 167l-8 1q-85 -153 -161 -206q-54 0 -84 38.5t-30 107.5q0 79 35.5 156.5t92 126.5t113.5 49l87 -18l7 22l11 7l81 -14l8 -17q-48 -179 -72 -337zM167 105q22 0 68 76.5
t84 176.5q-48 29 -88 29q-32 0 -59 -62t-27 -135q0 -36 6.5 -60.5t15.5 -24.5zM439 673l6 -14l-22 -76l-136 -1l-134 -1l-9 11l23 76q92 -1 149 -1z" />
    <glyph glyph-name="Abreve" unicode="&#x102;" horiz-adv-x="607" 
d="M522 131q6 -36 20 -50.5t46 -18.5l4 -7l-14 -58q-77 3 -119 3q-37 0 -78 -2t-64 -4l-23 -2l-4 8l12 59q48 4 63.5 12t15.5 30q0 7 -2 29l-9 77q-26 2 -87 2q-47 0 -93 -7l-32 -77q-10 -24 -10 -37q0 -26 39 -26h42l3 -6l-14 -62q-79 6 -140 6l-117 -3l15 66q43 7 71 67
l230 506l157 17l11 -5q46 -345 77 -517zM321 512l-96 -227h67q27 0 71 4l-28 223h-14zM378 798q75 0 109 59l16 -3l23 -35q-20 -49 -60.5 -82.5t-98.5 -33.5t-90.5 33.5t-40.5 82.5l33 35l17 3q19 -59 92 -59z" />
    <glyph glyph-name="abreve" unicode="&#x103;" horiz-adv-x="493" 
d="M384 109l4 -4q9 0 66 50l17 -2l16 -35q-70 -74 -107.5 -102t-66.5 -28q-43 0 -43 38q0 31 34 167l-8 1q-85 -153 -161 -206q-54 0 -84 38.5t-30 107.5q0 79 35.5 156.5t92 126.5t113.5 49l87 -18l7 22l11 7l81 -14l8 -17q-48 -179 -72 -337zM167 105q22 0 68 76.5
t84 176.5q-48 29 -88 29q-32 0 -59 -62t-27 -135q0 -36 6.5 -60.5t15.5 -24.5zM301 638q74 0 108 68l18 -4l22 -34q-20 -53 -61 -89t-98 -36q-58 0 -90 36t-40 89l31 34l18 4q18 -68 92 -68z" />
    <glyph glyph-name="Aogonek" unicode="&#x104;" horiz-adv-x="607" 
d="M563 -146l15 -29q-57 -50 -107 -67q-49 0 -77.5 21.5t-28.5 59.5q0 34 25 70t82 91h-13q-37 0 -78 -2t-64 -4l-23 -2l-4 8l12 59q48 4 63.5 12t15.5 30q0 7 -2 29l-9 77q-26 2 -87 2q-47 0 -93 -7l-32 -77q-10 -24 -10 -37q0 -26 39 -26h42l3 -6l-14 -62q-79 6 -140 6
l-117 -3l15 66q43 7 71 67l230 506l157 17l11 -5q46 -345 77 -517q6 -36 20 -50.5t46 -18.5l4 -7l-14 -58q-22 1 -47 2q-48 -52 -64.5 -77.5t-16.5 -50.5q0 -18 11 -29.5t30 -11.5q15 0 33 6t28 12zM321 512l-96 -227h67q27 0 71 4l-28 223h-14z" />
    <glyph glyph-name="aogonek" unicode="&#x105;" horiz-adv-x="493" 
d="M407 -145l15 -29q-57 -50 -107 -67q-49 0 -77.5 21.5t-28.5 60.5q0 31 21.5 64.5t70.5 83.5q-31 4 -31 37q0 31 34 167l-8 1q-85 -153 -161 -206q-54 0 -84 38.5t-30 107.5q0 79 35.5 156.5t92 126.5t113.5 49l87 -18l7 22l11 7l81 -14l8 -17q-48 -179 -72 -337l4 -4
q7 0 66 50l17 -2l18 -38q-114 -106 -154.5 -155.5t-40.5 -86.5q0 -18 11.5 -30t29.5 -12q15 0 33 6t28 12zM167 105q22 0 68 76.5t84 176.5q-48 29 -88 29q-32 0 -59 -62t-27 -135q0 -36 6.5 -60.5t15.5 -24.5z" />
    <glyph glyph-name="Cacute" unicode="&#x106;" horiz-adv-x="594" 
d="M294 -12q-122 0 -192 71.5t-70 196.5q0 181 100.5 289t269.5 108q36 0 85 -6t81 -12l31 -6l4 -13q-30 -83 -49 -188l-97 -6q9 47 9 66q0 71 -99 71q-85 0 -132 -73.5t-47 -210.5q0 -95 33.5 -145t97.5 -50q52 0 84 32t54 106l97 7q-29 -103 -42 -185l-10 -12
q-88 -40 -208 -40zM536 775l-5 -13q-115 -29 -229 -65l-13 9l-14 47l223 104l13 -5z" />
    <glyph glyph-name="cacute" unicode="&#x107;" horiz-adv-x="368" 
d="M241 385q-38 0 -67.5 -57.5t-29.5 -133.5q0 -51 16 -79.5t43 -28.5q26 0 51 22t42 59l17 -2l33 -41q-26 -58 -79 -97t-105 -39q-64 0 -101 46.5t-37 125.5q0 124 76 218.5t176 94.5q61 0 97 -22l4 -15l-42 -96l-28 -2q-28 47 -66 47zM410 666l-1 -14q-96 -60 -189 -129
l-15 4l-30 39q37 36 79 78.5t66 67.5l23 25l13 -1z" />
    <glyph glyph-name="Ccircumflex" unicode="&#x108;" horiz-adv-x="594" 
d="M294 -12q-122 0 -192 71.5t-70 196.5q0 181 100.5 289t269.5 108q36 0 85 -6t81 -12l31 -6l4 -13q-30 -83 -49 -188l-97 -6q9 47 9 66q0 71 -99 71q-85 0 -132 -73.5t-47 -210.5q0 -95 33.5 -145t97.5 -50q52 0 84 32t54 106l97 7q-29 -103 -42 -185l-10 -12
q-88 -40 -208 -40zM253 709l-24 41q18 15 59.5 53.5t73.5 69.5l33 31h20q97 -121 129 -154l-34 -41l-16 -4q-6 5 -51.5 42t-51.5 41q-3 -2 -122 -83z" />
    <glyph glyph-name="ccircumflex" unicode="&#x109;" horiz-adv-x="368" 
d="M241 385q-38 0 -67.5 -57.5t-29.5 -133.5q0 -51 16 -79.5t43 -28.5q26 0 51 22t42 59l17 -2l33 -41q-26 -58 -79 -97t-105 -39q-64 0 -101 46.5t-37 125.5q0 124 76 218.5t176 94.5q61 0 97 -22l4 -15l-42 -96l-28 -2q-28 47 -66 47zM138 534l-24 41q18 15 59.5 53.5
t74.5 69.5l32 31h20q97 -121 129 -154l-34 -41l-16 -4q-6 5 -51.5 42t-51.5 41q-3 -2 -122 -83z" />
    <glyph glyph-name="Cdotaccent" unicode="&#x10a;" horiz-adv-x="594" 
d="M294 -12q-122 0 -192 71.5t-70 196.5q0 181 100.5 289t269.5 108q36 0 85 -6t81 -12l31 -6l4 -13q-30 -83 -49 -188l-97 -6q9 47 9 66q0 71 -99 71q-85 0 -132 -73.5t-47 -210.5q0 -95 33.5 -145t97.5 -50q52 0 84 32t54 106l97 7q-29 -103 -42 -185l-10 -12
q-88 -40 -208 -40zM396 702q-31 0 -47 16.5t-16 45.5q0 39 25.5 64.5t64.5 25.5q29 0 45 -17t16 -45q0 -39 -25 -64.5t-63 -25.5z" />
    <glyph glyph-name="cdotaccent" unicode="&#x10b;" horiz-adv-x="368" 
d="M241 385q-38 0 -67.5 -57.5t-29.5 -133.5q0 -51 16 -79.5t43 -28.5q26 0 51 22t42 59l17 -2l33 -41q-26 -58 -79 -97t-105 -39q-64 0 -101 46.5t-37 125.5q0 124 76 218.5t176 94.5q61 0 97 -22l4 -15l-42 -96l-28 -2q-28 47 -66 47zM258 574q-30 0 -46 16.5t-16 44.5
q0 40 25.5 65.5t63.5 25.5q30 0 46 -17t16 -45q0 -39 -25.5 -64.5t-63.5 -25.5z" />
    <glyph glyph-name="Ccaron" unicode="&#x10c;" horiz-adv-x="594" 
d="M294 -12q-122 0 -192 71.5t-70 196.5q0 181 100.5 289t269.5 108q36 0 85 -6t81 -12l31 -6l4 -13q-30 -83 -49 -188l-97 -6q9 47 9 66q0 71 -99 71q-85 0 -132 -73.5t-47 -210.5q0 -95 33.5 -145t97.5 -50q52 0 84 32t54 106l97 7q-29 -103 -42 -185l-10 -12
q-88 -40 -208 -40zM551 861l20 -41l-169 -124h-19q-102 95 -137 124l28 41l17 4q9 -4 58.5 -29.5t56.5 -28.5q8 3 63.5 28.5t66.5 29.5z" />
    <glyph glyph-name="ccaron" unicode="&#x10d;" horiz-adv-x="368" 
d="M241 385q-38 0 -67.5 -57.5t-29.5 -133.5q0 -51 16 -79.5t43 -28.5q26 0 51 22t42 59l17 -2l33 -41q-26 -58 -79 -97t-105 -39q-64 0 -101 46.5t-37 125.5q0 124 76 218.5t176 94.5q61 0 97 -22l4 -15l-42 -96l-28 -2q-28 47 -66 47zM121 679l35 42l16 3q42 -38 105 -85
q87 56 126 85l14 -3l25 -42q-35 -31 -77.5 -70.5t-67.5 -63.5l-25 -24h-20q-69 88 -131 158z" />
    <glyph glyph-name="Dcaron" unicode="&#x10e;" horiz-adv-x="667" 
d="M283 -12q-95 12 -150 12q-23 0 -54.5 -2.5t-51.5 -5.5l-20 -2l15 67q41 7 57.5 24.5t22.5 59.5l47 382q4 32 -1 43t-22 11l-33 -2l-4 9l15 60q85 -3 123 -3l145 5q132 0 209.5 -68.5t77.5 -189.5q0 -172 -107 -286t-269 -114zM320 562q-16 0 -22 -5t-8 -19
q-63 -385 -63 -413q0 -31 15.5 -42t56.5 -11q95 0 150 81.5t55 222.5q0 186 -184 186zM537 861l20 -41l-169 -124h-19q-102 95 -137 124l28 41l17 4q9 -4 58.5 -29.5t56.5 -28.5q8 3 63.5 28.5t66.5 29.5z" />
    <glyph glyph-name="dcaron" unicode="&#x10f;" horiz-adv-x="607" 
d="M384 109l4 -4q7 0 66 50l17 -2l16 -35q-72 -75 -109 -102.5t-65 -27.5q-43 0 -43 38q0 24 34 167l-8 1q-83 -150 -161 -206q-54 0 -84 38.5t-30 107.5q0 79 35.5 156.5t92 126.5t113.5 49l70 -16l24 176q3 23 -5.5 33t-31.5 10h-35l9 59q33 0 81.5 2t79.5 4l32 3l12 -16
q-82 -406 -114 -612zM167 105q22 0 67.5 75.5t83.5 177.5q-49 29 -87 29q-32 0 -59 -62t-27 -135q0 -36 6.5 -60.5t15.5 -24.5zM656 699l6 -10q-28 -109 -63 -216l-51 -20l-14 4q8 51 13 108t7 89l1 31z" />
    <glyph glyph-name="Dcroat" unicode="&#x110;" horiz-adv-x="682" 
d="M298 -12q-95 12 -150 12q-23 0 -54.5 -2.5t-51.5 -5.5l-20 -2l15 67q41 7 57.5 24.5t22.5 59.5l18 145h-112l-7 7l17 60h110l21 170q4 32 -1 43t-22 11l-33 -2l-4 9l15 60q85 -3 123 -3l145 5q132 0 209.5 -68.5t77.5 -189.5q0 -172 -107 -286t-269 -114zM335 562
q-16 0 -22 -5t-8 -19q-2 -11 -30 -185l117 2l6 -9l-14 -60h-120q-22 -140 -22 -161q0 -31 15.5 -42t56.5 -11q95 0 150 81.5t55 222.5q0 186 -184 186z" />
    <glyph glyph-name="dcroat" unicode="&#x111;" horiz-adv-x="495" 
d="M384 109l4 -4q7 0 66 50l17 -2l16 -35q-72 -75 -109 -102.5t-65 -27.5q-43 0 -43 38q0 24 34 167l-8 1q-83 -150 -161 -206q-54 0 -84 38.5t-30 107.5q0 79 35.5 156.5t92 126.5t113.5 49l70 -16l10 78h-104l-10 10l8 48l114 -1l6 41q3 23 -5.5 33t-31.5 10h-35l9 59
q33 0 81.5 2t79.5 4l32 3l12 -16q-11 -55 -27 -134l71 3l14 -14l-5 -46l-91 -1q-56 -284 -76 -420zM167 105q22 0 67.5 75.5t83.5 177.5q-49 29 -87 29q-32 0 -59 -62t-27 -135q0 -36 6.5 -60.5t15.5 -24.5z" />
    <glyph glyph-name="Emacron" unicode="&#x112;" horiz-adv-x="577" 
d="M225 114q0 -24 11 -30.5t46 -6.5q89 0 116.5 19t47.5 95l83 7l6 -10q-29 -89 -50 -185l-11 -10q-179 7 -299 7q-38 0 -80.5 -2.5t-66.5 -5.5l-23 -2l16 67q41 6 57.5 24t21.5 61l48 382q4 33 -0.5 43.5t-23.5 10.5l-30 -2l-5 9l15 59q106 -3 178 -3q206 0 296 12l6 -10
q-28 -88 -44 -181l-90 -6q8 35 8 57q0 30 -22 38.5t-93 8.5q-34 0 -42.5 -5t-12.5 -28l-26 -158q9 0 42 -0.5t48 -0.5l113 8l6 -8l-24 -85q-77 3 -125 3q-23 0 -74 -6q-23 -157 -23 -166zM521 805l7 -14l-22 -77l-136 -1l-134 -1l-9 12l23 76q92 -1 148 -1z" />
    <glyph glyph-name="emacron" unicode="&#x113;" horiz-adv-x="393" 
d="M385 379q0 -66 -55.5 -110t-187.5 -86q0 -45 16.5 -71.5t46.5 -26.5q57 0 101 79l17 -2l33 -40q-27 -58 -82 -96t-111 -38q-64 0 -101.5 47.5t-37.5 127.5q0 121 77.5 215.5t176.5 94.5q50 0 78.5 -25t28.5 -69zM243 385q-33 0 -60.5 -39.5t-37.5 -101.5q131 43 131 106
q0 35 -33 35zM421 672l6 -14l-22 -76l-136 -1l-134 -1l-9 11l23 76q92 -1 149 -1z" />
    <glyph glyph-name="Ebreve" unicode="&#x114;" horiz-adv-x="577" 
d="M225 114q0 -24 11 -30.5t46 -6.5q89 0 116.5 19t47.5 95l83 7l6 -10q-29 -89 -50 -185l-11 -10q-179 7 -299 7q-38 0 -80.5 -2.5t-66.5 -5.5l-23 -2l16 67q41 6 57.5 24t21.5 61l48 382q4 33 -0.5 43.5t-23.5 10.5l-30 -2l-5 9l15 59q106 -3 178 -3q206 0 296 12l6 -10
q-28 -88 -44 -181l-90 -6q8 35 8 57q0 30 -22 38.5t-93 8.5q-34 0 -42.5 -5t-12.5 -28l-26 -158q9 0 42 -0.5t48 -0.5l113 8l6 -8l-24 -85q-77 3 -125 3q-23 0 -74 -6q-23 -157 -23 -166zM371 802q74 0 108 68l18 -4l22 -34q-20 -53 -61 -89t-98 -36q-58 0 -90 36t-40 89
l31 34l18 4q18 -68 92 -68z" />
    <glyph glyph-name="ebreve" unicode="&#x115;" horiz-adv-x="393" 
d="M385 379q0 -66 -55.5 -110t-187.5 -86q0 -45 16.5 -71.5t46.5 -26.5q57 0 101 79l17 -2l33 -40q-27 -58 -82 -96t-111 -38q-64 0 -101.5 47.5t-37.5 127.5q0 121 77.5 215.5t176.5 94.5q50 0 78.5 -25t28.5 -69zM243 385q-33 0 -60.5 -39.5t-37.5 -101.5q131 43 131 106
q0 35 -33 35zM279 637q74 0 108 68l18 -4l22 -34q-20 -53 -61 -89t-98 -36q-58 0 -90 36t-40 89l31 34l18 4q18 -68 92 -68z" />
    <glyph glyph-name="Edotaccent" unicode="&#x116;" horiz-adv-x="577" 
d="M225 114q0 -24 11 -30.5t46 -6.5q89 0 116.5 19t47.5 95l83 7l6 -10q-29 -89 -50 -185l-11 -10q-179 7 -299 7q-38 0 -80.5 -2.5t-66.5 -5.5l-23 -2l16 67q41 6 57.5 24t21.5 61l48 382q4 33 -0.5 43.5t-23.5 10.5l-30 -2l-5 9l15 59q106 -3 178 -3q206 0 296 12l6 -10
q-28 -88 -44 -181l-90 -6q8 35 8 57q0 30 -22 38.5t-93 8.5q-34 0 -42.5 -5t-12.5 -28l-26 -158q9 0 42 -0.5t48 -0.5l113 8l6 -8l-24 -85q-77 3 -125 3q-23 0 -74 -6q-23 -157 -23 -166zM366 702q-31 0 -47 16.5t-16 45.5q0 39 25.5 64.5t64.5 25.5q29 0 45 -17t16 -45
q0 -39 -25 -64.5t-63 -25.5z" />
    <glyph glyph-name="edotaccent" unicode="&#x117;" horiz-adv-x="393" 
d="M385 379q0 -66 -55.5 -110t-187.5 -86q0 -45 16.5 -71.5t46.5 -26.5q57 0 101 79l17 -2l33 -40q-27 -58 -82 -96t-111 -38q-64 0 -101.5 47.5t-37.5 127.5q0 121 77.5 215.5t176.5 94.5q50 0 78.5 -25t28.5 -69zM243 385q-33 0 -60.5 -39.5t-37.5 -101.5q131 43 131 106
q0 35 -33 35zM265 574q-30 0 -46 16.5t-16 44.5q0 40 25.5 65.5t63.5 25.5q30 0 46 -17t16 -45q0 -39 -25.5 -64.5t-63.5 -25.5z" />
    <glyph glyph-name="Eogonek" unicode="&#x118;" horiz-adv-x="577" 
d="M472 -145l15 -29q-57 -50 -107 -67q-49 0 -77.5 21.5t-28.5 59.5q0 34 24 69.5t78 87.5q-92 3 -201 3q-38 0 -80.5 -2.5t-66.5 -5.5l-23 -2l16 67q41 6 57.5 24t21.5 61l48 382q4 33 -0.5 43.5t-23.5 10.5l-30 -2l-5 9l15 59q106 -3 178 -3q206 0 296 12l6 -10
q-28 -88 -44 -181l-90 -6q8 35 8 57q0 30 -22 38.5t-93 8.5q-34 0 -42.5 -5t-12.5 -28l-26 -158q9 0 42 -0.5t48 -0.5l113 8l6 -8l-24 -85q-77 3 -125 3q-23 0 -74 -6q-23 -157 -23 -166q0 -24 11 -30.5t46 -6.5q89 0 116.5 19t47.5 95l83 7l6 -10q-29 -89 -50 -185l-11 -10
q-15 1 -39 2q-45 -49 -60.5 -74t-15.5 -49q0 -18 11 -29.5t30 -11.5q15 0 33 6t29 12z" />
    <glyph glyph-name="eogonek" unicode="&#x119;" horiz-adv-x="393" 
d="M298 -145l15 -29q-57 -50 -107 -67q-49 0 -77.5 21.5t-28.5 60.5q0 35 24.5 70t79.5 87q-20 -10 -41 -10q-64 0 -101.5 47.5t-37.5 127.5q0 121 77.5 215.5t176.5 94.5q50 0 78.5 -25t28.5 -69q0 -65 -55 -109.5t-188 -86.5q0 -45 16.5 -71.5t46.5 -26.5q57 0 101 79
l17 -2l33 -40q-34 -55 -80 -108.5t-68.5 -83.5t-22.5 -57q0 -18 11.5 -30t29.5 -12q15 0 33 6t29 12zM243 385q-33 0 -60.5 -39.5t-37.5 -101.5q131 44 131 106q0 35 -33 35z" />
    <glyph glyph-name="Ecaron" unicode="&#x11a;" horiz-adv-x="577" 
d="M225 114q0 -24 11 -30.5t46 -6.5q89 0 116.5 19t47.5 95l83 7l6 -10q-29 -89 -50 -185l-11 -10q-179 7 -299 7q-38 0 -80.5 -2.5t-66.5 -5.5l-23 -2l16 67q41 6 57.5 24t21.5 61l48 382q4 33 -0.5 43.5t-23.5 10.5l-30 -2l-5 9l15 59q106 -3 178 -3q206 0 296 12l6 -10
q-28 -88 -44 -181l-90 -6q8 35 8 57q0 30 -22 38.5t-93 8.5q-34 0 -42.5 -5t-12.5 -28l-26 -158q9 0 42 -0.5t48 -0.5l113 8l6 -8l-24 -85q-77 3 -125 3q-23 0 -74 -6q-23 -157 -23 -166zM526 861l20 -41l-169 -124h-19q-102 95 -137 124l28 41l17 4q9 -4 58.5 -29.5
t56.5 -28.5q8 3 63.5 28.5t66.5 29.5z" />
    <glyph glyph-name="ecaron" unicode="&#x11b;" horiz-adv-x="393" 
d="M385 379q0 -66 -55.5 -110t-187.5 -86q0 -45 16.5 -71.5t46.5 -26.5q57 0 101 79l17 -2l33 -40q-27 -58 -82 -96t-111 -38q-64 0 -101.5 47.5t-37.5 127.5q0 121 77.5 215.5t176.5 94.5q50 0 78.5 -25t28.5 -69zM243 385q-33 0 -60.5 -39.5t-37.5 -101.5q131 43 131 106
q0 35 -33 35zM122 679l35 42l16 3q42 -38 105 -85q87 56 126 85l14 -3l25 -42q-35 -31 -77.5 -70.5t-67.5 -63.5l-25 -24h-20q-69 88 -131 158z" />
    <glyph glyph-name="Gcircumflex" unicode="&#x11c;" horiz-adv-x="629" 
d="M294 -12q-122 0 -192 71.5t-70 196.5q0 181 100.5 289t269.5 108q36 0 85 -6t81 -12l31 -6l4 -13q-30 -76 -49 -181l-97 -7q9 43 9 62q0 69 -99 69q-85 0 -132 -73.5t-47 -210.5q0 -95 33.5 -145t97.5 -50q25 0 49.5 6.5t35.5 13.5l12 6l11 95q3 29 -4 38.5t-32 9.5h-50
l-4 8l19 70h4q5 0 13 -0.5t18.5 -0.5h23.5t25.5 -0.5t26 -0.5h24.5q18 0 41.5 1t38.5 2t15 2l2 -38q-35 -22 -44 -82q-17 -87 -17 -136l1 -33l-10 -12q-10 -5 -27.5 -11.5t-76 -18t-120.5 -11.5zM250 709l-24 41q18 15 59.5 53.5t74.5 69.5l32 31h20q97 -121 129 -154
l-34 -41l-16 -4q-6 5 -51.5 42t-51.5 41q-3 -2 -122 -83z" />
    <glyph glyph-name="gcircumflex" unicode="&#x11d;" horiz-adv-x="471" 
d="M188 114q19 0 58.5 69t83.5 176q-53 28 -88 28q-31 0 -56.5 -58.5t-25.5 -126.5q0 -37 8 -62.5t20 -25.5zM160 0q-11 -8 -30.5 -21l-33 -22t-27.5 -19t-21 -17t-7 -11q0 -23 32 -42t71 -19q58 0 96.5 38t47.5 107l23 191l-9 3q-54 -91 -82.5 -128.5t-59.5 -59.5zM393 17
q-10 -85 -108.5 -171.5t-184.5 -86.5q-77 -1 -129.5 39.5t-47.5 96.5l3 8q34 25 172 101l1 8q-62 32 -62 135q0 75 35 149.5t90 122t110 47.5l88 -18l8 23l12 6l80 -13l11 -18q-51 -103 -60 -187q-3 -25 -9 -120.5t-9 -121.5zM187 534l-24 41q18 15 59.5 53.5t73.5 69.5
l33 31h20q97 -121 129 -154l-34 -41l-16 -4q-6 5 -51.5 42t-51.5 41q-3 -2 -122 -83z" />
    <glyph glyph-name="Gbreve" unicode="&#x11e;" horiz-adv-x="629" 
d="M294 -12q-122 0 -192 71.5t-70 196.5q0 181 100.5 289t269.5 108q36 0 85 -6t81 -12l31 -6l4 -13q-30 -76 -49 -181l-97 -7q9 43 9 62q0 69 -99 69q-85 0 -132 -73.5t-47 -210.5q0 -95 33.5 -145t97.5 -50q25 0 49.5 6.5t35.5 13.5l12 6l11 95q3 29 -4 38.5t-32 9.5h-50
l-4 8l19 70h4q5 0 13 -0.5t18.5 -0.5h23.5t25.5 -0.5t26 -0.5h24.5q18 0 41.5 1t38.5 2t15 2l2 -38q-35 -22 -44 -82q-17 -87 -17 -136l1 -33l-10 -12q-10 -5 -27.5 -11.5t-76 -18t-120.5 -11.5zM398 809q75 0 109 59l16 -3l23 -35q-20 -49 -60.5 -82.5t-98.5 -33.5
t-90.5 33.5t-40.5 82.5l33 35l17 3q19 -59 92 -59z" />
    <glyph glyph-name="gbreve" unicode="&#x11f;" horiz-adv-x="471" 
d="M188 114q19 0 58.5 69t83.5 176q-53 28 -88 28q-31 0 -56.5 -58.5t-25.5 -126.5q0 -37 8 -62.5t20 -25.5zM160 0q-11 -8 -30.5 -21l-33 -22t-27.5 -19t-21 -17t-7 -11q0 -23 32 -42t71 -19q58 0 96.5 38t47.5 107l23 191l-9 3q-54 -91 -82.5 -128.5t-59.5 -59.5zM393 17
q-10 -85 -108.5 -171.5t-184.5 -86.5q-77 -1 -129.5 39.5t-47.5 96.5l3 8q34 25 172 101l1 8q-62 32 -62 135q0 75 35 149.5t90 122t110 47.5l88 -18l8 23l12 6l80 -13l11 -18q-51 -103 -60 -187q-3 -25 -9 -120.5t-9 -121.5zM321 637q74 0 108 68l18 -4l22 -34
q-20 -53 -61 -89t-98 -36q-58 0 -90 36t-40 89l31 34l18 4q18 -68 92 -68z" />
    <glyph glyph-name="Gdotaccent" unicode="&#x120;" horiz-adv-x="629" 
d="M294 -12q-122 0 -192 71.5t-70 196.5q0 181 100.5 289t269.5 108q36 0 85 -6t81 -12l31 -6l4 -13q-30 -76 -49 -181l-97 -7q9 43 9 62q0 69 -99 69q-85 0 -132 -73.5t-47 -210.5q0 -95 33.5 -145t97.5 -50q25 0 49.5 6.5t35.5 13.5l12 6l11 95q3 29 -4 38.5t-32 9.5h-50
l-4 8l19 70h4q5 0 13 -0.5t18.5 -0.5h23.5t25.5 -0.5t26 -0.5h24.5q18 0 41.5 1t38.5 2t15 2l2 -38q-35 -22 -44 -82q-17 -87 -17 -136l1 -33l-10 -12q-10 -5 -27.5 -11.5t-76 -18t-120.5 -11.5zM393 702q-31 0 -47 16.5t-16 45.5q0 39 25.5 64.5t64.5 25.5q29 0 45 -17
t16 -45q0 -39 -25 -64.5t-63 -25.5z" />
    <glyph glyph-name="gdotaccent" unicode="&#x121;" horiz-adv-x="471" 
d="M188 114q19 0 58.5 69t83.5 176q-53 28 -88 28q-31 0 -56.5 -58.5t-25.5 -126.5q0 -37 8 -62.5t20 -25.5zM160 0q-11 -8 -30.5 -21l-33 -22t-27.5 -19t-21 -17t-7 -11q0 -23 32 -42t71 -19q58 0 96.5 38t47.5 107l23 191l-9 3q-54 -91 -82.5 -128.5t-59.5 -59.5zM393 17
q-10 -85 -108.5 -171.5t-184.5 -86.5q-77 -1 -129.5 39.5t-47.5 96.5l3 8q34 25 172 101l1 8q-62 32 -62 135q0 75 35 149.5t90 122t110 47.5l88 -18l8 23l12 6l80 -13l11 -18q-51 -103 -60 -187q-3 -25 -9 -120.5t-9 -121.5zM302 574q-30 0 -46 16.5t-16 44.5
q0 40 25.5 65.5t63.5 25.5q30 0 46 -17t16 -45q0 -39 -25.5 -64.5t-63.5 -25.5z" />
    <glyph glyph-name="Gcommaaccent" unicode="&#x122;" horiz-adv-x="629" 
d="M294 -12q-122 0 -192 71.5t-70 196.5q0 181 100.5 289t269.5 108q36 0 85 -6t81 -12l31 -6l4 -13q-30 -76 -49 -181l-97 -7q9 43 9 62q0 69 -99 69q-85 0 -132 -73.5t-47 -210.5q0 -95 33.5 -145t97.5 -50q25 0 49.5 6.5t35.5 13.5l12 6l11 95q3 29 -4 38.5t-32 9.5h-50
l-4 8l19 70h4q5 0 13 -0.5t18.5 -0.5h23.5t25.5 -0.5t26 -0.5h24.5q18 0 41.5 1t38.5 2t15 2l2 -38q-35 -22 -44 -82q-17 -87 -17 -136l1 -33l-10 -12q-10 -5 -27.5 -11.5t-76 -18t-120.5 -11.5zM206 -100l3 14q44 35 79 35q30 0 49.5 -23.5t19.5 -62.5q0 -50 -41.5 -98
t-105.5 -83l-37 30v17q30 21 49 49t19 53q0 41 -35 69z" />
    <glyph glyph-name="gcommaaccent" unicode="&#x123;" horiz-adv-x="471" 
d="M188 114q19 0 58.5 69t83.5 176q-53 28 -88 28q-31 0 -56.5 -58.5t-25.5 -126.5q0 -37 8 -62.5t20 -25.5zM160 0q-11 -8 -30.5 -21l-33 -22t-27.5 -19t-21 -17t-7 -11q0 -23 32 -42t71 -19q58 0 96.5 38t47.5 107l23 191l-9 3q-54 -91 -82.5 -128.5t-59.5 -59.5zM393 17
q-10 -85 -108.5 -171.5t-184.5 -86.5q-77 -1 -129.5 39.5t-47.5 96.5l3 8q34 25 172 101l1 8q-62 32 -62 135q0 75 35 149.5t90 122t110 47.5l88 -18l8 23l12 6l80 -13l11 -18q-51 -103 -60 -187q-3 -25 -9 -120.5t-9 -121.5zM383 569l-3 -14q-44 -35 -79 -35
q-30 0 -49.5 23t-19.5 62q0 50 41.5 98t105.5 84l37 -30v-17q-30 -20 -49 -48.5t-19 -54.5q0 -40 35 -68z" />
    <glyph glyph-name="Hcircumflex" unicode="&#x124;" horiz-adv-x="720" 
d="M656 529q-19 -108 -40.5 -250.5t-21.5 -170.5q0 -25 7.5 -34.5t25.5 -9.5l36 3q0 -1 1.5 -3t2.5 -4l-16 -63q-67 3 -119 3h-40l-118 -2l16 65q40 1 56.5 19.5t23.5 72.5l16 129q-68 1 -103 1l-136 -10l-14 -110q-9 -59 -7 -73q1 -16 7.5 -22t22.5 -6l35 3l4 -7l-16 -63
q-82 3 -118 3q-28 0 -65 -1.5t-63.5 -4t-26.5 -3.5l15 64q46 10 61 28.5t21 72.5l45 370q4 32 -1.5 42t-26.5 10l-29 -1l-4 8l14 58q76 -2 116 -2l147 8l-13 -66q-37 -6 -48.5 -18.5t-17.5 -53.5l-24 -144q42 0 122 -2q60 0 113 7l20 154q4 30 -2 41t-26 11l-30 -1l-4 8
l15 58q-1 0 26.5 -0.5t61.5 -1t48 -0.5l130 8l-12 -65q-36 -5 -49 -15.5t-18 -39.5zM293 735l-24 41q18 15 59.5 53.5t73.5 69.5l33 31h20q97 -121 129 -154l-34 -41l-16 -4q-6 5 -51.5 42t-51.5 41q-3 -2 -122 -83z" />
    <glyph glyph-name="hcircumflex" unicode="&#x125;" horiz-adv-x="506" 
d="M387 110l3 -3q9 0 66 50l18 -3l16 -35q-67 -71 -106 -100.5t-68 -29.5q-48 0 -48 44q0 26 34.5 138.5t34.5 139.5q0 35 -26 35q-25 0 -66.5 -68t-84.5 -177l-9 -72q-2 -13 -36 -25t-68 -12l-13 16q89 561 95 620q1 22 -7 31.5t-30 9.5h-35l9 59q33 0 81.5 2t80.5 4l31 3
l12 -16q-58 -254 -91 -471l6 -1q86 179 162 225q50 0 81.5 -28.5t31.5 -73.5q0 -31 -34.5 -135.5t-39.5 -126.5zM62 772l-24 41q18 15 59.5 53.5t74.5 69.5l32 31h20q97 -121 129 -154l-34 -41l-16 -4q-6 5 -51.5 42t-51.5 41q-3 -2 -122 -83z" />
    <glyph glyph-name="Hbar" unicode="&#x126;" horiz-adv-x="720" 
d="M656 529l-5 -27l81 2l14 -14l-5 -46h-100q-47 -288 -47 -336q0 -25 7.5 -34.5t25.5 -9.5l36 3q0 -1 1.5 -3t2.5 -4l-16 -63q-67 3 -119 3h-40l-118 -2l16 65q40 1 56.5 19.5t23.5 72.5l16 129q-68 1 -103 1l-136 -10l-14 -110q-9 -59 -7 -73q1 -16 7.5 -22t22.5 -6l35 3
l4 -7l-16 -63q-82 3 -118 3q-28 0 -65 -1.5t-63.5 -4t-26.5 -3.5l15 64q46 10 61 28.5t21 72.5l35 286h-90l-10 10l8 48q43 -1 99 -1l3 27q4 32 -1.5 42t-26.5 10l-29 -1l-4 8l14 58q76 -2 116 -2l147 8l-13 -66q-37 -6 -48.5 -18.5t-17.5 -53.5l-2 -12h135h94l4 27
q4 30 -2 41t-26 11l-30 -1l-4 8l15 58q-1 0 26.5 -0.5t61.5 -1t48 -0.5l130 8l-12 -65q-36 -5 -49 -15.5t-18 -39.5zM394 443h-121l-12 -76q42 0 122 -2q60 0 113 7l9 71h-111z" />
    <glyph glyph-name="hbar" unicode="&#x127;" horiz-adv-x="506" 
d="M387 110l3 -3q9 0 66 50l18 -3l16 -35q-67 -71 -106 -100.5t-68 -29.5q-48 0 -48 44q0 26 34.5 138.5t34.5 139.5q0 35 -26 35q-25 0 -66.5 -68t-84.5 -177l-9 -72q-2 -13 -36 -25t-68 -12l-13 16q52 326 79 507h-84l-10 9l8 48l94 -1l8 57q1 22 -7 31.5t-30 9.5h-35
l9 59q33 0 81.5 2t80.5 4l31 3l12 -16q-14 -61 -32 -149l78 4l14 -14l-4 -46h-100q-32 -166 -47 -266l6 -1q86 179 162 225q50 0 81.5 -28.5t31.5 -73.5q0 -31 -34.5 -135.5t-39.5 -126.5z" />
    <glyph glyph-name="Itilde" unicode="&#x128;" horiz-adv-x="353" 
d="M288 529q-63 -365 -63 -425q0 -23 7 -31.5t24 -8.5l42 3l3 -7l-16 -63q-100 3 -143 3q-24 0 -58.5 -2t-56.5 -4l-22 -3l15 64q43 9 59.5 26t21.5 58l47 387q4 31 -1.5 41.5t-26.5 10.5l-33 -1l-4 8l14 58q11 0 60 -1t75 -1l139 8l-14 -66q-37 -5 -50.5 -15.5t-18.5 -38.5
zM110 714h-11l-35 36l1 11l88 101l16 4q17 0 73 -16.5t69 -16.5q10 0 27 14t30 28l12 14h11l36 -37l-2 -10l-88 -102l-16 -4q-17 0 -72.5 17t-68.5 17q-11 0 -28.5 -14t-29.5 -28z" />
    <glyph glyph-name="itilde" unicode="&#x129;" horiz-adv-x="293" 
d="M49 539h-11l-35 36l1 11l88 101l16 4q17 0 73 -16.5t69 -16.5q10 0 27 14t29 28l13 14h11l36 -37l-2 -10l-88 -102l-16 -4q-17 0 -72.5 17t-68.5 17q-11 0 -28.5 -14t-29.5 -28zM169 109l4 -4q9 0 66 50l17 -2l17 -35q-120 -130 -174 -130q-47 0 -47 50q48 286 48 318
q0 20 -9 29t-29 9h-35l10 59q33 0 80.5 2.5t78.5 4.5l32 2l12 -16q-47 -168 -71 -337z" />
    <glyph glyph-name="Imacron" unicode="&#x12a;" horiz-adv-x="353" 
d="M288 529q-63 -365 -63 -425q0 -23 7 -31.5t24 -8.5l42 3l3 -7l-16 -63q-100 3 -143 3q-24 0 -58.5 -2t-56.5 -4l-22 -3l15 64q43 9 59.5 26t21.5 58l47 387q4 31 -1.5 41.5t-26.5 10.5l-33 -1l-4 8l14 58q11 0 60 -1t75 -1l139 8l-14 -66q-37 -5 -50.5 -15.5t-18.5 -38.5
zM389 805l7 -14l-22 -77l-136 -1l-134 -1l-9 12l23 76q92 -1 148 -1z" />
    <glyph glyph-name="imacron" unicode="&#x12b;" horiz-adv-x="293" 
d="M324 672l6 -14l-21 -76l-129 -1l-127 -1l-9 11l22 76q87 -1 141 -1zM169 109l4 -4q9 0 66 50l17 -2l17 -35q-120 -130 -174 -130q-47 0 -47 50q48 286 48 318q0 20 -9 29t-29 9h-35l10 59q33 0 80.5 2.5t78.5 4.5l32 2l12 -16q-47 -168 -71 -337z" />
    <glyph glyph-name="Ibreve" unicode="&#x12c;" horiz-adv-x="353" 
d="M288 529q-63 -365 -63 -425q0 -23 7 -31.5t24 -8.5l42 3l3 -7l-16 -63q-100 3 -143 3q-24 0 -58.5 -2t-56.5 -4l-22 -3l15 64q43 9 59.5 26t21.5 58l47 387q4 31 -1.5 41.5t-26.5 10.5l-33 -1l-4 8l14 58q11 0 60 -1t75 -1l139 8l-14 -66q-37 -5 -50.5 -15.5t-18.5 -38.5
zM245 803q75 0 109 59l16 -3l23 -35q-20 -49 -60.5 -82.5t-98.5 -33.5t-90.5 33.5t-40.5 82.5l33 35l17 3q19 -59 92 -59z" />
    <glyph glyph-name="ibreve" unicode="&#x12d;" horiz-adv-x="293" 
d="M188 637q74 0 108 68l18 -4l22 -34q-20 -53 -61 -89t-98 -36q-58 0 -90 36t-40 89l31 34l18 4q18 -68 92 -68zM169 109l4 -4q9 0 66 50l17 -2l17 -35q-120 -130 -174 -130q-47 0 -47 50q48 286 48 318q0 20 -9 29t-29 9h-35l10 59q33 0 80.5 2.5t78.5 4.5l32 2l12 -16
q-47 -168 -71 -337z" />
    <glyph glyph-name="Iogonek" unicode="&#x12e;" horiz-adv-x="353" 
d="M274 -146l15 -29q-57 -50 -107 -67q-49 0 -77.5 21.5t-28.5 59.5q0 34 25 70t82 91h-41q-24 0 -58.5 -2t-56.5 -4l-22 -3l15 64q43 9 59.5 26t21.5 58l47 387q4 31 -1.5 41.5t-26.5 10.5l-33 -1l-4 8l14 58q11 0 60 -1t75 -1l139 8l-14 -66q-37 -5 -50.5 -15.5
t-18.5 -38.5q-63 -365 -63 -425q0 -23 7 -31.5t24 -8.5l42 3l3 -7l-16 -63q-20 1 -44 2q-48 -52 -64 -77.5t-16 -50.5q0 -18 11 -29.5t30 -11.5q15 0 33 6t29 12z" />
    <glyph glyph-name="iogonek" unicode="&#x12f;" horiz-adv-x="293" 
d="M204 -141l16 -29q-58 -50 -107 -67q-50 0 -78.5 21.5t-28.5 59.5q0 33 21 66t68 78q-43 1 -43 50q48 286 48 318q0 20 -9 29t-29 9h-35l10 59q33 0 80.5 2.5t78.5 4.5l32 2l12 -16q-47 -168 -71 -337l4 -4q9 0 66 50l17 -2l17 -35q-16 -18 -38.5 -42t-35 -37t-29 -31
t-25 -28.5t-19.5 -24t-16 -22.5t-10 -19t-7 -19t-2 -18q0 -19 11.5 -30.5t30.5 -11.5q14 0 32 6t29 12zM180 570q-28 0 -43.5 17t-15.5 44q0 39 25 64.5t64 25.5q27 0 42 -16t15 -43q0 -40 -24.5 -66t-62.5 -26z" />
    <glyph glyph-name="Idotaccent" unicode="&#x130;" horiz-adv-x="353" 
d="M288 529q-63 -365 -63 -425q0 -23 7 -31.5t24 -8.5l42 3l3 -7l-16 -63q-100 3 -143 3q-24 0 -58.5 -2t-56.5 -4l-22 -3l15 64q43 9 59.5 26t21.5 58l47 387q4 31 -1.5 41.5t-26.5 10.5l-33 -1l-4 8l14 58q11 0 60 -1t75 -1l139 8l-14 -66q-37 -5 -50.5 -15.5t-18.5 -38.5
zM234 702q-31 0 -47 16.5t-16 45.5q0 39 25.5 64.5t64.5 25.5q29 0 45 -17t16 -45q0 -39 -25 -64.5t-63 -25.5z" />
    <glyph glyph-name="dotlessi" unicode="&#x131;" horiz-adv-x="283" 
d="M169 109l4 -4q9 0 66 50l17 -2l17 -35q-120 -130 -174 -130q-47 0 -47 50q48 286 48 318q0 20 -9 29t-29 9h-35l10 59q33 0 80.5 2.5t78.5 4.5l32 2l12 -16q-47 -168 -71 -337z" />
    <glyph glyph-name="IJ" unicode="&#x132;" horiz-adv-x="673" 
d="M288 529q-63 -365 -63 -425q0 -23 7 -31.5t24 -8.5l42 3l3 -7l-16 -63q-100 3 -143 3q-24 0 -58.5 -2t-56.5 -4l-22 -3l15 64q43 9 59.5 26t21.5 58l47 387q4 31 -1.5 41.5t-26.5 10.5l-33 -1l-4 8l14 58q11 0 60 -1t75 -1l139 8l-14 -66q-37 -5 -50.5 -15.5t-18.5 -38.5
zM442 123l50 403q4 31 -1 41.5t-25 10.5l-42 -3l-3 8l14 58l120 1q30 0 67 2t59 4l22 2l-14 -67q-32 -6 -42 -15.5t-15 -38.5q-39 -223 -64 -427q-13 -100 -69 -160.5t-165 -94.5l-23 40l4 11q64 41 89.5 86.5t37.5 138.5z" />
    <glyph glyph-name="ij" unicode="&#x133;" horiz-adv-x="555" 
d="M180 570q-28 0 -43.5 17t-15.5 44q0 39 25 64.5t64 25.5q27 0 42 -16t15 -43q0 -40 -24.5 -66t-62.5 -26zM169 109l4 -4q9 0 66 50l17 -2l17 -35q-120 -130 -174 -130q-47 0 -47 50q48 286 48 318q0 20 -9 29t-29 9h-35l10 59q33 0 80.5 2.5t78.5 4.5l32 2l12 -16
q-47 -168 -71 -337zM447 18q-23 -178 -200 -262l-27 30l3 12q57 42 82 91.5t37 146.5q50 288 50 320q0 38 -39 38h-35l10 59q33 0 80.5 2.5t78.5 4.5l31 2l13 -16q-52 -206 -84 -428zM470 570q-28 0 -43.5 16.5t-15.5 44.5q0 40 25 65t64 25q28 0 43 -15.5t15 -43.5
q0 -40 -25 -66t-63 -26z" />
    <glyph glyph-name="Jcircumflex" unicode="&#x134;" horiz-adv-x="321" 
d="M89 123l50 403q4 31 -1.5 41.5t-24.5 10.5l-42 -3l-3 8l14 58l120 1q30 0 67 2t59 4l22 2l-14 -67q-32 -6 -42 -15.5t-15 -38.5q-39 -223 -64 -427q-13 -100 -69 -160.5t-165 -94.5l-23 40l4 11q64 41 89.5 86.5t37.5 138.5zM103 709l-24 41q18 15 59.5 53.5t73.5 69.5
l33 31h20q97 -121 129 -154l-34 -41l-16 -4q-6 5 -51.5 42t-51.5 41q-3 -2 -122 -83z" />
    <glyph glyph-name="jcircumflex" unicode="&#x135;" horiz-adv-x="274" 
d="M164 18q-23 -178 -200 -262l-27 30l3 12q57 42 82 91.5t37 146.5q50 288 50 320q0 38 -39 38h-35l10 59q33 0 80.5 2.5t78.5 4.5l31 2l13 -16q-52 -206 -84 -428zM40 535l-24 41q18 15 59.5 53.5t74.5 69.5l32 31h20q97 -121 129 -154l-34 -41l-16 -4q-6 5 -51.5 42
t-51.5 41q-3 -2 -122 -83z" />
    <glyph glyph-name="Kcommaaccent" unicode="&#x136;" horiz-adv-x="639" 
d="M101 139l47 387q4 32 -1.5 42t-26.5 10l-29 -1l-4 8l15 59q103 -3 130 -3l135 8l-13 -66q-37 -7 -51 -19t-18 -39l-58 -393q-5 -40 0.5 -54t28.5 -14l38 3l4 -7l-17 -63q-97 3 -139 3l-136 -3l17 63q43 7 58 22t20 57zM269 316l5 21l157 158q35 35 35 57q0 24 -46 27
l-3 7l15 61q81 -6 121 -6l114 5l5 -11l-14 -56q-34 -13 -61 -34.5t-71 -68.5l-122 -129l102 -202q23 -46 45 -66t53 -22l6 -8l-14 -52q-98 -12 -115 -12q-57 0 -97 84zM218 -100l3 14q44 35 79 35q30 0 49.5 -23.5t19.5 -62.5q0 -50 -41.5 -98t-105.5 -83l-37 30v17
q30 21 49 49t19 53q0 41 -35 69z" />
    <glyph glyph-name="kcommaaccent" unicode="&#x137;" horiz-adv-x="460" 
d="M309 -12l-81 200l7 17q107 53 107 111q0 30 -26 30q-25 0 -68.5 -68.5t-87.5 -177.5l-9 -71q-2 -13 -36 -25t-68 -12l-13 16q96 588 96 625q0 36 -38 36h-35l9 59q33 0 81.5 2t80.5 4l31 3l12 -16q-58 -254 -91 -471l6 -1q85 179 162 225q52 0 83.5 -28t31.5 -73
q0 -95 -133 -182q20 -36 45.5 -77.5t40.5 -65.5l16 -23l-1 -17l-109 -27zM140 -100l3 14q44 35 79 35q30 0 49.5 -23.5t19.5 -62.5q0 -50 -41.5 -98t-105.5 -83l-37 30v17q30 21 49 49t19 53q0 41 -35 69z" />
    <glyph glyph-name="kgreenlandic" unicode="&#x138;" horiz-adv-x="520" 
d="M-1 -6l16 63q29 5 41.5 20t18.5 57l25 204q4 33 -6.5 44.5t-46.5 11.5l-5 6l13 54l184 20l7 -13q-10 -27 -34 -178.5t-24 -190.5q0 -31 24 -31l24 2l2 -6l-18 -61q-68 4 -106 4zM294 68l-75 168l6 22l102 96q24 22 24 36q0 18 -48 18l-2 5l15 51q68 -2 117 -2l106 4l2 -5
l-15 -57q-35 -14 -71.5 -43t-113.5 -100l64 -130q35 -70 86 -74l4 -8l-13 -50q-47 -11 -72 -12q-28 -2 -43 3q-25 5 -41 22t-32 56z" />
    <glyph glyph-name="Lacute" unicode="&#x139;" horiz-adv-x="514" 
d="M178 0q-38 0 -80 -2.5t-65 -5.5l-23 -2l16 67q38 6 53.5 24t20.5 61l48 384q4 31 -2 41.5t-27 10.5l-29 -1l-4 8l15 58q10 0 58.5 -1t72.5 -1l151 8l-15 -69q-47 -6 -61.5 -18.5t-22.5 -56.5q-15 -80 -36 -220.5t-21 -166.5q0 -24 11 -32.5t42 -8.5q68 0 94 27.5
t48 123.5l84 8l6 -9q-29 -108 -54 -225l-11 -10q-155 8 -269 8zM404 775l-5 -13q-115 -29 -229 -65l-13 9l-14 47l223 104l13 -5z" />
    <glyph glyph-name="lacute" unicode="&#x13a;" horiz-adv-x="270" 
d="M157 109l3 -4q9 0 66 50l18 -2l16 -35q-65 -71 -105 -100.5t-69 -29.5q-47 0 -47 47q0 12 45.5 296t45.5 302q0 36 -38 36h-35l9 59q34 0 82 2t80 4l31 3l12 -16q-86 -406 -114 -612zM318 905l-1 -14q-96 -60 -189 -129l-15 4l-30 39q37 36 79 78.5t66 67.5l23 25l13 -1z
" />
    <glyph glyph-name="Lcommaaccent" unicode="&#x13b;" horiz-adv-x="514" 
d="M178 0q-38 0 -80 -2.5t-65 -5.5l-23 -2l16 67q38 6 53.5 24t20.5 61l48 384q4 31 -2 41.5t-27 10.5l-29 -1l-4 8l15 58q10 0 58.5 -1t72.5 -1l151 8l-15 -69q-47 -6 -61.5 -18.5t-22.5 -56.5q-15 -80 -36 -220.5t-21 -166.5q0 -24 11 -32.5t42 -8.5q68 0 94 27.5
t48 123.5l84 8l6 -9q-29 -108 -54 -225l-11 -10q-155 8 -269 8zM162 -100l3 14q44 35 79 35q30 0 49.5 -23.5t19.5 -62.5q0 -50 -41.5 -98t-105.5 -83l-37 30v17q30 21 49 49t19 53q0 41 -35 69z" />
    <glyph glyph-name="lcommaaccent" unicode="&#x13c;" horiz-adv-x="270" 
d="M157 109l3 -4q9 0 66 50l18 -2l16 -35q-65 -71 -105 -100.5t-69 -29.5q-47 0 -47 47q0 12 45.5 296t45.5 302q0 36 -38 36h-35l9 59q34 0 82 2t80 4l31 3l12 -16q-86 -406 -114 -612zM10 -100l3 14q44 35 79 35q30 0 49.5 -23.5t19.5 -62.5q0 -50 -41.5 -98t-105.5 -83
l-37 30v17q30 21 49 49t19 53q0 41 -35 69z" />
    <glyph glyph-name="Lcaron" unicode="&#x13d;" horiz-adv-x="533" 
d="M547 640l8 -10q-15 -109 -38 -216l-48 -19l-15 4q1 51 -0.5 107.5t-3.5 87.5l-3 32zM178 0q-38 0 -80 -2.5t-65 -5.5l-23 -2l16 67q38 6 53.5 24t20.5 61l48 384q4 31 -2 41.5t-27 10.5l-29 -1l-4 8l15 58q10 0 58.5 -1t72.5 -1l151 8l-15 -69q-47 -6 -61.5 -18.5
t-22.5 -56.5q-15 -80 -36 -220.5t-21 -166.5q0 -24 11 -32.5t42 -8.5q68 0 94 27.5t48 123.5l84 8l6 -9q-29 -108 -54 -225l-11 -10q-155 8 -269 8z" />
    <glyph glyph-name="lcaron" unicode="&#x13e;" horiz-adv-x="373" 
d="M157 109l3 -4q9 0 66 50l18 -2l16 -35q-65 -71 -105 -100.5t-69 -29.5q-47 0 -47 47q0 12 45.5 296t45.5 302q0 36 -38 36h-35l9 59q34 0 82 2t80 4l31 3l12 -16q-86 -406 -114 -612zM416 696l6 -10q-28 -109 -63 -216l-51 -20l-14 4q8 51 13 108t7 88l1 32z" />
    <glyph glyph-name="Ldot" unicode="&#x13f;" horiz-adv-x="543" 
d="M178 0q-38 0 -80 -2.5t-65 -5.5l-23 -2l16 67q38 6 53.5 24t20.5 61l48 384q4 31 -2 41.5t-27 10.5l-29 -1l-4 8l15 58q10 0 58.5 -1t72.5 -1l151 8l-15 -69q-47 -6 -61.5 -18.5t-22.5 -56.5q-15 -80 -36 -220.5t-21 -166.5q0 -24 11 -32.5t42 -8.5q68 0 94 27.5
t48 123.5l84 8l6 -9q-29 -108 -54 -225l-11 -10q-155 8 -269 8zM465 396q-32 0 -48 17.5t-16 47.5q0 40 25 66.5t65 26.5q31 0 48 -17.5t17 -47.5q0 -41 -25.5 -67t-65.5 -26z" />
    <glyph glyph-name="ldot" unicode="&#x140;" horiz-adv-x="377" 
d="M157 109l3 -4q9 0 66 50l18 -2l16 -35q-65 -71 -105 -100.5t-69 -29.5q-47 0 -47 47q0 12 45.5 296t45.5 302q0 36 -38 36h-35l9 59q34 0 82 2t80 4l31 3l12 -16q-86 -406 -114 -612zM299 212q-32 0 -48 17.5t-16 47.5q0 40 25 66.5t65 26.5q31 0 48 -17.5t17 -47.5
q0 -41 -25.5 -67t-65.5 -26z" />
    <glyph glyph-name="Lslash" unicode="&#x141;" horiz-adv-x="514" 
d="M178 0q-38 0 -80 -2.5t-65 -5.5l-23 -2l16 67q38 6 53.5 24t20.5 61l16 127l-70 -34l-9 2l-18 62l107 53l22 174q4 31 -2 41.5t-27 10.5l-29 -1l-4 8l15 58q10 0 58.5 -1t72.5 -1l151 8l-15 -69q-47 -6 -61.5 -18.5t-22.5 -56.5q-8 -38 -17 -96l111 55l8 -4l18 -61
l-150 -75q-27 -169 -27 -206q0 -24 11 -32.5t42 -8.5q68 0 94 27.5t48 123.5l84 8l6 -9q-29 -108 -54 -225l-11 -10q-155 8 -269 8z" />
    <glyph glyph-name="lslash" unicode="&#x142;" horiz-adv-x="270" 
d="M157 109l3 -4q9 0 66 50l18 -2l16 -35q-65 -71 -105 -100.5t-69 -29.5q-47 0 -47 47q0 9 41 269l-54 -28l-9 2l-18 62l95 50q36 227 36 243q0 36 -38 36h-35l9 59q34 0 82 2t80 4l31 3l12 -16q-28 -131 -57 -281l55 29l8 -4l18 -61l-98 -51q-29 -159 -40 -244z" />
    <glyph glyph-name="Nacute" unicode="&#x143;" horiz-adv-x="704" 
d="M501 230h10l35 305q4 43 -26 43q-8 0 -20 -0.5t-13 -0.5l-3 8l14 60q82 -4 125 -4l115 6l-13 -66q-32 -5 -48 -19t-20 -44l-78 -533l-106 -13q-52 112 -108 224.5t-86 169.5l-30 57h-9l-40 -315q-3 -25 3 -35t25 -10l41 2l5 -6l-17 -63q-83 4 -125 4q-23 0 -53 -2t-49 -4
l-18 -2l16 66q57 7 65 63l61 397q4 32 -10 44.5t-61 17.5l-6 10l13 56q64 -5 113 -5l93 4q44 -95 95.5 -199t80.5 -160zM566 775l-5 -13q-115 -29 -229 -65l-13 9l-14 47l223 104l13 -5z" />
    <glyph glyph-name="nacute" unicode="&#x144;" horiz-adv-x="519" 
d="M400 110l3 -3q9 0 66 50l18 -3l16 -35q-66 -71 -105.5 -100.5t-68.5 -29.5q-48 0 -48 44q0 26 34.5 138.5t34.5 139.5q0 35 -26 35q-25 0 -66.5 -68t-84.5 -178l-9 -71q-2 -13 -36 -25t-68 -12l-13 16q49 300 54 345q1 22 -7.5 31.5t-30.5 9.5h-35l10 59q33 0 80.5 2.5
t79.5 4.5l31 2l11 -16q-32 -100 -47 -196l6 -1q86 179 162 225q50 0 80.5 -28t30.5 -73q0 -32 -34 -137t-38 -126zM451 666l-1 -14q-96 -60 -189 -129l-15 4l-30 39q37 36 79 78.5t65 67.5l24 25l13 -1z" />
    <glyph glyph-name="Ncommaaccent" unicode="&#x145;" horiz-adv-x="704" 
d="M501 230h10l35 305q4 43 -26 43q-8 0 -20 -0.5t-13 -0.5l-3 8l14 60q82 -4 125 -4l115 6l-13 -66q-32 -5 -48 -19t-20 -44l-78 -533l-106 -13q-52 112 -108 224.5t-86 169.5l-30 57h-9l-40 -315q-3 -25 3 -35t25 -10l41 2l5 -6l-17 -63q-83 4 -125 4q-23 0 -53 -2t-49 -4
l-18 -2l16 66q57 7 65 63l61 397q4 32 -10 44.5t-61 17.5l-6 10l13 56q64 -5 113 -5l93 4q44 -95 95.5 -199t80.5 -160zM242 -100l3 14q44 35 79 35q30 0 49.5 -23.5t19.5 -62.5q0 -50 -41.5 -98t-105.5 -83l-37 30v17q30 21 49 49t19 53q0 41 -35 69z" />
    <glyph glyph-name="ncommaaccent" unicode="&#x146;" horiz-adv-x="519" 
d="M400 110l3 -3q9 0 66 50l18 -3l16 -35q-66 -71 -105.5 -100.5t-68.5 -29.5q-48 0 -48 44q0 26 34.5 138.5t34.5 139.5q0 35 -26 35q-25 0 -66.5 -68t-84.5 -178l-9 -71q-2 -13 -36 -25t-68 -12l-13 16q49 300 54 345q1 22 -7.5 31.5t-30.5 9.5h-35l10 59q33 0 80.5 2.5
t79.5 4.5l31 2l11 -16q-32 -100 -47 -196l6 -1q86 179 162 225q50 0 80.5 -28t30.5 -73q0 -32 -34 -137t-38 -126zM153 -100l3 14q44 35 79 35q30 0 49.5 -23.5t19.5 -62.5q0 -50 -41.5 -98t-105.5 -83l-37 30v17q30 21 49 49t19 53q0 41 -35 69z" />
    <glyph glyph-name="Ncaron" unicode="&#x147;" horiz-adv-x="704" 
d="M501 230h10l35 305q4 43 -26 43q-8 0 -20 -0.5t-13 -0.5l-3 8l14 60q82 -4 125 -4l115 6l-13 -66q-32 -5 -48 -19t-20 -44l-78 -533l-106 -13q-52 112 -108 224.5t-86 169.5l-30 57h-9l-40 -315q-3 -25 3 -35t25 -10l41 2l5 -6l-17 -63q-83 4 -125 4q-23 0 -53 -2t-49 -4
l-18 -2l16 66q57 7 65 63l61 397q4 32 -10 44.5t-61 17.5l-6 10l13 56q64 -5 113 -5l93 4q44 -95 95.5 -199t80.5 -160zM575 861l20 -41l-169 -124h-19q-102 95 -137 124l28 41l17 4q9 -4 58.5 -29.5t56.5 -28.5q8 3 63.5 28.5t66.5 29.5z" />
    <glyph glyph-name="ncaron" unicode="&#x148;" horiz-adv-x="519" 
d="M400 110l3 -3q9 0 66 50l18 -3l16 -35q-66 -71 -105.5 -100.5t-68.5 -29.5q-48 0 -48 44q0 26 34.5 138.5t34.5 139.5q0 35 -26 35q-25 0 -66.5 -68t-84.5 -178l-9 -71q-2 -13 -36 -25t-68 -12l-13 16q49 300 54 345q1 22 -7.5 31.5t-30.5 9.5h-35l10 59q33 0 80.5 2.5
t79.5 4.5l31 2l11 -16q-32 -100 -47 -196l6 -1q86 179 162 225q50 0 80.5 -28t30.5 -73q0 -32 -34 -137t-38 -126zM167 679l35 42l16 3q42 -38 105 -85q87 56 126 85l14 -3l25 -42q-35 -31 -77.5 -70.5t-67.5 -63.5l-25 -24h-20q-69 88 -131 158z" />
    <glyph glyph-name="Eng" unicode="&#x14a;" horiz-adv-x="703" 
d="M201 642l95 4q39 -87 90.5 -191.5t83.5 -165.5l32 -61h9l37 308q2 23 -4 33t-23 10l-34 -1l-2 6l14 62q96 -4 126 -4l113 6l-12 -66q-34 -4 -49 -18.5t-20 -44.5l-63 -433q-16 -100 -71 -158.5t-163 -90.5l-24 41l4 11q87 39 120 115q-50 105 -103 210.5t-81 157.5
l-27 53h-9l-40 -317q-3 -25 3 -35t25 -10l41 2l5 -6l-17 -63q-81 4 -142 4l-102 -8l16 65q31 4 45.5 20.5t21.5 55.5l58 386q4 32 -10 44t-60 18l-6 10l13 56q74 -5 110 -5z" />
    <glyph glyph-name="eng" unicode="&#x14b;" horiz-adv-x="514" 
d="M289 35q61 236 61 276q0 35 -26 35q-25 0 -66.5 -68t-84.5 -178l-9 -71q-2 -13 -36 -25t-68 -12l-13 16q49 300 54 345q1 22 -7.5 31.5t-30.5 9.5h-35l10 59q33 0 80.5 2.5t79.5 4.5l31 2l11 -16q-32 -100 -47 -196l6 -1q86 179 162 225q50 0 80.5 -28t30.5 -73
q0 -58 -80 -354q-25 -98 -75.5 -161t-137.5 -102l-28 30l4 12q57 39 81.5 85.5t52.5 151.5z" />
    <glyph glyph-name="Omacron" unicode="&#x14c;" horiz-adv-x="649" 
d="M311 73q80 0 127 78.5t47 219.5q0 88 -34.5 138t-94.5 50q-79 0 -125 -79t-46 -219q0 -88 33.5 -138t92.5 -50zM285 -12q-115 0 -184 72t-69 195q0 178 97 288t256 110q118 0 187 -70t69 -193q0 -178 -99 -290t-257 -112zM537 805l7 -14l-22 -77l-136 -1l-134 -1l-9 12
l23 76q92 -1 148 -1z" />
    <glyph glyph-name="omacron" unicode="&#x14d;" horiz-adv-x="444" 
d="M210 68q39 0 61.5 51.5t22.5 143.5q0 122 -61 122q-37 0 -60 -52t-23 -134q0 -61 16 -96t44 -35zM171 -12q-67 0 -105.5 47.5t-38.5 131.5q0 130 71 218.5t176 88.5q70 0 108 -44t38 -125q0 -135 -71 -226t-178 -91zM421 672l6 -14l-22 -76l-136 -1l-134 -1l-9 11l23 76
q92 -1 149 -1z" />
    <glyph glyph-name="Obreve" unicode="&#x14e;" horiz-adv-x="649" 
d="M311 73q80 0 127 78.5t47 219.5q0 88 -34.5 138t-94.5 50q-79 0 -125 -79t-46 -219q0 -88 33.5 -138t92.5 -50zM285 -12q-115 0 -184 72t-69 195q0 178 97 288t256 110q118 0 187 -70t69 -193q0 -178 -99 -290t-257 -112zM379 807q74 0 108 68l18 -4l22 -34
q-20 -53 -61 -89t-98 -36q-58 0 -90 36t-40 89l31 34l18 4q18 -68 92 -68z" />
    <glyph glyph-name="obreve" unicode="&#x14f;" horiz-adv-x="444" 
d="M210 68q39 0 61.5 51.5t22.5 143.5q0 122 -61 122q-37 0 -60 -52t-23 -134q0 -61 16 -96t44 -35zM171 -12q-67 0 -105.5 47.5t-38.5 131.5q0 130 71 218.5t176 88.5q70 0 108 -44t38 -125q0 -135 -71 -226t-178 -91zM277 637q74 0 108 68l18 -4l22 -34q-20 -53 -61 -89
t-98 -36q-58 0 -90 36t-40 89l31 34l18 4q18 -68 92 -68z" />
    <glyph glyph-name="Ohungarumlaut" unicode="&#x150;" horiz-adv-x="649" 
d="M311 73q80 0 127 78.5t47 219.5q0 88 -34.5 138t-94.5 50q-79 0 -125 -79t-46 -219q0 -88 33.5 -138t92.5 -50zM285 -12q-115 0 -184 72t-69 195q0 178 97 288t256 110q118 0 187 -70t69 -193q0 -178 -99 -290t-257 -112zM420 794l-1 -12q-85 -46 -169 -98l-13 5l-23 34
l151 134l12 -1zM588 790l-2 -12q-84 -46 -168 -98l-13 4l-23 34l151 134l12 -2z" />
    <glyph glyph-name="ohungarumlaut" unicode="&#x151;" horiz-adv-x="444" 
d="M210 68q39 0 61.5 51.5t22.5 143.5q0 122 -61 122q-37 0 -60 -52t-23 -134q0 -61 16 -96t44 -35zM171 -12q-67 0 -105.5 47.5t-38.5 131.5q0 130 71 218.5t176 88.5q70 0 108 -44t38 -125q0 -135 -71 -226t-178 -91zM320 677l1 -11q-75 -64 -148 -135l-14 1l-32 28
l125 166l11 1zM465 677l1 -11q-75 -64 -149 -135l-13 1l-32 28l124 166l12 1z" />
    <glyph glyph-name="OE" unicode="&#x152;" horiz-adv-x="905" 
d="M558 139q-5 -40 4 -50t50 -10q86 0 114 19.5t47 94.5l85 7l6 -10q-28 -90 -49 -186l-11 -11q-181 9 -302 9q-46 0 -118.5 -6.5t-99.5 -6.5q-115 0 -183.5 72t-68.5 195q0 177 94.5 285t251.5 108q30 0 106 -6.5t120 -6.5q170 0 303 18l7 -11q-28 -89 -45 -182l-92 -6
q8 35 8 56q0 30 -22 38.5t-92 8.5q-34 0 -42 -5t-11 -28l-26 -155l88 -1l114 8l7 -9l-25 -86q-77 3 -124 3l-75 -6zM307 73q62 0 93 30t40 99l32 252q7 60 -18 83.5t-96 23.5q-76 0 -123 -82t-47 -221q0 -89 30.5 -137t88.5 -48z" />
    <glyph glyph-name="oe" unicode="&#x153;" horiz-adv-x="683" 
d="M675 379q0 -66 -55.5 -110t-187.5 -86q0 -45 16.5 -71.5t46.5 -26.5q57 0 101 79l18 -2l32 -40q-27 -58 -81.5 -96t-110.5 -38q-84 0 -114 90q-66 -90 -169 -90q-67 0 -105.5 47.5t-38.5 131.5q0 130 71 218.5t176 88.5q97 0 122 -98q72 97 172 97q50 0 78.5 -25
t28.5 -69zM210 68q39 0 61.5 51.5t22.5 143.5q0 122 -61 122q-37 0 -60 -52t-23 -134q0 -61 16 -96t44 -35zM534 385q-33 0 -60.5 -39.5t-37.5 -101.5q131 43 131 106q0 35 -33 35z" />
    <glyph glyph-name="Racute" unicode="&#x154;" horiz-adv-x="624" 
d="M317 253h-73l-15 -113q-7 -50 3 -63t56 -14l3 -6l-17 -61q-86 3 -129 3l-140 -5l17 66q42 6 58 22.5t21 58.5l48 388q3 29 -2 39t-22 10l-34 -2l-5 8l16 60q83 -3 121 -3l140 5q103 0 161 -39.5t58 -110.5q0 -138 -148 -211l65 -143q22 -46 44.5 -66t52.5 -20l6 -9
l-13 -52l-117 -11q-63 0 -95 93zM257 340l86 -10q98 40 98 143q0 93 -131 93q-10 0 -13.5 -4t-6.5 -18q-14 -75 -33 -204zM512 775l-5 -13q-115 -29 -229 -65l-13 9l-14 47l223 104l13 -5z" />
    <glyph glyph-name="racute" unicode="&#x155;" horiz-adv-x="380" 
d="M47 8q54 310 54 347q0 21 -8.5 30t-29.5 9h-35l10 59q33 0 80.5 2.5t79.5 4.5l31 2l11 -16q-27 -89 -41 -170h5q32 79 78 137.5t75 58.5q44 -34 44 -98q0 -22 -10 -53l-14 -6q-15 12 -40 12q-40 0 -82.5 -53.5t-79.5 -152.5l-11 -92q-2 -13 -36 -25t-68 -12zM330 666
l-1 -14q-96 -60 -189 -129l-15 4l-30 39q37 36 79 78.5t66 67.5l23 25l13 -1z" />
    <glyph glyph-name="Rcommaaccent" unicode="&#x156;" horiz-adv-x="624" 
d="M317 253h-73l-15 -113q-7 -50 3 -63t56 -14l3 -6l-17 -61q-86 3 -129 3l-140 -5l17 66q42 6 58 22.5t21 58.5l48 388q3 29 -2 39t-22 10l-34 -2l-5 8l16 60q83 -3 121 -3l140 5q103 0 161 -39.5t58 -110.5q0 -138 -148 -211l65 -143q22 -46 44.5 -66t52.5 -20l6 -9
l-13 -52l-117 -11q-63 0 -95 93zM257 340l86 -10q98 40 98 143q0 93 -131 93q-10 0 -13.5 -4t-6.5 -18q-14 -75 -33 -204zM202 -100l3 14q44 35 79 35q30 0 49.5 -23.5t19.5 -62.5q0 -50 -41.5 -98t-105.5 -83l-37 30v17q30 21 49 49t19 53q0 41 -35 69z" />
    <glyph glyph-name="rcommaaccent" unicode="&#x157;" horiz-adv-x="380" 
d="M47 8q54 310 54 347q0 21 -8.5 30t-29.5 9h-35l10 59q33 0 80.5 2.5t79.5 4.5l31 2l11 -16q-27 -89 -41 -170h5q32 79 78 137.5t75 58.5q44 -34 44 -98q0 -22 -10 -53l-14 -6q-15 12 -40 12q-40 0 -82.5 -53.5t-79.5 -152.5l-11 -92q-2 -13 -36 -25t-68 -12zM29 -100
l3 14q44 35 79 35q30 0 49.5 -23.5t19.5 -62.5q0 -50 -41.5 -98t-105.5 -83l-37 30v17q30 21 49 49t19 53q0 41 -35 69z" />
    <glyph glyph-name="Rcaron" unicode="&#x158;" horiz-adv-x="624" 
d="M317 253h-73l-15 -113q-7 -50 3 -63t56 -14l3 -6l-17 -61q-86 3 -129 3l-140 -5l17 66q42 6 58 22.5t21 58.5l48 388q3 29 -2 39t-22 10l-34 -2l-5 8l16 60q83 -3 121 -3l140 5q103 0 161 -39.5t58 -110.5q0 -138 -148 -211l65 -143q22 -46 44.5 -66t52.5 -20l6 -9
l-13 -52l-117 -11q-63 0 -95 93zM257 340l86 -10q98 40 98 143q0 93 -131 93q-10 0 -13.5 -4t-6.5 -18q-14 -75 -33 -204zM521 861l20 -41l-169 -124h-19q-102 95 -137 124l28 41l17 4q9 -4 58.5 -29.5t56.5 -28.5q8 3 63.5 28.5t66.5 29.5z" />
    <glyph glyph-name="rcaron" unicode="&#x159;" horiz-adv-x="380" 
d="M47 8q54 310 54 347q0 21 -8.5 30t-29.5 9h-35l10 59q33 0 80.5 2.5t79.5 4.5l31 2l11 -16q-27 -89 -41 -170h5q32 79 78 137.5t75 58.5q44 -34 44 -98q0 -22 -10 -53l-14 -6q-15 12 -40 12q-40 0 -82.5 -53.5t-79.5 -152.5l-11 -92q-2 -13 -36 -25t-68 -12zM41 679
l35 42l16 3q42 -38 105 -85q87 56 126 85l14 -3l25 -42q-35 -31 -77.5 -70.5t-67.5 -63.5l-25 -24h-20q-69 88 -131 158z" />
    <glyph glyph-name="Sacute" unicode="&#x15a;" horiz-adv-x="522" 
d="M193 -12q-45 0 -89 9.5t-66 18.5l-21 10l-7 14q27 86 38 169l83 7q-10 -81 8.5 -111t79.5 -30q48 0 78.5 23.5t30.5 61.5q0 30 -26 52t-78 50q-31 17 -45 25t-39.5 26.5t-37.5 34t-22.5 39.5t-10.5 51q0 93 77 154t197 61q43 0 86 -6.5t65 -12.5l21 -7l6 -13
q-27 -80 -44 -171l-75 -6l-8 6q7 34 7 52q0 36 -20 51.5t-64 15.5t-72.5 -23t-28.5 -57q0 -42 70 -84q10 -6 48.5 -26t55 -31.5t42 -33t36.5 -46.5t11 -56q0 -97 -78 -157t-208 -60zM483 775l-5 -13q-115 -29 -229 -65l-13 9l-14 47l223 104l13 -5z" />
    <glyph glyph-name="sacute" unicode="&#x15b;" horiz-adv-x="369" 
d="M48 158l20 -1q1 -40 25.5 -64t63.5 -24q25 0 40.5 12.5t15.5 32.5q0 13 -10.5 26.5t-20.5 21.5t-33 23q-31 21 -46.5 33.5t-32 38.5t-16.5 56q0 67 55 114t134 47q82 0 126 -41q-20 -52 -48 -102h-20q-23 59 -74 59q-19 0 -32.5 -12t-13.5 -30q0 -23 30 -46q9 -7 38 -27
t44 -33t30 -37.5t15 -52.5q0 -68 -59 -116t-141 -48q-53 0 -91 16.5t-47 43.5q13 63 48 110zM393 666l-1 -14q-96 -60 -189 -129l-15 4l-30 39q37 36 79 78.5t65 67.5l24 25l13 -1z" />
    <glyph glyph-name="Scircumflex" unicode="&#x15c;" horiz-adv-x="522" 
d="M193 -12q-45 0 -89 9.5t-66 18.5l-21 10l-7 14q27 86 38 169l83 7q-10 -81 8.5 -111t79.5 -30q48 0 78.5 23.5t30.5 61.5q0 30 -26 52t-78 50q-31 17 -45 25t-39.5 26.5t-37.5 34t-22.5 39.5t-10.5 51q0 93 77 154t197 61q43 0 86 -6.5t65 -12.5l21 -7l6 -13
q-27 -80 -44 -171l-75 -6l-8 6q7 34 7 52q0 36 -20 51.5t-64 15.5t-72.5 -23t-28.5 -57q0 -42 70 -84q10 -6 48.5 -26t55 -31.5t42 -33t36.5 -46.5t11 -56q0 -97 -78 -157t-208 -60zM200 709l-24 41q18 15 59.5 53.5t74.5 69.5l32 31h20q97 -121 129 -154l-34 -41l-16 -4
q-6 5 -51.5 42t-51.5 41q-3 -2 -122 -83z" />
    <glyph glyph-name="scircumflex" unicode="&#x15d;" horiz-adv-x="369" 
d="M48 158l20 -1q1 -40 25.5 -64t63.5 -24q25 0 40.5 12.5t15.5 32.5q0 13 -10.5 26.5t-20.5 21.5t-33 23q-31 21 -46.5 33.5t-32 38.5t-16.5 56q0 67 55 114t134 47q82 0 126 -41q-20 -52 -48 -102h-20q-23 59 -74 59q-19 0 -32.5 -12t-13.5 -30q0 -23 30 -46q9 -7 38 -27
t44 -33t30 -37.5t15 -52.5q0 -68 -59 -116t-141 -48q-53 0 -91 16.5t-47 43.5q13 63 48 110zM112 535l-24 41q18 15 59.5 53.5t74.5 69.5l32 31h20q97 -121 129 -154l-34 -41l-16 -4q-6 5 -51.5 42t-51.5 41q-3 -2 -122 -83z" />
    <glyph glyph-name="Scedilla" unicode="&#x15e;" horiz-adv-x="522" 
d="M158 -86l29 74q-44 1 -86.5 10.5t-62.5 18.5l-21 9l-7 14q27 86 38 169l83 7q-10 -81 8.5 -111t79.5 -30q48 0 78.5 23.5t30.5 61.5q0 30 -26 52t-78 50q-31 17 -45 25t-39.5 26.5t-37.5 34t-22.5 39.5t-10.5 51q0 93 77 154t197 61q43 0 86 -6.5t65 -12.5l21 -7l6 -13
q-27 -80 -44 -171l-75 -6l-8 6q7 34 7 52q0 36 -20 51.5t-64 15.5t-72.5 -23t-28.5 -57q0 -42 70 -84q10 -6 48.5 -26t55 -31.5t42 -33t36.5 -46.5t11 -56q0 -88 -64.5 -146.5t-175.5 -68.5l-13 -34q84 -51 84 -92q0 -40 -45 -71t-99 -31q-26 0 -49 12t-23 30q0 17 46 66h8
q-2 -27 9.5 -41.5t33.5 -14.5q18 0 30 9t12 23q0 24 -75 68z" />
    <glyph glyph-name="scedilla" unicode="&#x15f;" horiz-adv-x="369" 
d="M88 -86l29 75q-45 3 -77 19t-40 40q13 63 48 110l20 -1q1 -40 25.5 -64t63.5 -24q25 0 40.5 12.5t15.5 32.5q0 13 -10.5 26.5t-20.5 21.5t-33 23q-31 21 -46.5 33.5t-32 38.5t-16.5 56q0 67 55 114t134 47q82 0 126 -41q-20 -52 -48 -102h-20q-23 59 -74 59
q-19 0 -32.5 -12t-13.5 -30q0 -23 30 -46q9 -7 38 -27t44 -33t30 -37.5t15 -52.5q0 -61 -48.5 -107t-120.5 -55l-13 -34q84 -51 84 -92q0 -40 -45 -71t-99 -31q-26 0 -49 12t-23 30q0 17 46 66h8q-2 -27 9.5 -41.5t33.5 -14.5q18 0 30 9t12 23q0 24 -75 68z" />
    <glyph glyph-name="Scaron" unicode="&#x160;" horiz-adv-x="522" 
d="M193 -12q-45 0 -89 9.5t-66 18.5l-21 10l-7 14q27 86 38 169l83 7q-10 -81 8.5 -111t79.5 -30q48 0 78.5 23.5t30.5 61.5q0 30 -26 52t-78 50q-31 17 -45 25t-39.5 26.5t-37.5 34t-22.5 39.5t-10.5 51q0 93 77 154t197 61q43 0 86 -6.5t65 -12.5l21 -7l6 -13
q-27 -80 -44 -171l-75 -6l-8 6q7 34 7 52q0 36 -20 51.5t-64 15.5t-72.5 -23t-28.5 -57q0 -42 70 -84q10 -6 48.5 -26t55 -31.5t42 -33t36.5 -46.5t11 -56q0 -97 -78 -157t-208 -60zM492 861l20 -41l-169 -124h-19q-102 95 -137 124l28 41l17 4q9 -4 58.5 -29.5t56.5 -28.5
q8 3 63.5 28.5t66.5 29.5z" />
    <glyph glyph-name="scaron" unicode="&#x161;" horiz-adv-x="369" 
d="M48 158l20 -1q1 -40 25.5 -64t63.5 -24q25 0 40.5 12.5t15.5 32.5q0 13 -10.5 26.5t-20.5 21.5t-33 23q-31 21 -46.5 33.5t-32 38.5t-16.5 56q0 67 55 114t134 47q82 0 126 -41q-20 -52 -48 -102h-20q-23 59 -74 59q-19 0 -32.5 -12t-13.5 -30q0 -23 30 -46q9 -7 38 -27
t44 -33t30 -37.5t15 -52.5q0 -68 -59 -116t-141 -48q-53 0 -91 16.5t-47 43.5q13 63 48 110zM99 679l35 42l16 3q42 -38 105 -85q87 56 126 85l14 -3l25 -42q-35 -31 -77.5 -70.5t-67.5 -63.5l-25 -24h-20q-69 88 -131 158z" />
    <glyph glyph-name="Tcedilla" unicode="&#x162;" horiz-adv-x="551" 
d="M188 -86l33 86l-146 -6l16 65q64 6 82.5 24t26.5 82l49 401q-28 -1 -44.5 -2.5t-31.5 -8t-22 -13t-15 -24t-12.5 -34t-11.5 -49.5l-83 -6q23 116 37 213l13 11l94 -11h302l101 11l9 -11l-16 -207l-83 -6q1 93 -13 113.5t-85 23.5q-14 -78 -39.5 -251t-25.5 -199
q0 -27 10.5 -39t34.5 -12l53 3l3 -5l-17 -67q-77 3 -134 4l-17 -44q84 -51 84 -92q0 -40 -45 -71t-99 -31q-26 0 -49 12t-23 30q0 17 46 66h8q-2 -27 9.5 -41.5t33.5 -14.5q18 0 30 9t12 23q0 24 -75 68z" />
    <glyph glyph-name="tcedilla" unicode="&#x163;" horiz-adv-x="307" 
d="M91 -86l29 76q-78 14 -69 98l50 297l-7 6l-62 2l-3 5l6 46l76 12l15 116l128 35l10 -12q-20 -67 -36 -140h109l5 -5l-9 -56l-107 1l-12 -7l-48 -252q-4 -33 20 -33q22 0 80 58l17 -3l16 -36q-74 -93 -123 -122l-17 -44q84 -51 84 -92q0 -40 -45 -71t-99 -31q-26 0 -49 12
t-23 30q0 17 46 66h8q-2 -27 9.5 -41.5t33.5 -14.5q18 0 30 9t12 23q0 24 -75 68z" />
    <glyph glyph-name="Tcaron" unicode="&#x164;" horiz-adv-x="551" 
d="M200 165l49 401q-28 -1 -44.5 -2.5t-31.5 -8t-22 -13t-15 -24t-12.5 -34t-11.5 -49.5l-83 -6q23 116 37 213l13 11l94 -11h302l101 11l9 -11l-16 -207l-83 -6q1 93 -13 113.5t-85 23.5q-14 -78 -39.5 -251t-25.5 -199q0 -27 10.5 -39t34.5 -12l53 3l3 -5l-17 -67
q-118 4 -169 4l-163 -6l16 65q64 6 82.5 24t26.5 82zM496 861l20 -41l-169 -124h-19q-102 95 -137 124l28 41l17 4q9 -4 58.5 -29.5t56.5 -28.5q8 3 63.5 28.5t66.5 29.5z" />
    <glyph glyph-name="tcaron" unicode="&#x165;" horiz-adv-x="428" 
d="M266 161l17 -3l16 -36q-47 -60 -89 -97t-65 -37q-49 0 -74 26.5t-20 73.5l50 297l-7 6l-62 2l-3 5l6 46l76 12l15 116l128 35l10 -12q-20 -67 -36 -140h82l6 -5l-10 -56l-80 1l-12 -7l-48 -252q-4 -33 20 -33q22 0 80 58zM456 535l6 -10q-28 -109 -63 -216l-51 -20l-14 4
q8 51 13 108t7 89l1 31z" />
    <glyph glyph-name="Tbar" unicode="&#x166;" horiz-adv-x="551" 
d="M200 165l13 111h-83l-10 9l7 48l93 -1l29 234q-28 -1 -44.5 -2.5t-31.5 -8t-22 -13t-15 -24t-12.5 -34t-11.5 -49.5l-83 -6q23 116 37 213l13 11l94 -11h302l101 11l9 -11l-16 -207l-83 -6q1 93 -13 113.5t-85 23.5q-14 -73 -37 -232l76 3l14 -14l-4 -46h-95
q-19 -136 -19 -161q0 -27 10.5 -39t34.5 -12l53 3l3 -5l-17 -67q-118 4 -169 4l-163 -6l16 65q64 6 82.5 24t26.5 82z" />
    <glyph glyph-name="tbar" unicode="&#x167;" horiz-adv-x="307" 
d="M266 161l17 -3l16 -36q-47 -60 -89 -97t-65 -37q-49 0 -74 26.5t-20 73.5l24 146h-70l-10 9l7 48l83 -1l16 95l-7 6l-62 2l-3 5l6 46l76 12l15 116l128 35l10 -12q-20 -67 -36 -140h109l5 -5l-9 -56l-107 1l-12 -7l-19 -97l93 4l14 -14l-4 -46h-113l-19 -99
q-4 -33 20 -33q22 0 80 58z" />
    <glyph glyph-name="Utilde" unicode="&#x168;" horiz-adv-x="629" 
d="M256 528l-43 -291q-2 -28 -2 -40q-1 -59 25 -89.5t76 -30.5q116 0 132 132l36 315q3 33 -1.5 43.5t-22.5 10.5l-32 -2l-2 4l16 64q76 -3 112 -3l117 7l-14 -66q-37 -7 -48 -16t-14 -34l-39 -313q-14 -113 -83.5 -172t-188.5 -59q-205 0 -205 177q0 19 3 40l40 319
q4 33 -1 43.5t-25 10.5l-30 -2l-2 4l17 64q82 -3 138 -3l116 7l-15 -67q-31 -4 -43.5 -15.5t-16.5 -37.5zM258 714h-11l-35 36l1 11l88 101l16 4q17 0 73 -16.5t69 -16.5q10 0 27 14t30 28l12 14h11l36 -37l-2 -10l-88 -102l-16 -4q-17 0 -72.5 17t-68.5 17q-11 0 -28.5 -14
t-29.5 -28z" />
    <glyph glyph-name="utilde" unicode="&#x169;" horiz-adv-x="508" 
d="M320 201l-9 1q-75 -158 -150 -213q-55 0 -86.5 25.5t-31.5 69.5q0 29 33 141.5t33 134.5q0 34 -38 34h-34l10 59q33 0 80.5 2.5t78.5 4.5l32 2l12 -16q-86 -260 -86 -307q0 -29 23 -29t67 71t91 184l14 92l15 8l82 -6l13 -15q-47 -177 -71 -335l4 -4q6 0 14.5 6.5
t51.5 43.5l17 -2l16 -35q-73 -76 -109 -103t-65 -27q-43 0 -43 38q0 23 36 175zM182 539h-11l-35 36l1 11l88 101l16 4q17 0 73 -16.5t69 -16.5q10 0 27 14t30 28l12 14h11l36 -37l-2 -10l-88 -102l-16 -4q-17 0 -72.5 17t-68.5 17q-11 0 -28.5 -14t-29.5 -28z" />
    <glyph glyph-name="Umacron" unicode="&#x16a;" horiz-adv-x="629" 
d="M256 528l-43 -291q-2 -28 -2 -40q-1 -59 25 -89.5t76 -30.5q116 0 132 132l36 315q3 33 -1.5 43.5t-22.5 10.5l-32 -2l-2 4l16 64q76 -3 112 -3l117 7l-14 -66q-37 -7 -48 -16t-14 -34l-39 -313q-14 -113 -83.5 -172t-188.5 -59q-205 0 -205 177q0 19 3 40l40 319
q4 33 -1 43.5t-25 10.5l-30 -2l-2 4l17 64q82 -3 138 -3l116 7l-15 -67q-31 -4 -43.5 -15.5t-16.5 -37.5zM543 805l7 -14l-22 -77l-136 -1l-134 -1l-9 12l23 76q92 -1 148 -1z" />
    <glyph glyph-name="umacron" unicode="&#x16b;" horiz-adv-x="508" 
d="M320 201l-9 1q-75 -158 -150 -213q-55 0 -86.5 25.5t-31.5 69.5q0 29 33 141.5t33 134.5q0 34 -38 34h-34l10 59q33 0 80.5 2.5t78.5 4.5l32 2l12 -16q-86 -260 -86 -307q0 -29 23 -29t67 71t91 184l14 92l15 8l82 -6l13 -15q-47 -177 -71 -335l4 -4q6 0 14.5 6.5
t51.5 43.5l17 -2l16 -35q-73 -76 -109 -103t-65 -27q-43 0 -43 38q0 23 36 175zM452 672l6 -14l-22 -76l-136 -1l-134 -1l-9 11l23 76q92 -1 149 -1z" />
    <glyph glyph-name="Ubreve" unicode="&#x16c;" horiz-adv-x="629" 
d="M256 528l-43 -291q-2 -28 -2 -40q-1 -59 25 -89.5t76 -30.5q116 0 132 132l36 315q3 33 -1.5 43.5t-22.5 10.5l-32 -2l-2 4l16 64q76 -3 112 -3l117 7l-14 -66q-37 -7 -48 -16t-14 -34l-39 -313q-14 -113 -83.5 -172t-188.5 -59q-205 0 -205 177q0 19 3 40l40 319
q4 33 -1 43.5t-25 10.5l-30 -2l-2 4l17 64q82 -3 138 -3l116 7l-15 -67q-31 -4 -43.5 -15.5t-16.5 -37.5zM387 812q74 0 108 68l18 -4l22 -34q-20 -53 -61 -89t-98 -36q-58 0 -90 36t-40 89l31 34l18 4q18 -68 92 -68z" />
    <glyph glyph-name="ubreve" unicode="&#x16d;" horiz-adv-x="508" 
d="M320 201l-9 1q-75 -158 -150 -213q-55 0 -86.5 25.5t-31.5 69.5q0 29 33 141.5t33 134.5q0 34 -38 34h-34l10 59q33 0 80.5 2.5t78.5 4.5l32 2l12 -16q-86 -260 -86 -307q0 -29 23 -29t67 71t91 184l14 92l15 8l82 -6l13 -15q-47 -177 -71 -335l4 -4q6 0 14.5 6.5
t51.5 43.5l17 -2l16 -35q-73 -76 -109 -103t-65 -27q-43 0 -43 38q0 23 36 175zM321 637q74 0 108 68l18 -4l22 -34q-20 -53 -61 -89t-98 -36q-58 0 -90 36t-40 89l31 34l18 4q18 -68 92 -68z" />
    <glyph glyph-name="Uring" unicode="&#x16e;" horiz-adv-x="629" 
d="M256 528l-43 -291q-2 -28 -2 -40q-1 -59 25 -89.5t76 -30.5q116 0 132 132l36 315q3 33 -1.5 43.5t-22.5 10.5l-32 -2l-2 4l16 64q76 -3 112 -3l117 7l-14 -66q-37 -7 -48 -16t-14 -34l-39 -313q-14 -113 -83.5 -172t-188.5 -59q-205 0 -205 177q0 19 3 40l40 319
q4 33 -1 43.5t-25 10.5l-30 -2l-2 4l17 64q82 -3 138 -3l116 7l-15 -67q-31 -4 -43.5 -15.5t-16.5 -37.5zM397 731q44 0 44 42q0 36 -40 36q-20 0 -31 -11.5t-11 -29.5t12 -27.5t26 -9.5zM384 678q-37 0 -56.5 21.5t-19.5 56.5q0 46 30.5 77t76.5 31q39 0 58 -21.5t19 -53.5
q0 -44 -30 -77.5t-78 -33.5z" />
    <glyph glyph-name="uring" unicode="&#x16f;" horiz-adv-x="508" 
d="M320 201l-9 1q-75 -158 -150 -213q-55 0 -86.5 25.5t-31.5 69.5q0 29 33 141.5t33 134.5q0 34 -38 34h-34l10 59q33 0 80.5 2.5t78.5 4.5l32 2l12 -16q-86 -260 -86 -307q0 -29 23 -29t67 71t91 184l14 92l15 8l82 -6l13 -15q-47 -177 -71 -335l4 -4q6 0 14.5 6.5
t51.5 43.5l17 -2l16 -35q-73 -76 -109 -103t-65 -27q-43 0 -43 38q0 23 36 175zM306 596q43 0 43 42q0 36 -39 36q-42 0 -42 -41q0 -18 12 -27.5t26 -9.5zM293 543q-37 0 -56.5 21.5t-19.5 56.5q0 46 30.5 77t76.5 31q39 0 58 -21.5t19 -53.5q0 -44 -30 -77.5t-78 -33.5z
" />
    <glyph glyph-name="Uhungarumlaut" unicode="&#x170;" horiz-adv-x="629" 
d="M256 528l-43 -291q-2 -28 -2 -40q-1 -59 25 -89.5t76 -30.5q116 0 132 132l36 315q3 33 -1.5 43.5t-22.5 10.5l-32 -2l-2 4l16 64q76 -3 112 -3l117 7l-14 -66q-37 -7 -48 -16t-14 -34l-39 -313q-14 -113 -83.5 -172t-188.5 -59q-205 0 -205 177q0 19 3 40l40 319
q4 33 -1 43.5t-25 10.5l-30 -2l-2 4l17 64q82 -3 138 -3l116 7l-15 -67q-31 -4 -43.5 -15.5t-16.5 -37.5zM442 794l-1 -12q-85 -46 -169 -98l-13 5l-23 34l151 134l12 -1zM610 790l-2 -12q-84 -46 -168 -98l-13 4l-23 34l151 134l12 -2z" />
    <glyph glyph-name="uhungarumlaut" unicode="&#x171;" horiz-adv-x="508" 
d="M320 201l-9 1q-75 -158 -150 -213q-55 0 -86.5 25.5t-31.5 69.5q0 29 33 141.5t33 134.5q0 34 -38 34h-34l10 59q33 0 80.5 2.5t78.5 4.5l32 2l12 -16q-86 -260 -86 -307q0 -29 23 -29t67 71t91 184l14 92l15 8l82 -6l13 -15q-47 -177 -71 -335l4 -4q6 0 14.5 6.5
t51.5 43.5l17 -2l16 -35q-73 -76 -109 -103t-65 -27q-43 0 -43 38q0 23 36 175zM361 677l1 -11q-75 -64 -148 -135l-14 1l-32 28l125 166l11 1zM506 677l1 -11q-75 -64 -149 -135l-13 1l-32 28l124 166l12 1z" />
    <glyph glyph-name="Uogonek" unicode="&#x172;" horiz-adv-x="629" 
d="M464 -145l15 -29q-57 -50 -106 -67q-50 0 -78.5 21.5t-28.5 59.5q0 32 22 68t74 89q-36 -9 -82 -9q-205 0 -205 177q0 19 3 40l40 319q4 34 -1 44t-25 10l-30 -2l-2 4l17 64q82 -3 138 -3l116 7l-15 -67q-31 -4 -43.5 -15.5t-16.5 -37.5l-43 -291q-2 -30 -2 -40
q-2 -120 101 -120q116 0 132 132l36 315q3 34 -1.5 44t-22.5 10l-32 -2l-2 4l16 64q76 -3 112 -3l117 7l-14 -66q-38 -8 -49 -17t-13 -33l-39 -313q-13 -101 -85 -179q-67 -72 -91.5 -107t-24.5 -61q0 -18 11.5 -29.5t29.5 -11.5q15 0 33 6t29 12z" />
    <glyph glyph-name="uogonek" unicode="&#x173;" horiz-adv-x="508" 
d="M443 -145l15 -29q-57 -50 -107 -67q-50 0 -78 21.5t-28 60.5q0 33 23 67.5t75 84.5q-12 -5 -16 -5q-43 0 -43 38q0 23 36 175l-9 1q-75 -158 -150 -213q-55 0 -86.5 25.5t-31.5 69.5q0 29 33 141.5t33 134.5q0 34 -38 34h-34l10 59q33 0 80.5 2.5t78.5 4.5l32 2l12 -16
q-86 -260 -86 -307q0 -29 23 -29t67 71t91 184l14 92l15 8l82 -6l13 -15q-47 -177 -71 -335l4 -4q6 0 14.5 6.5t51.5 43.5l17 -2l16 -35q-16 -19 -40.5 -47.5t-38 -44t-31 -36.5t-26.5 -34.5t-18.5 -29t-13 -28.5t-3.5 -25q0 -18 11.5 -30t29.5 -12q15 0 33 6t28 12z" />
    <glyph glyph-name="Wcircumflex" unicode="&#x174;" horiz-adv-x="933" 
d="M681 5l-159 -20l-38 361h-10l-140 -341l-160 -20q-41 340 -71 531q-6 32 -20 46t-41 16l-4 7l15 59q76 -3 116 -3q35 0 75 2.5t62 4.5l23 2l4 -8l-12 -60q-47 -4 -62.5 -13.5t-15.5 -33.5q0 -32 8.5 -133.5t17.5 -187.5l9 -85h14q15 36 47 114.5t58 141t45 106.5
q2 27 -3 42q-2 25 -16.5 34.5t-48.5 10.5l-4 7l16 59q87 -3 131 -3q32 0 72 2.5t63 4.5l24 2l4 -8l-12 -60q-49 -4 -64 -13.5t-15 -33.5q0 -29 9 -130.5t18 -188.5l9 -87h14q168 392 168 426q0 13 -10 18.5t-34 5.5h-36l-4 7l15 61q79 -6 138 -6l107 3l-14 -65
q-23 -4 -33.5 -14t-23.5 -38zM405 711l-19 41l168 124h20q0 1 26 -23t61.5 -56.5t49.5 -44.5l-29 -41l-17 -4q-7 3 -57.5 29t-57.5 29q-8 -3 -63.5 -28.5t-66.5 -29.5z" />
    <glyph glyph-name="wcircumflex" unicode="&#x175;" horiz-adv-x="682" 
d="M211 100h13q72 136 94 203l-20 132l9 14l102 25q31 -28 31 -85q0 -27 -15 -70l20 -219h13q98 179 98 244q0 28 -17 48t-33 25l7 32l133 25q31 -29 31 -89q0 -104 -197 -391l-99 -5l-16 15l-17 168h-9q-45 -92 -98 -178l-108 -5l-17 15q-8 188 -38 353q-4 20 -11 27.5
t-23 7.5l-42 -3l4 58l177 20l11 -9q18 -171 17 -358zM264 535l-24 41q18 15 59.5 53.5t74.5 69.5l32 31h20q97 -121 129 -154l-34 -41l-16 -4q-6 5 -51.5 42t-51.5 41q-3 -2 -122 -83z" />
    <glyph glyph-name="Ycircumflex" unicode="&#x176;" horiz-adv-x="582" 
d="M261 551q0 -31 56 -207h8l97 168q19 32 19 50t-46 21l-2 5l15 57q10 0 57 -2t71 -2l100 4l3 -7l-15 -60q-40 -13 -66.5 -39.5t-65.5 -88.5l-114 -179q-3 -5 -6 -10.5t-5.5 -10t-4.5 -11.5t-3.5 -11t-3 -12.5t-2.5 -13t-2.5 -15.5t-2 -16t-2.5 -19.5t-3 -20.5
q-5 -37 2.5 -51.5t34.5 -14.5l48 3l3 -5l-17 -67q-111 4 -159 4q-25 0 -63.5 -3t-64.5 -5l-26 -3l15 67q57 8 75.5 26t23.5 69l4 31q6 50 -15 103l-71 190q-18 50 -36.5 71t-59.5 30l-3 5l16 63q86 -3 124 -3l156 8l4 -9l-13 -57q-35 -2 -47.5 -9t-12.5 -23zM232 711l-19 41
l168 124h20q0 1 26 -23t61.5 -56.5t49.5 -44.5l-29 -41l-17 -4q-7 3 -57.5 29t-57.5 29q-8 -3 -63.5 -28.5t-66.5 -29.5z" />
    <glyph glyph-name="ycircumflex" unicode="&#x177;" horiz-adv-x="462" 
d="M286 417l7 32l132 25q32 -27 32 -87q0 -105 -189 -376q-96 -136 -164.5 -195t-131.5 -59q-36 0 -65 15t-35 36q7 45 41 109l20 -1q6 -27 26 -44t45 -17q32 0 62 21.5t72 74.5q-22 236 -49 406q-4 20 -12 27.5t-24 7.5l-40 -3l4 58l177 20l11 -9q15 -146 15 -369h12
q104 181 104 254q0 48 -50 74zM143 535l-24 41q18 15 59.5 53.5t73.5 69.5l33 31h20q97 -121 129 -154l-34 -41l-16 -4q-6 5 -51.5 42t-51.5 41q-3 -2 -122 -83z" />
    <glyph glyph-name="Ydieresis" unicode="&#x178;" horiz-adv-x="582" 
d="M261 551q0 -31 56 -207h8l97 168q19 32 19 50t-46 21l-2 5l15 57q10 0 57 -2t71 -2l100 4l3 -7l-15 -60q-40 -13 -66.5 -39.5t-65.5 -88.5l-114 -179q-3 -5 -6 -10.5t-5.5 -10t-4.5 -11.5t-3.5 -11t-3 -12.5t-2.5 -13t-2.5 -15.5t-2 -16t-2.5 -19.5t-3 -20.5
q-5 -37 2.5 -51.5t34.5 -14.5l48 3l3 -5l-17 -67q-111 4 -159 4q-25 0 -63.5 -3t-64.5 -5l-26 -3l15 67q57 8 75.5 26t23.5 69l4 31q6 50 -15 103l-71 190q-18 50 -36.5 71t-59.5 30l-3 5l16 63q86 -3 124 -3l156 8l4 -9l-13 -57q-35 -2 -47.5 -9t-12.5 -23zM453 706
q-25 0 -38.5 14t-13.5 38q0 33 21.5 54.5t53.5 21.5q25 0 38.5 -14t13.5 -38q0 -33 -21 -54.5t-54 -21.5zM280 706q-52 0 -52 52q0 33 21 54.5t54 21.5q25 0 38.5 -14t13.5 -38q0 -33 -21 -54.5t-54 -21.5z" />
    <glyph glyph-name="Zacute" unicode="&#x179;" horiz-adv-x="561" 
d="M487 16l-19 -19l-380 6l-75 -8l-18 44l403 531l-123 -8q-61 -4 -86 -30t-39 -97l-84 -6q29 123 42 215l12 10l171 -11l283 -4l12 -40q-184 -218 -412 -528l151 11q48 4 78.5 40t51.5 115l84 7q-37 -131 -52 -228zM514 775l-5 -13q-115 -29 -229 -65l-13 9l-14 47l223 104
l13 -5z" />
    <glyph glyph-name="zacute" unicode="&#x17a;" horiz-adv-x="425" 
d="M100 292l-56 -5q27 95 40 176l27 11q123 -29 200 -29q32 0 48 19l21 25l55 -35l5 -19q-143 -153 -286 -321l26 5q16 0 58.5 -7.5t60.5 -7.5q26 0 44.5 20t24.5 55l24 -1q13 -32 13 -67q0 -51 -32.5 -87t-78.5 -36q-30 0 -87.5 22.5t-90.5 22.5q-49 0 -106 -34l-19 30
l276 329l-73 1q-41 0 -61.5 -14.5t-32.5 -52.5zM408 666l-1 -14q-96 -60 -189 -129l-15 4l-30 39q37 36 79 78.5t66 67.5l23 25l13 -1z" />
    <glyph glyph-name="Zdotaccent" unicode="&#x17b;" horiz-adv-x="561" 
d="M487 16l-19 -19l-380 6l-75 -8l-18 44l403 531l-123 -8q-61 -4 -86 -30t-39 -97l-84 -6q29 123 42 215l12 10l171 -11l283 -4l12 -40q-184 -218 -412 -528l151 11q48 4 78.5 40t51.5 115l84 7q-37 -131 -52 -228zM359 702q-31 0 -47 16.5t-16 45.5q0 39 25.5 64.5
t64.5 25.5q29 0 45 -17t16 -45q0 -39 -25 -64.5t-63 -25.5z" />
    <glyph glyph-name="zdotaccent" unicode="&#x17c;" horiz-adv-x="425" 
d="M100 292l-56 -5q27 95 40 176l27 11q123 -29 200 -29q32 0 48 19l21 25l55 -35l5 -19q-143 -153 -286 -321l26 5q16 0 58.5 -7.5t60.5 -7.5q26 0 44.5 20t24.5 55l24 -1q13 -32 13 -67q0 -51 -32.5 -87t-78.5 -36q-30 0 -87.5 22.5t-90.5 22.5q-49 0 -106 -34l-19 30
l276 329l-73 1q-41 0 -61.5 -14.5t-32.5 -52.5zM272 574q-30 0 -46 16.5t-16 44.5q0 40 25.5 65.5t63.5 25.5q30 0 46 -17t16 -45q0 -39 -25.5 -64.5t-63.5 -25.5z" />
    <glyph glyph-name="Zcaron" unicode="&#x17d;" horiz-adv-x="561" 
d="M487 16l-19 -19l-380 6l-75 -8l-18 44l403 531l-123 -8q-61 -4 -86 -30t-39 -97l-84 -6q29 123 42 215l12 10l171 -11l283 -4l12 -40q-184 -218 -412 -528l151 11q48 4 78.5 40t51.5 115l84 7q-37 -131 -52 -228zM519 861l20 -41l-169 -124h-19q-102 95 -137 124l28 41
l17 4q9 -4 58.5 -29.5t56.5 -28.5q8 3 63.5 28.5t66.5 29.5z" />
    <glyph glyph-name="zcaron" unicode="&#x17e;" horiz-adv-x="425" 
d="M100 292l-56 -5q27 95 40 176l27 11q123 -29 200 -29q32 0 48 19l21 25l55 -35l5 -19q-143 -153 -286 -321l26 5q16 0 58.5 -7.5t60.5 -7.5q26 0 44.5 20t24.5 55l24 -1q13 -32 13 -67q0 -51 -32.5 -87t-78.5 -36q-30 0 -87.5 22.5t-90.5 22.5q-49 0 -106 -34l-19 30
l276 329l-73 1q-41 0 -61.5 -14.5t-32.5 -52.5zM129 679l35 42l16 3q42 -38 105 -85q87 56 126 85l14 -3l25 -42q-35 -31 -77.5 -70.5t-67.5 -63.5l-25 -24h-20q-69 88 -131 158z" />
    <glyph glyph-name="florin" unicode="&#x192;" horiz-adv-x="405" 
d="M124 0l16 264q-1 24 -14.5 30.5t-60.5 6.5l-3 6l7 46l77 12l5 57q3 68 66 122t140 54q36 0 65.5 -9t29.5 -21q0 -15 -10 -50t-18 -47l-15 -1q-44 54 -86 54q-23 0 -36 -15t-17 -34.5t-7 -55.5l-5 -56l122 1l4 -5l-10 -61l-121 2l-20 -263q-5 -80 -59.5 -139t-130.5 -59
q-31 0 -59.5 13t-28.5 28q0 18 10.5 50t20.5 44h14q8 -27 27.5 -45t43.5 -18q49 0 53 89z" />
    <glyph glyph-name="Aringacute" unicode="&#x1fa;" horiz-adv-x="607" 
d="M522 131q6 -36 20 -50.5t46 -18.5l4 -7l-14 -58q-77 3 -119 3q-37 0 -78 -2t-64 -4l-23 -2l-4 8l12 59q48 4 63.5 12t15.5 30q0 7 -2 29l-9 77q-26 2 -87 2q-47 0 -93 -7l-32 -77q-10 -24 -10 -37q0 -26 39 -26h42l3 -6l-14 -62q-79 6 -140 6l-117 -3l15 66q43 7 71 67
l230 506l157 17l11 -5q46 -345 77 -517zM321 512l-96 -227h67q27 0 71 4l-28 223h-14zM374 713q40 0 40 38q0 32 -36 32q-18 0 -28 -10t-10 -27q0 -16 10.5 -24.5t23.5 -8.5zM363 665q-33 0 -51 19t-18 51q0 42 27.5 70t69.5 28q35 0 52 -19.5t17 -48.5q0 -40 -27 -70
t-70 -30zM511 903l-5 -11q-103 -26 -206 -59l-12 8l-12 43l200 93l12 -4z" />
    <glyph glyph-name="aringacute" unicode="&#x1fb;" horiz-adv-x="493" 
d="M384 109l4 -4q9 0 66 50l17 -2l16 -35q-70 -74 -107.5 -102t-66.5 -28q-43 0 -43 38q0 31 34 167l-8 1q-85 -153 -161 -206q-54 0 -84 38.5t-30 107.5q0 79 35.5 156.5t92 126.5t113.5 49l87 -18l7 22l11 7l81 -14l8 -17q-48 -179 -72 -337zM167 105q22 0 68 76.5
t84 176.5q-48 29 -88 29q-32 0 -59 -62t-27 -135q0 -36 6.5 -60.5t15.5 -24.5zM300 536q40 0 40 38q0 32 -36 32q-18 0 -28 -10t-10 -27q0 -16 10.5 -24.5t23.5 -8.5zM289 488q-33 0 -51 19t-18 51q0 42 27.5 70t69.5 28q35 0 52 -19.5t17 -48.5q0 -40 -27 -70t-70 -30z
M435 721l-5 -11q-103 -26 -206 -59l-12 8l-12 43l200 93l12 -4z" />
    <glyph glyph-name="AEacute" unicode="&#x1fc;" horiz-adv-x="846" 
d="M288 60q85 7 86 63q2 20 2 34v92l-85 -10l-83 -16l-53 -98q-15 -29 -15 -41q0 -13 10.5 -17t39.5 -4l30 -5l-14 -64q-1 1 -29.5 2t-68 2.5t-64.5 1.5l-72 -3l3 59q11 2 30 22.5t37 51.5l248 426q-3 22 -22 22l-30 -2l-6 9l16 60q0 -3 238 -3q233 0 312 12l7 -11
q-28 -88 -45 -181l-91 -7q8 35 8 57q0 29 -22.5 38t-94.5 9q-31 0 -41.5 -6t-10.5 -22l4 -182l94 12l95 19l9 -11l-22 -83l-89 -6l-86 -11l4 -124q1 -35 14.5 -51t44.5 -16q79 0 104.5 19.5t45.5 94.5l85 7l7 -9q-29 -90 -50 -186l-11 -11q1 1 -48 2.5t-128.5 3t-144.5 1.5
q-35 0 -74 -2t-60 -4l-21 -2l-4 8zM257 317l60 4l61 8l1 181h-15zM658 841l-1 -14q-96 -60 -189 -129l-15 4l-30 39q37 36 79 78.5t66 67.5l23 25l13 -1z" />
    <glyph glyph-name="aeacute" unicode="&#x1fd;" horiz-adv-x="635" 
d="M627 379q0 -66 -55.5 -110t-187.5 -86q0 -45 16.5 -71.5t46.5 -26.5q57 0 100 79l18 -2l33 -40q-27 -58 -82 -96t-111 -38q-60 0 -96.5 41.5t-41.5 113.5q-68 -111 -132 -155q-54 0 -84 38.5t-30 107.5q0 79 35.5 156.5t92 126.5t113.5 49l154 -24q50 31 104 31
q50 0 78.5 -25t28.5 -69zM167 105q22 0 68 79.5t84 183.5q-47 19 -88 19q-32 0 -59 -62t-27 -135q0 -36 6.5 -60.5t15.5 -24.5zM538 666l-1 -14q-96 -60 -189 -129l-15 4l-30 39q37 36 79 78.5t66 67.5l23 25l13 -1zM485 385q-33 0 -60.5 -39.5t-37.5 -101.5q131 43 131 106
q0 35 -33 35z" />
    <glyph glyph-name="Oslashacute" unicode="&#x1fe;" horiz-adv-x="649" 
d="M60 -68l65 106q-93 71 -93 217q0 178 97 288t256 110q49 0 93 -14l54 90l61 -29l3 -13l-50 -82q95 -70 95 -215q0 -178 -99 -290t-257 -112q-51 0 -95 15l-67 -110l-60 29zM311 73q80 0 127 78.5t47 219.5q0 60 -17 105l-223 -382q27 -21 66 -21zM185 261q0 -56 14 -100
l220 379q-29 19 -63 19q-79 0 -125 -79t-46 -219zM515 780l-5 -13q-115 -29 -229 -65l-13 9l-14 47l223 104l13 -5z" />
    <glyph glyph-name="oslashacute" unicode="&#x1ff;" horiz-adv-x="444" 
d="M-2 -78l68 112q-39 48 -39 133q0 130 71 218.5t176 88.5q24 0 47 -6l62 104l62 -30l3 -12l-63 -104q35 -43 35 -121q0 -135 -71 -226t-178 -91q-23 0 -43 6l-68 -111l-60 29zM410 666l-1 -14q-96 -60 -189 -129l-15 4l-30 39q37 36 79 78.5t66 67.5l23 25l13 -1zM150 199
v-24l115 198q-13 12 -32 12q-37 0 -60 -52t-23 -134zM210 68q39 0 61.5 51.5t22.5 143.5v10l-113 -193q12 -12 29 -12z" />
    <glyph glyph-name="Scommaaccent" unicode="&#x218;" horiz-adv-x="522" 
d="M193 -12q-45 0 -89 9.5t-66 18.5l-21 10l-7 14q27 86 38 169l83 7q-10 -81 8.5 -111t79.5 -30q48 0 78.5 23.5t30.5 61.5q0 30 -26 52t-78 50q-31 17 -45 25t-39.5 26.5t-37.5 34t-22.5 39.5t-10.5 51q0 93 77 154t197 61q43 0 86 -6.5t65 -12.5l21 -7l6 -13
q-27 -80 -44 -171l-75 -6l-8 6q7 34 7 52q0 36 -20 51.5t-64 15.5t-72.5 -23t-28.5 -57q0 -42 70 -84q10 -6 48.5 -26t55 -31.5t42 -33t36.5 -46.5t11 -56q0 -97 -78 -157t-208 -60zM126 -100l3 14q44 35 79 35q30 0 49.5 -23.5t19.5 -62.5q0 -50 -41.5 -98t-105.5 -83
l-37 30v17q30 21 49 49t19 53q0 41 -35 69z" />
    <glyph glyph-name="scommaaccent" unicode="&#x219;" horiz-adv-x="369" 
d="M48 158l20 -1q1 -40 25.5 -64t63.5 -24q25 0 40.5 12.5t15.5 32.5q0 13 -10.5 26.5t-20.5 21.5t-33 23q-31 21 -46.5 33.5t-32 38.5t-16.5 56q0 67 55 114t134 47q82 0 126 -41q-20 -52 -48 -102h-20q-23 59 -74 59q-19 0 -32.5 -12t-13.5 -30q0 -23 30 -46q9 -7 38 -27
t44 -33t30 -37.5t15 -52.5q0 -68 -59 -116t-141 -48q-53 0 -91 16.5t-47 43.5q13 63 48 110zM78 -100l3 14q44 35 79 35q30 0 49.5 -23.5t19.5 -62.5q0 -50 -41.5 -98t-105.5 -83l-37 30v17q30 21 49 49t19 53q0 41 -35 69z" />
    <glyph glyph-name="uni021A" unicode="&#x21a;" horiz-adv-x="551" 
d="M200 165l49 401q-28 -1 -44.5 -2.5t-31.5 -8t-22 -13t-15 -24t-12.5 -34t-11.5 -49.5l-83 -6q23 116 37 213l13 11l94 -11h302l101 11l9 -11l-16 -207l-83 -6q1 93 -13 113.5t-85 23.5q-14 -78 -39.5 -251t-25.5 -199q0 -27 10.5 -39t34.5 -12l53 3l3 -5l-17 -67
q-118 4 -169 4l-163 -6l16 65q64 6 82.5 24t26.5 82zM151 -100l3 14q44 35 79 35q30 0 49.5 -23.5t19.5 -62.5q0 -50 -41.5 -98t-105.5 -83l-37 30v17q30 21 49 49t19 53q0 41 -35 69z" />
    <glyph glyph-name="uni021B" unicode="&#x21b;" horiz-adv-x="307" 
d="M266 161l17 -3l16 -36q-47 -60 -89 -97t-65 -37q-49 0 -74 26.5t-20 73.5l50 297l-7 6l-62 2l-3 5l6 46l76 12l15 116l128 35l10 -12q-20 -67 -36 -140h109l5 -5l-9 -56l-107 1l-12 -7l-48 -252q-4 -33 20 -33q22 0 80 58zM54 -100l3 14q44 35 79 35q30 0 49.5 -23.5
t19.5 -62.5q0 -50 -41.5 -98t-105.5 -83l-37 30v17q30 21 49 49t19 53q0 41 -35 69z" />
    <glyph glyph-name="dotlessj" unicode="&#x237;" horiz-adv-x="271" 
d="M164 18q-23 -178 -200 -262l-27 30l3 12q57 42 82 91.5t37 146.5q50 288 50 320q0 38 -39 38h-35l10 59q33 0 80.5 2.5t78.5 4.5l31 2l13 -16q-52 -206 -84 -428z" />
    <glyph glyph-name="circumflex" unicode="&#x2c6;" 
d="M101 535l-24 41q18 15 59.5 53.5t73.5 69.5l33 31h20q97 -121 129 -154l-34 -41l-16 -4q-6 5 -51.5 42t-51.5 41q-3 -2 -122 -83z" />
    <glyph glyph-name="caron" unicode="&#x2c7;" 
d="M86 679l35 42l16 3q42 -38 105 -85q87 56 126 85l14 -3l25 -42q-35 -31 -77.5 -70.5t-67.5 -63.5l-25 -24h-20q-69 88 -131 158z" />
    <glyph glyph-name="breve" unicode="&#x2d8;" 
d="M243 642q74 0 108 68l18 -4l22 -34q-20 -53 -61 -89t-98 -36q-58 0 -90 36t-40 89l31 34l18 4q18 -68 92 -68z" />
    <glyph glyph-name="dotaccent" unicode="&#x2d9;" 
d="M230 574q-30 0 -46 16.5t-16 44.5q0 40 25.5 65.5t63.5 25.5q30 0 46 -17t16 -45q0 -39 -25.5 -64.5t-63.5 -25.5z" />
    <glyph glyph-name="ring" unicode="&#x2da;" 
d="M239 596q43 0 43 42q0 36 -39 36q-42 0 -42 -41q0 -18 12 -27.5t26 -9.5zM226 543q-37 0 -56.5 21.5t-19.5 56.5q0 46 30.5 77t76.5 31q39 0 58 -21.5t19 -53.5q0 -44 -30 -77.5t-78 -33.5z" />
    <glyph glyph-name="ogonek" unicode="&#x2db;" horiz-adv-x="385" 
d="M232 -145l15 -29q-57 -50 -107 -67q-49 0 -77.5 21.5t-28.5 59.5q0 40 33.5 82t118.5 120h54q-76 -80 -98.5 -110.5t-22.5 -59.5q0 -18 11 -29.5t30 -11.5q15 0 33 6t29 12z" />
    <glyph glyph-name="tilde" unicode="&#x2dc;" 
d="M106 539h-11l-35 36l1 11l88 101l16 4q17 0 73 -16.5t69 -16.5q10 0 27 14t30 28l12 14h11l36 -37l-2 -10l-88 -102l-16 -4q-17 0 -72.5 17t-68.5 17q-11 0 -28.5 -14t-29.5 -28z" />
    <glyph glyph-name="hungarumlaut" unicode="&#x2dd;" 
d="M248 677l1 -11q-75 -64 -148 -135l-14 1l-32 28l125 166l11 1zM393 677l1 -11q-75 -64 -149 -135l-13 1l-32 28l124 166l12 1z" />
    <glyph glyph-name="dotbelowcomb" unicode="&#x323;" horiz-adv-x="304" 
d="M94 -211q-31 0 -48 17.5t-17 46.5q0 41 25.5 67t65.5 26q32 0 48.5 -17.5t16.5 -47.5q0 -40 -25 -66t-66 -26z" />
    <glyph glyph-name="Delta" unicode="&#x394;" horiz-adv-x="588" 
d="M-8 0l-9 13l283 624l165 17h9q52 -390 100 -647l-9 -7h-539zM330 519h-16l-178 -424h241z" />
    <glyph glyph-name="Delta" unicode="&#x2206;" horiz-adv-x="588" 
d="M-8 0l-9 13l283 624l165 17h9q52 -390 100 -647l-9 -7h-539zM330 519h-16l-178 -424h241z" />
    <glyph glyph-name="Omega" unicode="&#x3a9;" horiz-adv-x="828" 
d="M766 14l-19 -19l-263 11l-56 -8l-10 49q81 72 118 152.5t37 179.5q0 85 -32 131.5t-90 46.5q-80 0 -126 -71t-46 -203q0 -153 82 -235l-23 -51l-54 9l-263 -11l-15 19q4 36 7 84t5 78l1 30l72 7q-2 -70 13.5 -99t56.5 -31l69 -4q-102 100 -102 245q0 140 98 235t241 95
q119 0 192.5 -66.5t73.5 -173.5q0 -96 -48 -182.5t-135 -153.5l78 5q40 2 62.5 29t38.5 94l73 7q-25 -117 -36 -199z" />
    <glyph glyph-name="Omega" unicode="&#x2126;" horiz-adv-x="828" 
d="M766 14l-19 -19l-263 11l-56 -8l-10 49q81 72 118 152.5t37 179.5q0 85 -32 131.5t-90 46.5q-80 0 -126 -71t-46 -203q0 -153 82 -235l-23 -51l-54 9l-263 -11l-15 19q4 36 7 84t5 78l1 30l72 7q-2 -70 13.5 -99t56.5 -31l69 -4q-102 100 -102 245q0 140 98 235t241 95
q119 0 192.5 -66.5t73.5 -173.5q0 -96 -48 -182.5t-135 -153.5l78 5q40 2 62.5 29t38.5 94l73 7q-25 -117 -36 -199z" />
    <glyph glyph-name="pi" unicode="&#x3c0;" horiz-adv-x="601" 
d="M452 155q0 -35 16 -49t55 -14l8 -15q-2 -13 -41.5 -51t-51.5 -38q-64 0 -90 32t-17 99l34 250q4 33 -4 41t-45 8q-34 0 -43 -7t-14 -37q-30 -190 -49 -341l-9 -99l-9 -10l-120 -22l-6 14q6 13 38.5 222t32.5 242q0 18 -5.5 25t-20.5 7q-12 0 -29 -12.5t-28 -25.5l-12 -12
l-8 -1l-25 42l1 8l84 87l16 7q61 0 184.5 -5t145.5 -5q31 0 74 2.5t70 4.5l28 3l5 -7l-22 -70l-7 -7q-55 0 -73.5 -10t-26.5 -45q-36 -172 -36 -211z" />
    <glyph glyph-name="Wgrave" unicode="&#x1e80;" horiz-adv-x="933" 
d="M681 5l-159 -20l-38 361h-10l-140 -341l-160 -20q-41 340 -71 531q-6 32 -20 46t-41 16l-4 7l15 59q76 -3 116 -3q35 0 75 2.5t62 4.5l23 2l4 -8l-12 -60q-47 -4 -62.5 -13.5t-15.5 -33.5q0 -32 8.5 -133.5t17.5 -187.5l9 -85h14q15 36 47 114.5t58 141t45 106.5
q2 27 -3 42q-2 25 -16.5 34.5t-48.5 10.5l-4 7l16 59q87 -3 131 -3q32 0 72 2.5t63 4.5l24 2l4 -8l-12 -60q-49 -4 -64 -13.5t-15 -33.5q0 -29 9 -130.5t18 -188.5l9 -87h14q168 392 168 426q0 13 -10 18.5t-34 5.5h-36l-4 7l15 61q79 -6 138 -6l107 3l-14 -65
q-23 -4 -33.5 -14t-23.5 -38zM396 762l-5 13l25 77l13 5q115 -57 223 -104l-13 -47l-14 -9q-51 16 -108 32.5t-89 24.5z" />
    <glyph glyph-name="wgrave" unicode="&#x1e81;" horiz-adv-x="682" 
d="M211 100h13q72 136 94 203l-20 132l9 14l102 25q31 -28 31 -85q0 -27 -15 -70l20 -219h13q98 179 98 244q0 28 -17 48t-33 25l7 32l133 25q31 -29 31 -89q0 -104 -197 -391l-99 -5l-16 15l-17 168h-9q-45 -92 -98 -178l-108 -5l-17 15q-8 188 -38 353q-4 20 -11 27.5
t-23 7.5l-42 -3l4 58l177 20l11 -9q18 -171 17 -358zM254 651l-2 14l55 70l13 1q85 -90 168 -170l-30 -39l-16 -4q-41 31 -88 63t-74 48z" />
    <glyph glyph-name="Wacute" unicode="&#x1e82;" horiz-adv-x="933" 
d="M681 5l-159 -20l-38 361h-10l-140 -341l-160 -20q-41 340 -71 531q-6 32 -20 46t-41 16l-4 7l15 59q76 -3 116 -3q35 0 75 2.5t62 4.5l23 2l4 -8l-12 -60q-47 -4 -62.5 -13.5t-15.5 -33.5q0 -32 8.5 -133.5t17.5 -187.5l9 -85h14q15 36 47 114.5t58 141t45 106.5
q2 27 -3 42q-2 25 -16.5 34.5t-48.5 10.5l-4 7l16 59q87 -3 131 -3q32 0 72 2.5t63 4.5l24 2l4 -8l-12 -60q-49 -4 -64 -13.5t-15 -33.5q0 -29 9 -130.5t18 -188.5l9 -87h14q168 392 168 426q0 13 -10 18.5t-34 5.5h-36l-4 7l15 61q79 -6 138 -6l107 3l-14 -65
q-23 -4 -33.5 -14t-23.5 -38zM699 775l-5 -13q-115 -29 -229 -65l-13 9l-14 47l223 104l13 -5z" />
    <glyph glyph-name="wacute" unicode="&#x1e83;" horiz-adv-x="682" 
d="M211 100h13q72 136 94 203l-20 132l9 14l102 25q31 -28 31 -85q0 -27 -15 -70l20 -219h13q98 179 98 244q0 28 -17 48t-33 25l7 32l133 25q31 -29 31 -89q0 -104 -197 -391l-99 -5l-16 15l-17 168h-9q-45 -92 -98 -178l-108 -5l-17 15q-8 188 -38 353q-4 20 -11 27.5
t-23 7.5l-42 -3l4 58l177 20l11 -9q18 -171 17 -358zM532 666l-1 -14q-96 -60 -189 -129l-15 4l-30 39q37 36 79 78.5t66 67.5l23 25l13 -1z" />
    <glyph glyph-name="Wdieresis" unicode="&#x1e84;" horiz-adv-x="933" 
d="M681 5l-159 -20l-38 361h-10l-140 -341l-160 -20q-41 340 -71 531q-6 32 -20 46t-41 16l-4 7l15 59q76 -3 116 -3q35 0 75 2.5t62 4.5l23 2l4 -8l-12 -60q-47 -4 -62.5 -13.5t-15.5 -33.5q0 -32 8.5 -133.5t17.5 -187.5l9 -85h14q15 36 47 114.5t58 141t45 106.5
q2 27 -3 42q-2 25 -16.5 34.5t-48.5 10.5l-4 7l16 59q87 -3 131 -3q32 0 72 2.5t63 4.5l24 2l4 -8l-12 -60q-49 -4 -64 -13.5t-15 -33.5q0 -29 9 -130.5t18 -188.5l9 -87h14q168 392 168 426q0 13 -10 18.5t-34 5.5h-36l-4 7l15 61q79 -6 138 -6l107 3l-14 -65
q-23 -4 -33.5 -14t-23.5 -38zM625 706q-25 0 -38.5 14t-13.5 38q0 33 21.5 54.5t53.5 21.5q25 0 38.5 -14t13.5 -38q0 -33 -21 -54.5t-54 -21.5zM452 706q-52 0 -52 52q0 33 21 54.5t54 21.5q25 0 38.5 -14t13.5 -38q0 -33 -21 -54.5t-54 -21.5z" />
    <glyph glyph-name="wdieresis" unicode="&#x1e85;" horiz-adv-x="682" 
d="M211 100h13q72 136 94 203l-20 132l9 14l102 25q31 -28 31 -85q0 -27 -15 -70l20 -219h13q98 179 98 244q0 28 -17 48t-33 25l7 32l133 25q31 -29 31 -89q0 -104 -197 -391l-99 -5l-16 15l-17 168h-9q-45 -92 -98 -178l-108 -5l-17 15q-8 188 -38 353q-4 20 -11 27.5
t-23 7.5l-42 -3l4 58l177 20l11 -9q18 -171 17 -358zM482 563q-26 0 -39.5 14t-13.5 38q0 32 21.5 54t54.5 22q25 0 38.5 -14t13.5 -38q0 -33 -21 -54.5t-54 -21.5zM308 563q-25 0 -38.5 14t-13.5 38q0 32 21.5 54t54.5 22q25 0 38 -14t13 -38q0 -33 -21 -54.5t-54 -21.5z
" />
    <glyph glyph-name="Ygrave" unicode="&#x1ef2;" horiz-adv-x="582" 
d="M261 551q0 -31 56 -207h8l97 168q19 32 19 50t-46 21l-2 5l15 57q10 0 57 -2t71 -2l100 4l3 -7l-15 -60q-40 -13 -66.5 -39.5t-65.5 -88.5l-114 -179q-3 -5 -6 -10.5t-5.5 -10t-4.5 -11.5t-3.5 -11t-3 -12.5t-2.5 -13t-2.5 -15.5t-2 -16t-2.5 -19.5t-3 -20.5
q-5 -37 2.5 -51.5t34.5 -14.5l48 3l3 -5l-17 -67q-111 4 -159 4q-25 0 -63.5 -3t-64.5 -5l-26 -3l15 67q57 8 75.5 26t23.5 69l4 31q6 50 -15 103l-71 190q-18 50 -36.5 71t-59.5 30l-3 5l16 63q86 -3 124 -3l156 8l4 -9l-13 -57q-35 -2 -47.5 -9t-12.5 -23zM218 762l-5 13
l25 77l13 5q115 -57 223 -104l-13 -47l-14 -9q-51 16 -108 32.5t-89 24.5z" />
    <glyph glyph-name="ygrave" unicode="&#x1ef3;" horiz-adv-x="462" 
d="M286 417l7 32l132 25q32 -27 32 -87q0 -105 -189 -376q-96 -136 -164.5 -195t-131.5 -59q-36 0 -65 15t-35 36q7 45 41 109l20 -1q6 -27 26 -44t45 -17q32 0 62 21.5t72 74.5q-22 236 -49 406q-4 20 -12 27.5t-24 7.5l-40 -3l4 58l177 20l11 -9q15 -146 15 -369h12
q104 181 104 254q0 48 -50 74zM128 651l-2 14l55 70l13 1q85 -90 168 -170l-30 -39l-16 -4q-41 31 -88 63t-74 48z" />
    <glyph glyph-name="endash" unicode="&#x2013;" horiz-adv-x="437" 
d="M448 305l5 -15l-19 -77q-82 0 -240 -0.5t-197 -0.5l-6 13l20 76h232q152 0 205 4z" />
    <glyph glyph-name="emdash" unicode="&#x2014;" horiz-adv-x="842" 
d="M852 305l6 -15l-20 -77q-158 0 -462 -0.5t-379 -0.5l-6 13l20 76h421q376 0 420 4z" />
    <glyph glyph-name="quoteleft" unicode="&#x2018;" horiz-adv-x="214" 
d="M212 436l-3 -14q-44 -35 -79 -35q-30 0 -49.5 23t-19.5 62q0 50 41.5 98t105.5 84l37 -30v-17q-30 -20 -49 -48.5t-19 -54.5q0 -40 35 -68z" />
    <glyph glyph-name="quoteright" unicode="&#x2019;" horiz-adv-x="214" 
d="M74 605l3 14q45 35 79 35q30 0 49.5 -23.5t19.5 -62.5q0 -50 -41.5 -98t-105.5 -83l-37 30v17q30 20 49 48t19 54q0 42 -35 69z" />
    <glyph glyph-name="quotesinglbase" unicode="&#x201a;" horiz-adv-x="229" 
d="M17 94l2 14q45 34 79 34q30 0 49 -24t19 -65q0 -52 -44 -104t-109 -89l-38 30v17q32 22 52 53t20 61q0 41 -30 73z" />
    <glyph glyph-name="quotedblleft" unicode="&#x201c;" horiz-adv-x="394" 
d="M451 436l-3 -14q-44 -35 -79 -35q-30 0 -49.5 23t-19.5 62q0 50 41.5 98t105.5 84l37 -30v-17q-30 -20 -49 -48.5t-19 -54.5q0 -40 35 -68zM272 436l-3 -14q-44 -35 -79 -35q-30 0 -49.5 23t-19.5 62q0 50 41.5 98t105.5 84l37 -30v-17q-30 -20 -49 -48.5t-19 -54.5
q0 -40 35 -68z" />
    <glyph glyph-name="quotedblright" unicode="&#x201d;" horiz-adv-x="394" 
d="M317 605l3 14q45 35 79 35q30 0 49.5 -23.5t19.5 -62.5q0 -50 -41.5 -98t-105.5 -83l-37 30v17q30 20 49 48t19 54q0 42 -35 69zM138 605l3 14q45 35 79 35q30 0 49.5 -23.5t19.5 -62.5q0 -50 -41.5 -98t-105.5 -83l-37 30v17q30 20 49 48t19 54q0 42 -35 69z" />
    <glyph glyph-name="quotedblbase" unicode="&#x201e;" horiz-adv-x="408" 
d="M15 94l2 14q45 34 79 34q30 0 49.5 -23t19.5 -62q0 -50 -41.5 -98t-105.5 -84l-37 30v17q30 20 49 48.5t19 54.5q0 40 -34 69zM196 94l2 14q45 34 79 34q30 0 49.5 -23t19.5 -62q0 -50 -41.5 -98t-105.5 -84l-37 30v17q30 20 49 48.5t19 54.5q0 40 -34 69z" />
    <glyph glyph-name="dagger" unicode="&#x2020;" horiz-adv-x="480" 
d="M332 592l7 -8l-23 -178l153 2l8 -11l-17 -80h-156l-49 -402l-88 -6l-8 9l50 399h-153l-6 11l16 78h154l21 179z" />
    <glyph glyph-name="daggerdbl" unicode="&#x2021;" horiz-adv-x="479" 
d="M332 592l7 -8l-21 -159l153 1l8 -10l-17 -80h-156l-19 -158l155 1l7 -10l-17 -80h-156l-21 -174l-88 -6l-8 9l21 171h-152l-6 10l16 78l153 1l20 158h-152l-7 11l16 78h154l19 160z" />
    <glyph glyph-name="bullet" unicode="&#x2022;" horiz-adv-x="328" 
d="M147 113q-48 0 -74 27.5t-26 73.5q0 61 38 101t98 40q47 0 73.5 -28t26.5 -74q0 -60 -38 -100t-98 -40z" />
    <glyph glyph-name="onedotenleader" unicode="&#x2024;" horiz-adv-x="230" 
d="M82 -11q-32 0 -48.5 17.5t-16.5 47.5q0 41 25.5 67t65.5 26q31 0 48 -17.5t17 -47.5q0 -40 -25.5 -66.5t-65.5 -26.5z" />
    <glyph glyph-name="twodotenleader" unicode="&#x2025;" horiz-adv-x="443" 
d="M82 -11q-32 0 -48.5 17.5t-16.5 47.5q0 41 25.5 67t65.5 26q31 0 48 -17.5t17 -47.5q0 -40 -25.5 -66.5t-65.5 -26.5zM299 -11q-32 0 -48.5 17.5t-16.5 47.5q0 41 25.5 67t65.5 26q31 0 48 -17.5t17 -47.5q0 -40 -25.5 -66.5t-65.5 -26.5z" />
    <glyph glyph-name="ellipsis" unicode="&#x2026;" horiz-adv-x="655" 
d="M296 -11q-32 0 -48.5 17.5t-16.5 47.5q0 41 25.5 67t65.5 26q31 0 48 -17.5t17 -47.5q0 -40 -25.5 -66.5t-65.5 -26.5zM510 -11q-32 0 -48.5 17.5t-16.5 47.5q0 41 25.5 67t65.5 26q31 0 48 -17.5t17 -47.5q0 -40 -25.5 -66.5t-65.5 -26.5zM84 -11q-32 0 -48.5 17.5
t-16.5 47.5q0 41 25.5 67t65.5 26q31 0 48 -17.5t17 -47.5q0 -40 -25.5 -66.5t-65.5 -26.5z" />
    <glyph glyph-name="perthousand" unicode="&#x2030;" horiz-adv-x="1015" 
d="M188 408q86 0 86 76q0 31 -20.5 49t-59.5 18q-85 0 -85 -76q0 -34 21.5 -50.5t57.5 -16.5zM168 309q-57 0 -90.5 36.5t-33.5 101.5q0 93 48.5 150t125.5 57q58 0 90 -37.5t32 -98.5q0 -92 -47 -150.5t-125 -58.5zM529 88q86 0 86 75q0 32 -20.5 50t-59.5 18
q-41 0 -63.5 -20t-22.5 -56q0 -67 80 -67zM508 -12q-57 0 -90 37t-33 101q0 93 48.5 150t125.5 57q58 0 90 -37.5t32 -98.5q0 -92 -47.5 -150.5t-125.5 -58.5zM852 88q86 0 86 75q0 32 -20 50t-59 18q-41 0 -63.5 -20t-22.5 -56q0 -67 79 -67zM832 -12q-57 0 -90 37t-33 101
q0 93 48.5 150t124.5 57q58 0 90.5 -37.5t32.5 -98.5q0 -92 -47.5 -150.5t-125.5 -58.5zM602 653l7 -19q-176 -267 -266 -407l-202 -320l-65 27l-5 14q121 180 207 316l262 414z" />
    <glyph glyph-name="guilsinglleft" unicode="&#x2039;" horiz-adv-x="256" 
d="M194 411l39 -25l2 -16q-7 -11 -52 -72.5t-50 -68.5q3 -9 33.5 -72.5t33.5 -71.5l-6 -16l-44 -25q-12 18 -46 60.5t-62 76.5l-29 34l2 21q143 135 179 175z" />
    <glyph glyph-name="guilsinglright" unicode="&#x203a;" horiz-adv-x="256" 
d="M62 44l-39 25l-1 16q5 8 29.5 41t46 63t24.5 37q-2 6 -16 36t-30.5 65.5t-19.5 41.5l6 16l44 26q12 -18 46.5 -61t63.5 -77l28 -34l-3 -20q-142 -135 -179 -175z" />
    <glyph glyph-name="fraction" unicode="&#x2044;" horiz-adv-x="155" 
d="M298 653l7 -19q-176 -267 -266 -407l-202 -320l-65 27l-5 14q121 180 207 316l262 414z" />
    <glyph glyph-name="zero.sups" unicode="&#x2070;" horiz-adv-x="341" 
d="M143 331q-56 0 -85.5 40t-29.5 113q0 109 50 176.5t130 67.5q55 0 84.5 -40t29.5 -112q0 -110 -49.5 -177.5t-129.5 -67.5zM165 431q87 0 87 112q0 82 -70 82q-86 0 -86 -113q0 -81 69 -81z" />
    <glyph glyph-name="four.sups" unicode="&#x2074;" horiz-adv-x="328" 
d="M1 436l8 52l193 239l5 1l71 -7l-26 -221h48l5 -9l-14 -62l-47 2l-7 -85l-6 -7l-91 -7l-6 7q10 49 16 94zM164 604l-79 -104h74l12 104h-7z" />
    <glyph glyph-name="five.sups" unicode="&#x2075;" horiz-adv-x="296" 
d="M263 482q0 -57 -66 -104t-142 -47q-30 0 -41 17.5t-9 58.5l14 12q24 -11 55 -11q36 0 59 15.5t23 39.5q0 22 -25.5 34t-82.5 16l-4 7l34 187l7 5l130 4q19 0 28 5.5t16 20.5l44 3l-31 -105l-12 -9q-58 5 -125 5l-10 -53q72 -10 105 -34.5t33 -66.5z" />
    <glyph glyph-name="six.sups" unicode="&#x2076;" horiz-adv-x="320" 
d="M297 682q-11 -4 -28 -12t-56 -38t-62 -67l2 -6q34 17 49 20q44 0 69 -27.5t25 -70.5q0 -66 -45 -108t-117 -42q-53 0 -84 34t-31 89q0 59 27 109t65.5 79t76.5 49.5t65 28.5l27 8l7 -4zM163 513q-23 0 -46 -15q-6 -32 -6 -45q0 -58 39 -58q51 0 51 68q0 50 -38 50z" />
    <glyph glyph-name="seven.sups" unicode="&#x2077;" horiz-adv-x="295" 
d="M129 332h-13l-67 21l-6 17l168 272l-73 -5q-30 -3 -40.5 -13t-20.5 -43l-46 -4q19 80 30 143l4 3q38 -3 78 -3h141l26 -37q-70 -121 -149 -269z" />
    <glyph glyph-name="eight.sups" unicode="&#x2078;" horiz-adv-x="325" 
d="M18 418q0 66 78 99q-48 35 -48 86q0 52 43 88.5t105 36.5q46 0 77.5 -23.5t31.5 -61.5q0 -60 -66 -93q51 -32 51 -84q0 -56 -46 -95.5t-111 -39.5q-50 0 -82.5 24t-32.5 63zM148 389q21 0 34.5 13t13.5 33q0 12 -10 23t-19.5 17t-32.5 18q-31 -27 -31 -56q0 -21 12 -34.5
t33 -13.5zM141 626q0 -16 13.5 -27.5t40.5 -25.5q24 24 24 54q0 39 -35 39q-19 0 -31 -11.5t-12 -28.5z" />
    <glyph glyph-name="nine.sups" unicode="&#x2079;" horiz-adv-x="319" 
d="M30 378q4 1 10.5 4t25.5 13t36.5 22.5t38.5 33t36 44.5l-2 6q-31 -16 -49 -20q-45 0 -69.5 27t-24.5 71q0 66 44.5 107.5t117.5 41.5q52 0 83.5 -33.5t31.5 -88.5q0 -59 -27 -109t-65.5 -79.5t-76.5 -50t-65 -27.5l-27 -8l-7 3zM164 547q20 0 45 14q7 24 7 46
q0 58 -39 58q-51 0 -51 -68q0 -50 38 -50z" />
    <glyph glyph-name="n.sups" unicode="&#x207f;" horiz-adv-x="369" 
d="M289 425l2 -2q7 0 39 30l14 -3l12 -26q-48 -51 -75.5 -71t-49.5 -20q-37 0 -37 33q0 16 21.5 85t21.5 85q0 21 -16 21q-14 0 -39 -42.5t-50 -109.5l-5 -42q-2 -11 -27.5 -20t-53.5 -9l-11 13q31 184 35 217q3 27 -24 27h-21l7 45l135 6l9 -12q-19 -58 -27 -114h4
q50 106 95 134q39 0 61.5 -18t22.5 -49q0 -18 -20.5 -82.5t-22.5 -75.5z" />
    <glyph glyph-name="zero.sinf" unicode="&#x2080;" horiz-adv-x="341" 
d="M143 -128q-56 0 -85.5 39.5t-29.5 112.5q0 110 50 177.5t130 67.5q55 0 84.5 -40t29.5 -112q0 -110 -49.5 -177.5t-129.5 -67.5zM165 -29q87 0 87 112q0 83 -70 83q-41 0 -63.5 -29t-22.5 -84q0 -82 69 -82z" />
    <glyph glyph-name="one.sinf" unicode="&#x2081;" horiz-adv-x="257" 
d="M205 196q-8 -31 -21.5 -124t-13.5 -113q0 -31 22 -31l30 2l2 -4l-15 -49q-61 3 -95 3l-111 -7l11 46q31 3 45.5 14t17.5 34l24 197q3 22 -2.5 29t-23.5 7l-32 -2l-4 5l9 42q31 3 82 10l101 14l6 -24q-21 -16 -32 -49z" />
    <glyph glyph-name="two.sinf" unicode="&#x2082;" horiz-adv-x="342" 
d="M7 -126l-1 48l90 87q90 95 90 140q0 32 -36 32q-44 0 -88 -53h-11l-6 62q30 36 69 57.5t75 21.5q48 0 78 -23.5t30 -61.5q0 -42 -33.5 -91t-121.5 -137l3 -5h52q27 0 40 12.5t23 46.5l62 5q-24 -77 -34 -132l-11 -9q-152 6 -215 6z" />
    <glyph glyph-name="three.sinf" unicode="&#x2083;" horiz-adv-x="302" 
d="M10 -53l13 12q27 -10 56 -10q36 0 59 15.5t23 39.5q0 39 -78 39l-7 8v49l43 8q50 22 50 61q0 12 -8.5 19.5t-21.5 7.5q-31 0 -72 -27h-9l-10 55q73 45 130 45q43 0 68.5 -19.5t25.5 -51.5q0 -30 -22.5 -56t-59.5 -40l-1 -6q80 -28 80 -85q0 -52 -67 -95.5t-144 -43.5
q-30 0 -40 16.5t-8 58.5z" />
    <glyph glyph-name="four.sinf" unicode="&#x2084;" horiz-adv-x="328" 
d="M1 -24l8 53l193 238l5 2l71 -8l-26 -221h48l5 -8l-14 -62l-47 1l-7 -84l-6 -7l-91 -7l-6 6q10 50 16 95zM164 144l-79 -104h74l12 104h-7z" />
    <glyph glyph-name="five.sinf" unicode="&#x2085;" horiz-adv-x="296" 
d="M263 23q0 -57 -66 -104t-142 -47q-30 0 -41 17t-9 58l14 12q25 -10 55 -10q36 0 59 15.5t23 39.5q0 22 -25.5 33t-82.5 16l-4 8l34 186l7 5l130 4q32 1 44 26l44 3l-31 -104l-12 -10q-58 5 -125 5l-10 -52q73 -11 105.5 -35t32.5 -66z" />
    <glyph glyph-name="six.sinf" unicode="&#x2086;" horiz-adv-x="320" 
d="M297 222q-11 -4 -28 -11.5t-56 -38t-62 -67.5l2 -6q27 16 49 20q44 0 69 -27t25 -70q0 -66 -45 -108t-117 -42q-53 0 -84 33.5t-31 89.5q0 59 27 109t65.5 79t76.5 49.5t65 28.5l27 8l7 -4zM163 53q-23 0 -46 -15q-6 -32 -6 -44q0 -59 39 -59q51 0 51 68q0 50 -38 50z
" />
    <glyph glyph-name="seven.sinf" unicode="&#x2087;" horiz-adv-x="295" 
d="M129 -127h-13l-67 20l-6 17l168 273l-73 -6q-30 -2 -40.5 -12t-20.5 -43l-46 -4q19 79 30 143l4 3q38 -3 78 -3h141l26 -37q-70 -121 -149 -269z" />
    <glyph glyph-name="eight.sinf" unicode="&#x2088;" horiz-adv-x="325" 
d="M18 -42q0 66 78 99q-48 37 -48 87q0 52 43.5 88.5t104.5 36.5q46 0 77.5 -24t31.5 -61q0 -60 -66 -93q51 -34 51 -84q0 -57 -46 -96t-111 -39q-50 0 -82.5 24t-32.5 62zM148 -70q21 0 34.5 12.5t13.5 32.5q0 12 -10.5 23.5t-19 16.5t-32.5 18q-31 -24 -31 -55
q0 -21 12 -34.5t33 -13.5zM141 167q0 -27 54 -53q24 24 24 54q0 39 -35 39q-19 0 -31 -11.5t-12 -28.5z" />
    <glyph glyph-name="nine.sinf" unicode="&#x2089;" horiz-adv-x="319" 
d="M30 -81q11 4 28 11.5t56 37.5t63 68l-2 5q-35 -16 -49 -20q-44 0 -69 27.5t-25 70.5q0 66 44.5 108t117.5 42q52 0 83.5 -34t31.5 -89q0 -59 -27 -109t-65.5 -79.5t-76.5 -50t-65 -27.5l-27 -8l-7 4zM164 87q18 0 45 15q7 24 7 45q0 59 -39 59q-51 0 -51 -69
q0 -23 10 -36.5t28 -13.5z" />
    <glyph glyph-name="franc" unicode="&#x20a3;" horiz-adv-x="457" 
d="M212 107q-3 -25 2.5 -33.5t23.5 -8.5l49 4l6 -12l-16 -59h-20t-43.5 0.5t-43.5 0.5q-11 0 -30 0.5t-26 0.5q-22 0 -47 -2.5t-39 -4.5l-14 -2l13 60q36 5 47.5 19t18.5 57h-61l-5 6l12 44h60l29 229q3 24 -0.5 32t-17.5 8l-26 -1l-5 10l13 50q70 -2 130 -2h51
q106 0 206 10l8 -10q-21 -72 -34 -142l-86 -5q6 29 6 42q0 19 -15 25.5t-59 6.5q-5 0 -10 -0.5t-7 -0.5q-4 0 -7 -1.5t-5.5 -4.5t-4 -5t-3 -7t-2.5 -7.5t-2.5 -8.5t-2 -8.5t-1.5 -8.5t-1 -8l-12 -73q21 -1 70 -1l87 7l7 -10l-20 -70q-50 3 -85 3l-71 -5l-7 -44q24 0 58 0.5
t38 0.5l5 -7l-10 -44h-88z" />
    <glyph glyph-name="Euro" unicode="&#x20ac;" horiz-adv-x="552" 
d="M356 223l6 -9l-11 -48l-140 -1q18 -98 103 -98q42 0 67.5 24t42.5 82l82 6q-22 -82 -33 -148l-9 -9q-72 -31 -171 -31q-91 0 -147.5 45.5t-67.5 128.5h-76l-5 7l12 47h67q2 35 7 60h-67l-5 7l12 47h75q33 84 105 130.5t175 46.5q30 0 70.5 -5t66.5 -10l26 -5l4 -11
q-24 -65 -40 -148l-82 -6q7 38 7 53q0 54 -80 54q-94 0 -128 -99h3l145 4l6 -9l-11 -48l-154 -1q-4 -24 -4 -60h4z" />
    <glyph glyph-name="trademark" unicode="&#x2122;" horiz-adv-x="550" 
d="M75 465l17 139q-21 -1 -27.5 -9.5t-14.5 -40.5l-42 -3q8 51 14 91l5 3l42 -4h122l45 4l4 -3l-7 -88l-43 -3q1 35 -3.5 43.5t-24.5 9.5q-21 -126 -21 -152q0 -18 17 -18l21 1l1 -3l-7 -31q-52 2 -74 2l-74 -3l7 30q25 3 32.5 9t10.5 26zM390 401l-41 -3q-21 113 -30 151
h-4q-18 -101 -18 -106q0 -11 11 -11l12 1q2 -2 3 -2l-9 -29q-38 1 -51 1l-44 -3l7 30q21 3 26 26l31 145q0 9 -25 12l-2 3l7 27q39 -2 54 -2l53 2l20 -131h5q29 66 55 130h18.5h23.5h20l37 1q1 0 3 -1l-6 -28q-17 -1 -22 -4.5t-7 -14.5q-3 -21 -6 -130q-1 -19 2 -25.5
t12 -6.5l11 1l3 -3l-8 -29q-24 1 -40 1q-63 0 -68 -3l6 31q23 1 24 18l8 100h-4q-32 -64 -67 -148z" />
    <glyph glyph-name="estimated" unicode="&#x212e;" horiz-adv-x="797" 
d="M180 311q-5 0 -5 -4v-181q0 -10 9 -21q91 -97 226 -97q144 0 237 109h54q-51 -60 -128 -94.5t-164 -34.5q-152 0 -260.5 97t-108.5 234q0 138 108 235t261 97q152 0 260 -97t108 -235v-8h-597zM643 516q0 12 -10 22q-93 93 -223 93q-132 0 -225 -96q-10 -10 -10 -23v-178
q0 -5 5 -5h458q5 0 5 5v182z" />
    <glyph glyph-name="partialdiff" unicode="&#x2202;" horiz-adv-x="492" 
d="M302 438l3 5q-46 131 -215 236l39 56l14 6q150 -69 238.5 -186.5t88.5 -261.5q0 -134 -74 -220t-190 -86q-89 0 -136.5 52.5t-47.5 138.5q0 116 67.5 200t158.5 84q9 -2 22.5 -8t22.5 -11zM332 279q0 34 -2 66q-29 29 -70 29q-47 0 -75.5 -51t-28.5 -138q0 -56 21 -88.5
t60 -32.5t67 62.5t28 152.5z" />
    <glyph glyph-name="product" unicode="&#x220f;" horiz-adv-x="688" 
d="M625 525q-62 -365 -62 -419q0 -24 7 -32.5t24 -8.5l41 3l3 -7l-16 -64q-101 3 -144 3q-24 0 -57 -2t-55 -4l-21 -3l14 65q40 9 55 25.5t20 58.5q5 43 18 133.5t21.5 157t8.5 98.5q0 27 -18 32.5t-84 5.5q-51 0 -68.5 -9.5t-22.5 -39.5q-62 -361 -62 -413q0 -34 17 -37
q12 -3 22 -3l28 3l5 -7l-17 -64l-21 1q-21 0 -52 1t-48 1q-41 0 -98.5 -3.5t-58.5 -5.5l15 65q43 9 59 25.5t21 58.5q49 389 49 401q0 19 -6.5 26t-23.5 7l-33 -1l-4 8l16 65q96 -4 135 -4h317q30 0 94 3t65 4l-14 -70q-37 -5 -50.5 -15.5t-18.5 -38.5z" />
    <glyph glyph-name="summation" unicode="&#x2211;" horiz-adv-x="549" 
d="M460 16l-20 -19l-377 6l-67 -9l-22 39l243 273l-155 296l20 38q0 -1 1 -1q4 0 11.5 0.5t11.5 0.5l247 3q7 0 173 11l9 -10l-14 -201l-82 -13q4 66 -15.5 95.5t-76.5 34.5l-125 10l120 -231l-3 -29l-208 -238l165 15q48 3 77.5 37.5t48.5 105.5l86 7q-35 -127 -48 -221z
" />
    <glyph glyph-name="minus" unicode="&#x2212;" horiz-adv-x="488" 
d="M476 312l5 -12l-22 -92l-219 -1l-219 -1l-6 11l25 90q139 -1 225 -1z" />
    <glyph glyph-name="radical" unicode="&#x221a;" horiz-adv-x="487" 
d="M82 344q-6 28 -20.5 38t-43.5 9l-3 4l15 59q61 4 96 7l67 7l6 -8q-1 -28 8 -114t18 -158l9 -73h11l238 611l23 16h80l-302 -738l-140 -16q-47 278 -62 356z" />
    <glyph glyph-name="infinity" unicode="&#x221e;" horiz-adv-x="497" 
d="M166 411q73 0 111 -79q49 82 118 82q44 0 70.5 -37t26.5 -91q0 -81 -48.5 -136.5t-112.5 -55.5q-74 0 -109 82q-47 -79 -113 -79q-44 0 -71 36.5t-27 89.5q0 78 47 133t108 55zM136 189q33 0 68 37q-14 43 -28.5 65.5t-39.5 22.5q-23 0 -39 -19t-16 -50q0 -25 14.5 -40.5
t40.5 -15.5zM366 323q-37 0 -68 -38q9 -26 13.5 -37t13.5 -27.5t19 -23t23 -6.5q25 0 42 19.5t17 51.5q0 27 -16 44t-44 17z" />
    <glyph glyph-name="integral" unicode="&#x222b;" horiz-adv-x="413" 
d="M132 0l17 426q2 65 66 119t140 54q34 0 62 -9t28 -21q0 -15 -10 -50.5t-18 -46.5l-16 -2q-39 54 -80 54q-52 0 -56 -68l-25 -417q-4 -85 -60 -142.5t-129 -57.5q-31 0 -59 13t-28 29q0 18 10 50t20 43h14q8 -27 27.5 -45t43.5 -18q52 0 53 89z" />
    <glyph glyph-name="approxequal" unicode="&#x2248;" horiz-adv-x="488" 
d="M75 259h-11l-30 37l1 11l102 101l19 4q25 0 105.5 -19.5t100.5 -19.5q12 0 32 14.5t34 28.5l14 14h11l31 -38l-2 -10l-101 -102l-19 -4q-24 0 -105 19.5t-101 19.5q-12 0 -32.5 -14t-34.5 -28zM53 78h-11l-30 38l1 10l102 102l19 4q24 0 105 -19.5t101 -19.5
q12 0 32 14.5t34 28.5l14 14h11l30 -38l-1 -10l-101 -102l-20 -4q-24 0 -105 19.5t-101 19.5q-12 0 -32 -14t-34 -29z" />
    <glyph glyph-name="notequal" unicode="&#x2260;" horiz-adv-x="488" 
d="M485 402l5 -12l-21 -92q-29 0 -88 -0.5t-89 -0.5l-26 -79l198 6l4 -12l-21 -92q-31 0 -93 -0.5t-93 -0.5h-25l-40 -121l-71 -6l-4 9l37 118l-150 -1l-6 11l25 90q84 -1 162 -1l26 79l-185 -1l-6 11l25 90q111 -1 195 -1l42 130l71 4l6 -9l-41 -125z" />
    <glyph glyph-name="lessequal" unicode="&#x2264;" horiz-adv-x="470" 
d="M42 213l-6 13l13 97l193 82l179 76l11 -8l12 -76q-103 -38 -182 -71l-122 -50l-1 -7l121 -60l148 -72q2 -10 2 -15l-49 -65l-17 9q-17 8 -51.5 25.5t-60.5 30.5l-32 15zM408 -5l5 -15l-20 -77q-75 0 -220.5 -1t-180.5 -1l-6 14l20 76h222q42 0 86 1t69.5 1.5t24.5 1.5z
" />
    <glyph glyph-name="greaterequal" unicode="&#x2265;" horiz-adv-x="470" 
d="M437 325l6 -13l-12 -98l-194 -82l-177 -75l-13 7l-11 77q103 37 182 70l122 50v7l-120 60l-148 72q-3 15 -3 16l50 65q63 -33 129 -65l32 -16q129 -63 157 -75zM406 -5l6 -15l-20 -77q-75 0 -221 -1t-180 -1l-7 14l20 76h222q42 0 86 1t69.5 1.5t24.5 1.5z" />
    <glyph glyph-name="lozenge" unicode="&#x25ca;" horiz-adv-x="507" 
d="M52 257l4 35l93 170l103 185l99 4l10 -7l57 -182l55 -161l-5 -38l-90 -164l-106 -188l-98 -5l-12 7l-54 178zM218 422l-74 -148l40 -128l45 -140h7l68 128l77 146l-41 131l-45 141h-7z" />
    <glyph glyph-name="fi" unicode="&#xfb01;" horiz-adv-x="573" 
d="M459 109l4 -4q9 0 66 50l17 -2l17 -35q-110 -120 -165 -128q-17 -2 -27 1q-29 7 -29 47q48 286 48 318q0 39 -38 39h-125l-9 -6l-43 -393q-11 -102 -66 -170t-135 -68q-39 0 -71 15.5t-40 38.5q7 22 23 55.5t29 51.5h16q3 -81 71 -81q28 0 47.5 21.5t21.5 58.5q3 31 5 99
l28 367l-9 7l-71 2l-3 5l5 46l84 13l5 50q11 104 91 169.5t171 65.5q81 0 136 -25l4 -11l-45 -96l-19 -3q-71 48 -120 48q-47 0 -69 -27.5t-29 -87.5l-10 -85h105q167 0 188 7l12 -16q-47 -168 -71 -337z" />
    <glyph glyph-name="fl" unicode="&#xfb02;" horiz-adv-x="560" 
d="M447 109l3 -4q7 0 17 8t50 42l17 -2l16 -35q-65 -70 -104.5 -100t-68.5 -30q-48 0 -48 47q84 519 90 591q-58 29 -100 29q-36 0 -55.5 -23.5t-26.5 -75.5l-12 -101h124l5 -5l-10 -56l-117 1l-9 -6l-47 -431q-9 -81 -67.5 -140.5t-129.5 -59.5q-39 0 -71 15.5t-40 38.5
q7 22 23 55.5t29 51.5h16q3 -81 71 -81q28 0 47.5 21.5t21.5 58.5q2 25 4 66.5t2 48.5l27 351l-9 7l-71 2l-3 5l5 46l84 13l7 64q10 89 85.5 155t164.5 66q49 0 95 -11l87 6l12 -16q-86 -406 -114 -612z" />
    <glyph glyph-name="acute.cap" 
d="M374 775l-5 -13q-115 -29 -229 -65l-13 9l-14 47l223 104l13 -5z" />
    <glyph glyph-name="breve.cap" 
d="M260 779q75 0 109 59l16 -3l23 -35q-20 -49 -60.5 -82.5t-98.5 -33.5t-90.5 33.5t-40.5 82.5l33 35l17 3q19 -59 92 -59z" />
    <glyph glyph-name="circumflex.cap" 
d="M112 711l-19 41l168 124h20q0 1 26 -23t61.5 -56.5t49.5 -44.5l-29 -41l-17 -4q-7 3 -57.5 29t-57.5 29q-8 -3 -63.5 -28.5t-66.5 -29.5z" />
    <glyph glyph-name="dieresis.cap" 
d="M333 706q-25 0 -38.5 14t-13.5 38q0 33 21.5 54.5t53.5 21.5q25 0 38.5 -14t13.5 -38q0 -33 -21 -54.5t-54 -21.5zM160 706q-52 0 -52 52q0 33 21 54.5t54 21.5q25 0 38.5 -14t13.5 -38q0 -33 -21 -54.5t-54 -21.5z" />
    <glyph glyph-name="grave.cap" 
d="M63 762l-5 13l25 77l13 5q115 -57 223 -104l-13 -47l-14 -9q-51 16 -108 32.5t-89 24.5z" />
    <glyph glyph-name="macron.cap" 
d="M403 805l7 -14l-22 -77l-136 -1l-134 -1l-9 12l23 76q92 -1 148 -1z" />
    <glyph glyph-name="ring.cap" 
d="M256 731q44 0 44 42q0 36 -40 36q-20 0 -31 -11.5t-11 -29.5t12 -27.5t26 -9.5zM243 678q-37 0 -56.5 21.5t-19.5 56.5q0 46 30.5 77t76.5 31q39 0 58 -21.5t19 -53.5q0 -44 -30 -77.5t-78 -33.5z" />
    <glyph glyph-name="tilde.cap" 
d="M125 687h-11l-35 37l1 11l88 96l16 4q17 0 72.5 -17t68.5 -17q10 0 27.5 13t29.5 26l12 13h11l35 -37l-1 -10l-88 -97l-17 -4q-16 0 -71 17t-69 17q-11 0 -28 -13t-29 -26z" />
    <glyph glyph-name="caron.cap" 
d="M407 861l20 -41l-169 -124h-19q-102 95 -137 124l28 41l17 4q9 -4 58.5 -29.5t56.5 -28.5q8 3 63.5 28.5t66.5 29.5z" />
    <glyph glyph-name="dotaccent.cap" 
d="M246 702q-31 0 -47 16.5t-16 45.5q0 39 25.5 64.5t64.5 25.5q29 0 45 -17t16 -45q0 -39 -25 -64.5t-63 -25.5z" />
    <glyph glyph-name="commaaccent" 
d="M63 -100l3 14q44 35 79 35q30 0 49.5 -23.5t19.5 -62.5q0 -50 -41.5 -98t-105.5 -83l-37 30v17q30 21 49 49t19 53q0 41 -35 69z" />
    <glyph glyph-name="hungarumlaut.cap" 
d="M276 794l-1 -12q-85 -46 -169 -98l-13 5l-23 34l151 134l12 -1zM444 790l-2 -12q-84 -46 -168 -98l-13 4l-23 34l151 134l12 -2z" />
    <glyph glyph-name="zero.lf" horiz-adv-x="493" 
d="M206 -12q-83 0 -128.5 62.5t-45.5 173.5q0 165 77 269.5t196 104.5q81 0 126.5 -62.5t45.5 -171.5q0 -166 -76 -271t-195 -105zM237 115q69 0 109 53.5t40 148.5q0 69 -30.5 108.5t-85.5 39.5q-70 0 -109 -54t-39 -149q0 -69 30.5 -108t84.5 -39z" />
    <glyph glyph-name="one.lf" horiz-adv-x="353" 
d="M283 490q-13 -60 -34.5 -204.5t-21.5 -174.5q0 -25 8.5 -35.5t27.5 -10.5l47 3l2 -5l-19 -67q-90 4 -139 4q-28 0 -66.5 -3t-63.5 -5l-25 -3l16 63q46 4 68.5 21t26.5 56l39 318q4 35 -4.5 46t-36.5 11l-49 -5l-5 7l13 58q40 2 118 14q42 6 76 11t47 7l14 2l8 -29
q-19 -15 -29.5 -32t-17.5 -47z" />
    <glyph glyph-name="two.lf" horiz-adv-x="478" 
d="M0 -10l-3 57l127 127q157 172 157 257q0 54 -61 54q-75 0 -141 -90h-13l-8 80q40 54 99.5 88.5t113.5 34.5q70 0 112 -34t42 -91q0 -63 -53 -142.5t-195 -228.5l4 -8h99q44 0 64.5 18.5t37.5 72.5l77 7q-35 -108 -51 -189l-16 -12q-226 9 -318 9z" />
    <glyph glyph-name="three.lf" horiz-adv-x="420" 
d="M8 90l15 14q41 -13 81 -13q60 0 100 28t40 71q0 73 -130 73l-9 10v61l65 15q38 17 61 45t23 59q0 22 -14 35.5t-37 13.5q-52 0 -111 -43h-13l-11 71q36 22 91.5 45t97.5 23q59 0 95 -29.5t36 -76.5q0 -46 -34 -86.5t-90 -64.5l-1 -9q117 -37 117 -127q0 -52 -46 -103
t-117.5 -82.5t-142.5 -31.5q-41 0 -55.5 23t-10.5 79z" />
    <glyph glyph-name="four.lf" horiz-adv-x="454" 
d="M-9 159l11 67l298 371l7 2l84 -11l-42 -344h77l7 -12l-19 -82l-76 2l-12 -143l-8 -8l-117 -12l-7 10q15 85 25 156zM243 424l-139 -180h126l23 180h-10z" />
    <glyph glyph-name="five.lf" horiz-adv-x="414" 
d="M372 221q0 -57 -46 -111.5t-117.5 -88t-142.5 -33.5q-40 0 -55 23t-12 79l16 14q39 -13 81 -13q61 0 100.5 29t39.5 74q0 39 -40.5 59.5t-128.5 26.5l-7 11l51 276l9 8l193 7q28 2 41.5 10t23.5 30l56 4l-44 -147l-14 -12q-91 8 -195 8l-19 -103q109 -13 159.5 -49.5
t50.5 -101.5z" />
    <glyph glyph-name="six.lf" horiz-adv-x="448" 
d="M430 538q-7 -2 -18 -7t-43 -23t-60.5 -39.5t-62 -58.5t-55.5 -79l3 -7q60 33 85 37q68 0 106 -42.5t38 -106.5q0 -96 -67 -160t-171 -64q-77 0 -120.5 51t-43.5 134q0 66 21.5 125.5t55.5 101t75 77t82.5 57t75.5 37t55 21.5l22 6l9 -5zM230 273q-37 0 -79 -28
q-10 -54 -10 -72q0 -49 18.5 -76.5t52.5 -27.5q43 0 65.5 30.5t22.5 84.5q0 39 -18.5 64t-51.5 25z" />
    <glyph glyph-name="seven.lf" horiz-adv-x="412" 
d="M167 -12h-17l-87 28l-7 25l268 441l-128 -7q-45 -4 -62 -20t-32 -68l-61 -6q29 114 45 204l6 5q57 -4 117 -4h210l32 -48q-105 -182 -239 -436z" />
    <glyph glyph-name="eight.lf" horiz-adv-x="462" 
d="M22 117q0 104 126 161q-77 55 -77 133q0 76 62.5 131.5t151.5 55.5q65 0 110.5 -34.5t45.5 -91.5q0 -96 -104 -149q82 -54 82 -132q0 -84 -67 -143.5t-163 -59.5q-72 0 -119.5 35.5t-47.5 93.5zM211 62q36 0 62 24.5t26 60.5q0 16 -7 29.5t-26 27.5t-29 20.5t-39 22.5
q-64 -42 -64 -102q0 -35 21.5 -59t55.5 -24zM191 446q0 -29 22 -48.5t67 -44.5q48 39 48 95q0 34 -17 52.5t-45 18.5q-32 0 -53.5 -21.5t-21.5 -51.5z" />
    <glyph glyph-name="nine.lf" horiz-adv-x="448" 
d="M34 48q7 2 18 7t43 23t60.5 40t62 59t55.5 79l-3 7q-57 -33 -85 -37q-68 0 -105.5 42.5t-37.5 106.5q0 96 66.5 160t170.5 64q76 0 120.5 -51.5t44.5 -133.5q0 -67 -21.5 -126t-55.5 -101t-75.5 -77t-82.5 -57t-75 -37.5t-56 -21.5l-21 -6l-10 6zM234 314q33 0 78 27
q10 39 10 72q0 49 -18 76.5t-51 27.5q-44 0 -66.5 -30.5t-22.5 -84.5q0 -39 18.5 -63.5t51.5 -24.5z" />
    <glyph glyph-name="zero.tf" horiz-adv-x="455" 
d="M189 -12q-78 0 -121 61.5t-43 171.5q0 166 73.5 271.5t188.5 105.5q77 0 119.5 -61.5t42.5 -170.5q0 -166 -73 -272t-187 -106zM220 115q65 0 101.5 54t36.5 149q0 69 -27.5 108t-78.5 39q-65 0 -101.5 -54.5t-36.5 -150.5q0 -68 27.5 -106.5t78.5 -38.5z" />
    <glyph glyph-name="one.tf" horiz-adv-x="455" 
d="M331 490q-15 -58 -36.5 -201.5t-21.5 -176.5q0 -25 10.5 -36t34.5 -11l56 3l2 -5l-19 -67q-101 4 -158 4q-30 0 -72 -3t-69 -5l-28 -3l16 63q53 4 79 21t31 56l41 318q4 35 -8 46t-43 11l-58 -5l-5 7l12 58q44 2 134 14q49 6 85.5 11t49.5 7l12 2l7 -29q-40 -28 -52 -79z
" />
    <glyph glyph-name="two.tf" horiz-adv-x="455" 
d="M-5 -10l-3 57l126 127q149 174 149 257q0 54 -58 54q-71 0 -135 -90h-13l-8 80q39 54 97 88.5t110 34.5q69 0 109.5 -34t40.5 -90q0 -64 -51 -143t-188 -229l3 -8h93q42 0 61.5 18.5t36.5 72.5l78 7q-35 -108 -51 -189l-16 -12q-219 9 -308 9z" />
    <glyph glyph-name="three.tf" horiz-adv-x="455" 
d="M16 90l15 14q42 -13 86 -13q64 0 106.5 28t42.5 71q0 73 -141 73l-8 10v61l68 15q40 17 64.5 45.5t24.5 58.5q0 23 -15 36t-40 13q-58 0 -117 -43h-14l-11 71q31 21 91 44.5t105 23.5q61 0 98.5 -29.5t37.5 -77.5q0 -45 -35.5 -85.5t-94.5 -64.5l-1 -9q125 -37 125 -127
q0 -79 -102.5 -148t-215.5 -69q-42 0 -57 23t-12 79z" />
    <glyph glyph-name="four.tf" horiz-adv-x="455" 
d="M-9 159l11 67l298 371l7 2l84 -11l-42 -344h78l6 -12l-19 -82l-76 2l-11 -143l-9 -8l-117 -12l-7 10q15 85 25 156zM243 424l-138 -180h125l23 180h-10z" />
    <glyph glyph-name="five.tf" horiz-adv-x="455" 
d="M398 220q0 -56 -48.5 -110.5t-123 -88t-148.5 -33.5q-41 0 -56.5 23t-13.5 79l16 14q42 -13 85 -13q67 0 110 29t43 73q0 40 -43.5 60.5t-138.5 26.5l-8 11l51 276l10 8l203 7q30 2 44.5 10t24.5 30l57 4l-45 -147l-14 -12q-98 8 -209 8l-20 -103q117 -13 170.5 -50
t53.5 -102z" />
    <glyph glyph-name="six.tf" horiz-adv-x="455" 
d="M435 538q-7 -2 -18.5 -7t-44 -23t-61.5 -39.5t-62.5 -58.5t-55.5 -79l3 -7q64 33 87 37q68 0 106 -42.5t38 -106.5q0 -96 -67 -160t-171 -64q-78 0 -122 51t-44 134q0 66 21.5 125.5t56 101t76 77t83 57t76 37t56.5 21.5l21 6l8 -5zM233 273q-38 0 -80 -28
q-10 -45 -10 -72q0 -49 18.5 -76.5t53.5 -27.5q43 0 66.5 30.5t23.5 84.5q0 39 -19 64t-53 25z" />
    <glyph glyph-name="seven.tf" horiz-adv-x="455" 
d="M182 -12h-16l-89 28l-8 25l286 441l-141 -7q-49 -4 -66.5 -20t-33.5 -68l-62 -6q29 114 45 204l7 5q61 -4 125 -4h221l33 -48q-152 -246 -256 -436z" />
    <glyph glyph-name="eight.tf" horiz-adv-x="455" 
d="M20 117q0 105 125 161q-76 54 -76 133q0 76 62 131.5t150 55.5q65 0 110 -34.5t45 -91.5q0 -96 -103 -149q81 -55 81 -132q0 -84 -66.5 -143.5t-161.5 -59.5q-71 0 -118.5 35.5t-47.5 93.5zM208 62q36 0 61 24.5t25 60.5q0 16 -6.5 29.5t-26.5 28.5t-27.5 19.5
t-38.5 22.5q-64 -42 -64 -102q0 -35 21.5 -59t55.5 -24zM188 446q0 -29 21.5 -48.5t66.5 -44.5q47 38 47 95q0 34 -16.5 52.5t-44.5 18.5q-32 0 -53 -21.5t-21 -51.5z" />
    <glyph glyph-name="nine.tf" horiz-adv-x="455" 
d="M36 48q7 2 18.5 7t43.5 23t61 40t63 59t56 79l-3 7q-60 -34 -87 -37q-68 0 -106.5 42.5t-38.5 106.5q0 96 67 160t172 64q77 0 121.5 -51.5t44.5 -134.5q0 -66 -21.5 -125.5t-56 -101t-76 -77t-83 -57t-76 -37t-55.5 -21.5l-22 -6l-9 6zM237 314q32 0 80 27q10 39 10 72
q0 49 -18.5 76.5t-52.5 27.5q-44 0 -67.5 -30.5t-23.5 -84.5q0 -39 19 -63.5t53 -24.5z" />
    <glyph glyph-name="zero.tosf" horiz-adv-x="445" 
d="M183 -12q-80 0 -124 55t-44 151q0 138 72 227t183 89q80 0 124 -55t44 -150q0 -139 -71.5 -228t-183.5 -89zM215 119q65 0 102 37.5t37 102.5q0 53 -31.5 84t-87.5 31q-64 0 -100.5 -38t-36.5 -103q0 -53 31 -83.5t86 -30.5z" />
    <glyph glyph-name="one.tosf" horiz-adv-x="445" 
d="M314 402q-46 -207 -46 -285q0 -28 10 -40t33 -12l56 3l2 -5l-19 -67q-100 4 -156 4q-29 0 -71 -3t-69 -5l-26 -3l14 63q58 5 81.5 24t29.5 68l27 215q4 34 -7.5 45.5t-42.5 11.5l-57 -5l-5 7l13 57q92 10 133 15q48 6 84 11t48 7l13 2l7 -30q-22 -14 -32.5 -30t-19.5 -48
z" />
    <glyph glyph-name="two.tosf" horiz-adv-x="445" 
d="M-13 -9l-3 33l79 83q88 94 126 150.5t40 93.5q2 53 -49 53q-57 0 -112 -77h-13l-9 74q96 109 200 109q61 0 97.5 -31.5t36.5 -83.5q0 -51 -37.5 -106t-168.5 -188l3 -8h81q43 0 63 19t35 72l77 7q-33 -107 -49 -188l-15 -12q-231 9 -320 9z" />
    <glyph glyph-name="three.tosf" horiz-adv-x="445" 
d="M-12 2l15 14q36 -13 84 -13q68 0 113.5 29.5t45.5 74.5q0 71 -138 71l-8 10v62l67 14q39 17 63.5 45t24.5 57q0 22 -15.5 35t-40.5 13q-52 0 -116 -49q-2 0 -6 -0.5t-6 -0.5l-12 71q32 23 91 49t105 26q62 0 98.5 -28.5t36.5 -76.5q0 -45 -35.5 -85t-93.5 -63l-1 -8
q124 -33 124 -120q0 -53 -50 -107t-127 -88t-151 -34q-41 0 -56 23t-12 79z" />
    <glyph glyph-name="four.tosf" horiz-adv-x="445" 
d="M-19 73q2 11 6 33.5t5 33.5l297 368q1 0 3 1t3 1l85 -11l-42 -342h76l7 -11l-19 -83q-30 1 -75 3l-12 -145l-8 -9l-117 -12l-7 10q15 87 25 159q-148 4 -227 4zM232 335l-137 -178h125l21 178h-9z" />
    <glyph glyph-name="five.tosf" horiz-adv-x="445" 
d="M381 144q0 -60 -52 -117.5t-130 -92t-152 -34.5q-40 0 -56.5 22.5t-12.5 79.5l15 14q38 -13 86 -13q70 0 117.5 29.5t47.5 74.5q0 35 -40.5 56t-138.5 35l-8 11l53 270l9 8l197 7q29 2 43 10t25 30l56 4l-44 -147l-15 -13q-91 8 -201 8l-18 -92q109 -19 164 -54t55 -96z
" />
    <glyph glyph-name="six.tosf" horiz-adv-x="445" 
d="M428 538q-7 -2 -18 -7t-43 -23t-60 -40t-61.5 -59t-55.5 -79l3 -6q1 0 36 17.5t49 19.5q67 0 104.5 -42.5t37.5 -106.5q0 -96 -66.5 -160t-169.5 -64q-77 0 -120.5 51t-43.5 134q0 66 21.5 125.5t55.5 101t75 77t82 57t75 37t55 21.5l22 6l8 -5zM228 273q-36 0 -78 -28
q-10 -43 -10 -72q0 -49 18.5 -76.5t51.5 -27.5q43 0 65.5 30.5t22.5 84.5q0 39 -18.5 64t-51.5 25z" />
    <glyph glyph-name="seven.tosf" horiz-adv-x="445" 
d="M167 -100h-16l-88 27l-9 25l281 442l-136 -8q-49 -4 -66.5 -20t-33.5 -68l-60 -6q28 114 44 205l7 5q60 -4 122 -4h219l34 -48q-150 -246 -253 -437z" />
    <glyph glyph-name="eight.tosf" horiz-adv-x="445" 
d="M18 116q0 106 122 162q-74 56 -74 132q0 77 63 132.5t151 55.5q63 0 106 -34.5t43 -91.5q0 -96 -101 -149q79 -55 79 -131q0 -85 -67 -144.5t-161 -59.5q-70 0 -115.5 35t-45.5 93zM203 62q35 0 59.5 24.5t24.5 60.5q0 39 -57 76q-9 6 -30 18l-10 6q-61 -41 -61 -102
q0 -35 20.5 -59t53.5 -24zM186 446q0 -29 21 -48.5t64 -44.5q46 38 46 96q0 33 -16.5 51.5t-43.5 18.5q-31 0 -51 -21.5t-20 -51.5z" />
    <glyph glyph-name="nine.tosf" horiz-adv-x="445" 
d="M22 -40q7 2 18 7t43 23t60.5 39.5t61.5 58.5t54 79l-3 7q-1 0 -35.5 -17.5t-48.5 -19.5q-67 0 -104.5 42.5t-37.5 106.5q0 96 66.5 160t169.5 64q77 0 120.5 -51t43.5 -134q0 -66 -21.5 -125.5t-55.5 -101.5t-75 -77t-82 -57t-75 -37t-55 -21l-22 -7l-9 6zM221 225
q36 0 78 27q10 39 10 72q0 49 -18 77t-51 28q-43 0 -66 -31t-23 -85q0 -39 19 -63.5t51 -24.5z" />
    <glyph glyph-name="caron.alt" 
d="M301 733l6 -10q-28 -109 -63 -216l-51 -20l-14 4q8 51 13 108t6 89l2 31z" />
    <glyph glyph-name="zero.numr" horiz-adv-x="341" 
d="M143 253q-56 0 -85.5 39.5t-29.5 112.5q0 110 49.5 177t130.5 67q55 0 84.5 -39.5t29.5 -112.5q0 -110 -49.5 -177t-129.5 -67zM165 352q87 0 87 112q0 83 -70 83q-41 0 -63.5 -29.5t-22.5 -84.5q0 -81 69 -81z" />
    <glyph glyph-name="one.numr" horiz-adv-x="257" 
d="M205 577q-8 -31 -21.5 -124t-13.5 -113q0 -31 22 -31l30 2l2 -4l-15 -49q-61 3 -95 3l-111 -7l11 46q30 2 45 13t18 34l24 197q3 23 -2.5 30t-23.5 7l-32 -2l-4 5l9 42q31 3 82 10l101 13l6 -23q-21 -16 -32 -49z" />
    <glyph glyph-name="two.numr" horiz-adv-x="342" 
d="M7 255l-1 48l90 87q90 95 90 140q0 32 -36 32q-44 0 -88 -53h-11l-6 62q29 35 68 56.5t76 21.5q48 0 78 -23t30 -61q0 -42 -33.5 -91t-121.5 -137l3 -6h52q27 0 40 12.5t23 46.5l62 5q-24 -77 -34 -131l-11 -10q-152 7 -215 7z" />
    <glyph glyph-name="three.numr" horiz-adv-x="302" 
d="M10 328l13 12q25 -11 56 -11q35 0 58.5 15.5t23.5 40.5q0 39 -78 39l-7 8v48l43 9q50 22 50 60q0 13 -8 20.5t-22 7.5q-31 0 -72 -27h-9l-10 54q26 16 64 30.5t66 14.5q43 0 68.5 -19t25.5 -51q0 -30 -22.5 -56t-59.5 -40l-1 -7q80 -26 80 -84q0 -52 -67 -95.5
t-144 -43.5q-30 0 -40 16.5t-8 58.5z" />
    <glyph glyph-name="four.numr" horiz-adv-x="328" 
d="M1 357l8 52l193 239l5 1l71 -7l-26 -221h48l5 -9l-14 -61l-47 1l-7 -84l-6 -7l-91 -8l-6 7q10 50 16 95zM164 525l-79 -104h74l12 104h-7z" />
    <glyph glyph-name="five.numr" horiz-adv-x="296" 
d="M263 404q0 -58 -66 -104.5t-142 -46.5q-30 0 -41 17t-9 58l14 12q24 -11 55 -11q36 0 59 16t23 40q0 22 -25.5 33t-82.5 16l-4 8l34 186l7 5l130 4q19 0 28 5.5t16 20.5l44 3l-31 -104l-12 -10q-58 5 -125 5l-10 -53q73 -10 105.5 -34t32.5 -66z" />
    <glyph glyph-name="six.numr" horiz-adv-x="320" 
d="M297 603q-11 -4 -28 -11.5t-56 -38t-62 -67.5l2 -6q34 17 49 20q44 0 69 -27t25 -70q0 -66 -45 -108t-117 -42q-53 0 -84 33.5t-31 88.5q0 59 27 109t65.5 79.5t76.5 50t65 28.5l27 7l7 -4zM163 434q-23 0 -46 -15q-6 -32 -6 -44q0 -59 39 -59q51 0 51 68q0 50 -38 50z
" />
    <glyph glyph-name="seven.numr" horiz-adv-x="295" 
d="M129 254h-13l-67 20l-6 17l168 273l-73 -6q-30 -3 -40.5 -13t-20.5 -42l-46 -4q19 79 30 142l4 3q38 -3 78 -3h141l26 -37q-70 -120 -149 -268z" />
    <glyph glyph-name="eight.numr" horiz-adv-x="325" 
d="M18 339q0 66 78 99q-48 37 -48 87q0 52 43 88t105 36q46 0 77.5 -23.5t31.5 -60.5q0 -61 -66 -94q51 -32 51 -84q0 -56 -46 -95t-111 -39q-50 0 -82.5 24t-32.5 62zM148 310q21 0 34.5 13t13.5 33q0 12 -10 23t-19.5 17t-32.5 18q-31 -24 -31 -56q0 -21 12 -34.5
t33 -13.5zM141 548q0 -17 13.5 -28.5t40.5 -24.5q24 24 24 54q0 39 -35 39q-18 0 -30.5 -12t-12.5 -28z" />
    <glyph glyph-name="nine.numr" horiz-adv-x="319" 
d="M30 300q4 1 10.5 4t25.5 13t36.5 22t38.5 32.5t36 44.5l-2 6q-38 -18 -49 -20q-44 0 -69 27.5t-25 70.5q0 66 44.5 107.5t117.5 41.5q52 0 83.5 -33.5t31.5 -88.5q0 -59 -27 -109t-65.5 -79.5t-76.5 -50t-65 -28.5l-27 -7l-7 4zM164 468q20 0 45 14q7 24 7 46
q0 59 -39 59q-51 0 -51 -69q0 -23 10 -36.5t28 -13.5z" />
    <glyph glyph-name="zero.dnom" horiz-adv-x="341" 
d="M143 -8q-56 0 -85.5 39.5t-29.5 112.5q0 110 50 177.5t130 67.5q55 0 84.5 -40t29.5 -112q0 -110 -49.5 -177.5t-129.5 -67.5zM165 91q87 0 87 112q0 83 -70 83q-41 0 -63.5 -29t-22.5 -84q0 -82 69 -82z" />
    <glyph glyph-name="one.dnom" horiz-adv-x="257" 
d="M205 316q-8 -31 -21.5 -124t-13.5 -113q0 -31 22 -31l30 2l2 -4l-15 -49q-61 3 -95 3l-111 -7l11 46q31 3 45.5 14t17.5 34l24 197q3 22 -2.5 29t-23.5 7l-32 -2l-4 5l9 42q31 3 82 10l101 14l6 -24q-21 -16 -32 -49z" />
    <glyph glyph-name="two.dnom" horiz-adv-x="342" 
d="M7 -6l-1 48l90 87q90 95 90 140q0 32 -36 32q-44 0 -88 -53h-11l-6 62q30 36 69 57.5t75 21.5q48 0 78 -23.5t30 -61.5q0 -42 -33.5 -91t-121.5 -137l3 -5h52q27 0 40 12.5t23 46.5l62 5q-24 -77 -34 -132l-11 -9q-152 6 -215 6z" />
    <glyph glyph-name="three.dnom" horiz-adv-x="302" 
d="M10 67l13 12q27 -10 56 -10q36 0 59 15.5t23 39.5q0 39 -78 39l-7 8v49l43 8q50 22 50 61q0 12 -8.5 19.5t-21.5 7.5q-31 0 -72 -27h-9l-10 55q73 45 130 45q43 0 68.5 -19.5t25.5 -51.5q0 -30 -22.5 -56t-59.5 -40l-1 -6q80 -28 80 -85q0 -52 -67 -95.5t-144 -43.5
q-30 0 -40 16.5t-8 58.5z" />
    <glyph glyph-name="four.dnom" horiz-adv-x="328" 
d="M1 96l8 53l193 238l5 2l71 -8l-26 -221h48l5 -8l-14 -62l-47 1l-7 -84l-6 -7l-91 -7l-6 6q10 50 16 95zM164 264l-79 -104h74l12 104h-7z" />
    <glyph glyph-name="five.dnom" horiz-adv-x="296" 
d="M263 143q0 -57 -66 -104t-142 -47q-30 0 -41 17t-9 58l14 12q25 -10 55 -10q36 0 59 15.5t23 39.5q0 22 -25.5 33t-82.5 16l-4 8l34 186l7 5l130 4q32 1 44 26l44 3l-31 -104l-12 -10q-58 5 -125 5l-10 -52q73 -11 105.5 -35t32.5 -66z" />
    <glyph glyph-name="six.dnom" horiz-adv-x="320" 
d="M297 342q-11 -4 -28 -11.5t-56 -38t-62 -67.5l2 -6q27 16 49 20q44 0 69 -27t25 -70q0 -66 -45 -108t-117 -42q-53 0 -84 33.5t-31 89.5q0 59 27 109t65.5 79t76.5 49.5t65 28.5l27 8l7 -4zM163 173q-23 0 -46 -15q-6 -32 -6 -44q0 -59 39 -59q51 0 51 68q0 50 -38 50z
" />
    <glyph glyph-name="seven.dnom" horiz-adv-x="295" 
d="M129 -7h-13l-67 20l-6 17l168 273l-73 -6q-30 -2 -40.5 -12t-20.5 -43l-46 -4q19 79 30 143l4 3q38 -3 78 -3h141l26 -37q-70 -121 -149 -269z" />
    <glyph glyph-name="eight.dnom" horiz-adv-x="325" 
d="M18 78q0 66 78 99q-48 37 -48 87q0 52 43.5 88.5t104.5 36.5q46 0 77.5 -24t31.5 -61q0 -60 -66 -93q51 -34 51 -84q0 -57 -46 -96t-111 -39q-50 0 -82.5 24t-32.5 62zM148 50q21 0 34.5 12.5t13.5 32.5q0 12 -10.5 23.5t-19 16.5t-32.5 18q-31 -24 -31 -55
q0 -21 12 -34.5t33 -13.5zM141 287q0 -27 54 -53q24 24 24 54q0 39 -35 39q-19 0 -31 -11.5t-12 -28.5z" />
    <glyph glyph-name="nine.dnom" horiz-adv-x="319" 
d="M30 39q11 4 28 11.5t56 37.5t63 68l-2 5q-35 -16 -49 -20q-44 0 -69 27.5t-25 70.5q0 66 44.5 108t117.5 42q52 0 83.5 -34t31.5 -89q0 -59 -27 -109t-65.5 -79.5t-76.5 -50t-65 -27.5l-27 -8l-7 4zM164 207q18 0 45 15q7 24 7 45q0 59 -39 59q-51 0 -51 -69
q0 -23 10 -36.5t28 -13.5z" />
    <glyph glyph-name="a.sups" horiz-adv-x="356" 
d="M280 423l2 -2q5 0 40 30l13 -1l12 -27q-51 -54 -77 -73t-49 -19q-31 0 -31 29q0 15 20 95l-6 1q-52 -92 -98 -125q-41 0 -64 26.5t-23 72.5q0 78 52 145.5t111 67.5l54 -11l4 14l10 5l68 -8l5 -13q-29 -112 -43 -207zM130 418q13 0 40 46t47 103q-28 18 -55 18
q-16 0 -30 -37t-14 -79q0 -51 12 -51z" />
    <glyph glyph-name="b.sups" horiz-adv-x="353" 
d="M28 380q57 343 57 365q0 23 -24 23h-22l7 45l137 6l10 -11q-35 -161 -57 -292h5q51 95 95 129q43 0 68.5 -28.5t25.5 -78.5q0 -82 -52 -143.5t-120 -61.5q-33 0 -63.5 8t-44.5 16l-13 8zM218 566q-13 0 -38 -45.5t-46 -105.5q2 0 11 -4.5t19.5 -8t18.5 -3.5q20 0 35 32.5
t15 78.5q0 22 -4.5 39t-10.5 17z" />
    <glyph glyph-name="c.sups" horiz-adv-x="270" 
d="M171 583q-23 0 -39 -33.5t-16 -79.5q0 -63 36 -63q33 0 57 51l12 -2l28 -31q-17 -39 -54.5 -66.5t-74.5 -27.5q-45 0 -72 31.5t-27 83.5q0 82 52.5 142.5t122.5 60.5q40 0 68 -15l3 -10l-31 -72l-22 -1q-17 32 -43 32z" />
    <glyph glyph-name="d.sups" horiz-adv-x="357" 
d="M280 423l2 -2q4 0 40 30l13 -1l12 -27q-52 -54 -77.5 -73t-48.5 -19q-31 0 -31 29q0 13 20 95l-6 1q-50 -89 -98 -125q-41 0 -64 26.5t-23 72.5q0 78 52 145.5t111 67.5l46 -10l15 107q3 28 -23 28h-21l6 45l138 6l9 -11q-52 -258 -72 -385zM130 418q13 0 39.5 45
t47.5 104q-31 18 -55 18q-16 0 -30 -37t-14 -80q0 -50 12 -50z" />
    <glyph glyph-name="e.sups" horiz-adv-x="290" 
d="M277 583q0 -43 -37 -71.5t-125 -55.5q0 -49 39 -49q37 0 64 48l14 -1l27 -31q-18 -39 -57.5 -65.5t-79.5 -26.5q-46 0 -73 32t-27 85q0 80 53 140.5t123 60.5q37 0 58 -17.5t21 -48.5zM174 583q-21 0 -36.5 -22t-20.5 -60q77 27 77 63q0 19 -20 19z" />
    <glyph glyph-name="f.sups" horiz-adv-x="221" 
d="M20 591l-2 3l4 35l57 8l4 38q6 57 61 101.5t116 44.5q43 0 71 -10l3 -7l-33 -71l-13 -2q-38 25 -61 25t-34.5 -14t-15.5 -46l-7 -60h87l4 -3l-7 -42h-84l-6 -3l-29 -266q-6 -54 -50 -96.5t-92 -42.5q-28 0 -51 10.5t-30 25.5q12 38 39 77h13q3 -52 47 -52q19 0 31.5 14
t13.5 38l2 58l17 230l-7 6z" />
    <glyph glyph-name="g.sups" horiz-adv-x="340" 
d="M140 421q12 0 36 43.5t46 103.5q-34 17 -54 17q-16 0 -30 -36t-14 -76q0 -52 16 -52zM117 337q-68 -46 -68 -51q0 -14 20 -24.5t45 -10.5q37 0 60.5 22.5t28.5 63.5l14 120l-6 2q-61 -100 -94 -122zM286 356q-7 -55 -77 -114t-128 -59q-55 -1 -90.5 26t-31.5 65l2 7
q19 11 110 59l1 5q-45 20 -45 89q0 76 51.5 143t109.5 67l53 -12l5 14l10 5l67 -8l9 -14q-28 -58 -35 -116q-1 -12 -5 -75t-6 -82z" />
    <glyph glyph-name="h.sups" horiz-adv-x="361" 
d="M280 425l2 -2q7 0 39 30l14 -3l12 -26q-48 -51 -75.5 -71t-49.5 -20q-37 0 -37 33q0 16 21.5 85t21.5 85q0 21 -15 21q-14 0 -39 -42.5t-51 -108.5l-5 -43q-2 -11 -27.5 -20t-53.5 -9l-10 13q55 349 61 394q3 27 -23 27h-22l7 45l138 6l9 -12q-37 -160 -57 -291h4
q50 106 95 134q39 0 62 -18.5t23 -48.5q0 -19 -21 -83t-23 -75z" />
    <glyph glyph-name="i.sups" horiz-adv-x="213" 
d="M133 423l2 -2q6 0 40 30l13 -1l12 -27q-46 -51 -74 -71.5t-50 -20.5q-11 0 -12.5 7t0.5 37q6 78 6 157v36q0 23 -25 23h-21l7 45l135 6l10 -11q-29 -103 -43 -208zM128 703q-21 0 -33 12t-12 33q0 29 18.5 47t47.5 18q44 0 44 -43q0 -30 -18 -48.5t-47 -18.5z" />
    <glyph glyph-name="j.sups" horiz-adv-x="207" 
d="M130 350q-7 -54 -44.5 -98.5t-96.5 -71.5l-22 23l3 8q36 27 52 58.5t23 92.5q33 185 33 206q0 23 -25 23h-21l8 45l135 6l9 -11q-30 -117 -54 -281zM136 703q-44 0 -44 45q0 30 18 47.5t48 17.5q44 0 44 -43q0 -30 -18.5 -48.5t-47.5 -18.5z" />
    <glyph glyph-name="k.sups" horiz-adv-x="333" 
d="M211 333l-46 131l5 12q63 30 63 64q0 17 -16 17q-15 0 -41 -42t-53 -110l-5 -42q-2 -11 -27.5 -20t-53.5 -9l-10 13q62 375 62 398t-24 23h-22l7 45l138 6l9 -12q-37 -160 -57 -291h4q49 105 95 134q41 0 65 -18.5t24 -49.5q0 -62 -83 -117l63 -108l-2 -12l-87 -16z" />
    <glyph glyph-name="l.sups" horiz-adv-x="204" 
d="M124 423l3 -2q4 0 40 30l13 -1l12 -27q-47 -51 -74.5 -71.5t-50.5 -20.5q-37 0 -37 37q0 9 29.5 188t29.5 189q0 23 -24 23h-22l7 45l137 6l10 -11q-57 -266 -73 -385z" />
    <glyph glyph-name="m.sups" horiz-adv-x="535" 
d="M454 425l2 -2q6 0 40 30l14 -3l11 -26q-48 -51 -75.5 -71t-49.5 -20q-37 0 -37 33q0 15 22 84.5t22 85.5q0 21 -15 21t-42.5 -45t-56.5 -115l-4 -34q-2 -11 -27.5 -20t-53.5 -9l-10 13q42 166 42 191q0 19 -16 19q-13 0 -37.5 -42t-50.5 -109l-5 -43q-2 -11 -27.5 -20
t-53.5 -9l-11 13q31 184 35 217q3 27 -24 27h-21l7 45l135 6l9 -12q-19 -58 -27 -114h3q52 108 95 134q38 0 60.5 -18t22.5 -48q0 -8 -3.5 -25t-6.5 -30l-4 -13h3q50 106 96 134q39 0 61.5 -18t22.5 -48q0 -19 -21.5 -85t-23.5 -74z" />
    <glyph glyph-name="o.sups" horiz-adv-x="325" 
d="M155 391q47 0 47 118q0 75 -34 75q-21 0 -34 -32t-13 -83q0 -78 34 -78zM130 331q-50 0 -78 32t-28 90q0 86 48 141.5t122 55.5q51 0 78.5 -30t27.5 -86q0 -89 -47.5 -146t-122.5 -57z" />
    <glyph glyph-name="p.sups" horiz-adv-x="362" 
d="M-25 186l8 44q17 2 25.5 11t13.5 32q9 43 27.5 159t18.5 136q0 23 -24 23h-22l8 45l135 6l9 -11q-18 -52 -27 -109h4q50 94 94 128q45 0 70 -27.5t25 -75.5q0 -77 -51 -143t-108 -66l-64 12l-12 -81q-2 -19 3.5 -25.5t24.5 -6.5h30v-4l-8 -42zM227 571q-11 0 -36 -43
t-47 -106q36 -18 58 -18q15 0 28 37.5t13 76.5q0 53 -16 53z" />
    <glyph glyph-name="q.sups" horiz-adv-x="342" 
d="M174 271l19 99l17 85l-6 1q-53 -93 -95 -125q-41 0 -65.5 27.5t-24.5 74.5q0 76 52 143t111 67l53 -11l11 31l11 6l67 -8l4 -13q-7 -12 -39 -177.5t-32 -212.5q0 -12 3.5 -16.5t13.5 -4.5h20l1 -3l-8 -43q-49 0 -93 -2t-64 -4l-19 -2l9 45q30 2 40 10t14 33zM132 418
q12 0 37.5 44t47.5 105q-36 18 -55 18q-16 0 -30 -36.5t-14 -78.5q0 -52 14 -52z" />
    <glyph glyph-name="r.sups" horiz-adv-x="281" 
d="M35 347q35 197 35 220q0 24 -24 24h-21l7 45l135 6l9 -12q-16 -51 -24 -99l4 1q19 46 47 81.5t46 35.5q34 -24 34 -72q0 -15 -9 -39l-10 -5q-11 10 -30 10q-54 0 -101 -127l-6 -53q-2 -11 -27.5 -20t-53.5 -9z" />
    <glyph glyph-name="s.sups" horiz-adv-x="273" 
d="M42 448l15 -1q1 -23 17.5 -37.5t39.5 -14.5q33 0 33 23q0 8 -7 16t-14 12t-22 13q-20 12 -30.5 19.5t-21.5 24t-11 36.5q0 48 39 79.5t96 31.5q56 0 90 -27q-17 -41 -36 -74h-15q-14 36 -45 36q-11 0 -19 -6.5t-8 -16.5q0 -14 20 -27q2 -1 25 -14.5t31 -20.5t18.5 -23
t10.5 -34q0 -47 -41.5 -79.5t-101.5 -32.5q-37 0 -64.5 11.5t-33.5 29.5q8 45 35 76z" />
    <glyph glyph-name="t.sups" horiz-adv-x="229" 
d="M192 454l13 -3l12 -27q-72 -93 -104 -93q-38 0 -57 20.5t-15 54.5l31 179l-5 5l-39 1l-2 3l4 35l49 8l10 74l96 22l7 -7q-12 -43 -22 -90h68l4 -3l-6 -42h-68l-8 -4l-28 -148q-3 -20 13 -20q15 0 47 35z" />
    <glyph glyph-name="u.sups" horiz-adv-x="362" 
d="M218 462h-5q-50 -100 -91 -129q-40 0 -63.5 17.5t-23.5 47.5q0 18 20.5 87.5t20.5 83.5q0 22 -24 22h-21l7 45l136 6l9 -11q-53 -164 -53 -190q0 -17 13 -17q14 0 40 43t53 112l9 59l11 5l62 -2l11 -12q-29 -111 -44 -206l3 -2q5 0 40 30l13 -1l12 -27q-51 -54 -77.5 -73
t-48.5 -19q-31 0 -31 28q0 4 22 103z" />
    <glyph glyph-name="v.sups" horiz-adv-x="327" 
d="M184 337l-92 -5l-11 11q-6 117 -26 227q-4 21 -21 21l-26 -1l4 43l125 12l8 -6q11 -96 11 -222h9q56 109 56 144q0 34 -35 47l7 25l102 17q20 -18 20 -60q0 -70 -131 -253z" />
    <glyph glyph-name="w.sups" horiz-adv-x="483" 
d="M156 417h9q36 73 54 122l-15 83l6 10l81 18q20 -18 20 -57q0 -17 -9 -44l11 -132h10q54 108 54 144q0 34 -33 47l6 25l102 17q20 -22 20 -62q0 -68 -130 -251l-78 -5l-11 11l-10 100h-7q-25 -54 -57 -106l-87 -5l-11 11q-6 120 -26 227q-4 21 -21 21l-26 -1l4 43l125 12
l8 -6q11 -96 11 -222z" />
    <glyph glyph-name="x.sups" horiz-adv-x="344" 
d="M292 650q30 0 56 -24q-25 -56 -38 -83h-15q-9 36 -28 36q-24 0 -54 -69q18 -63 27 -83.5t19 -20.5q9 0 41 27h8l14 -30q-40 -40 -65 -56t-48 -16q-22 0 -35.5 19t-30.5 76q-43 -95 -94 -95q-36 0 -56 25q17 46 38 85h15q5 -40 26 -40q25 0 56 73q-20 65 -28 83.5
t-18 18.5q-13 0 -38 -28h-8l-15 31q71 71 113 71q22 0 34.5 -18t29.5 -74q43 92 94 92z" />
    <glyph glyph-name="y.sups" horiz-adv-x="333" 
d="M193 608l6 25l103 17q19 -19 19 -60q0 -72 -127 -246q-65 -88 -111 -125t-91 -37q-26 0 -47.5 10.5t-25.5 26.5q9 43 34 80l15 -1q2 -21 15.5 -34t32.5 -13q36 0 81 55q-19 176 -37 264q-4 21 -22 21l-23 -1l3 43l126 12l7 -6q7 -85 9 -230h8q59 107 59 152q0 32 -34 47z
" />
    <glyph glyph-name="z.sups" horiz-adv-x="309" 
d="M77 521l-41 -4q18 68 27 126l23 7q84 -19 130 -19q26 0 37 14l16 17l40 -30l3 -13q-93 -93 -187 -196l16 3q9 0 35.5 -3.5t37.5 -3.5q36 0 44 51l18 -1q10 -18 10 -52q0 -36 -23 -61t-57 -25q-20 0 -57.5 14.5t-58.5 14.5q-38 0 -75 -23l-15 24l181 203l-40 1
q-28 0 -42 -9.5t-22 -34.5z" />
    <glyph glyph-name="foundryicon" horiz-adv-x="783" 
d="M328 344l-48 -28q-6 -4 -9 -4q-6 0 -6 9v116h-74v-344h74v180q0 12 24 12q43 0 43 -56v-136h74v178q0 32 -22 52.5t-56 20.5zM435 320v-18h26q10 0 10 -10v-132q0 -32 22 -52.5t56 -20.5l63 37v25q-12 -4 -26 -4q-41 0 -41 57v90q0 10 10 10h58v36h-58q-10 0 -10 10v28
h-21zM180 -59q-80 0 -80 80v423q0 80 80 80h423q80 0 80 -80v-423q0 -80 -80 -80h-423z" />
    <glyph glyph-name="square1" horiz-adv-x="446" 
d="M-27 0l57 462h446l-56 -462h-447z" />
    <glyph glyph-name="square2" horiz-adv-x="620" 
d="M-27 0l79 642h619l-78 -642h-620z" />
    <glyph glyph-name="f.f" horiz-adv-x="290" 
d="M24 393l-3 5l5 46l84 13l6 42q10 90 88.5 154t171.5 64q74 0 146 -31l4 -11l-55 -76l-20 -3q-63 34 -121 34q-81 0 -94 -97l-11 -80h218l5 -5l-9 -56l-212 1l-9 -6l-47 -429q-9 -81 -67.5 -140.5t-129.5 -59.5q-39 0 -71 15.5t-40 38.5q7 22 23 55.5t29 51.5h16
q3 -81 71 -81q28 0 47.5 21.5t21.5 58.5q2 25 4 66.5t2 48.5l27 351l-9 7z" />
    <glyph glyph-name="f.l" horiz-adv-x="290" 
d="M24 393l-3 5l5 46l84 13l7 64q10 89 87 155t168 66q67 0 111 -18l4 -11l-33 -95l-20 -3q-66 40 -110 40q-38 0 -59 -23.5t-28 -75.5l-12 -101h125l5 -5l-10 -56l-118 1l-9 -6l-47 -431q-9 -81 -67.5 -140.5t-129.5 -59.5q-39 0 -71 15.5t-40 38.5q7 22 23 55.5t29 51.5
h16q3 -81 71 -81q28 0 47.5 21.5t21.5 58.5q2 25 4 66.5t2 48.5l27 351l-9 7z" />
    <glyph glyph-name="f.t" horiz-adv-x="290" 
d="M24 393l-3 5l5 46l84 13l7 64q10 89 85.5 155t164.5 66q63 0 106 -15l4 -11l-45 -96l-19 -3q-55 38 -94 38q-36 0 -55.5 -23.5t-26.5 -75.5l-12 -103h230l6 -5l-10 -55h-224l-9 -6l-47 -429q-9 -81 -67.5 -140.5t-129.5 -59.5q-39 0 -71 15.5t-40 38.5q7 22 23 55.5
t29 51.5h16q3 -81 71 -81q28 0 47.5 21.5t21.5 58.5q2 25 4 66.5t2 48.5l27 351l-9 7z" />
    <glyph glyph-name="fj" horiz-adv-x="562" 
d="M454 18q-23 -177 -199 -262l-28 30l3 12q57 42 82 91.5t37 146.5q50 288 50 320q0 38 -39 38h-133l-9 -5l-47 -431q-9 -81 -67.5 -140.5t-129.5 -59.5q-39 0 -71 15.5t-40 38.5q7 22 23 55.5t29 51.5h16q3 -81 71 -81q28 0 47.5 21.5t21.5 58.5q2 25 4 66.5t2 48.5
l27 351l-9 7l-71 2l-3 5l5 46l84 13l7 64q10 89 88.5 155t171.5 66q69 0 116 -20l4 -11l-44 -96l-20 -3q-60 43 -104 43q-41 0 -63 -24t-29 -75l-12 -101h190l110 7l13 -16q-52 -206 -84 -428z" />
    <glyph glyph-name="idotaccent" horiz-adv-x="283" 
d="M180 570q-28 0 -43.5 17t-15.5 44q0 39 25 64.5t64 25.5q27 0 42 -16t15 -43q0 -40 -24.5 -66t-62.5 -26zM169 109l4 -4q9 0 66 50l17 -2l17 -35q-120 -130 -174 -130q-47 0 -47 50q48 286 48 318q0 20 -9 29t-29 9h-35l10 59q33 0 80.5 2.5t78.5 4.5l32 2l12 -16
q-47 -168 -71 -337z" />
    </font>
</defs>
</svg>
