<?xml version="1.0" standalone="no"?>
<!DOCTYPE svg PUBLIC "-//W3C//DTD SVG 1.1//EN" "http://www.w3.org/Graphics/SVG/1.1/DTD/svg11.dtd" >
<svg xmlns="http://www.w3.org/2000/svg" xmlns:xlink="http://www.w3.org/1999/xlink" version="1.1">
<metadata>
Created by FontForge 20150102 at Mon Jan  5 18:02:32 2015
 By uniteet7
Copyright (c) 2011, Juan Pablo del Peral (juan@huertatipografica.com.ar), with Reserved Font Names "Alegreya" "Alegreya SC"
</metadata>
<defs>
<font id="AlegreyaItalic" horiz-adv-x="382" >
  <font-face 
    font-family="AlegreyaItalic"
    font-weight="400"
    font-style="italic"
    font-stretch="normal"
    units-per-em="1000"
    panose-1="2 0 5 3 5 0 0 2 0 4"
    ascent="800"
    descent="-200"
    x-height="456"
    cap-height="646"
    bbox="-238 -293 950 945"
    underline-thickness="56"
    underline-position="-59"
    unicode-range="U+0020-FB02"
  />
<missing-glyph horiz-adv-x="192" 
 />
    <glyph glyph-name=".notdef" horiz-adv-x="192" 
 />
    <glyph glyph-name=".null" horiz-adv-x="0" 
 />
    <glyph glyph-name="nonmarkingreturn" horiz-adv-x="333" 
 />
    <glyph glyph-name="space" unicode=" " horiz-adv-x="192" 
 />
    <glyph glyph-name="exclam" unicode="!" horiz-adv-x="274" 
d="M84 -12q-23 0 -35.5 14.5t-12.5 35.5q0 28 19.5 48.5t49.5 20.5q23 0 36 -14t13 -36q0 -29 -19.5 -49t-50.5 -20zM100 210l47 456l9 10l84 18l8 -11l-109 -474l-29 -7z" />
    <glyph glyph-name="quotedbl" unicode="&#x22;" horiz-adv-x="287" 
d="M177 649l6 -8q-27 -110 -60 -212l-27 -14l-10 2q8 49 13 103.5t7 84.5l1 30zM296 649l6 -8q-27 -110 -60 -212l-27 -14l-11 2q8 49 13 103.5t7 84.5l1 30z" />
    <glyph glyph-name="numbersign" unicode="#" horiz-adv-x="480" 
d="M66 362l-2 10l19 37l103 -1l54 160l41 5l7 -6l-56 -160h50l50 -1l55 162l41 5l7 -6l-56 -161h103l3 -9l-23 -36l-100 1l-13 -39l-24 -71h102l3 -9l-22 -36l-98 1l-54 -165l-40 -8l-7 6l56 168l-66 1l-35 -1l-55 -166l-41 -8l-6 6l56 168l-106 -1l-2 10l19 37l104 -1
l19 57l18 52zM202 323l-24 -70h50l52 -1l20 59l17 52l-64 1l-37 -1z" />
    <glyph glyph-name="dollar" unicode="$" horiz-adv-x="428" 
d="M327 649l-31 -142q29 -1 57.5 -6t42.5 -9l15 -5l2 -5q-20 -61 -34 -133l-36 -3l-5 4q8 32 8 53q0 27 -14 40t-46 15l-37 -170q76 -42 98 -64q33 -32 33 -70q0 -68 -54 -113t-141 -49l-30 -143l-27 -3l-4 7l29 138q-30 1 -59 7.5t-43 12.5l-14 6l-3 9q18 61 28 135l41 4
q-10 -75 1.5 -101t58.5 -30l39 185q-29 16 -43.5 25.5t-35 26t-29.5 35.5t-9 42q0 63 50.5 108t127.5 50l32 148l28 4zM301 121q0 41 -70 82l-37 -169q48 2 77.5 26t29.5 61zM158 382q0 -37 60 -76l2 -2l33 155q-41 -3 -68 -24.5t-27 -52.5z" />
    <glyph glyph-name="percent" unicode="%" horiz-adv-x="647" 
d="M197 390q38 0 67.5 22.5t29.5 78.5q0 40 -23.5 66t-64.5 26q-43 0 -69 -28.5t-26 -73.5t25.5 -68t60.5 -23zM183 326q-54 0 -87 37.5t-33 95.5q0 81 45.5 135.5t115.5 54.5q56 0 87.5 -38t31.5 -91q0 -78 -43.5 -136t-116.5 -58zM484 52q37 0 66.5 22.5t29.5 78.5
q0 41 -23 66.5t-64 25.5q-43 0 -69 -28.5t-26 -73.5t25.5 -68t60.5 -23zM470 -12q-54 0 -87 37.5t-33 95.5q0 81 45.5 135.5t115.5 54.5q56 0 87.5 -38t31.5 -91q0 -78 -43.5 -136t-116.5 -58zM582 659l5 -14q-174 -259 -262 -400l-215 -340l-38 19l-5 12q131 199 220 339
l256 403z" />
    <glyph glyph-name="ampersand" unicode="&#x26;" horiz-adv-x="567" 
d="M174 479q0 -54 37 -88t97 -34l261 17q51 3 92 47l18 -10l-28 -56q-12 -24 -27 -32.5t-44 -8.5h-98l-5 -8q25 -32 25 -80q0 -97 -79.5 -167.5t-187.5 -70.5q-79 0 -133.5 42.5t-54.5 106.5q0 61 44 110t118 72q-51 19 -78.5 57t-27.5 86q0 78 66 132.5t157 54.5
q74 0 153 -24l2 -4q-26 -68 -40 -146l-46 -4q9 36 9 53q0 33 -24 51.5t-69 18.5q-64 0 -100.5 -30.5t-36.5 -84.5zM443 213q0 43 -19 72t-49 29h-116q-76 -36 -105.5 -68.5t-29.5 -78.5q0 -52 37.5 -86.5t95.5 -34.5q79 0 132.5 47t53.5 120z" />
    <glyph glyph-name="quotesingle" unicode="'" horiz-adv-x="169" 
d="M177 649l6 -8q-27 -110 -60 -212l-27 -14l-10 2q8 49 13 103.5t7 84.5l1 30z" />
    <glyph glyph-name="parenleft" unicode="(" horiz-adv-x="297" 
d="M73 163l21 173q6 50 21.5 94.5t35 75t42 56t43.5 41.5t38 26.5t28 14.5l10 5h5l10 -29l-2 -4q-6 -2 -15 -7.5t-34 -26.5t-45.5 -48t-40.5 -76t-27 -107l-21 -173q-7 -67 -0.5 -116.5t23 -83t33.5 -54.5t30 -30l13 -9v-5l-25 -26h-4q-2 1 -5.5 2.5t-15.5 8.5t-22 15.5
t-25 23t-25.5 31.5t-23 40.5t-17 51t-8.5 62.5t3 74z" />
    <glyph glyph-name="parenright" unicode=")" horiz-adv-x="301" 
d="M232 340l-22 -173q-6 -50 -21.5 -94.5t-35 -75t-42 -56t-43.5 -41.5t-38 -26.5t-28 -15.5l-10 -4h-4l-10 29l1 4q6 2 15 7.5t34 26.5t45.5 48t41 76t27.5 107l21 173q8 62 0.5 115.5t-24 84.5t-33.5 53.5t-30 31.5l-13 8l1 5l24 26h4q2 -1 5.5 -2.5t15.5 -8.5t22 -15.5
t25 -23t25.5 -31.5t23 -40.5t17.5 -51t9 -62.5t-3 -74z" />
    <glyph glyph-name="asterisk" unicode="*" horiz-adv-x="435" 
d="M124 666q55 -29 100 -63l-6 -33l-6 -5l-106 29q0 38 9 68zM129 473q44 44 91 76l29 -16l3 -7q-14 -19 -29 -42t-23 -36l-8 -14q-36 12 -62 30zM314 418q-28 56 -44 110l24 23l8 1q14 -20 31 -41.5t27 -32.5l10 -12q-22 -30 -47 -49zM423 577q-7 -1 -19 -2.5t-43 -3.5
t-56 -1l-14 29l1 8q23 7 49 17t40 16l14 6q22 -31 32 -60zM306 730q-11 -61 -29 -114l-34 -5l-6 4l-5 110q36 12 67 12z" />
    <glyph glyph-name="plus" unicode="+" horiz-adv-x="486" 
d="M299 500l9 -6q-21 -123 -31 -203l195 6l5 -10l-14 -51l-193 -1l-23 -194l-51 -11l-8 6q15 111 26 199l-189 -1l-5 9l17 49q101 -1 184 -1l25 201z" />
    <glyph glyph-name="comma" unicode="," horiz-adv-x="228" 
d="M33 59l2 14q34 26 58 26q22 0 36.5 -20.5t14.5 -57.5q0 -52 -42 -98.5t-98 -79.5l-18 15v10q35 24 57 57t22 64q0 40 -32 70z" />
    <glyph glyph-name="hyphen" unicode="-" horiz-adv-x="311" 
d="M279 299l6 -9l-11 -54l-234 -26l-6 8l13 52l168 20z" />
    <glyph glyph-name="period" unicode="." horiz-adv-x="229" 
d="M83 -12q-24 0 -36.5 14.5t-12.5 35.5q0 28 20 48.5t49 20.5q24 0 37 -14t13 -36q0 -28 -20 -48.5t-50 -20.5z" />
    <glyph glyph-name="slash" unicode="/" horiz-adv-x="316" 
d="M333 675l6 -10q-111 -288 -172 -450l-121 -325h-48l-6 8q73 176 129 328l165 449h47z" />
    <glyph glyph-name="zero" unicode="0" horiz-adv-x="510" 
d="M214 -12q-83 0 -131 57.5t-48 152.5q0 130 78.5 218.5t190.5 88.5q81 0 129.5 -57.5t48.5 -150.5q0 -130 -78 -219.5t-190 -89.5zM240 64q79 0 131 55t52 141q0 73 -41 118.5t-108 45.5q-80 0 -130.5 -55.5t-50.5 -143.5q0 -72 40 -116.5t107 -44.5z" />
    <glyph glyph-name="one" unicode="1" horiz-adv-x="340" 
d="M235 404q-44 -272 -44 -315q0 -25 9 -35t32 -10l51 3l1 -4l-14 -46q-81 3 -128 3q-22 0 -53 -3t-51 -6l-20 -3l11 46q54 5 73.5 26.5t26.5 87.5l28 228q5 35 -6 46t-38 11l-52 -6l-2 3l9 42q14 0 108 15q76 12 99 18h2l4 -17q-21 -17 -30 -33.5t-16 -50.5z" />
    <glyph glyph-name="two" unicode="2" horiz-adv-x="456" 
d="M6 -12l-7 18l86 88q190 194 190 283q0 29 -16.5 45t-46.5 16q-32 0 -67 -24t-61 -65h-9l-6 45q31 48 81.5 79.5t96.5 31.5q54 0 86.5 -28.5t32.5 -77.5t-47.5 -114t-195.5 -217l3 -7h143q53 0 75 17t43 74l41 5q-30 -84 -47 -157l-12 -7q-226 7 -309 7z" />
    <glyph glyph-name="three" unicode="3" horiz-adv-x="400" 
d="M-12 -32l6 6q39 -9 76 -9q76 0 130.5 42t54.5 102q0 89 -158 90l-5 5v35l64 16q44 21 72.5 55.5t28.5 69.5q0 28 -18.5 45t-47.5 17q-59 0 -115 -51h-10l-5 42l11 7q11 8 29 18.5t39 21t45.5 18t44.5 7.5q52 0 82.5 -27t30.5 -72q0 -44 -34 -85.5t-90 -69.5l-1 -5
q116 -29 116 -112q0 -53 -46 -109.5t-115 -93t-132 -36.5q-33 0 -45 17t-8 56z" />
    <glyph glyph-name="four" unicode="4" horiz-adv-x="431" 
d="M-12 89q1 6 4 18.5t4 18.5l311 378q1 0 2 0.5t2 0.5l32 -10l-43 -352h89l5 -8l-15 -55q-35 1 -86 3l-14 -169l-6 -7l-72 -12l-5 9q17 103 28 181q-148 4 -236 4zM250 367l-180 -224h161l28 224h-9z" />
    <glyph glyph-name="five" unicode="5" horiz-adv-x="413" 
d="M340 141q0 -60 -50.5 -118.5t-121.5 -93t-132 -34.5q-30 0 -43 15.5t-9 57.5l6 6q39 -9 77 -9q81 0 137 40.5t56 103.5q0 44 -41.5 70t-143.5 45l-7 11l46 244l9 8l183 8q28 2 41.5 9.5t23.5 29.5l34 4l-38 -118l-7 -6q-97 8 -208 8l-22 -129q99 -21 154.5 -56.5
t55.5 -95.5z" />
    <glyph glyph-name="six" unicode="6" horiz-adv-x="437" 
d="M417 563q-8 -3 -22.5 -9t-54 -29.5t-73 -51.5t-71 -76t-58.5 -103l3 -2l9 6l22.5 12.5t28.5 15t29.5 13t22.5 5.5q70 0 108.5 -44.5t38.5 -103.5q0 -84 -63 -146t-154 -62q-70 0 -110 50t-40 129q0 66 20.5 125t53 101.5t72 78t79.5 58.5t72.5 39t53.5 23l20 6l6 -5z
M224 285q-47 0 -101 -37q-11 -46 -11 -77q0 -62 25 -98.5t71 -36.5q51 0 83 37t32 97q0 48 -27.5 81.5t-71.5 33.5z" />
    <glyph glyph-name="seven" unicode="7" horiz-adv-x="404" 
d="M124 -105h-7l-57 18l-7 22l298 490l-164 -7q-48 -2 -66 -20t-34 -73l-39 -6q25 97 39 173l7 5q57 -4 116 -4h203l19 -28q-88 -147 -273 -484z" />
    <glyph glyph-name="eight" unicode="8" horiz-adv-x="466" 
d="M40 110q0 111 144 179q-89 54 -89 131q0 69 57.5 123.5t137.5 54.5q57 0 96.5 -31t39.5 -88q0 -101 -114 -160q97 -59 97 -138q0 -78 -65 -135.5t-155 -57.5q-64 0 -106.5 32.5t-42.5 89.5zM217 31q46 0 82.5 34t36.5 82q0 21 -8 38t-27 32.5t-33 24.5t-42 24q-6 3 -9 5
q-102 -43 -102 -135q0 -43 28.5 -74t73.5 -31zM169 456q0 -20 7.5 -36.5t28 -33t32 -24t41.5 -25.5q71 41 71 123q0 44 -22.5 68t-58.5 24q-42 0 -70.5 -29t-28.5 -67z" />
    <glyph glyph-name="nine" unicode="9" horiz-adv-x="437" 
d="M26 -70q8 3 22.5 9t54 29t73.5 51t71.5 76t57.5 103l-3 3q-83 -52 -111 -52q-71 0 -109 44.5t-38 103.5q0 84 63 146t154 62q70 0 110 -50t40 -129q0 -66 -20.5 -125t-53 -101.5t-72 -78t-79.5 -58.5t-72.5 -39t-53.5 -22l-20 -7l-6 5zM220 208q44 0 101 37q10 43 10 76
q0 62 -25 99t-70 37q-51 0 -83 -37.5t-32 -98.5q0 -48 27 -80.5t72 -32.5z" />
    <glyph glyph-name="colon" unicode=":" horiz-adv-x="228" 
d="M79 -12q-24 0 -36.5 14.5t-12.5 35.5q0 28 20 48.5t49 20.5q24 0 37 -14t13 -36q0 -28 -20 -48.5t-50 -20.5zM113 268q-24 0 -36.5 14.5t-12.5 35.5q0 28 20 48.5t49 20.5q24 0 37 -14t13 -36q0 -28 -20 -48.5t-50 -20.5z" />
    <glyph glyph-name="semicolon" unicode=";" horiz-adv-x="228" 
d="M28 59l2 14q34 26 58 26q22 0 36.5 -20.5t14.5 -57.5q0 -52 -42 -98.5t-98 -79.5l-18 15v10q35 24 57 57t22 64q0 40 -32 70zM113 268q-24 0 -36.5 14.5t-12.5 35.5q0 28 20 48.5t49 20.5q24 0 37 -14t13 -36q0 -28 -20 -48.5t-50 -20.5z" />
    <glyph glyph-name="less" unicode="&#x3c;" horiz-adv-x="484" 
d="M40 239l-7 11l8 47l205 86l201 81l8 -5l2 -50q-112 -39 -195 -73l-153 -60l-1 -6l151 -70l163 -79v-11l-35 -40q-94 50 -168 85z" />
    <glyph glyph-name="equal" unicode="=" horiz-adv-x="486" 
d="M463 220l4 -10l-14 -51l-218 -1l-220 -1l-4 9l16 49q144 -1 229 -1zM482 377l5 -10l-14 -51l-219 -1l-219 -1l-5 9l17 49q143 -1 229 -1z" />
    <glyph glyph-name="greater" unicode="&#x3e;" horiz-adv-x="484" 
d="M456 295l6 -11l-8 -47l-204 -86l-202 -81l-8 5l-2 50q112 39 195 73l153 60l1 6l-151 70l-163 79v11l35 40q94 -50 168 -85z" />
    <glyph glyph-name="question" unicode="?" horiz-adv-x="346" 
d="M101 203l-8 120l4 14l123 76q66 42 66 98q0 103 -179 115l-1 11l39 53l14 4q84 -3 141 -46t57 -106q0 -35 -9.5 -62t-32 -49.5t-39 -35.5t-53 -35t-51.5 -32l-4 -9l8 -95l-4 -8l-63 -17zM109 -12q-23 0 -35.5 14.5t-12.5 35.5q0 28 19.5 48.5t49.5 20.5q23 0 36 -14
t13 -36q0 -29 -19.5 -49t-50.5 -20z" />
    <glyph glyph-name="at" unicode="@" horiz-adv-x="801" 
d="M468 -12q-36 0 -36 29q0 8 11 60t21 100l11 48l-6 2q-90 -171 -187 -239q-39 0 -59.5 37t-20.5 99q0 82 35 161t88 127t106 48l100 -16l9 25l5 1l31 -15l8 -12q-58 -199 -84 -385l4 -4q106 0 161.5 61t55.5 165q0 130 -80 203.5t-215 73.5q-148 0 -239.5 -102.5
t-91.5 -248.5q0 -155 88.5 -258.5t264.5 -113.5v-7l-26 -36q-188 9 -293 121t-105 276q0 82 30.5 158.5t84.5 136t135.5 95t176.5 35.5q149 0 244 -88.5t95 -220.5q0 -130 -85.5 -223t-236.5 -93zM301 69q27 0 85.5 87t114.5 217q-54 33 -101 33q-48 0 -88 -71t-40 -162
q0 -42 8.5 -73t20.5 -31z" />
    <glyph glyph-name="A" unicode="A" horiz-adv-x="552" 
d="M456 111q7 -38 24.5 -52.5t59.5 -19.5l2 -3l-11 -39q-69 3 -101 3t-68 -2.5t-56 -5.5l-19 -2l-2 7l8 36q55 4 73.5 14t18.5 36q0 12 -4 38l-18 113q-24 1 -100 1q-43 0 -107 -8l-49 -108q-14 -29 -14 -46q0 -36 53 -36h56v-3l-10 -41q-68 7 -132 7l-105 -3l13 45
q29 3 47.5 19.5t38.5 58.5l248 511l56 17l8 1q44 -307 90 -538zM304 544l-125 -273h85q47 0 91 6l-44 267h-7z" />
    <glyph glyph-name="B" unicode="B" horiz-adv-x="571" 
d="M138 0q-22 0 -49 -3t-43 -6l-17 -3l10 43q47 9 64.5 26.5t22.5 60.5l52 424q4 33 -1.5 43.5t-27.5 10.5l-32 -2l-2 4l12 41q68 -3 104 -3l102 4q84 0 132.5 -34.5t48.5 -97.5q0 -57 -35.5 -102t-97.5 -71q63 -14 98 -51t35 -88q0 -81 -72.5 -143.5t-166.5 -62.5
q-21 0 -66.5 5t-70.5 5zM316 302l-100 -2l-28 -192q-4 -39 19 -55t84 -16q64 0 103 39t39 104q0 101 -117 122zM223 349q92 -8 105 -8q4 1 11.5 3.5t26.5 13.5t33 26t26 43.5t12 63.5q0 111 -156 111q-10 0 -14 -4.5t-7 -18.5q-30 -184 -37 -230z" />
    <glyph glyph-name="C" unicode="C" horiz-adv-x="604" 
d="M307 -12q-118 0 -190 72t-72 193q0 168 107 281.5t265 113.5q35 0 78.5 -6t68.5 -12l26 -5l3 -6q-28 -74 -45 -164l-43 -4q9 39 9 59q0 84 -131 84q-111 0 -181 -86.5t-70 -225.5q0 -114 51 -181.5t139 -67.5q130 0 186 160l43 4q-31 -90 -46 -160l-6 -9
q-77 -40 -192 -40z" />
    <glyph glyph-name="D" unicode="D" horiz-adv-x="675" 
d="M286 -12q-98 12 -146 12q-21 0 -49 -3t-45 -6l-18 -3l11 43q46 9 64 26.5t23 59.5l52 425q4 32 -1.5 43t-26.5 11l-34 -2l-1 4l11 41q63 -3 100 -3l136 4q129 0 210 -73.5t81 -190.5q0 -104 -49.5 -193.5t-134 -142t-183.5 -52.5zM298 596q-20 0 -27 -4.5t-9 -17.5
q-71 -444 -71 -467q0 -42 24.5 -57t89.5 -15q118 0 190 89t72 232q0 115 -69 177.5t-200 62.5z" />
    <glyph glyph-name="E" unicode="E" horiz-adv-x="567" 
d="M185 80q0 -25 14 -32t58 -7q62 0 93 3t54.5 17.5t33 36t21.5 66.5l41 5l2 -5q-28 -82 -47 -166l-5 -5q-199 7 -289 7q-32 0 -65 -2.5t-50 -5.5l-17 -2l11 43q44 6 62 23.5t23 60.5l53 425q4 33 -1.5 43.5t-27.5 10.5l-33 -2l-1 3l11 42q74 -3 131 -3q204 0 289 12l2 -5
q-25 -72 -42 -164l-44 -4q9 39 9 65q0 33 -25.5 41.5t-116.5 8.5q-48 0 -58.5 -5.5t-14.5 -33.5l-31 -199q10 0 46.5 -0.5t52.5 -0.5l118 11l3 -4l-20 -56q-82 3 -135 3q-37 0 -74 -7q-6 -41 -14.5 -94.5t-12.5 -81t-4 -42.5z" />
    <glyph glyph-name="F" unicode="F" horiz-adv-x="490" 
d="M213 280l-25 -172q-5 -36 2.5 -52t31.5 -16l69 3l1 -4l-13 -43q-91 4 -142 4q-21 0 -48 -3t-43 -6l-17 -3l10 43q46 9 63.5 26.5t22.5 59.5l53 425q4 33 -1.5 43.5t-27.5 10.5l-33 -2l-1 3l11 42q74 -3 131 -3q188 0 271 12l2 -5q-26 -75 -43 -167l-43 -4q9 42 9 69
q0 33 -23 41t-101 8q-48 0 -58.5 -5.5t-14.5 -33.5l-33 -216l99 -1l102 11l2 -4l-19 -57q-74 3 -119 3q-35 0 -75 -7z" />
    <glyph glyph-name="G" unicode="G" horiz-adv-x="640" 
d="M307 -12q-118 0 -190 72t-72 193q0 168 107 281.5t265 113.5q35 0 78.5 -6t68.5 -12l26 -5l3 -6q-28 -74 -45 -164l-43 -4q9 39 9 59q0 84 -131 84q-111 0 -181 -86.5t-70 -225.5q0 -114 51 -181.5t139 -67.5q35 0 69 9.5t50 19.5l16 10l15 126q4 34 -5 44t-42 10h-67
l-1 4l14 47h3q4 0 10.5 -0.5t15.5 -1t20 -1t22.5 -1t24.5 -0.5h25l83 5l1 -20q-30 -20 -40 -89q-14 -84 -14 -122l1 -30l-6 -8q-10 -5 -28 -13t-73 -21t-109 -13z" />
    <glyph glyph-name="H" unicode="H" horiz-adv-x="723" 
d="M633 546q-68 -415 -68 -462q0 -24 8 -33.5t28 -9.5l44 3q1 -2 0 -3l-13 -44q-77 3 -119 3h-31q-15 0 -34.5 -0.5t-29.5 -1.5h-11l13 43q45 1 62 21.5t25 86.5l18 154q-103 1 -148 1l-162 -11l-17 -120q-12 -92 -10 -106q2 -15 9.5 -20t25.5 -5l44 3q0 -1 0.5 -2t0.5 -2
l-14 -44q0 3 -78 3q-43 0 -95 -4t-53 -8l11 43q53 11 69 33t22 87l48 391q4 33 -1.5 43.5t-27.5 10.5l-32 -2l-2 3l12 43q69 -4 106 -4q18 0 43 2.5t41 5.5l16 2l-8 -43q-43 -7 -55 -22t-20 -70l-26 -164q27 0 81.5 -0.5t81.5 -0.5q62 0 145 10l24 186q5 32 -1.5 43
t-27.5 11l-33 -2l-2 3l13 43l15 -1q15 -1 37.5 -2t37.5 -1q20 0 49 2.5t48 5.5l19 2l-8 -43q-37 -5 -51 -16.5t-19 -40.5z" />
    <glyph glyph-name="I" unicode="I" horiz-adv-x="346" 
d="M256 546q-70 -406 -70 -461q0 -24 8.5 -33.5t28.5 -9.5l51 3l2 -4l-14 -44q-79 3 -125 3q-21 0 -49 -3t-45 -6l-17 -3l12 43q46 9 64.5 27t23.5 60l52 424q4 32 -2 43t-27 11l-41 -2v1q-1 1 -1 2l12 43h4q4 0 11 -0.5t16.5 -1t20.5 -1t21.5 -1t21 -0.5h18.5
q20 0 47.5 2.5t44.5 5.5l18 2l-10 -43q-41 -5 -56.5 -17t-19.5 -40z" />
    <glyph glyph-name="J" unicode="J" horiz-adv-x="313" 
d="M114 114l54 428q4 32 -2 42.5t-27 10.5l-47 -4v3l11 42h103l110 9l-8 -42q-35 -5 -46.5 -15.5t-16.5 -41.5q-31 -184 -65 -428q-13 -102 -56.5 -164t-127.5 -97l-12 32l3 8q63 36 89.5 82t37.5 135z" />
    <glyph glyph-name="K" unicode="K" horiz-adv-x="601" 
d="M126 118l52 424q4 33 -1.5 43.5t-27.5 10.5l-32 -2l-2 3l12 43q68 -4 105 -4q18 0 43.5 2.5t41.5 5.5l16 2l-8 -43q-37 -5 -52 -18t-20 -42l-65 -434q-6 -39 1.5 -53t33.5 -14l44 3l2 -4l-15 -44q-74 3 -117 3l-109 -1l15 43q46 5 62 19t21 57zM242 315l2 13l198 189
q36 35 36 54q0 24 -57 28l-2 4l12 41q68 -8 104 -8l87 4l2 -6l-10 -39q-26 -5 -49 -20.5t-72 -61.5l-178 -174l136 -221q30 -47 55 -66t58 -19l3 -3l-9 -32q-69 -12 -79 -12q-47 0 -97 86z" />
    <glyph glyph-name="L" unicode="L" horiz-adv-x="485" 
d="M167 0q-32 0 -64.5 -2.5t-48.5 -5.5l-16 -2l12 43q38 6 54 24t21 60l53 425q4 32 -2 43t-27 11l-33 -2v1q-1 1 -1 2l12 43q-1 0 18 -1t45.5 -2t42.5 -1q18 0 43 2.5t41 5.5l16 2l-8 -42q-42 -7 -52.5 -20.5t-22.5 -75.5q-16 -86 -39 -239.5t-23 -177.5q0 -31 14.5 -40.5
t61.5 -9.5q85 0 115 24.5t56 116.5l42 4l1 -2v-2q-28 -89 -51 -186l-5 -5q-166 9 -255 9z" />
    <glyph glyph-name="M" unicode="M" horiz-adv-x="813" 
d="M374 -13l-21 -6q-76 338 -122 548h-4q-89 -443 -89 -463q0 -25 26 -25l40 1v-1q1 -1 1 -2l-14 -43q-60 4 -92 4q-17 0 -37.5 -2t-32.5 -4l-12 -2l11 43q30 5 45.5 21.5t24.5 56.5q4 20 29 136.5t43.5 206t18.5 99.5q0 44 -78 50l-2 4l11 32q73 -5 103 -5l63 4
q24 -133 51.5 -259.5t42.5 -186.5l16 -60h4q99 210 224 505q2 1 11 0t25.5 -2t23.5 -1l105 6l1 -2v-2l-9 -34q-43 -5 -61.5 -17.5t-20.5 -37.5q-3 -28 -11 -172.5t-10 -239.5q-1 -59 6 -77.5t30 -18.5l27 2q0 -1 1 -3l-14 -43q-55 3 -90 3q-19 0 -43.5 -2t-39.5 -4l-15 -2
l9 43q57 7 63 50l21 444h-5q-94 -206 -254 -542z" />
    <glyph glyph-name="N" unicode="N" horiz-adv-x="689" 
d="M520 134h4l52 418q4 43 -27 43h-10.5t-10 -0.5t-8 -0.5h-5.5h-2l-2 4l14 42q57 -4 89 -4q18 0 41.5 2t38.5 4l15 3l-10 -44q-66 -9 -74 -63l-82 -566l-25 -14q-68 138 -141 279t-113 213l-39 72h-4l-60 -441q-3 -22 2.5 -30.5t22.5 -8.5h49l2 -3l-14 -43q-58 4 -100 4
l-89 -8l11 43q59 7 67 63l67 443q4 30 -12.5 43t-64.5 18q0 1 -0.5 2.5t-0.5 2.5l11 34q55 -5 81 -5l62 4q58 -117 124 -243.5t103 -194.5z" />
    <glyph glyph-name="O" unicode="O" horiz-adv-x="665" 
d="M311 35q106 0 176 87.5t70 220.5q0 113 -51.5 181.5t-137.5 68.5q-103 0 -172 -88.5t-69 -219.5q0 -113 50.5 -181.5t133.5 -68.5zM286 -12q-107 0 -174 74t-67 192q0 162 103.5 278t248.5 116q109 0 178 -74.5t69 -191.5q0 -163 -105.5 -278.5t-252.5 -115.5z" />
    <glyph glyph-name="P" unicode="P" horiz-adv-x="528" 
d="M115 598l12 42h3q4 0 10.5 -0.5t15.5 -1t19 -1l20 -1t20 -0.5h17l110 4q91 0 142 -39t51 -112q0 -94 -72 -168.5t-164 -74.5h-92l-23 -154q-4 -28 4.5 -39.5t33.5 -11.5l53 4q0 -1 0.5 -2t0.5 -2l-14 -44q0 3 -85 3q-40 0 -90.5 -3t-52.5 -5l12 43q44 8 59.5 24t20.5 58
l52 425q4 32 -2 43t-27 11l-32 -2zM217 301l100 -15q68 11 104 58t36 125q0 65 -40.5 96t-126.5 31q-19 0 -22 -2t-5 -12q-23 -115 -46 -281z" />
    <glyph glyph-name="Q" unicode="Q" horiz-adv-x="670" 
d="M286 -12q-107 0 -174 74t-67 192q0 162 103.5 278t248.5 116q109 0 178 -74.5t69 -191.5q0 -137 -77.5 -243.5t-195.5 -138.5v-6q94 -74 158 -104.5t122 -30.5q20 0 39.5 2.5t29.5 4.5l9 3l4 -2l3 -15q-78 -66 -96 -66q-70 0 -135 37t-218 165h-1zM311 35q106 0 176 87.5
t70 220.5q0 113 -51.5 181.5t-137.5 68.5q-103 0 -172 -88.5t-69 -219.5q0 -113 50.5 -181.5t133.5 -68.5z" />
    <glyph glyph-name="R" unicode="R" horiz-adv-x="585" 
d="M303 276h-91l-22 -154q-8 -55 2.5 -69t56.5 -14l1 -3l-13 -40q-55 2 -100 3l-109 -3l14 43q46 5 62.5 20t21.5 58l52 424q4 33 -2 44t-27 11l-32 -2l-2 4l12 42q69 -4 105 -4l107 4q82 0 132.5 -37.5t50.5 -99.5q0 -67 -40 -121.5t-117 -88.5l85 -178q24 -48 47.5 -66.5
t62.5 -18.5l3 -3l-9 -32l-81 -11q-24 0 -48 26t-42 69zM221 328l98 -10l30 12q91 53 94 156q0 116 -162 116q-9 0 -13 -4.5t-8 -18.5q-21 -107 -39 -251z" />
    <glyph glyph-name="S" unicode="S" horiz-adv-x="507" 
d="M192 -12q-40 0 -79 8t-58 16l-19 9l-4 10q22 75 34 174l41 5q-13 -112 6 -145t98 -33q66 0 108 34t42 88q0 36 -27 63.5t-79 58.5q-85 50 -110 74q-48 46 -49 100q0 82 67 140t165 58q38 0 76 -6t57 -12l19 -6l2 -5q-24 -77 -41 -169l-36 -4l-5 5q11 44 11 74
q0 41 -23.5 57.5t-81.5 16.5q-57 0 -96.5 -30.5t-39.5 -76.5q0 -50 73 -102q17 -11 50.5 -31t55 -34t45.5 -34t36 -44t12 -52q0 -89 -70 -148t-180 -59z" />
    <glyph glyph-name="T" unicode="T" horiz-adv-x="523" 
d="M218 162l53 440q-46 -2 -66 -3t-44 -7t-31 -11t-18 -22.5t-15 -32t-13 -49.5l-44 -4q22 85 35 168l10 7l76 -11h298l82 11l8 -7q-2 -23 -3.5 -48.5t-2 -45.5t-0.5 -36v-25v-9l-44 -4q-1 35 -1.5 51t-7 33.5t-12.5 22.5t-26.5 11.5t-39.5 7.5t-61 3q-15 -71 -46.5 -276.5
t-31.5 -233.5q0 -27 11 -39t36 -12l55 3l2 -4l-14 -43q-94 3 -140 3l-129 -4l12 40q68 7 85 26t27 100z" />
    <glyph glyph-name="U" unicode="U" horiz-adv-x="655" 
d="M222 546l-44 -294q-3 -27 -3 -50q0 -78 35.5 -119.5t104.5 -41.5q80 0 127.5 44.5t57.5 129.5l35 327q2 35 -3 44.5t-26 9.5l-43 -2v4l11 41q71 -3 107 -3q18 0 41.5 2.5t37.5 5.5l15 2l-10 -43q-43 -5 -56 -15.5t-17 -41.5l-42 -340q-13 -103 -82 -160.5t-182 -57.5
q-90 0 -138 47.5t-47 134.5q0 19 3 40l41 332q4 33 -2 43.5t-28 10.5l-33 -2l-1 4l12 41q70 -3 106 -3q18 0 43.5 2.5t41.5 5.5l16 2l-9 -43q-36 -5 -50 -16.5t-19 -40.5z" />
    <glyph glyph-name="V" unicode="V" horiz-adv-x="584" 
d="M122 538q-10 56 -83 57l-1 4l12 40q77 -3 109 -3q22 0 58.5 3t61.5 6l25 3l2 -7l-9 -37q-58 -4 -74.5 -12.5t-16.5 -31.5q0 -20 16.5 -137t33.5 -223l16 -107h8q14 30 48 98.5t59.5 121.5t53 111t43 94.5t15.5 44.5q0 36 -62 36h-51l-2 4l11 41q73 -8 136 -8l106 4
l-13 -45q-30 -1 -43 -10t-28 -38l-268 -542l-58 -22q-54 287 -105 555z" />
    <glyph glyph-name="W" unicode="W" horiz-adv-x="893" 
d="M592 5l-57 -22l-68 432h-6l-189 -410l-59 -22q-43 288 -92 555q-10 56 -79 57l-2 4l11 40q76 -3 106 -3t65 3t55 6l20 3l2 -7l-7 -37q-57 -4 -73.5 -12.5t-16.5 -32.5q0 -25 16 -141.5t32 -220.5l15 -104h6q27 58 57.5 122t68 141.5t59.5 123.5q-4 10 -11 56
q-12 56 -81 59l-1 4l12 40q75 -3 106 -3q25 0 60 3t57 6l23 3l1 -7l-8 -37q-58 -4 -74 -12.5t-16 -31.5q0 -21 16 -138t32 -223l16 -106h6q12 26 46 97.5t58.5 123.5t52.5 112t43 97t15 45q0 31 -62 31h-48l-2 4l12 41q71 -8 132 -8l101 4l-12 -45q-28 -2 -41 -10.5
t-27 -37.5z" />
    <glyph glyph-name="X" unicode="X" horiz-adv-x="627" 
d="M170 180l123 136l-103 201q-37 72 -122 83v4l9 36q95 -4 137 -4q34 0 66.5 2t47.5 4l16 3l2 -7l-7 -33q-81 -6 -81 -37q0 -23 84 -194q11 14 59 69t72 87.5t24 45.5q0 21 -53 27q0 1 -0.5 2t-0.5 2l9 37q-1 0 18 -2t45 -4t42 -2l92 4l3 -6l-10 -35q-41 -7 -66 -26.5
t-77 -76.5l-137 -154l116 -218q21 -40 49 -59.5t73 -23.5l-11 -44q-74 3 -118 3l-148 -8l-2 7l8 36q81 4 81 39q0 12 -14 42l-83 168l-108 -125q-38 -44 -49.5 -62t-11.5 -33q0 -23 52 -27l2 -3l-12 -41q-68 7 -104 7l-93 -4l-3 7l10 38q42 12 79 43.5t95 95.5z" />
    <glyph glyph-name="Y" unicode="Y" horiz-adv-x="512" 
d="M195 567q0 -16 19.5 -82t38.5 -124.5t19 -56.5h4l139 218q21 32 21 53q0 24 -57 28l-2 4l11 37q-1 0 18 -2t44.5 -4t41.5 -2l89 4l3 -6l-11 -35q-45 -8 -65 -26.5t-63 -82.5q-9 -14 -14 -21l-117 -175q-6 -8 -10 -15.5t-7.5 -18.5t-6 -18t-5 -24.5t-4 -27.5t-5.5 -37
t-6 -43q-5 -40 1 -54.5t32 -14.5l47 3l2 -4l-14 -43q-78 3 -119 3q-21 0 -48.5 -3t-44.5 -6l-16 -3l11 43q51 11 66.5 31.5t21.5 78.5l5 45q6 60 -14 115l-63 182q-2 6 -8 23t-7.5 21t-6 16.5t-7 15.5t-7.5 11t-9 10t-10.5 7t-14 6.5t-16.5 3.5t-21 3l-2 4l11 36
q59 -4 103 -4q24 0 58.5 2t56.5 4l22 3l2 -7l-8 -33q-48 -4 -63 -12t-15 -26z" />
    <glyph glyph-name="Z" unicode="Z" horiz-adv-x="544" 
d="M447 13l-16 -16l-344 6l-69 -6l-8 31l429 568l-170 -6q-66 -1 -98 -31.5t-49 -107.5l-44 -4q28 101 41 192l11 9l167 -11l244 -7l7 -28q-213 -252 -442 -566l199 7q50 1 85.5 41t62.5 126l43 5q-33 -107 -49 -202z" />
    <glyph glyph-name="bracketleft" unicode="[" horiz-adv-x="297" 
d="M224 -137l-175 11q44 276 57 376l36 379l179 11l4 -6l-10 -31l-112 -24l-80 -655l108 -24l3 -7z" />
    <glyph glyph-name="backslash" unicode="\" horiz-adv-x="316" 
d="M89 665l9 10h46l55 -449l48 -328l-7 -8h-49q-20 160 -41 325z" />
    <glyph glyph-name="bracketright" unicode="]" horiz-adv-x="297" 
d="M81 640l175 -11q-44 -276 -57 -376l-36 -379l-180 -11l-3 6l10 31l112 24l80 655l-108 24l-3 7z" />
    <glyph glyph-name="asciicircum" unicode="^" horiz-adv-x="485" 
d="M292 481l10 -8q34 -125 56 -198l58 -188l-43 -30l-11 1q-29 99 -53 181l-46 168h-6l-76 -154l-94 -194l-49 7l-3 9q53 110 102 201l107 203z" />
    <glyph glyph-name="underscore" unicode="_" horiz-adv-x="439" 
d="M403 -81l4 -10l-14 -51q-90 0 -260.5 -1t-177.5 -1l-5 9l17 49h16h41.5t54.5 -0.5t61.5 -0.5h56.5q68 0 131 3q74 2 75 3z" />
    <glyph glyph-name="grave" unicode="`" 
d="M115 660l-1 11l38 41l10 2q78 -94 150 -172l-20 -19l-9 -2q-37 34 -79 68.5t-66 52.5z" />
    <glyph glyph-name="a" unicode="a" horiz-adv-x="461" 
d="M331 64l3 -4q7 0 20 10t59 49l12 -1l13 -24q-112 -106 -140 -106q-36 0 -36 29q0 11 11 63t21 98l11 47l-6 2q-94 -174 -187 -239q-38 0 -59 35.5t-21 100.5q0 123 72.5 229.5t156.5 106.5l100 -16l9 25l5 1l31 -15l8 -12q-57 -193 -83 -379zM131 69q28 0 86.5 89.5
t113.5 214.5q-54 33 -101 33q-49 0 -88.5 -72t-39.5 -161q0 -43 8.5 -73.5t20.5 -30.5z" />
    <glyph glyph-name="b" unicode="b" horiz-adv-x="453" 
d="M57 35q92 574 92 615q0 39 -42 39h-41l6 38l161 6l9 -12q-64 -269 -101 -519l3 -2q49 105 89 166t85 98q45 0 73.5 -43.5t28.5 -113.5q0 -122 -69 -218.5t-156 -96.5q-31 0 -63 6t-48 12l-17 6zM305 381q-23 0 -72.5 -83.5t-111.5 -228.5q63 -23 112 -23q45 0 81.5 65.5
t36.5 147.5q0 48 -14 85t-32 37z" />
    <glyph glyph-name="c" unicode="c" horiz-adv-x="344" 
d="M229 405q-47 0 -86 -69t-39 -153q0 -62 18.5 -99t50.5 -37q30 0 60.5 24.5t48.5 62.5l14 -1l15 -24q-29 -53 -73.5 -87t-87.5 -34q-54 0 -85 44t-31 121t32.5 149.5t85 117t108.5 44.5q54 0 85 -21l5 -11l-34 -67l-14 -3q-31 43 -73 43z" />
    <glyph glyph-name="d" unicode="d" horiz-adv-x="463" 
d="M331 64l3 -4q7 0 18.5 8.5t60.5 50.5l12 -1l13 -24q-113 -106 -140 -106q-36 0 -36 29q0 9 11 61t21 100l11 47l-7 2q-94 -175 -186 -239q-38 0 -59 35.5t-21 100.5q0 123 72.5 229.5t156.5 106.5l72 -12l26 197q3 23 -6.5 33.5t-34.5 10.5h-41l6 38l161 6l9 -12
q-92 -429 -122 -657zM131 69q28 0 85 88.5t112 216.5q-54 32 -98 32q-49 0 -88.5 -72t-39.5 -161q0 -43 8.5 -73.5t20.5 -30.5z" />
    <glyph glyph-name="e" unicode="e" horiz-adv-x="359" 
d="M340 386q0 -63 -55 -108t-183 -88q-4 -64 15.5 -103t54.5 -39q30 0 60 23.5t50 62.5l14 -1l15 -24q-29 -53 -73.5 -87t-87.5 -34q-54 0 -85 44t-31 121q0 115 71.5 213t155.5 98q38 0 58.5 -20.5t20.5 -57.5zM229 406q-39 0 -75.5 -51.5t-47.5 -122.5q87 27 125 57t38 71
q0 46 -40 46z" />
    <glyph glyph-name="f" unicode="f" horiz-adv-x="257" 
d="M37 405l-3 5l4 29l79 12l9 80q11 91 71 151t140 60q59 0 101 -15l4 -11l-31 -63l-19 -3q-56 33 -99 33q-79 0 -93 -114l-15 -120l145 1l4 -3l-8 -40l-136 1l-10 -6l-52 -477q-9 -79 -50 -123t-105 -44q-31 0 -57 13t-33 33q12 46 34 84h14q-1 -37 18.5 -60t51.5 -23
q26 0 47 22.5t25 56.5q5 39 8 102.5t4 70.5l28 340l-7 5z" />
    <glyph glyph-name="g" unicode="g" horiz-adv-x="444" 
d="M166 87q47 0 181 288q-62 31 -101 31q-45 0 -81.5 -65t-36.5 -145q0 -43 11.5 -76t26.5 -33zM153 8q-21 -15 -64.5 -43.5t-66.5 -45.5t-23 -26q0 -26 37.5 -51t76.5 -25q64 0 109 46.5t55 125.5l25 207l-8 2q-46 -85 -75 -124t-66 -66zM339 0q-11 -87 -93.5 -164
t-165.5 -77q-62 0 -112.5 39.5t-47.5 86.5l2 5q55 44 187 122l1 9q-51 30 -51 128q0 112 69.5 211.5t148.5 99.5l102 -16l11 25l5 1l31 -15l8 -9q-70 -130 -79 -208q-4 -36 -9 -128.5t-7 -109.5z" />
    <glyph glyph-name="h" unicode="h" horiz-adv-x="490" 
d="M340 64l3 -4q7 0 20 10t59 49l12 -1l13 -24q-107 -106 -140 -106q-31 0 -31 29t38 153t38 160q0 18 -9.5 29.5t-24.5 11.5q-31 0 -82.5 -75.5t-103.5 -197.5l-11 -84q-1 -5 -25.5 -14t-36.5 -9l-7 9q96 610 96 650q0 39 -42 39h-41l6 38l161 6l9 -12q-64 -269 -101 -519
l5 -3q107 209 203 265q32 0 55.5 -28.5t23.5 -68.5q0 -39 -40.5 -156t-46.5 -147z" />
    <glyph glyph-name="i" unicode="i" horiz-adv-x="264" 
d="M178 592q-20 0 -31 13t-11 31q0 26 18.5 46t45.5 20q19 0 30 -13t11 -31q0 -27 -18 -46.5t-45 -19.5zM130 64l3 -4q12 0 79 59l12 -1l13 -24q-106 -106 -140 -106q-30 0 -30 35q51 308 51 343q0 22 -10 32t-32 10h-41l7 38l162 6l9 -12q-57 -190 -83 -376z" />
    <glyph glyph-name="j" unicode="j" horiz-adv-x="245" 
d="M124 21q-14 -101 -56 -162.5t-116 -99.5l-15 19l3 8q59 42 87 95.5t41 156.5q50 292 50 327q0 43 -44 43h-41l8 38l159 6l10 -12q-65 -261 -86 -419zM175 592q-19 0 -30.5 12t-11.5 32q0 27 19 46.5t45 19.5q19 0 30.5 -12t11.5 -32q0 -27 -19 -46.5t-45 -19.5z" />
    <glyph glyph-name="k" unicode="k" horiz-adv-x="432" 
d="M320 -17l-108 196l4 15q136 69 136 140q0 16 -9.5 26.5t-23.5 10.5q-31 0 -83.5 -76.5t-103.5 -197.5l-11 -83q-1 -5 -25.5 -14t-36.5 -9l-7 9q96 610 96 650q0 39 -42 39h-41l6 38l161 6l9 -12q-64 -269 -101 -519l5 -3q107 209 203 265q32 0 54 -27t22 -65
q0 -95 -154 -186q28 -44 58.5 -85.5t47.5 -60.5l16 -20l2 -12l-61 -32z" />
    <glyph glyph-name="l" unicode="l" horiz-adv-x="250" 
d="M118 64l3 -4q12 0 79 59l12 -1l13 -24q-106 -106 -140 -106q-31 0 -31 29q0 6 47 307.5t47 324.5q0 40 -42 40h-41l6 38l161 6l9 -12q-89 -400 -123 -657z" />
    <glyph glyph-name="m" unicode="m" horiz-adv-x="736" 
d="M585 64l3 -4q7 0 20 9.5t60 49.5l12 -1l13 -24q-110 -106 -142 -106q-31 0 -31 29t41 153.5t41 159.5q0 18 -9.5 29.5t-24.5 11.5q-32 0 -86.5 -81t-109.5 -211l-12 -65q-1 -5 -25.5 -14t-36.5 -9l-7 9q67 293 67 330q0 18 -9.5 29.5t-24.5 11.5q-30 0 -80 -75.5
t-100 -196.5l-11 -85q-1 -5 -25.5 -14t-36.5 -9l-7 9q55 336 55 368q0 21 -10 30.5t-33 9.5h-41l7 38l162 6l9 -12q-42 -121 -61 -238l3 -3q105 209 199 265q32 0 54.5 -27.5t22.5 -65.5q0 -15 -10.5 -57.5t-20.5 -77.5l-10 -34l3 -3q49 97 103.5 166.5t103.5 98.5
q32 0 53 -26.5t21 -66.5q0 -41 -41.5 -161.5t-47.5 -145.5z" />
    <glyph glyph-name="n" unicode="n" horiz-adv-x="502" 
d="M352 64l3 -4q7 0 20 10t59 49l12 -1l13 -24q-106 -106 -140 -106q-31 0 -31 29t38 153t38 160q0 18 -9.5 29.5t-24.5 11.5q-31 0 -82.5 -76t-103.5 -199l-11 -82q-1 -5 -25.5 -14t-36.5 -9l-7 9q55 336 55 368q0 21 -10 30.5t-33 9.5h-41l7 38l162 6l9 -12
q-42 -121 -61 -238l5 -3q107 209 203 265q32 0 54 -27.5t22 -68.5q0 -39 -39 -157.5t-45 -146.5z" />
    <glyph glyph-name="o" unicode="o" horiz-adv-x="406" 
d="M186 43q49 0 81.5 61.5t32.5 155.5q0 67 -21.5 105.5t-59.5 38.5q-49 0 -81 -57.5t-32 -144.5q0 -70 22.5 -114.5t57.5 -44.5zM146 -12q-50 0 -81 45t-31 119q0 123 68.5 217.5t158.5 94.5q53 0 83.5 -39.5t30.5 -109.5q0 -132 -68 -229.5t-161 -97.5z" />
    <glyph glyph-name="p" unicode="p" horiz-adv-x="465" 
d="M-16 -235l6 36q23 2 34 15.5t21 50.5t43 256t33 245q0 21 -10 30.5t-33 9.5h-41l7 38l162 6l9 -12q-40 -114 -62 -235l4 -3q54 111 93 169.5t80 92.5q45 0 73.5 -43.5t28.5 -113.5q0 -113 -68 -214t-144 -101l-95 13l-21 -145q-4 -29 5 -39t37 -10h41l1 -6l-6 -33
q-49 0 -98.5 -2t-74.5 -4zM317 381q-23 0 -73 -84t-108 -222q65 -29 117 -29q40 0 75 67.5t35 145.5q0 48 -14 85t-32 37z" />
    <glyph glyph-name="q" unicode="q" horiz-adv-x="442" 
d="M243 -123l30 174l32 174l-7 2q-93 -174 -171 -239q-41 0 -67 42t-26 109q0 76 33.5 151t86.5 122.5t107 47.5l98 -16l21 52l7 2l33 -11l7 -12q-25 -45 -75 -293.5t-50 -325.5q0 -24 7 -33.5t24 -9.5h41l2 -6l-5 -34q-47 0 -99 -3t-80 -6l-29 -3l6 39q40 5 53 18.5
t21 58.5zM141 69q23 0 73.5 81.5t114.5 223.5q-58 32 -99 32q-49 0 -88.5 -68.5t-39.5 -153.5q0 -46 11.5 -80.5t27.5 -34.5z" />
    <glyph glyph-name="r" unicode="r" horiz-adv-x="346" 
d="M64 0q55 324 55 364q0 24 -9.5 34t-33.5 10h-41l7 38l162 6l9 -12q-35 -108 -54 -207l4 -1q41 94 94.5 161t86.5 67q29 -25 29 -69q0 -13 -5 -35l-8 -3q-11 5 -28 5q-43 0 -93 -62.5t-91 -168.5l-15 -113q-1 -5 -25.5 -14t-36.5 -9z" />
    <glyph glyph-name="s" unicode="s" horiz-adv-x="339" 
d="M43 138h14q0 -104 96 -104q29 0 49.5 19t20.5 45q0 37 -63 91q-26 22 -35 30.5t-27 28.5t-25 38t-7 38q0 56 47 98t109 42q73 0 103 -40q-7 -21 -34 -78h-14q-24 70 -87 70q-24 0 -40.5 -15.5t-16.5 -38.5q0 -28 30 -60q9 -10 48.5 -44t58.5 -61.5t19 -59.5
q0 -58 -50.5 -103.5t-114.5 -45.5q-46 0 -77.5 15t-39.5 41q16 59 36 94z" />
    <glyph glyph-name="t" unicode="t" horiz-adv-x="285" 
d="M242 129l13 -1l12 -24q-105 -116 -151 -116q-30 0 -46 18t-12 49l55 343l-5 4l-69 3l-3 5l4 29l80 13l16 120l90 35l6 -12q-22 -68 -40 -146l122 1l4 -3l-8 -40l-118 1l-11 -6l-61 -307q-5 -35 23 -35q26 0 99 69z" />
    <glyph glyph-name="u" unicode="u" horiz-adv-x="486" 
d="M330 225l-9 3q-89 -171 -182 -240q-40 0 -64 23t-24 61q0 30 37 155t37 145q0 36 -42 36h-41l8 38l162 6l9 -12q-99 -278 -99 -338q0 -35 30 -35q28 0 83 82t112 209l18 95l9 3l58 -9l7 -8q-57 -189 -83 -375l3 -4q7 0 20 10t59 49l12 -1l13 -24q-113 -106 -140 -106
q-36 0 -36 28q0 12 10.5 64t21.5 98z" />
    <glyph glyph-name="v" unicode="v" horiz-adv-x="421" 
d="M206 -11h-58l-15 12q-5 190 -36 361q-4 23 -12.5 31.5t-28.5 8.5l-52 -5l3 38l148 24l11 -10q22 -174 21 -391h9q138 198 138 288q0 24 -12 43.5t-24 27.5l-12 8l4 17l81 22q35 -22 35 -76q0 -107 -200 -399z" />
    <glyph glyph-name="w" unicode="w" horiz-adv-x="643" 
d="M187 58h9q93 136 127 236l-17 143l7 10l56 17q35 -22 35 -76q0 -29 -18 -75l27 -255h9q62 91 98 169t36 120q0 23 -12 42.5t-24 27.5l-12 8l4 17l81 22q35 -24 35 -76q0 -104 -196 -399h-58l-15 12l-21 198h-7q-44 -83 -125 -210h-58l-15 12q-5 183 -36 361
q-4 23 -12.5 31.5t-28.5 8.5l-52 -5l3 38l148 24l11 -10q22 -177 21 -391z" />
    <glyph glyph-name="x" unicode="x" horiz-adv-x="462" 
d="M416 464q42 0 61 -30q-17 -43 -34 -78h-14q-14 55 -41 55q-25 0 -51.5 -38t-67.5 -134q25 -105 38.5 -142t26.5 -37t89 59l12 -1l13 -24q-61 -62 -91.5 -84t-55.5 -22q-20 0 -38 39t-48 149q-44 -101 -85.5 -144.5t-92.5 -43.5q-24 0 -40 10t-17 26q12 47 35 84h14
q-2 -34 6.5 -53.5t25.5 -19.5q51 0 130 191q-31 109 -42.5 137.5t-23.5 28.5q-13 0 -78 -59l-13 1l-12 24q96 106 147 106q19 0 34.5 -35t43.5 -139q42 92 82 133t87 41z" />
    <glyph glyph-name="y" unicode="y" horiz-adv-x="438" 
d="M303 425l4 17l81 22q35 -22 35 -76q0 -95 -180 -367q-93 -138 -159 -201t-118 -63q-29 0 -50.5 10.5t-25.5 26.5q0 21 18 80h14q24 -39 67 -39q40 0 75 26.5t87 95.5q-11 207 -38 405q-4 23 -12.5 31.5t-28.5 8.5l-52 -5l3 38l148 24l11 -10q21 -173 20 -401h10
q139 218 139 298q0 47 -48 79z" />
    <glyph glyph-name="z" unicode="z" horiz-adv-x="398" 
d="M90 320l-39 -6q24 78 34 140l14 10q114 -28 205 -28q18 0 31 15l16 20l44 -7l5 -19q-191 -223 -295 -363l29 7q21 0 70.5 -11t71.5 -11q58 0 73 65l18 -2q8 -26 8 -39q0 -42 -26 -72.5t-62 -30.5q-29 0 -88 22.5t-97 22.5q-42 0 -92 -30l-11 17l284 364l-101 1
q-40 0 -60 -14t-32 -51z" />
    <glyph glyph-name="braceleft" unicode="{" horiz-adv-x="297" 
d="M47 247l7 21q99 28 99 93q0 19 -9.5 74.5t-9.5 81.5q0 55 37.5 93.5t100.5 38.5l55 -6l2 -5l-11 -30q-27 5 -44 5q-34 0 -51 -25t-17 -64q0 -18 3.5 -67t3.5 -69q0 -96 -84 -123l-1 -6q59 -24 59 -90q0 -31 -25.5 -108t-25.5 -101q0 -25 13 -41t39 -16l48 6l3 -6l-11 -28
q-25 -8 -55 -8q-50 0 -78 29.5t-28 73.5q0 35 31.5 106t31.5 92q0 60 -83 79z" />
    <glyph glyph-name="bar" unicode="|" horiz-adv-x="355" 
d="M277 807l10 -6q-48 -344 -68 -510l-67 -549l-59 -11l-8 6q44 360 67 539l64 520z" />
    <glyph glyph-name="braceright" unicode="}" horiz-adv-x="297" 
d="M259 269l-6 -21q-99 -28 -99 -93q0 -19 9.5 -74.5t9.5 -81.5q0 -55 -38 -93.5t-100 -38.5l-55 6l-2 5l11 30q27 -5 43 -5q34 0 51 25t17 64q0 18 -3 67t-3 69q0 96 84 123v6q-58 24 -58 90q0 31 25 108t25 101q0 57 -51 57l-49 -6l-2 6l11 28q25 8 55 8q50 0 78 -29.5
t28 -73.5q0 -35 -31.5 -106t-31.5 -92q0 -59 82 -79z" />
    <glyph glyph-name="asciitilde" unicode="~" horiz-adv-x="486" 
d="M66 202h-6l-19 21v5l85 89l16 4q27 0 115 -21.5t109 -21.5q10 0 27 14t29 28l12 13h6l19 -21v-5l-85 -89l-16 -4q-27 0 -115 21.5t-109 21.5q-10 0 -27 -13.5t-29 -27.5z" />
    <glyph glyph-name="nbspace" unicode="&#xa0;" horiz-adv-x="192" 
 />
    <glyph glyph-name="exclamdown" unicode="&#xa1;" horiz-adv-x="273" 
d="M191 464q23 0 35.5 -14.5t12.5 -35.5q0 -28 -19.5 -48.5t-49.5 -20.5q-23 0 -36 14t-13 36q0 29 19.5 49t50.5 20zM175 242l-47 -456l-9 -10l-84 -18l-8 11l109 474l29 7z" />
    <glyph glyph-name="cent" unicode="&#xa2;" horiz-adv-x="344" 
d="M312 649l-40 -185q45 -3 73 -21l5 -11l-34 -67l-14 -3q-19 26 -44 37l-75 -352q28 5 55.5 28.5t43.5 58.5l14 -1l15 -24q-25 -47 -63.5 -79t-77.5 -40l-30 -141l-27 -3l-4 7l29 136q-49 4 -76.5 48t-27.5 116q0 110 62 203t143 106l41 192l28 4zM104 183q0 -107 47 -131
l76 353q-47 -2 -85 -70.5t-38 -151.5z" />
    <glyph glyph-name="sterling" unicode="&#xa3;" horiz-adv-x="504" 
d="M413 142l17 -2q7 -21 7 -45q0 -45 -25.5 -76t-60.5 -31q-33 0 -114.5 22.5t-119.5 22.5q-43 0 -86 -30l-7 4l-10 34q107 69 119 163l6 48q1 23 -9.5 31t-46.5 10l-3 6l11 34l59 11l2 17q13 107 73.5 172t145.5 65q67 0 97 -15l4 -11l-31 -63l-18 -3q-55 33 -96 33
q-82 0 -101 -124l-12 -78l154 3l3 -3l-17 -53q-74 3 -148 3l-12 -79q-14 -80 -76 -130l54 11q29 0 83.5 -11t76.5 -11q65 0 81 75z" />
    <glyph glyph-name="currency" unicode="&#xa4;" horiz-adv-x="426" 
d="M86 343q0 54 37 101l-59 69l3 12l43 26q27 -34 56 -69q37 24 80 24q42 0 74 -24l75 75l12 -3l23 -40l-76 -69q17 -29 17 -70q0 -47 -33 -94l60 -66l-4 -11l-44 -30l-55 66q-40 -27 -85 -27t-78 27l-73 -67l-10 3l-19 39q2 0 70 62q-14 28 -14 66zM134 349q0 -37 23 -62.5
t59 -25.5q42 0 74.5 32.5t32.5 76.5q0 37 -23.5 62.5t-59.5 25.5q-42 0 -74 -32.5t-32 -76.5z" />
    <glyph glyph-name="yen" unicode="&#xa5;" horiz-adv-x="528" 
d="M215 438q0 -9 8 -33h-1l56 -157l107 159q17 26 17 40q0 15 -48 17v7l9 37h7q7 -1 17.5 -2t22.5 -2t25 -1.5t23 -0.5l77 3l4 -7l-10 -37q-37 -6 -54 -19.5t-48 -57.5l-48 -68l110 2l5 -9l-7 -30h-135l-40 -57q-11 -18 -14 -39l175 4l4 -9l-6 -30h-179q-10 -60 -10 -79
q0 -15 7 -20.5t26 -5.5l38 1l1 -8l-13 -38q-71 2 -107 2q-17 0 -42 -2.5t-42 -5.5l-16 -2l10 43q49 8 59.5 26.5t18.5 88.5q-29 0 -86.5 -0.5t-85.5 -0.5l-4 7l8 29h169q-3 29 -13 53l-18 43q-21 0 -63.5 -0.5t-62.5 -0.5l-4 7l8 29h107q-6 16 -15.5 42t-14 37t-13.5 27
t-17.5 22t-23 11.5t-33.5 6.5v9q3 12 11 36q56 -3 93 -3q20 0 49.5 2t48.5 4l20 1l3 -10l-7 -34q-38 -4 -50.5 -10t-12.5 -17z" />
    <glyph glyph-name="brokenbar" unicode="&#xa6;" horiz-adv-x="355" 
d="M137 166l64 12l3 -3l-52 -433l-60 -11l-8 6zM229 376l-62 -9l-4 3q36 284 53 426l61 11l10 -6q-35 -249 -58 -425z" />
    <glyph glyph-name="section" unicode="&#xa7;" horiz-adv-x="490" 
d="M48 334q0 48 35 95t95 82q8 56 55 97t105 41q37 0 64 -14t27 -33q0 -14 -10.5 -43t-18.5 -37h-14q-9 34 -33.5 56t-53.5 22q-25 0 -43 -20.5t-18 -50.5q0 -31 22.5 -61t55 -56t64.5 -53t54.5 -62.5t22.5 -74.5q0 -53 -38 -105.5t-95 -81.5q-8 -49 -61.5 -94.5
t-116.5 -45.5q-46 0 -75 21t-29 53q0 18 9 50t17 41h15q3 -53 29.5 -85.5t68.5 -32.5q33 0 57.5 23.5t24.5 57.5q0 31 -22 60.5t-53.5 55.5t-63.5 53t-54 64t-22 78zM109 375q0 -29 20.5 -59.5t51 -57.5t61 -54.5t54.5 -61.5t29 -68q69 43 69 106q0 27 -20.5 56.5t-51 57
t-61 55.5t-54.5 61.5t-29 65.5q-69 -41 -69 -101z" />
    <glyph glyph-name="dieresis" unicode="&#xa8;" 
d="M309 566q-17 0 -26.5 11.5t-9.5 26.5q0 22 16.5 38.5t39.5 16.5q17 0 26 -11t9 -27q0 -22 -16 -38.5t-39 -16.5zM149 566q-17 0 -26.5 11.5t-9.5 26.5q0 22 16.5 38.5t39.5 16.5q17 0 26 -11t9 -27q0 -22 -16 -38.5t-39 -16.5z" />
    <glyph glyph-name="copyright" unicode="&#xa9;" horiz-adv-x="665" 
d="M47 261q0 136 100 236.5t232 100.5q111 0 184 -79t73 -194q0 -136 -100 -236.5t-232 -100.5q-111 0 -184 79t-73 194zM88 265q0 -100 63 -168.5t158 -68.5q113 0 199.5 87.5t86.5 205.5q0 100 -63 168.5t-158 68.5q-113 0 -199.5 -87.5t-86.5 -205.5zM342 125
q-65 0 -103.5 37.5t-38.5 100.5q0 88 56 145t143 57q19 0 43 -3t38 -6l15 -3l2 -4q-15 -40 -24 -88l-30 -3q4 22 4 32q0 41 -66 41q-57 0 -91 -42t-34 -113q0 -56 25 -88.5t70 -32.5q66 0 94 80l30 2q-16 -49 -24 -86l-4 -5q-42 -21 -105 -21z" />
    <glyph glyph-name="ordfeminine" unicode="&#xaa;" horiz-adv-x="324" 
d="M244 407l2 -2q6 0 46 34l10 -1l9 -19q-75 -76 -101 -76t-26 22q0 4 24 116l-4 1q-58 -102 -110 -139q-30 0 -47 23.5t-17 66.5q0 77 48 143.5t103 66.5l59 -11l5 15l6 3l37 -9l5 -10q-33 -116 -49 -224zM110 407q16 0 49 51.5t62 121.5q-31 20 -60 20q-25 0 -46 -41.5
t-21 -91.5q0 -60 16 -60z" />
    <glyph glyph-name="guillemotleft" unicode="&#xab;" horiz-adv-x="411" 
d="M387 400l20 -15v-10l-120 -149l83 -155l-3 -10l-24 -15l-144 166l2 15zM227 400l20 -15v-10l-120 -149l83 -155l-3 -10l-24 -15l-144 166l2 15z" />
    <glyph glyph-name="logicalnot" unicode="&#xac;" horiz-adv-x="486" 
d="M443 297l5 -10q-15 -63 -21 -110l-16 -136l-51 -11l-8 6q15 112 26 200l-133 -1l-220 -1l-5 9l17 49q143 -1 229 -1z" />
    <glyph glyph-name="registered" unicode="&#xae;" horiz-adv-x="449" 
d="M62 485q0 92 67 159t156 67q74 0 123 -52.5t49 -129.5q0 -92 -66.5 -159t-155.5 -67q-74 0 -123.5 53t-49.5 129zM97 489q0 -64 40.5 -107.5t101.5 -43.5q73 0 128.5 55.5t55.5 131.5q0 64 -40.5 107.5t-101.5 43.5q-73 0 -128.5 -55.5t-55.5 -131.5zM158 411l4 21
q16 1 21 8t8 30l13 111q1 11 -0.5 14.5t-8.5 3.5h-10l-2 4l5 17h8q8 0 18 -0.5t15 -0.5h11l30 2q34 0 53 -13t19 -36q0 -45 -54 -69l22 -43q17 -32 35 -32l3 -4q-1 -12 -9.5 -14.5t-30.5 -2.5q-19 0 -32 32l-20 55h-24q-7 -33 -7 -46q0 -9 4.5 -12t16.5 -3l2 -4l-4 -17
q-18 1 -31 1h-12zM246 589l-10 -69q3 0 7.5 -0.5t10.5 -1.5t9 -1q35 13 35 47q0 33 -45 33q-6 0 -7 -8z" />
    <glyph glyph-name="macron" unicode="&#xaf;" 
d="M383 653l4 -10l-13 -47l-136 -1l-138 -1l-5 9l15 45q91 -1 148 -1z" />
    <glyph glyph-name="degree" unicode="&#xb0;" horiz-adv-x="290" 
d="M60 510q0 57 41.5 98t96.5 41q46 0 76 -32.5t30 -80.5q0 -56 -41 -97.5t-96 -41.5q-46 0 -76.5 32.5t-30.5 80.5zM102 514q0 -31 21.5 -53t52.5 -22q35 0 61 27.5t26 65.5q0 31 -22 53t-53 22q-35 0 -60.5 -27.5t-25.5 -65.5z" />
    <glyph glyph-name="plusminus" unicode="&#xb1;" horiz-adv-x="486" 
d="M299 503l9 -6q-20 -113 -30 -193l196 6l4 -10l-14 -51q-32 0 -96.5 -0.5t-95.5 -0.5l-22 -184l-51 -11l-8 6q14 103 24 189l-189 -1l-4 9l16 49q101 -1 184 -1l25 191zM434 -12l4 -10l-14 -51q-90 0 -260 -1t-177 -1l-4 9l16 49h16q16 0 41.5 -0.5t54.5 -0.5h61h56
q68 0 131 3q75 2 75 3z" />
    <glyph glyph-name="two.sups" unicode="&#xb2;" horiz-adv-x="318" 
d="M16 344l-4 25l77 77q113 125 113 185q0 38 -44 38q-52 0 -95 -62h-8l-4 41q24 35 60 57.5t70 22.5q43 0 70 -21t27 -56q0 -38 -35.5 -90.5t-130.5 -153.5l2 -5h76q31 0 44.5 11t25.5 46l39 4q-22 -62 -32 -111l-9 -6q-145 5 -201 5z" />
    <glyph glyph-name="three.sups" unicode="&#xb3;" horiz-adv-x="284" 
d="M23 400l7 7q26 -8 50 -8q42 0 70.5 20.5t28.5 51.5q0 52 -91 52l-5 5v32l42 9q25 12 41.5 32t16.5 40q0 16 -10 25.5t-26 9.5q-37 0 -73 -28h-7l-6 37q74 43 112 43q36 0 59 -18.5t23 -48.5q0 -28 -21.5 -54t-57.5 -42l-1 -5q74 -22 74 -79q0 -49 -61 -93.5t-127 -44.5
q-24 0 -32.5 13t-5.5 44z" />
    <glyph glyph-name="acute" unicode="&#xb4;" 
d="M366 672l-1 -11q-84 -64 -168 -140l-9 2l-20 19q32 35 69.5 78t58.5 69l22 26l10 -2z" />
    <glyph glyph-name="mu" unicode="&#xb5;" horiz-adv-x="500" 
d="M96 445l89 19l4 -12q-13 -28 -38 -160.5t-25 -156.5q0 -78 69 -78q14 0 30.5 6t30.5 14t26 16t19 14l7 6l28 233l5 93l5 7l88 18l5 -12q-11 -21 -38 -171.5t-27 -183.5q0 -38 34 -38q13 0 28 6.5t24 12.5l8 6l12 -16q-7 -9 -18 -22.5t-36.5 -35.5t-40.5 -22
q-38 0 -58.5 19.5t-18.5 57.5l-5 2q-88 -69 -132 -79q-40 0 -68 26l-5 -3l-15 -89q-4 -23 -6.5 -58.5t-2.5 -59.5v-24l-6 -7l-68 -15l-5 12q28 142 51 303l38 255q3 23 4.5 50.5t1.5 43.5v16z" />
    <glyph glyph-name="mu" unicode="&#x3bc;" horiz-adv-x="500" 
d="M96 445l89 19l4 -12q-13 -28 -38 -160.5t-25 -156.5q0 -78 69 -78q14 0 30.5 6t30.5 14t26 16t19 14l7 6l28 233l5 93l5 7l88 18l5 -12q-11 -21 -38 -171.5t-27 -183.5q0 -38 34 -38q13 0 28 6.5t24 12.5l8 6l12 -16q-7 -9 -18 -22.5t-36.5 -35.5t-40.5 -22
q-38 0 -58.5 19.5t-18.5 57.5l-5 2q-88 -69 -132 -79q-40 0 -68 26l-5 -3l-15 -89q-4 -23 -6.5 -58.5t-2.5 -59.5v-24l-6 -7l-68 -15l-5 12q28 142 51 303l38 255q3 23 4.5 50.5t1.5 43.5v16z" />
    <glyph glyph-name="paragraph" unicode="&#xb6;" horiz-adv-x="539" 
d="M316 134l55 444q0 10 -3.5 12t-21.5 2q-56 0 -85.5 -54t-29.5 -145q0 -92 44 -166l-2 -15q-91 8 -149.5 60t-58.5 145q0 94 64.5 159t164.5 65q27 0 71 -2t54 -2l121 3l-11 -42l-2 -4q-42 2 -59 -7.5t-22 -37.5q-17 -62 -60 -395q-8 -66 -20.5 -110t-35.5 -80t-61 -52.5
t-93 -16.5q-50 0 -84 21.5t-34 63.5q0 22 14.5 50t33.5 48h15q-8 -66 12.5 -101t62.5 -35q58 0 82.5 41.5t37.5 150.5z" />
    <glyph glyph-name="periodcentered" unicode="&#xb7;" horiz-adv-x="229" 
d="M105 168q-24 0 -36 14.5t-12 35.5q0 28 19.5 48.5t48.5 20.5q24 0 37 -14t13 -36q0 -28 -20 -48.5t-50 -20.5z" />
    <glyph glyph-name="cedilla" unicode="&#xb8;" horiz-adv-x="383" 
d="M107 -85l45 108h42l-33 -73q3 -2 14.5 -11t17 -13.5t14.5 -13t13.5 -15t8.5 -15.5t4 -17q0 -38 -42 -68t-86 -30q-23 0 -42.5 9.5t-19.5 24.5q0 16 32 58h8q-2 -27 10.5 -42t35.5 -15q21 0 36 11.5t15 28.5q0 26 -73 73z" />
    <glyph glyph-name="one.sups" unicode="&#xb9;" horiz-adv-x="240" 
d="M184 662q-9 -46 -22 -137.5t-13 -109.5q0 -29 24 -29l32 2l1 -3l-11 -36q-55 2 -86 2l-90 -7l9 35q30 2 44 13t17 38l26 209q2 22 -4 28.5t-24 6.5l-32 -3l-2 3l7 32q48 6 72 10l78 12l4 -15q-23 -19 -30 -51z" />
    <glyph glyph-name="ordmasculine" unicode="&#xba;" horiz-adv-x="291" 
d="M141 387q28 0 45 35t17 93q0 84 -44 84q-27 0 -44.5 -34t-17.5 -87q0 -42 12 -66.5t32 -24.5zM116 343q-38 0 -60.5 29.5t-22.5 80.5q0 80 44.5 137t107.5 57q40 0 62 -26.5t22 -74.5q0 -85 -44.5 -144t-108.5 -59z" />
    <glyph glyph-name="guillemotright" unicode="&#xbb;" horiz-adv-x="411" 
d="M228 46l-21 15l1 10l119 149l-82 155l2 10l24 15l145 -166l-2 -15zM68 46l-21 15l1 10l119 149l-82 155l2 10l24 15l145 -166l-2 -15z" />
    <glyph glyph-name="onequarter" unicode="&#xbc;" horiz-adv-x="685" 
d="M556 659l5 -14q-174 -259 -262 -400l-215 -340l-38 19l-5 12q131 199 220 339l256 403zM184 578q-9 -46 -22 -137.5t-13 -109.5q0 -29 24 -29l32 2l1 -3l-11 -36q-55 2 -86 2l-90 -7l9 35q30 2 44 13t17 38l26 209q2 22 -4 28.5t-24 6.5l-32 -3l-2 3l7 32q48 6 72 10
l78 12l4 -15q-23 -19 -30 -51zM384 107l6 34l192 235l4 1l39 -6l-25 -219h52l4 -7l-11 -44l-51 2l-8 -97l-5 -6l-62 -7l-4 6q11 58 17 105zM547 277l-100 -125h91l15 125h-6z" />
    <glyph glyph-name="onehalf" unicode="&#xbd;" horiz-adv-x="713" 
d="M556 659l5 -14q-174 -259 -262 -400l-215 -340l-38 19l-5 12q131 199 220 339l256 403zM184 578q-9 -46 -22 -137.5t-13 -109.5q0 -29 24 -29l32 2l1 -3l-11 -36q-55 2 -86 2l-90 -7l9 35q30 2 44 13t17 38l26 209q2 22 -4 28.5t-24 6.5l-32 -3l-2 3l7 32q48 6 72 10
l78 12l4 -15q-23 -19 -30 -51zM400 -7l-4 25l77 77q113 125 113 185q0 38 -44 38q-52 0 -95 -62h-8l-4 41q24 35 60 57.5t70 22.5q43 0 70 -21t27 -56q0 -38 -35.5 -90.5t-130.5 -153.5l2 -5h76q31 0 44.5 11t25.5 46l39 4q-22 -62 -32 -111l-9 -6q-145 5 -201 5z" />
    <glyph glyph-name="threequarters" unicode="&#xbe;" horiz-adv-x="689" 
d="M560 659l5 -14q-174 -259 -262 -400l-215 -340l-38 19l-5 12q131 199 220 339l256 403zM388 107l6 34l192 235l4 1l39 -6l-25 -219h52l4 -7l-11 -44l-51 2l-8 -97l-5 -6l-62 -7l-4 6q11 58 17 105zM551 277l-100 -125h91l15 125h-6zM23 316l7 7q26 -8 50 -8
q42 0 70.5 20.5t28.5 51.5q0 52 -91 52l-5 5v32l42 9q25 12 41.5 32t16.5 40q0 16 -10 25.5t-26 9.5q-37 0 -73 -28h-7l-6 37q74 43 112 43q36 0 59 -18.5t23 -48.5q0 -28 -21.5 -54t-57.5 -42l-1 -5q74 -22 74 -79q0 -49 -61 -93.5t-127 -44.5q-24 0 -32.5 13t-5.5 44z" />
    <glyph glyph-name="questiondown" unicode="&#xbf;" horiz-adv-x="346" 
d="M247 249l8 -120l-5 -14l-123 -76q-66 -43 -66 -98q0 -103 179 -115l1 -11l-38 -53l-14 -4q-84 3 -141 46t-57 106q0 35 9.5 62t32 49.5t39 35.5t53 35t51.5 32l4 9l-8 95l4 8l62 17zM238 464q24 0 36.5 -14.5t12.5 -35.5q0 -28 -20 -48.5t-49 -20.5q-24 0 -36.5 14
t-12.5 36q0 28 19.5 48.5t49.5 20.5z" />
    <glyph glyph-name="Agrave" unicode="&#xc0;" horiz-adv-x="558" 
d="M456 111q7 -38 24.5 -52.5t59.5 -19.5l2 -3l-11 -39q-69 3 -101 3t-68 -2.5t-56 -5.5l-19 -2l-2 7l8 36q55 4 73.5 14t18.5 36q0 12 -4 38l-18 113q-24 1 -100 1q-43 0 -107 -8l-49 -108q-14 -29 -14 -46q0 -36 53 -36h56v-3l-10 -41q-68 7 -132 7l-105 -3l13 45
q29 3 47.5 19.5t38.5 58.5l248 511l56 17l8 1q44 -307 90 -538zM304 544l-125 -273h85q47 0 91 6l-44 267h-7zM209 777l-4 10l16 48l9 6q105 -60 199 -109l-6 -24l-8 -5z" />
    <glyph glyph-name="Aacute" unicode="&#xc1;" horiz-adv-x="558" 
d="M456 111q7 -38 24.5 -52.5t59.5 -19.5l2 -3l-11 -39q-69 3 -101 3t-68 -2.5t-56 -5.5l-19 -2l-2 7l8 36q55 4 73.5 14t18.5 36q0 12 -4 38l-18 113q-24 1 -100 1q-43 0 -107 -8l-49 -108q-14 -29 -14 -46q0 -36 53 -36h56v-3l-10 -41q-68 7 -132 7l-105 -3l13 45
q29 3 47.5 19.5t38.5 58.5l248 511l56 17l8 1q44 -307 90 -538zM304 544l-125 -273h85q47 0 91 6l-44 267h-7zM512 787l-4 -10q-101 -34 -206 -74l-8 5l-6 24l199 109l9 -6z" />
    <glyph glyph-name="Acircumflex" unicode="&#xc2;" horiz-adv-x="558" 
d="M456 111q7 -38 24.5 -52.5t59.5 -19.5l2 -3l-11 -39q-69 3 -101 3t-68 -2.5t-56 -5.5l-19 -2l-2 7l8 36q55 4 73.5 14t18.5 36q0 12 -4 38l-18 113q-24 1 -100 1q-43 0 -107 -8l-49 -108q-14 -29 -14 -46q0 -36 53 -36h56v-3l-10 -41q-68 7 -132 7l-105 -3l13 45
q29 3 47.5 19.5t38.5 58.5l248 511l56 17l8 1q44 -307 90 -538zM304 544l-125 -273h85q47 0 91 6l-44 267h-7zM221 713l-11 22l147 111h14l120 -111l-17 -22l-9 -1l-110 65l-125 -65z" />
    <glyph glyph-name="Atilde" unicode="&#xc3;" horiz-adv-x="558" 
d="M456 111q7 -38 24.5 -52.5t59.5 -19.5l2 -3l-11 -39q-69 3 -101 3t-68 -2.5t-56 -5.5l-19 -2l-2 7l8 36q55 4 73.5 14t18.5 36q0 12 -4 38l-18 113q-24 1 -100 1q-43 0 -107 -8l-49 -108q-14 -29 -14 -46q0 -36 53 -36h56v-3l-10 -41q-68 7 -132 7l-105 -3l13 45
q29 3 47.5 19.5t38.5 58.5l248 511l56 17l8 1q44 -307 90 -538zM304 544l-125 -273h85q47 0 91 6l-44 267h-7zM217 699h-6l-20 21l1 5l83 79l15 4q17 0 70.5 -16.5t66.5 -16.5q10 0 26.5 11.5t28.5 22.5l11 11h6l19 -21v-5l-83 -79l-16 -4q-17 0 -70 16.5t-66 16.5
q-10 0 -26.5 -11t-28.5 -23z" />
    <glyph glyph-name="Adieresis" unicode="&#xc4;" horiz-adv-x="558" 
d="M456 111q7 -38 24.5 -52.5t59.5 -19.5l2 -3l-11 -39q-69 3 -101 3t-68 -2.5t-56 -5.5l-19 -2l-2 7l8 36q55 4 73.5 14t18.5 36q0 12 -4 38l-18 113q-24 1 -100 1q-43 0 -107 -8l-49 -108q-14 -29 -14 -46q0 -36 53 -36h56v-3l-10 -41q-68 7 -132 7l-105 -3l13 45
q29 3 47.5 19.5t38.5 58.5l248 511l56 17l8 1q44 -307 90 -538zM304 544l-125 -273h85q47 0 91 6l-44 267h-7zM424 725q-17 0 -26 11t-9 27q0 22 16.5 38.5t38.5 16.5q17 0 26.5 -11t9.5 -27q0 -22 -16.5 -38.5t-39.5 -16.5zM264 725q-17 0 -26 11t-9 27q0 22 16 38.5
t39 16.5q17 0 26.5 -11t9.5 -27q0 -22 -16.5 -38.5t-39.5 -16.5z" />
    <glyph glyph-name="Aring" unicode="&#xc5;" horiz-adv-x="558" 
d="M456 111q7 -38 24.5 -52.5t59.5 -19.5l2 -3l-11 -39q-69 3 -101 3t-68 -2.5t-56 -5.5l-19 -2l-2 7l8 36q55 4 73.5 14t18.5 36q0 12 -4 38l-18 113q-24 1 -100 1q-43 0 -107 -8l-49 -108q-14 -29 -14 -46q0 -36 53 -36h56v-3l-10 -41q-68 7 -132 7l-105 -3l13 45
q29 3 47.5 19.5t38.5 58.5l248 511l56 17l8 1q44 -307 90 -538zM304 544l-125 -273h85q47 0 91 6l-44 267h-7zM349 712q48 0 48 45q0 42 -44 42q-22 0 -34.5 -12t-12.5 -33t13.5 -31.5t29.5 -10.5zM338 674q-31 0 -48 18.5t-17 49.5q0 41 26.5 68.5t66.5 27.5q34 0 50 -19
t16 -47q0 -39 -26.5 -68.5t-67.5 -29.5z" />
    <glyph glyph-name="AE" unicode="&#xc6;" horiz-adv-x="778" 
d="M266 35q47 3 74 25t27 57v36l-2 124l-96 -8l-89 -9l-84 -140q-21 -35 -21 -51q0 -17 11 -23.5t38 -6.5h54l-11 -46q-71 7 -132 7l-66 -4l-2 34q36 35 71 91l291 458q-3 16 -22 16l-33 -2l-2 4l13 43q0 -3 153 -3q212 0 288 12l2 -6q-25 -73 -42 -165l-47 -4q9 38 9 63
q0 33 -26.5 42t-119.5 9q-43 0 -56 -6.5t-13 -24.5l2 -230l116 11l90 13l4 -5l-19 -52l-83 -2l-108 -9l6 -171q1 -37 17.5 -52.5t56.5 -15.5q45 0 70 2.5t45.5 8.5t32 21t20 34.5t17.5 55.5l44 5l3 -5q-28 -83 -47 -167l-5 -6q1 1 -50.5 2.5t-122.5 3t-118 1.5
q-33 0 -68.5 -2.5t-55.5 -5.5l-19 -2l-1 7zM213 310l80 5l71 6l-1 219h-9z" />
    <glyph glyph-name="Ccedilla" unicode="&#xc7;" horiz-adv-x="603" 
d="M254 -85l30 74q-109 7 -174 78t-65 186q0 168 107 281.5t265 113.5q35 0 78.5 -6t68.5 -12l26 -5l3 -6q-28 -74 -45 -164l-43 -4q9 39 9 59q0 84 -131 84q-111 0 -181 -86.5t-70 -225.5q0 -114 51 -181.5t139 -67.5q130 0 186 160l43 4q-31 -90 -46 -160l-6 -9
q-69 -35 -174 -39l-17 -39q3 -2 14.5 -11t17 -13.5t14.5 -13t13.5 -15t8.5 -15.5t4 -17q0 -38 -42 -68t-86 -30q-23 0 -42.5 9.5t-19.5 24.5q0 16 32 58h8q-2 -27 10.5 -42t35.5 -15q21 0 36 11.5t15 28.5q0 26 -73 73z" />
    <glyph glyph-name="Egrave" unicode="&#xc8;" horiz-adv-x="568" 
d="M185 80q0 -25 14 -32t58 -7q62 0 93 3t54.5 17.5t33 36t21.5 66.5l41 5l2 -5q-28 -82 -47 -166l-5 -5q-199 7 -289 7q-32 0 -65 -2.5t-50 -5.5l-17 -2l11 43q44 6 62 23.5t23 60.5l53 425q4 33 -1.5 43.5t-27.5 10.5l-33 -2l-1 3l11 42q74 -3 131 -3q204 0 289 12l2 -5
q-25 -72 -42 -164l-44 -4q9 39 9 65q0 33 -25.5 41.5t-116.5 8.5q-48 0 -58.5 -5.5t-14.5 -33.5l-31 -199q10 0 46.5 -0.5t52.5 -0.5l118 11l3 -4l-20 -56q-82 3 -135 3q-37 0 -74 -7q-6 -41 -14.5 -94.5t-12.5 -81t-4 -42.5zM224 777l-4 10l16 48l9 6q105 -60 199 -109
l-6 -24l-8 -5z" />
    <glyph glyph-name="Eacute" unicode="&#xc9;" horiz-adv-x="568" 
d="M185 80q0 -25 14 -32t58 -7q62 0 93 3t54.5 17.5t33 36t21.5 66.5l41 5l2 -5q-28 -82 -47 -166l-5 -5q-199 7 -289 7q-32 0 -65 -2.5t-50 -5.5l-17 -2l11 43q44 6 62 23.5t23 60.5l53 425q4 33 -1.5 43.5t-27.5 10.5l-33 -2l-1 3l11 42q74 -3 131 -3q204 0 289 12l2 -5
q-25 -72 -42 -164l-44 -4q9 39 9 65q0 33 -25.5 41.5t-116.5 8.5q-48 0 -58.5 -5.5t-14.5 -33.5l-31 -199q10 0 46.5 -0.5t52.5 -0.5l118 11l3 -4l-20 -56q-82 3 -135 3q-37 0 -74 -7q-6 -41 -14.5 -94.5t-12.5 -81t-4 -42.5zM485 787l-4 -10q-101 -34 -206 -74l-8 5l-6 24
l199 109l9 -6z" />
    <glyph glyph-name="Ecircumflex" unicode="&#xca;" horiz-adv-x="568" 
d="M185 80q0 -25 14 -32t58 -7q62 0 93 3t54.5 17.5t33 36t21.5 66.5l41 5l2 -5q-28 -82 -47 -166l-5 -5q-199 7 -289 7q-32 0 -65 -2.5t-50 -5.5l-17 -2l11 43q44 6 62 23.5t23 60.5l53 425q4 33 -1.5 43.5t-27.5 10.5l-33 -2l-1 3l11 42q74 -3 131 -3q204 0 289 12l2 -5
q-25 -72 -42 -164l-44 -4q9 39 9 65q0 33 -25.5 41.5t-116.5 8.5q-48 0 -58.5 -5.5t-14.5 -33.5l-31 -199q10 0 46.5 -0.5t52.5 -0.5l118 11l3 -4l-20 -56q-82 3 -135 3q-37 0 -74 -7q-6 -41 -14.5 -94.5t-12.5 -81t-4 -42.5zM236 713l-11 22l147 111h14l120 -111l-17 -22
l-9 -1l-110 65l-125 -65z" />
    <glyph glyph-name="Edieresis" unicode="&#xcb;" horiz-adv-x="568" 
d="M185 80q0 -25 14 -32t58 -7q62 0 93 3t54.5 17.5t33 36t21.5 66.5l41 5l2 -5q-28 -82 -47 -166l-5 -5q-199 7 -289 7q-32 0 -65 -2.5t-50 -5.5l-17 -2l11 43q44 6 62 23.5t23 60.5l53 425q4 33 -1.5 43.5t-27.5 10.5l-33 -2l-1 3l11 42q74 -3 131 -3q204 0 289 12l2 -5
q-25 -72 -42 -164l-44 -4q9 39 9 65q0 33 -25.5 41.5t-116.5 8.5q-48 0 -58.5 -5.5t-14.5 -33.5l-31 -199q10 0 46.5 -0.5t52.5 -0.5l118 11l3 -4l-20 -56q-82 3 -135 3q-37 0 -74 -7q-6 -41 -14.5 -94.5t-12.5 -81t-4 -42.5zM439 725q-17 0 -26 11t-9 27q0 22 16.5 38.5
t38.5 16.5q17 0 26.5 -11t9.5 -27q0 -22 -16.5 -38.5t-39.5 -16.5zM279 725q-17 0 -26 11t-9 27q0 22 16 38.5t39 16.5q17 0 26.5 -11t9.5 -27q0 -22 -16.5 -38.5t-39.5 -16.5z" />
    <glyph glyph-name="Igrave" unicode="&#xcc;" horiz-adv-x="347" 
d="M256 546q-70 -406 -70 -461q0 -24 8.5 -33.5t28.5 -9.5l51 3l2 -4l-14 -44q-79 3 -125 3q-21 0 -49 -3t-45 -6l-17 -3l12 43q46 9 64.5 27t23.5 60l52 424q4 32 -2 43t-27 11l-41 -2v1q-1 1 -1 2l12 43h4q4 0 11 -0.5t16.5 -1t20.5 -1t21.5 -1t21 -0.5h18.5
q20 0 47.5 2.5t44.5 5.5l18 2l-10 -43q-41 -5 -56.5 -17t-19.5 -40zM98 777l-4 10l16 48l9 6q105 -60 199 -109l-6 -24l-8 -5z" />
    <glyph glyph-name="Iacute" unicode="&#xcd;" horiz-adv-x="347" 
d="M256 546q-70 -406 -70 -461q0 -24 8.5 -33.5t28.5 -9.5l51 3l2 -4l-14 -44q-79 3 -125 3q-21 0 -49 -3t-45 -6l-17 -3l12 43q46 9 64.5 27t23.5 60l52 424q4 32 -2 43t-27 11l-41 -2v1q-1 1 -1 2l12 43h4q4 0 11 -0.5t16.5 -1t20.5 -1t21.5 -1t21 -0.5h18.5
q20 0 47.5 2.5t44.5 5.5l18 2l-10 -43q-41 -5 -56.5 -17t-19.5 -40zM391 787l-4 -10q-101 -34 -206 -74l-8 5l-6 24l199 109l9 -6z" />
    <glyph glyph-name="Icircumflex" unicode="&#xce;" horiz-adv-x="347" 
d="M256 546q-70 -406 -70 -461q0 -24 8.5 -33.5t28.5 -9.5l51 3l2 -4l-14 -44q-79 3 -125 3q-21 0 -49 -3t-45 -6l-17 -3l12 43q46 9 64.5 27t23.5 60l52 424q4 32 -2 43t-27 11l-41 -2v1q-1 1 -1 2l12 43h4q4 0 11 -0.5t16.5 -1t20.5 -1t21.5 -1t21 -0.5h18.5
q20 0 47.5 2.5t44.5 5.5l18 2l-10 -43q-41 -5 -56.5 -17t-19.5 -40zM110 713l-11 22l147 111h14l120 -111l-17 -22l-9 -1l-110 65l-125 -65z" />
    <glyph glyph-name="Idieresis" unicode="&#xcf;" horiz-adv-x="347" 
d="M256 546q-70 -406 -70 -461q0 -24 8.5 -33.5t28.5 -9.5l51 3l2 -4l-14 -44q-79 3 -125 3q-21 0 -49 -3t-45 -6l-17 -3l12 43q46 9 64.5 27t23.5 60l52 424q4 32 -2 43t-27 11l-41 -2v1q-1 1 -1 2l12 43h4q4 0 11 -0.5t16.5 -1t20.5 -1t21.5 -1t21 -0.5h18.5
q20 0 47.5 2.5t44.5 5.5l18 2l-10 -43q-41 -5 -56.5 -17t-19.5 -40zM313 725q-17 0 -26 11t-9 27q0 22 16.5 38.5t38.5 16.5q17 0 26.5 -11t9.5 -27q0 -22 -16.5 -38.5t-39.5 -16.5zM153 725q-17 0 -26 11t-9 27q0 22 16 38.5t39 16.5q17 0 26.5 -11t9.5 -27
q0 -22 -16.5 -38.5t-39.5 -16.5z" />
    <glyph glyph-name="Eth" unicode="&#xd0;" horiz-adv-x="684" 
d="M296 -12q-98 12 -146 12q-21 0 -49 -3t-45 -6l-18 -3l11 43q46 9 64 26.5t23 59.5l23 187h-133l-6 7l11 32h133l24 199q4 32 -1.5 43t-26.5 11l-34 -2l-1 4l11 41q63 -3 100 -3l136 4q129 0 210 -73.5t81 -190.5q0 -104 -49.5 -193.5t-134 -142t-183.5 -52.5zM308 596
q-20 0 -27 -4.5t-9 -17.5l-38 -231h162l4 -7l-10 -32h-162q-27 -173 -27 -197q0 -42 24.5 -57t89.5 -15q118 0 190 89t72 232q0 115 -69 177.5t-200 62.5z" />
    <glyph glyph-name="Ntilde" unicode="&#xd1;" horiz-adv-x="691" 
d="M520 134h4l52 418q4 43 -27 43h-10.5t-10 -0.5t-8 -0.5h-5.5h-2l-2 4l14 42q57 -4 89 -4q18 0 41.5 2t38.5 4l15 3l-10 -44q-66 -9 -74 -63l-82 -566l-25 -14q-68 138 -141 279t-113 213l-39 72h-4l-60 -441q-3 -22 2.5 -30.5t22.5 -8.5h49l2 -3l-14 -43q-58 4 -100 4
l-89 -8l11 43q59 7 67 63l67 443q4 30 -12.5 43t-64.5 18q0 1 -0.5 2.5t-0.5 2.5l11 34q55 -5 81 -5l62 4q58 -117 124 -243.5t103 -194.5zM283 699h-6l-20 21l1 5l83 79l15 4q17 0 70.5 -16.5t66.5 -16.5q10 0 26.5 11.5t28.5 22.5l11 11h6l19 -21v-5l-83 -79l-16 -4
q-17 0 -70 16.5t-66 16.5q-10 0 -26.5 -11t-28.5 -23z" />
    <glyph glyph-name="Ograve" unicode="&#xd2;" horiz-adv-x="663" 
d="M311 35q106 0 176 87.5t70 220.5q0 113 -51.5 181.5t-137.5 68.5q-103 0 -172 -88.5t-69 -219.5q0 -113 50.5 -181.5t133.5 -68.5zM286 -12q-107 0 -174 74t-67 192q0 162 103.5 278t248.5 116q109 0 178 -74.5t69 -191.5q0 -163 -105.5 -278.5t-252.5 -115.5zM256 777
l-4 10l16 48l9 6q105 -60 199 -109l-6 -24l-8 -5z" />
    <glyph glyph-name="Oacute" unicode="&#xd3;" horiz-adv-x="663" 
d="M311 35q106 0 176 87.5t70 220.5q0 113 -51.5 181.5t-137.5 68.5q-103 0 -172 -88.5t-69 -219.5q0 -113 50.5 -181.5t133.5 -68.5zM286 -12q-107 0 -174 74t-67 192q0 162 103.5 278t248.5 116q109 0 178 -74.5t69 -191.5q0 -163 -105.5 -278.5t-252.5 -115.5zM529 787
l-4 -10q-101 -34 -206 -74l-8 5l-6 24l199 109l9 -6z" />
    <glyph glyph-name="Ocircumflex" unicode="&#xd4;" horiz-adv-x="663" 
d="M311 35q106 0 176 87.5t70 220.5q0 113 -51.5 181.5t-137.5 68.5q-103 0 -172 -88.5t-69 -219.5q0 -113 50.5 -181.5t133.5 -68.5zM286 -12q-107 0 -174 74t-67 192q0 162 103.5 278t248.5 116q109 0 178 -74.5t69 -191.5q0 -163 -105.5 -278.5t-252.5 -115.5zM258 713
l-11 22l147 111h14l120 -111l-17 -22l-9 -1l-110 65l-125 -65z" />
    <glyph glyph-name="Otilde" unicode="&#xd5;" horiz-adv-x="663" 
d="M311 35q106 0 176 87.5t70 220.5q0 113 -51.5 181.5t-137.5 68.5q-103 0 -172 -88.5t-69 -219.5q0 -113 50.5 -181.5t133.5 -68.5zM286 -12q-107 0 -174 74t-67 192q0 162 103.5 278t248.5 116q109 0 178 -74.5t69 -191.5q0 -163 -105.5 -278.5t-252.5 -115.5zM264 699
h-6l-20 21l1 5l83 79l15 4q17 0 70.5 -16.5t66.5 -16.5q10 0 26.5 11.5t27.5 22.5l12 11h6l19 -21v-5l-83 -79l-16 -4q-17 0 -70 16.5t-66 16.5q-10 0 -26.5 -11t-27.5 -23z" />
    <glyph glyph-name="Odieresis" unicode="&#xd6;" horiz-adv-x="663" 
d="M311 35q106 0 176 87.5t70 220.5q0 113 -51.5 181.5t-137.5 68.5q-103 0 -172 -88.5t-69 -219.5q0 -113 50.5 -181.5t133.5 -68.5zM286 -12q-107 0 -174 74t-67 192q0 162 103.5 278t248.5 116q109 0 178 -74.5t69 -191.5q0 -163 -105.5 -278.5t-252.5 -115.5zM461 725
q-17 0 -26 11t-9 27q0 22 16.5 38.5t38.5 16.5q17 0 26.5 -11t9.5 -27q0 -22 -16.5 -38.5t-39.5 -16.5zM301 725q-17 0 -26 11t-9 27q0 22 16 38.5t39 16.5q17 0 26.5 -11t9.5 -27q0 -22 -16.5 -38.5t-39.5 -16.5z" />
    <glyph glyph-name="multiply" unicode="&#xd7;" horiz-adv-x="486" 
d="M404 449l10 -3l26 -42l-153 -143l122 -135l-5 -12l-45 -30l-116 138l-151 -142l-10 3l-22 42q81 74 148 136l-121 144l3 11l47 26q64 -79 116 -141z" />
    <glyph glyph-name="Oslash" unicode="&#xd8;" horiz-adv-x="663" 
d="M108 -82l53 103q-55 33 -85.5 94t-30.5 139q0 162 103.5 278t248.5 116q45 0 85 -14l39 74l29 -7l3 -12l-38 -70q60 -32 94.5 -94.5t34.5 -142.5q0 -163 -105.5 -278.5t-252.5 -115.5q-47 0 -94 18l-55 -104l-27 6zM311 35q106 0 176 87.5t70 220.5q0 141 -78 209
l-258 -491q40 -26 90 -26zM127 285q0 -132 67 -201l256 488q-39 21 -82 21q-103 0 -172 -88.5t-69 -219.5z" />
    <glyph glyph-name="Ugrave" unicode="&#xd9;" horiz-adv-x="652" 
d="M222 546l-44 -294q-3 -27 -3 -50q0 -78 35.5 -119.5t104.5 -41.5q80 0 127.5 44.5t57.5 129.5l35 327q2 35 -3 44.5t-26 9.5l-43 -2v4l11 41q71 -3 107 -3q18 0 41.5 2.5t37.5 5.5l15 2l-10 -43q-43 -5 -56 -15.5t-17 -41.5l-42 -340q-13 -103 -82 -160.5t-182 -57.5
q-90 0 -138 47.5t-47 134.5q0 19 3 40l41 332q4 33 -2 43.5t-28 10.5l-33 -2l-1 4l12 41q70 -3 106 -3q18 0 43.5 2.5t41.5 5.5l16 2l-9 -43q-36 -5 -50 -16.5t-19 -40.5zM261 777l-4 10l16 48l9 6q105 -60 199 -109l-6 -24l-8 -5z" />
    <glyph glyph-name="Uacute" unicode="&#xda;" horiz-adv-x="652" 
d="M222 546l-44 -294q-3 -27 -3 -50q0 -78 35.5 -119.5t104.5 -41.5q80 0 127.5 44.5t57.5 129.5l35 327q2 35 -3 44.5t-26 9.5l-43 -2v4l11 41q71 -3 107 -3q18 0 41.5 2.5t37.5 5.5l15 2l-10 -43q-43 -5 -56 -15.5t-17 -41.5l-42 -340q-13 -103 -82 -160.5t-182 -57.5
q-90 0 -138 47.5t-47 134.5q0 19 3 40l41 332q4 33 -2 43.5t-28 10.5l-33 -2l-1 4l12 41q70 -3 106 -3q18 0 43.5 2.5t41.5 5.5l16 2l-9 -43q-36 -5 -50 -16.5t-19 -40.5zM564 787l-4 -10q-101 -34 -206 -74l-8 5l-6 24l199 109l9 -6z" />
    <glyph glyph-name="Ucircumflex" unicode="&#xdb;" horiz-adv-x="652" 
d="M222 546l-44 -294q-3 -27 -3 -50q0 -78 35.5 -119.5t104.5 -41.5q80 0 127.5 44.5t57.5 129.5l35 327q2 35 -3 44.5t-26 9.5l-43 -2v4l11 41q71 -3 107 -3q18 0 41.5 2.5t37.5 5.5l15 2l-10 -43q-43 -5 -56 -15.5t-17 -41.5l-42 -340q-13 -103 -82 -160.5t-182 -57.5
q-90 0 -138 47.5t-47 134.5q0 19 3 40l41 332q4 33 -2 43.5t-28 10.5l-33 -2l-1 4l12 41q70 -3 106 -3q18 0 43.5 2.5t41.5 5.5l16 2l-9 -43q-36 -5 -50 -16.5t-19 -40.5zM273 713l-11 22l147 111h14l120 -111l-17 -22l-9 -1l-110 65l-125 -65z" />
    <glyph glyph-name="Udieresis" unicode="&#xdc;" horiz-adv-x="652" 
d="M222 546l-44 -294q-3 -27 -3 -50q0 -78 35.5 -119.5t104.5 -41.5q80 0 127.5 44.5t57.5 129.5l35 327q2 35 -3 44.5t-26 9.5l-43 -2v4l11 41q71 -3 107 -3q18 0 41.5 2.5t37.5 5.5l15 2l-10 -43q-43 -5 -56 -15.5t-17 -41.5l-42 -340q-13 -103 -82 -160.5t-182 -57.5
q-90 0 -138 47.5t-47 134.5q0 19 3 40l41 332q4 33 -2 43.5t-28 10.5l-33 -2l-1 4l12 41q70 -3 106 -3q18 0 43.5 2.5t41.5 5.5l16 2l-9 -43q-36 -5 -50 -16.5t-19 -40.5zM476 725q-17 0 -26 11t-9 27q0 22 16.5 38.5t38.5 16.5q17 0 26.5 -11t9.5 -27q0 -22 -16.5 -38.5
t-39.5 -16.5zM316 725q-17 0 -26 11t-9 27q0 22 16 38.5t39 16.5q17 0 26.5 -11t9.5 -27q0 -22 -16.5 -38.5t-39.5 -16.5z" />
    <glyph glyph-name="Yacute" unicode="&#xdd;" horiz-adv-x="520" 
d="M195 567q0 -16 19.5 -82t38.5 -124.5t19 -56.5h4l139 218q21 32 21 53q0 24 -57 28l-2 4l11 37q-1 0 18 -2t44.5 -4t41.5 -2l89 4l3 -6l-11 -35q-45 -8 -65 -26.5t-63 -82.5q-9 -14 -14 -21l-117 -175q-6 -8 -10 -15.5t-7.5 -18.5t-6 -18t-5 -24.5t-4 -27.5t-5.5 -37
t-6 -43q-5 -40 1 -54.5t32 -14.5l47 3l2 -4l-14 -43q-78 3 -119 3q-21 0 -48.5 -3t-44.5 -6l-16 -3l11 43q51 11 66.5 31.5t21.5 78.5l5 45q6 60 -14 115l-63 182q-2 6 -8 23t-7.5 21t-6 16.5t-7 15.5t-7.5 11t-9 10t-10.5 7t-14 6.5t-16.5 3.5t-21 3l-2 4l11 36
q59 -4 103 -4q24 0 58.5 2t56.5 4l22 3l2 -7l-8 -33q-48 -4 -63 -12t-15 -26zM502 787l-4 -10q-101 -34 -206 -74l-8 5l-6 24l199 109l9 -6z" />
    <glyph glyph-name="Thorn" unicode="&#xde;" horiz-adv-x="523" 
d="M260 544l-7 -41h78q91 0 139.5 -37t48.5 -106q0 -85 -77.5 -148.5t-175.5 -63.5h-68l-5 -36q-5 -41 2 -54.5t32 -13.5l51 3l1 -4l-14 -46q-82 3 -127 3q-22 0 -50.5 -3t-45.5 -6l-18 -3l12 46q46 9 64 26.5t23 59.5l52 420q4 32 -2 43t-27 11l-40 -2l-2 4l13 44h9
q8 -1 21 -1.5t27.5 -0.5t30.5 -0.5t27 -0.5q20 0 48 2.5t46 4.5l19 2l-10 -45q-40 -5 -55 -16.5t-20 -40.5zM243 446q-26 -160 -37 -237q41 -15 95 -17q131 17 131 149q0 58 -39.5 85.5t-123.5 27.5q-24 0 -26 -8z" />
    <glyph glyph-name="germandbls" unicode="&#xdf;" horiz-adv-x="549" 
d="M37 405l-3 5l4 29l79 12l9 80q12 92 73.5 151.5t145.5 59.5q66 0 112 -33t46 -80q0 -34 -15.5 -63.5t-37.5 -50t-44.5 -39t-38 -40t-15.5 -44.5q0 -27 28.5 -53.5t62 -47t62 -55.5t28.5 -76q0 -69 -55 -120.5t-128 -51.5q-49 0 -83.5 16t-32.5 37q2 15 18 43.5t30 42.5
h14q-6 -45 14.5 -70t63.5 -25q31 0 57 28.5t26 62.5q0 26 -18.5 49t-45 42.5t-53 39.5t-45 49t-18.5 62q0 36 24 69.5t52.5 55t52.5 51t24 57.5q0 39 -34.5 62t-92.5 23q-88 0 -103 -114l-72 -644q-9 -79 -50 -123t-105 -44q-32 0 -58 13.5t-32 32.5q12 46 34 84h14
q-1 -37 18.5 -60t51.5 -23q23 0 42 18t27 47q1 11 3.5 41.5t5 68t6.5 77.5l28 340l-7 5zM73 -116q-1 -2 -1 -6q0 4 1 6zM66 -170v-6v6z" />
    <glyph glyph-name="agrave" unicode="&#xe0;" horiz-adv-x="461" 
d="M331 64l3 -4q7 0 20 10t59 49l12 -1l13 -24q-112 -106 -140 -106q-36 0 -36 29q0 11 11 63t21 98l11 47l-6 2q-94 -174 -187 -239q-38 0 -59 35.5t-21 100.5q0 123 72.5 229.5t156.5 106.5l100 -16l9 25l5 1l31 -15l8 -12q-57 -193 -83 -379zM131 69q28 0 86.5 89.5
t113.5 214.5q-54 33 -101 33q-49 0 -88.5 -72t-39.5 -161q0 -43 8.5 -73.5t20.5 -30.5zM156 660l-1 11l38 41l10 2q78 -94 150 -172l-20 -19l-9 -2q-37 34 -79 68.5t-65 52.5z" />
    <glyph glyph-name="aacute" unicode="&#xe1;" horiz-adv-x="461" 
d="M331 64l3 -4q7 0 20 10t59 49l12 -1l13 -24q-112 -106 -140 -106q-36 0 -36 29q0 11 11 63t21 98l11 47l-6 2q-94 -174 -187 -239q-38 0 -59 35.5t-21 100.5q0 123 72.5 229.5t156.5 106.5l100 -16l9 25l5 1l31 -15l8 -12q-57 -193 -83 -379zM131 69q28 0 86.5 89.5
t113.5 214.5q-54 33 -101 33q-49 0 -88.5 -72t-39.5 -161q0 -43 8.5 -73.5t20.5 -30.5zM402 672l-1 -11q-84 -64 -168 -140l-9 2l-20 19q32 35 69.5 78t58.5 69l22 26l10 -2z" />
    <glyph glyph-name="acircumflex" unicode="&#xe2;" horiz-adv-x="461" 
d="M331 64l3 -4q7 0 20 10t59 49l12 -1l13 -24q-112 -106 -140 -106q-36 0 -36 29q0 11 11 63t21 98l11 47l-6 2q-94 -174 -187 -239q-38 0 -59 35.5t-21 100.5q0 123 72.5 229.5t156.5 106.5l100 -16l9 25l5 1l31 -15l8 -12q-57 -193 -83 -379zM131 69q28 0 86.5 89.5
t113.5 214.5q-54 33 -101 33q-49 0 -88.5 -72t-39.5 -161q0 -43 8.5 -73.5t20.5 -30.5zM142 528l-12 22l152 153h14l115 -153l-17 -22l-9 -1l-105 97l-129 -97z" />
    <glyph glyph-name="atilde" unicode="&#xe3;" horiz-adv-x="461" 
d="M331 64l3 -4q7 0 20 10t59 49l12 -1l13 -24q-112 -106 -140 -106q-36 0 -36 29q0 11 11 63t21 98l11 47l-6 2q-94 -174 -187 -239q-38 0 -59 35.5t-21 100.5q0 123 72.5 229.5t156.5 106.5l100 -16l9 25l5 1l31 -15l8 -12q-57 -193 -83 -379zM131 69q28 0 86.5 89.5
t113.5 214.5q-54 33 -101 33q-49 0 -88.5 -72t-39.5 -161q0 -43 8.5 -73.5t20.5 -30.5zM150 551h-7l-19 21l1 5l84 89l15 4q17 0 70.5 -16.5t66.5 -16.5q10 0 26.5 13.5t28.5 27.5l12 14h6l20 -21l-1 -5l-84 -89l-16 -4q-17 0 -70 16.5t-66 16.5q-10 0 -27 -14t-28 -28z" />
    <glyph glyph-name="adieresis" unicode="&#xe4;" horiz-adv-x="461" 
d="M331 64l3 -4q7 0 20 10t59 49l12 -1l13 -24q-112 -106 -140 -106q-36 0 -36 29q0 11 11 63t21 98l11 47l-6 2q-94 -174 -187 -239q-38 0 -59 35.5t-21 100.5q0 123 72.5 229.5t156.5 106.5l100 -16l9 25l5 1l31 -15l8 -12q-57 -193 -83 -379zM131 69q28 0 86.5 89.5
t113.5 214.5q-54 33 -101 33q-49 0 -88.5 -72t-39.5 -161q0 -43 8.5 -73.5t20.5 -30.5zM357 566q-17 0 -26.5 11.5t-9.5 26.5q0 22 16.5 38.5t39.5 16.5q17 0 26 -11t9 -27q0 -22 -16 -38.5t-39 -16.5zM197 566q-17 0 -26.5 11.5t-9.5 26.5q0 22 16.5 38.5t39.5 16.5
q17 0 26 -11t9 -27q0 -22 -16 -38.5t-39 -16.5z" />
    <glyph glyph-name="aring" unicode="&#xe5;" horiz-adv-x="461" 
d="M331 64l3 -4q7 0 20 10t59 49l12 -1l13 -24q-112 -106 -140 -106q-36 0 -36 29q0 11 11 63t21 98l11 47l-6 2q-94 -174 -187 -239q-38 0 -59 35.5t-21 100.5q0 123 72.5 229.5t156.5 106.5l100 -16l9 25l5 1l31 -15l8 -12q-57 -193 -83 -379zM131 69q28 0 86.5 89.5
t113.5 214.5q-54 33 -101 33q-49 0 -88.5 -72t-39.5 -161q0 -43 8.5 -73.5t20.5 -30.5zM256 582q48 0 48 45q0 42 -44 42q-22 0 -34.5 -12t-12.5 -33t13.5 -31.5t29.5 -10.5zM245 544q-31 0 -48 18.5t-17 49.5q0 41 26.5 68.5t66.5 27.5q34 0 50 -19t16 -47
q0 -39 -26.5 -68.5t-67.5 -29.5z" />
    <glyph glyph-name="ae" unicode="&#xe6;" horiz-adv-x="587" 
d="M568 386q0 -63 -55 -108t-183 -88q-4 -64 15.5 -103t54.5 -39q30 0 60 23.5t50 62.5l14 -1l15 -24q-29 -53 -73.5 -87t-87.5 -34q-54 0 -85 44t-31 121v9q-74 -120 -150 -174q-38 0 -59 35.5t-21 100.5q0 123 72.5 229.5t156.5 106.5l156 -17q37 21 72 21
q38 0 58.5 -20.5t20.5 -57.5zM131 69q28 0 86.5 92.5t113.5 221.5q-54 23 -101 23q-49 0 -88.5 -72t-39.5 -161q0 -43 8.5 -73.5t20.5 -30.5zM457 406q-39 0 -75.5 -51.5t-47.5 -122.5q87 27 125 57t38 71q0 46 -40 46z" />
    <glyph glyph-name="ccedilla" unicode="&#xe7;" horiz-adv-x="344" 
d="M106 -85l30 74q-48 6 -75 49t-27 115q0 77 32.5 149.5t85 117t108.5 44.5q54 0 85 -21l5 -11l-34 -67l-14 -3q-31 43 -73 43q-47 0 -86 -69t-39 -153q0 -62 18.5 -99t50.5 -37q30 0 60.5 24.5t48.5 62.5l14 -1l15 -24q-24 -44 -59.5 -75.5t-72.5 -41.5l-19 -42
q3 -2 14.5 -11t17 -13.5t14.5 -13t13.5 -15t8.5 -15.5t4 -17q0 -38 -42 -68t-86 -30q-23 0 -42.5 9.5t-19.5 24.5q0 16 32 58h8q-2 -27 10.5 -42t35.5 -15q21 0 36 11.5t15 28.5q0 26 -73 73z" />
    <glyph glyph-name="egrave" unicode="&#xe8;" horiz-adv-x="359" 
d="M340 386q0 -63 -55 -108t-183 -88q-4 -64 15.5 -103t54.5 -39q30 0 60 23.5t50 62.5l14 -1l15 -24q-29 -53 -73.5 -87t-87.5 -34q-54 0 -85 44t-31 121q0 115 71.5 213t155.5 98q38 0 58.5 -20.5t20.5 -57.5zM229 406q-39 0 -75.5 -51.5t-47.5 -122.5q87 27 125 57t38 71
q0 46 -40 46zM130 660l-1 11l38 41l10 2q78 -94 150 -172l-20 -19l-9 -2q-37 34 -79 68.5t-65 52.5z" />
    <glyph glyph-name="eacute" unicode="&#xe9;" horiz-adv-x="359" 
d="M340 386q0 -63 -55 -108t-183 -88q-4 -64 15.5 -103t54.5 -39q30 0 60 23.5t50 62.5l14 -1l15 -24q-29 -53 -73.5 -87t-87.5 -34q-54 0 -85 44t-31 121q0 115 71.5 213t155.5 98q38 0 58.5 -20.5t20.5 -57.5zM229 406q-39 0 -75.5 -51.5t-47.5 -122.5q87 27 125 57t38 71
q0 46 -40 46zM363 672l-1 -11q-84 -64 -168 -140l-9 2l-20 19q32 35 69.5 78t59.5 69l21 26l10 -2z" />
    <glyph glyph-name="ecircumflex" unicode="&#xea;" horiz-adv-x="359" 
d="M340 386q0 -63 -55 -108t-183 -88q-4 -64 15.5 -103t54.5 -39q30 0 60 23.5t50 62.5l14 -1l15 -24q-29 -53 -73.5 -87t-87.5 -34q-54 0 -85 44t-31 121q0 115 71.5 213t155.5 98q38 0 58.5 -20.5t20.5 -57.5zM229 406q-39 0 -75.5 -51.5t-47.5 -122.5q87 27 125 57t38 71
q0 46 -40 46zM116 528l-12 22l152 153h14l115 -153l-17 -22l-9 -1l-105 97l-129 -97z" />
    <glyph glyph-name="edieresis" unicode="&#xeb;" horiz-adv-x="359" 
d="M340 386q0 -63 -55 -108t-183 -88q-4 -64 15.5 -103t54.5 -39q30 0 60 23.5t50 62.5l14 -1l15 -24q-29 -53 -73.5 -87t-87.5 -34q-54 0 -85 44t-31 121q0 115 71.5 213t155.5 98q38 0 58.5 -20.5t20.5 -57.5zM229 406q-39 0 -75.5 -51.5t-47.5 -122.5q87 27 125 57t38 71
q0 46 -40 46zM321 566q-17 0 -26.5 11.5t-9.5 26.5q0 22 16.5 38.5t39.5 16.5q17 0 26 -11t9 -27q0 -22 -16 -38.5t-39 -16.5zM161 566q-17 0 -26.5 11.5t-9.5 26.5q0 22 16.5 38.5t39.5 16.5q17 0 26 -11t9 -27q0 -22 -16 -38.5t-39 -16.5z" />
    <glyph glyph-name="igrave" unicode="&#xec;" horiz-adv-x="282" 
d="M50 660l-1 11l38 41l10 2q78 -94 150 -172l-20 -19l-9 -2q-37 34 -79 68.5t-65 52.5zM130 64l3 -4q12 0 79 59l12 -1l13 -24q-106 -106 -140 -106q-30 0 -30 35q51 308 51 343q0 22 -10 32t-32 10h-41l7 38l162 6l9 -12q-57 -190 -83 -376z" />
    <glyph glyph-name="iacute" unicode="&#xed;" horiz-adv-x="282" 
d="M307 672l-1 -11q-84 -64 -168 -140l-9 2l-20 19q32 35 69.5 78t59.5 69l21 26l10 -2zM130 64l3 -4q12 0 79 59l12 -1l13 -24q-106 -106 -140 -106q-30 0 -30 35q51 308 51 343q0 22 -10 32t-32 10h-41l7 38l162 6l9 -12q-57 -190 -83 -376z" />
    <glyph glyph-name="icircumflex" unicode="&#xee;" horiz-adv-x="282" 
d="M130 64l3 -4q12 0 79 59l12 -1l13 -24q-106 -106 -140 -106q-30 0 -30 35q51 308 51 343q0 22 -10 32t-32 10h-41l7 38l162 6l9 -12q-57 -190 -83 -376zM47 527l-12 22l152 153h14l115 -153l-17 -22l-9 -1l-105 97l-129 -97z" />
    <glyph glyph-name="idieresis" unicode="&#xef;" horiz-adv-x="282" 
d="M250 566q-17 0 -26.5 11.5t-9.5 26.5q0 22 16.5 38.5t39.5 16.5q17 0 26 -11t9 -27q0 -22 -16 -38.5t-39 -16.5zM90 566q-17 0 -26.5 11.5t-9.5 26.5q0 22 16.5 38.5t39.5 16.5q17 0 26 -11t9 -27q0 -22 -16 -38.5t-39 -16.5zM130 64l3 -4q12 0 79 59l12 -1l13 -24
q-106 -106 -140 -106q-30 0 -30 35q51 308 51 343q0 22 -10 32t-32 10h-41l7 38l162 6l9 -12q-57 -190 -83 -376z" />
    <glyph glyph-name="eth" unicode="&#xf0;" horiz-adv-x="488" 
d="M451 692l7 -5l1 -29l-123 -59q118 -130 118 -310q0 -127 -74 -214t-175 -87q-77 0 -123 52t-46 136q0 112 75 194.5t171 82.5q8 0 18 -2.5t18 -6.5t15 -8t11 -6l5 -3l2 2q-23 80 -72 143l-136 -64l-8 3l-1 30l119 58q-57 60 -144 105l20 33l10 4q99 -48 171 -116z
M369 276q0 53 -4 82q-36 41 -103 41q-65 0 -103.5 -53.5t-38.5 -143.5q0 -74 31.5 -119.5t85.5 -45.5q59 0 95.5 62.5t36.5 176.5z" />
    <glyph glyph-name="ntilde" unicode="&#xf1;" horiz-adv-x="502" 
d="M352 64l3 -4q7 0 20 10t59 49l12 -1l13 -24q-106 -106 -140 -106q-31 0 -31 29t38 153t38 160q0 18 -9.5 29.5t-24.5 11.5q-31 0 -82.5 -76t-103.5 -199l-11 -82q-1 -5 -25.5 -14t-36.5 -9l-7 9q55 336 55 368q0 21 -10 30.5t-33 9.5h-41l7 38l162 6l9 -12
q-42 -121 -61 -238l5 -3q107 209 203 265q32 0 54 -27.5t22 -68.5q0 -39 -39 -157.5t-45 -146.5zM170 551h-7l-19 21l1 5l84 89l15 4q17 0 70.5 -16.5t66.5 -16.5q10 0 26.5 13.5t28.5 27.5l12 14h6l20 -21l-1 -5l-84 -89l-16 -4q-17 0 -70 16.5t-66 16.5q-10 0 -27 -14
t-28 -28z" />
    <glyph glyph-name="ograve" unicode="&#xf2;" horiz-adv-x="406" 
d="M186 43q49 0 81.5 61.5t32.5 155.5q0 67 -21.5 105.5t-59.5 38.5q-49 0 -81 -57.5t-32 -144.5q0 -70 22.5 -114.5t57.5 -44.5zM146 -12q-50 0 -81 45t-31 119q0 123 68.5 217.5t158.5 94.5q53 0 83.5 -39.5t30.5 -109.5q0 -132 -68 -229.5t-161 -97.5zM138 660l-1 11
l38 41l10 2q78 -94 150 -172l-20 -19l-9 -2q-37 34 -79 68.5t-65 52.5z" />
    <glyph glyph-name="oacute" unicode="&#xf3;" horiz-adv-x="406" 
d="M186 43q49 0 81.5 61.5t32.5 155.5q0 67 -21.5 105.5t-59.5 38.5q-49 0 -81 -57.5t-32 -144.5q0 -70 22.5 -114.5t57.5 -44.5zM146 -12q-50 0 -81 45t-31 119q0 123 68.5 217.5t158.5 94.5q53 0 83.5 -39.5t30.5 -109.5q0 -132 -68 -229.5t-161 -97.5zM389 672l-1 -11
q-84 -64 -168 -140l-9 2l-20 19q32 35 69.5 78t59.5 69l21 26l10 -2z" />
    <glyph glyph-name="ocircumflex" unicode="&#xf4;" horiz-adv-x="406" 
d="M146 -12q-50 0 -81 45t-31 119q0 123 68.5 217.5t158.5 94.5q53 0 83.5 -39.5t30.5 -109.5q0 -132 -68 -229.5t-161 -97.5zM186 43q49 0 81.5 61.5t32.5 155.5q0 67 -21.5 105.5t-59.5 38.5q-49 0 -81 -57.5t-32 -144.5q0 -70 22.5 -114.5t57.5 -44.5zM126 528l-12 22
l152 153h14l115 -153l-17 -22l-9 -1l-105 97l-129 -97z" />
    <glyph glyph-name="otilde" unicode="&#xf5;" horiz-adv-x="406" 
d="M186 43q49 0 81.5 61.5t32.5 155.5q0 67 -21.5 105.5t-59.5 38.5q-49 0 -81 -57.5t-32 -144.5q0 -70 22.5 -114.5t57.5 -44.5zM146 -12q-50 0 -81 45t-31 119q0 123 68.5 217.5t158.5 94.5q53 0 83.5 -39.5t30.5 -109.5q0 -132 -68 -229.5t-161 -97.5zM125 551h-7l-19 21
l1 5l84 89l15 4q17 0 70.5 -16.5t66.5 -16.5q10 0 26.5 13.5t28.5 27.5l12 14h6l20 -21l-1 -5l-84 -89l-16 -4q-17 0 -70 16.5t-66 16.5q-10 0 -27 -14t-29 -28z" />
    <glyph glyph-name="odieresis" unicode="&#xf6;" horiz-adv-x="406" 
d="M186 43q49 0 81.5 61.5t32.5 155.5q0 67 -21.5 105.5t-59.5 38.5q-49 0 -81 -57.5t-32 -144.5q0 -70 22.5 -114.5t57.5 -44.5zM146 -12q-50 0 -81 45t-31 119q0 123 68.5 217.5t158.5 94.5q53 0 83.5 -39.5t30.5 -109.5q0 -132 -68 -229.5t-161 -97.5zM332 566
q-17 0 -26.5 11.5t-9.5 26.5q0 22 16.5 38.5t39.5 16.5q17 0 26 -11t9 -27q0 -22 -16 -38.5t-39 -16.5zM172 566q-17 0 -26.5 11.5t-9.5 26.5q0 22 16.5 38.5t39.5 16.5q17 0 26 -11t9 -27q0 -22 -16 -38.5t-39 -16.5z" />
    <glyph glyph-name="divide" unicode="&#xf7;" horiz-adv-x="486" 
d="M472 297l5 -10l-14 -51l-218 -1l-220 -1l-5 9l17 49q143 -1 229 -1zM212 29q-23 0 -35.5 14.5t-12.5 35.5q0 28 19.5 48.5t48.5 20.5q24 0 36.5 -14t12.5 -36q0 -28 -19.5 -48.5t-49.5 -20.5zM255 378q-24 0 -36 14.5t-12 35.5q0 28 19.5 48.5t48.5 20.5q24 0 36.5 -14
t12.5 -36q0 -28 -19.5 -48.5t-49.5 -20.5z" />
    <glyph glyph-name="oslash" unicode="&#xf8;" horiz-adv-x="406" 
d="M22 -82l53 102q-41 44 -41 132q0 123 68.5 217.5t158.5 94.5q23 0 41 -7l43 82l29 -7l3 -12l-45 -83q43 -40 43 -122q0 -132 -68 -229.5t-161 -97.5q-24 0 -44 11l-51 -97l-27 6zM186 43q49 0 81.5 61.5t32.5 155.5q0 52 -14 89l-147 -280q20 -26 47 -26zM106 202
q0 -55 14 -95l144 277q-20 20 -45 20q-49 0 -81 -57.5t-32 -144.5z" />
    <glyph glyph-name="ugrave" unicode="&#xf9;" horiz-adv-x="486" 
d="M330 225l-9 3q-89 -171 -182 -240q-40 0 -64 23t-24 61q0 30 37 155t37 145q0 36 -42 36h-41l8 38l162 6l9 -12q-99 -278 -99 -338q0 -35 30 -35q28 0 83 82t112 209l18 95l9 3l58 -9l7 -8q-57 -189 -83 -375l3 -4q7 0 20 10t59 49l12 -1l13 -24q-113 -106 -140 -106
q-36 0 -36 28q0 12 10.5 64t21.5 98zM174 660l-1 11l38 41l10 2q78 -94 150 -172l-20 -19l-9 -2q-37 34 -79 68.5t-65 52.5z" />
    <glyph glyph-name="uacute" unicode="&#xfa;" horiz-adv-x="486" 
d="M330 225l-9 3q-89 -171 -182 -240q-40 0 -64 23t-24 61q0 30 37 155t37 145q0 36 -42 36h-41l8 38l162 6l9 -12q-99 -278 -99 -338q0 -35 30 -35q28 0 83 82t112 209l18 95l9 3l58 -9l7 -8q-57 -189 -83 -375l3 -4q7 0 20 10t59 49l12 -1l13 -24q-113 -106 -140 -106
q-36 0 -36 28q0 12 10.5 64t21.5 98zM424 672l-1 -11q-84 -64 -168 -140l-9 2l-20 19q32 35 69.5 78t58.5 69l22 26l10 -2z" />
    <glyph glyph-name="ucircumflex" unicode="&#xfb;" horiz-adv-x="486" 
d="M330 225l-9 3q-89 -171 -182 -240q-40 0 -64 23t-24 61q0 30 37 155t37 145q0 36 -42 36h-41l8 38l162 6l9 -12q-99 -278 -99 -338q0 -35 30 -35q28 0 83 82t112 209l18 95l9 3l58 -9l7 -8q-57 -189 -83 -375l3 -4q7 0 20 10t59 49l12 -1l13 -24q-113 -106 -140 -106
q-36 0 -36 28q0 12 10.5 64t21.5 98zM160 528l-12 22l152 153h14l115 -153l-17 -22l-9 -1l-105 97l-129 -97z" />
    <glyph glyph-name="udieresis" unicode="&#xfc;" horiz-adv-x="486" 
d="M330 225l-9 3q-89 -171 -182 -240q-40 0 -64 23t-24 61q0 30 37 155t37 145q0 36 -42 36h-41l8 38l162 6l9 -12q-99 -278 -99 -338q0 -35 30 -35q28 0 83 82t112 209l18 95l9 3l58 -9l7 -8q-57 -189 -83 -375l3 -4q7 0 20 10t59 49l12 -1l13 -24q-113 -106 -140 -106
q-36 0 -36 28q0 12 10.5 64t21.5 98zM365 566q-17 0 -26.5 11.5t-9.5 26.5q0 22 16.5 38.5t39.5 16.5q17 0 26 -11t9 -27q0 -22 -16 -38.5t-39 -16.5zM205 566q-17 0 -26.5 11.5t-9.5 26.5q0 22 16.5 38.5t39.5 16.5q17 0 26 -11t9 -27q0 -22 -16 -38.5t-39 -16.5z" />
    <glyph glyph-name="yacute" unicode="&#xfd;" horiz-adv-x="438" 
d="M303 425l4 17l81 22q35 -22 35 -76q0 -95 -180 -367q-93 -138 -159 -201t-118 -63q-29 0 -50.5 10.5t-25.5 26.5q0 21 18 80h14q24 -39 67 -39q40 0 75 26.5t87 95.5q-11 207 -38 405q-4 23 -12.5 31.5t-28.5 8.5l-52 -5l3 38l148 24l11 -10q21 -173 20 -401h10
q139 218 139 298q0 47 -48 79zM398 672l-1 -11q-84 -64 -168 -140l-9 2l-20 19q32 35 69.5 78t58.5 69l22 26l10 -2z" />
    <glyph glyph-name="thorn" unicode="&#xfe;" horiz-adv-x="453" 
d="M32 -133q117 749 117 783q0 39 -42 39h-41l6 38l161 6l9 -12q-64 -269 -101 -519l3 -2q49 105 89 166t85 98q45 0 73.5 -43.5t28.5 -113.5q0 -122 -69 -218.5t-156 -96.5q-40 0 -84 10l-20 -142q-4 -29 5 -39t37 -10h41q0 -1 0.5 -3t0.5 -3l-6 -33q-49 0 -98.5 -2
t-74.5 -4l-25 -1l6 36q25 2 37 15.5t18 50.5zM305 381q-23 0 -72.5 -83.5t-111.5 -228.5q63 -23 112 -23q45 0 81.5 65.5t36.5 147.5q0 47 -14 84.5t-32 37.5z" />
    <glyph glyph-name="ydieresis" unicode="&#xff;" horiz-adv-x="438" 
d="M303 425l4 17l81 22q35 -22 35 -76q0 -95 -180 -367q-93 -138 -159 -201t-118 -63q-29 0 -50.5 10.5t-25.5 26.5q0 21 18 80h14q24 -39 67 -39q40 0 75 26.5t87 95.5q-11 207 -38 405q-4 23 -12.5 31.5t-28.5 8.5l-52 -5l3 38l148 24l11 -10q21 -173 20 -401h10
q139 218 139 298q0 47 -48 79zM339 566q-17 0 -26.5 11.5t-9.5 26.5q0 22 16.5 38.5t39.5 16.5q17 0 26 -11t9 -27q0 -22 -16 -38.5t-39 -16.5zM179 566q-17 0 -26.5 11.5t-9.5 26.5q0 22 16.5 38.5t39.5 16.5q17 0 26 -11t9 -27q0 -22 -16 -38.5t-39 -16.5z" />
    <glyph glyph-name="Amacron" unicode="&#x100;" horiz-adv-x="558" 
d="M456 111q7 -38 24.5 -52.5t59.5 -19.5l2 -3l-11 -39q-69 3 -101 3t-68 -2.5t-56 -5.5l-19 -2l-2 7l8 36q55 4 73.5 14t18.5 36q0 12 -4 38l-18 113q-24 1 -100 1q-43 0 -107 -8l-49 -108q-14 -29 -14 -46q0 -36 53 -36h56v-3l-10 -41q-68 7 -132 7l-105 -3l13 45
q29 3 47.5 19.5t38.5 58.5l248 511l56 17l8 1q44 -307 90 -538zM304 544l-125 -273h85q47 0 91 6l-44 267h-7zM493 788l5 -10l-13 -47l-137 -1l-138 -1l-5 9l16 45q91 -1 147 -1z" />
    <glyph glyph-name="amacron" unicode="&#x101;" horiz-adv-x="461" 
d="M331 64l3 -4q7 0 20 10t59 49l12 -1l13 -24q-112 -106 -140 -106q-36 0 -36 29q0 11 11 63t21 98l11 47l-6 2q-94 -174 -187 -239q-38 0 -59 35.5t-21 100.5q0 123 72.5 229.5t156.5 106.5l100 -16l9 25l5 1l31 -15l8 -12q-57 -193 -83 -379zM131 69q28 0 86.5 89.5
t113.5 214.5q-54 33 -101 33q-49 0 -88.5 -72t-39.5 -161q0 -43 8.5 -73.5t20.5 -30.5zM421 653l4 -10l-13 -47l-136 -1l-138 -1l-5 9l15 45q91 -1 148 -1z" />
    <glyph glyph-name="Abreve" unicode="&#x102;" horiz-adv-x="558" 
d="M456 111q7 -38 24.5 -52.5t59.5 -19.5l2 -3l-11 -39q-69 3 -101 3t-68 -2.5t-56 -5.5l-19 -2l-2 7l8 36q55 4 73.5 14t18.5 36q0 12 -4 38l-18 113q-24 1 -100 1q-43 0 -107 -8l-49 -108q-14 -29 -14 -46q0 -36 53 -36h56v-3l-10 -41q-68 7 -132 7l-105 -3l13 45
q29 3 47.5 19.5t38.5 58.5l248 511l56 17l8 1q44 -307 90 -538zM304 544l-125 -273h85q47 0 91 6l-44 267h-7zM353 768q69 0 99 50h8l15 -10q-17 -42 -50 -70t-79 -28t-72 28t-33 70l18 10h8q18 -50 86 -50z" />
    <glyph glyph-name="abreve" unicode="&#x103;" horiz-adv-x="461" 
d="M331 64l3 -4q7 0 20 10t59 49l12 -1l13 -24q-112 -106 -140 -106q-36 0 -36 29q0 11 11 63t21 98l11 47l-6 2q-94 -174 -187 -239q-38 0 -59 35.5t-21 100.5q0 123 72.5 229.5t156.5 106.5l100 -16l9 25l5 1l31 -15l8 -12q-57 -193 -83 -379zM131 69q28 0 86.5 89.5
t113.5 214.5q-54 33 -101 33q-49 0 -88.5 -72t-39.5 -161q0 -43 8.5 -73.5t20.5 -30.5zM281 616q31 0 58 17t42 49h9l14 -10q-17 -48 -50 -81t-80 -33t-72.5 33t-30.5 81l17 10h8q8 -32 30.5 -49t54.5 -17z" />
    <glyph glyph-name="Aogonek" unicode="&#x104;" horiz-adv-x="558" 
d="M519 -160l10 -19q-53 -46 -104 -63q-44 0 -70 22t-26 61q0 36 27.5 73t82.5 86h-9q-32 0 -68 -2.5t-56 -5.5l-19 -2l-2 7l8 36q55 4 73.5 14t18.5 36q0 12 -4 38l-18 113q-24 1 -100 1q-43 0 -107 -8l-49 -108q-14 -29 -14 -46q0 -36 53 -36h56v-3l-10 -41q-68 7 -132 7
l-105 -3l13 45q29 3 47.5 19.5t38.5 58.5l248 511l56 17l8 1q44 -307 90 -538q7 -38 24.5 -52.5t59.5 -19.5l2 -3l-11 -39l-50 2q-51 -48 -69.5 -75.5t-18.5 -58.5q0 -21 13.5 -34.5t35.5 -13.5q16 0 35.5 5.5t30.5 11.5zM304 544l-125 -273h85q47 0 91 6l-44 267h-7z" />
    <glyph glyph-name="aogonek" unicode="&#x105;" horiz-adv-x="461" 
d="M375 -159l10 -19q-53 -46 -104 -63q-44 0 -70 22t-26 61q0 34 24.5 68t73.5 80q-21 4 -21 27q0 11 11 63t21 98l11 47l-6 2q-94 -174 -187 -239q-38 0 -59 35.5t-21 100.5q0 123 72.5 229.5t156.5 106.5l100 -16l9 25l5 1l31 -15l8 -12q-57 -193 -83 -379l3 -4q7 0 20 10
t59 49l12 -1l16 -28q-114 -96 -153 -139.5t-39 -84.5q0 -21 13.5 -34.5t35.5 -13.5q16 0 35.5 6t30.5 12zM131 69q28 0 86.5 89.5t113.5 214.5q-54 33 -101 33q-49 0 -88.5 -72t-39.5 -161q0 -43 8.5 -73.5t20.5 -30.5z" />
    <glyph glyph-name="Cacute" unicode="&#x106;" horiz-adv-x="603" 
d="M307 -12q-118 0 -190 72t-72 193q0 168 107 281.5t265 113.5q35 0 78.5 -6t68.5 -12l26 -5l3 -6q-28 -74 -45 -164l-43 -4q9 39 9 59q0 84 -131 84q-111 0 -181 -86.5t-70 -225.5q0 -114 51 -181.5t139 -67.5q130 0 186 160l43 4q-31 -90 -46 -160l-6 -9
q-77 -40 -192 -40zM556 787l-4 -10q-101 -34 -206 -74l-8 5l-6 24l199 109l9 -6z" />
    <glyph glyph-name="cacute" unicode="&#x107;" horiz-adv-x="344" 
d="M229 405q-47 0 -86 -69t-39 -153q0 -62 18.5 -99t50.5 -37q30 0 60.5 24.5t48.5 62.5l14 -1l15 -24q-29 -53 -73.5 -87t-87.5 -34q-54 0 -85 44t-31 121t32.5 149.5t85 117t108.5 44.5q54 0 85 -21l5 -11l-34 -67l-14 -3q-31 43 -73 43zM392 672l-1 -11
q-84 -64 -168 -140l-9 2l-20 19q32 35 69.5 78t58.5 69l22 26l10 -2z" />
    <glyph glyph-name="Ccircumflex" unicode="&#x108;" horiz-adv-x="603" 
d="M307 -12q-118 0 -190 72t-72 193q0 168 107 281.5t265 113.5q35 0 78.5 -6t68.5 -12l26 -5l3 -6q-28 -74 -45 -164l-43 -4q9 39 9 59q0 84 -131 84q-111 0 -181 -86.5t-70 -225.5q0 -114 51 -181.5t139 -67.5q130 0 186 160l43 4q-31 -90 -46 -160l-6 -9
q-77 -40 -192 -40zM265 702l-12 22l152 153h14l115 -153l-17 -22l-9 -1l-105 97l-129 -97z" />
    <glyph glyph-name="ccircumflex" unicode="&#x109;" horiz-adv-x="344" 
d="M229 405q-47 0 -86 -69t-39 -153q0 -62 18.5 -99t50.5 -37q30 0 60.5 24.5t48.5 62.5l14 -1l15 -24q-29 -53 -73.5 -87t-87.5 -34q-54 0 -85 44t-31 121t32.5 149.5t85 117t108.5 44.5q54 0 85 -21l5 -11l-34 -67l-14 -3q-31 43 -73 43zM130 527l-12 22l152 153h14
l115 -153l-17 -22l-9 -1l-105 97l-129 -97z" />
    <glyph glyph-name="Cdotaccent" unicode="&#x10a;" horiz-adv-x="603" 
d="M307 -12q-118 0 -190 72t-72 193q0 168 107 281.5t265 113.5q35 0 78.5 -6t68.5 -12l26 -5l3 -6q-28 -74 -45 -164l-43 -4q9 39 9 59q0 84 -131 84q-111 0 -181 -86.5t-70 -225.5q0 -114 51 -181.5t139 -67.5q130 0 186 160l43 4q-31 -90 -46 -160l-6 -9
q-77 -40 -192 -40zM408 719q-21 0 -32 13t-11 32q0 26 19.5 45.5t46.5 19.5q20 0 31 -13t11 -32q0 -26 -19 -45.5t-46 -19.5z" />
    <glyph glyph-name="cdotaccent" unicode="&#x10b;" horiz-adv-x="344" 
d="M229 405q-47 0 -86 -69t-39 -153q0 -62 18.5 -99t50.5 -37q30 0 60.5 24.5t48.5 62.5l14 -1l15 -24q-29 -53 -73.5 -87t-87.5 -34q-54 0 -85 44t-31 121t32.5 149.5t85 117t108.5 44.5q54 0 85 -21l5 -11l-34 -67l-14 -3q-31 43 -73 43zM248 602q-20 0 -31 13t-11 32
q0 26 19 45.5t46 19.5q21 0 32 -13t11 -32q0 -26 -19.5 -45.5t-46.5 -19.5z" />
    <glyph glyph-name="Ccaron" unicode="&#x10c;" horiz-adv-x="603" 
d="M307 -12q-118 0 -190 72t-72 193q0 168 107 281.5t265 113.5q35 0 78.5 -6t68.5 -12l26 -5l3 -6q-28 -74 -45 -164l-43 -4q9 39 9 59q0 84 -131 84q-111 0 -181 -86.5t-70 -225.5q0 -114 51 -181.5t139 -67.5q130 0 186 160l43 4q-31 -90 -46 -160l-6 -9
q-77 -40 -192 -40zM553 837l12 -22l-148 -111h-13l-120 111l16 22l10 1l109 -65l125 65z" />
    <glyph glyph-name="ccaron" unicode="&#x10d;" horiz-adv-x="344" 
d="M229 405q-47 0 -86 -69t-39 -153q0 -62 18.5 -99t50.5 -37q30 0 60.5 24.5t48.5 62.5l14 -1l15 -24q-29 -53 -73.5 -87t-87.5 -34q-54 0 -85 44t-31 121t32.5 149.5t85 117t108.5 44.5q54 0 85 -21l5 -11l-34 -67l-14 -3q-31 43 -73 43zM128 686l19 23l8 1
q47 -48 110 -101q98 71 135 101l8 -1l13 -23q-33 -32 -73 -72l-64 -64l-23 -24h-13q-63 89 -120 160z" />
    <glyph glyph-name="Dcaron" unicode="&#x10e;" horiz-adv-x="674" 
d="M286 -12q-98 12 -146 12q-21 0 -49 -3t-45 -6l-18 -3l11 43q46 9 64 26.5t23 59.5l52 425q4 32 -1.5 43t-26.5 11l-34 -2l-1 4l11 41q63 -3 100 -3l136 4q129 0 210 -73.5t81 -190.5q0 -104 -49.5 -193.5t-134 -142t-183.5 -52.5zM298 596q-20 0 -27 -4.5t-9 -17.5
q-71 -444 -71 -467q0 -42 24.5 -57t89.5 -15q118 0 190 89t72 232q0 115 -69 177.5t-200 62.5zM525 837l12 -22l-148 -111h-13l-120 111l16 22l10 1l109 -65l125 65z" />
    <glyph glyph-name="dcaron" unicode="&#x10f;" horiz-adv-x="519" 
d="M331 64l3 -4q7 0 18.5 8.5t60.5 50.5l12 -1l13 -24q-113 -106 -140 -106q-36 0 -36 29q0 9 11 61t21 100l11 47l-7 2q-94 -175 -186 -239q-38 0 -59 35.5t-21 100.5q0 123 72.5 229.5t156.5 106.5l72 -12l26 197q3 23 -6.5 33.5t-34.5 10.5h-41l6 38l161 6l9 -12
q-92 -429 -122 -657zM131 69q28 0 85 88.5t112 216.5q-54 32 -98 32q-49 0 -88.5 -72t-39.5 -161q0 -43 8.5 -73.5t20.5 -30.5zM595 709l5 -8q-27 -110 -59 -212l-28 -14l-10 2q8 49 13 103.5t6 84.5l2 30z" />
    <glyph glyph-name="Dcroat" unicode="&#x110;" horiz-adv-x="684" 
d="M296 -12q-98 12 -146 12q-21 0 -49 -3t-45 -6l-18 -3l11 43q46 9 64 26.5t23 59.5l23 187h-133l-6 7l11 32h133l24 199q4 32 -1.5 43t-26.5 11l-34 -2l-1 4l11 41q63 -3 100 -3l136 4q129 0 210 -73.5t81 -190.5q0 -104 -49.5 -193.5t-134 -142t-183.5 -52.5zM308 596
q-20 0 -27 -4.5t-9 -17.5l-38 -231h162l4 -7l-10 -32h-162q-27 -173 -27 -197q0 -42 24.5 -57t89.5 -15q118 0 190 89t72 232q0 115 -69 177.5t-200 62.5z" />
    <glyph glyph-name="dcroat" unicode="&#x111;" horiz-adv-x="463" 
d="M331 64l3 -4q7 0 18.5 8.5t60.5 50.5l12 -1l13 -24q-113 -106 -140 -106q-36 0 -36 29q0 9 11 61t21 100l11 47l-7 2q-94 -175 -186 -239q-38 0 -59 35.5t-21 100.5q0 123 72.5 229.5t156.5 106.5l72 -12l12 89h-105l-9 9l7 39l113 -1l8 61q3 23 -6.5 33.5t-34.5 10.5
h-41l6 38l161 6l9 -12q-12 -56 -29 -136l89 4l13 -13l-4 -37l-107 -1q-64 -320 -84 -474zM131 69q28 0 85 88.5t112 216.5q-54 32 -98 32q-49 0 -88.5 -72t-39.5 -161q0 -43 8.5 -73.5t20.5 -30.5z" />
    <glyph glyph-name="Emacron" unicode="&#x112;" horiz-adv-x="568" 
d="M185 80q0 -25 14 -32t58 -7q62 0 93 3t54.5 17.5t33 36t21.5 66.5l41 5l2 -5q-28 -82 -47 -166l-5 -5q-199 7 -289 7q-32 0 -65 -2.5t-50 -5.5l-17 -2l11 43q44 6 62 23.5t23 60.5l53 425q4 33 -1.5 43.5t-27.5 10.5l-33 -2l-1 3l11 42q74 -3 131 -3q204 0 289 12l2 -5
q-25 -72 -42 -164l-44 -4q9 39 9 65q0 33 -25.5 41.5t-116.5 8.5q-48 0 -58.5 -5.5t-14.5 -33.5l-31 -199q10 0 46.5 -0.5t52.5 -0.5l118 11l3 -4l-20 -56q-82 3 -135 3q-37 0 -74 -7q-6 -41 -14.5 -94.5t-12.5 -81t-4 -42.5zM508 788l5 -10l-13 -47l-137 -1l-138 -1l-5 9
l16 45q91 -1 147 -1z" />
    <glyph glyph-name="emacron" unicode="&#x113;" horiz-adv-x="359" 
d="M340 386q0 -63 -55 -108t-183 -88q-4 -64 15.5 -103t54.5 -39q30 0 60 23.5t50 62.5l14 -1l15 -24q-29 -53 -73.5 -87t-87.5 -34q-54 0 -85 44t-31 121q0 115 71.5 213t155.5 98q38 0 58.5 -20.5t20.5 -57.5zM229 406q-39 0 -75.5 -51.5t-47.5 -122.5q87 27 125 57t38 71
q0 46 -40 46zM395 653l4 -10l-13 -47l-136 -1l-138 -1l-5 9l15 45q91 -1 148 -1z" />
    <glyph glyph-name="Ebreve" unicode="&#x114;" horiz-adv-x="568" 
d="M185 80q0 -25 14 -32t58 -7q62 0 93 3t54.5 17.5t33 36t21.5 66.5l41 5l2 -5q-28 -82 -47 -166l-5 -5q-199 7 -289 7q-32 0 -65 -2.5t-50 -5.5l-17 -2l11 43q44 6 62 23.5t23 60.5l53 425q4 33 -1.5 43.5t-27.5 10.5l-33 -2l-1 3l11 42q74 -3 131 -3q204 0 289 12l2 -5
q-25 -72 -42 -164l-44 -4q9 39 9 65q0 33 -25.5 41.5t-116.5 8.5q-48 0 -58.5 -5.5t-14.5 -33.5l-31 -199q10 0 46.5 -0.5t52.5 -0.5l118 11l3 -4l-20 -56q-82 3 -135 3q-37 0 -74 -7q-6 -41 -14.5 -94.5t-12.5 -81t-4 -42.5zM368 781q68 0 100 66h9l14 -10q-17 -48 -50 -81
t-80 -33t-72.5 33t-30.5 81l17 10h8q17 -66 85 -66z" />
    <glyph glyph-name="ebreve" unicode="&#x115;" horiz-adv-x="359" 
d="M340 386q0 -63 -55 -108t-183 -88q-4 -64 15.5 -103t54.5 -39q30 0 60 23.5t50 62.5l14 -1l15 -24q-29 -53 -73.5 -87t-87.5 -34q-54 0 -85 44t-31 121q0 115 71.5 213t155.5 98q38 0 58.5 -20.5t20.5 -57.5zM229 406q-39 0 -75.5 -51.5t-47.5 -122.5q87 27 125 57t38 71
q0 46 -40 46zM257 616q31 0 58 17t42 49h9l14 -10q-17 -48 -50 -81t-80 -33t-72.5 33t-30.5 81l17 10h8q8 -32 30.5 -49t54.5 -17z" />
    <glyph glyph-name="Edotaccent" unicode="&#x116;" horiz-adv-x="568" 
d="M185 80q0 -25 14 -32t58 -7q62 0 93 3t54.5 17.5t33 36t21.5 66.5l41 5l2 -5q-28 -82 -47 -166l-5 -5q-199 7 -289 7q-32 0 -65 -2.5t-50 -5.5l-17 -2l11 43q44 6 62 23.5t23 60.5l53 425q4 33 -1.5 43.5t-27.5 10.5l-33 -2l-1 3l11 42q74 -3 131 -3q204 0 289 12l2 -5
q-25 -72 -42 -164l-44 -4q9 39 9 65q0 33 -25.5 41.5t-116.5 8.5q-48 0 -58.5 -5.5t-14.5 -33.5l-31 -199q10 0 46.5 -0.5t52.5 -0.5l118 11l3 -4l-20 -56q-82 3 -135 3q-37 0 -74 -7q-6 -41 -14.5 -94.5t-12.5 -81t-4 -42.5zM359 719q-21 0 -32 13t-11 32q0 26 19 45.5
t47 19.5q20 0 31 -13t11 -32q0 -26 -19 -45.5t-46 -19.5z" />
    <glyph glyph-name="edotaccent" unicode="&#x117;" horiz-adv-x="359" 
d="M340 386q0 -63 -55 -108t-183 -88q-4 -64 15.5 -103t54.5 -39q30 0 60 23.5t50 62.5l14 -1l15 -24q-29 -53 -73.5 -87t-87.5 -34q-54 0 -85 44t-31 121q0 115 71.5 213t155.5 98q38 0 58.5 -20.5t20.5 -57.5zM229 406q-39 0 -75.5 -51.5t-47.5 -122.5q87 27 125 57t38 71
q0 46 -40 46zM246 602q-20 0 -31 13t-11 32q0 26 19 45.5t46 19.5q21 0 32 -13t11 -32q0 -26 -19.5 -45.5t-46.5 -19.5z" />
    <glyph glyph-name="Eogonek" unicode="&#x118;" horiz-adv-x="568" 
d="M447 -159l10 -19q-53 -46 -104 -63q-44 0 -70 22t-26 61q0 35 26 70.5t78 83.5q-130 4 -200 4q-32 0 -65 -2.5t-50 -5.5l-17 -2l11 43q44 6 62 23.5t23 60.5l53 425q4 33 -1.5 43.5t-27.5 10.5l-33 -2l-1 3l11 42q74 -3 131 -3q204 0 289 12l2 -5q-25 -72 -42 -164
l-44 -4q9 39 9 65q0 33 -25.5 41.5t-116.5 8.5q-48 0 -58.5 -5.5t-14.5 -33.5l-31 -199q10 0 46.5 -0.5t52.5 -0.5l118 11l3 -4l-20 -56q-82 3 -135 3q-37 0 -74 -7q-6 -41 -14.5 -94.5t-12.5 -81t-4 -42.5q0 -25 14 -32t58 -7q62 0 93 3t54.5 17.5t33 36t21.5 66.5l41 5
l2 -5q-28 -82 -47 -166l-5 -5q-19 1 -47 2q-47 -46 -64.5 -72.5t-17.5 -56.5q0 -21 13.5 -34.5t35.5 -13.5q16 0 35.5 6t30.5 12z" />
    <glyph glyph-name="eogonek" unicode="&#x119;" horiz-adv-x="359" 
d="M256 -159l10 -19q-53 -46 -104 -63q-44 0 -70 22t-26 61q0 34 24.5 68t73.5 80q-10 -2 -14 -2q-54 0 -85 44t-31 121q0 115 71.5 213t155.5 98q38 0 58.5 -20.5t20.5 -57.5q0 -63 -55 -108t-183 -88q-4 -64 15.5 -103t54.5 -39q30 0 60 23.5t50 62.5l14 -1l15 -24
q-26 -42 -62 -81t-60 -60.5t-41.5 -48t-17.5 -53.5q0 -21 13.5 -34.5t35.5 -13.5q16 0 35.5 6t30.5 12zM229 406q-39 0 -75.5 -51.5t-47.5 -122.5q87 27 125 57t38 71q0 46 -40 46z" />
    <glyph glyph-name="Ecaron" unicode="&#x11a;" horiz-adv-x="568" 
d="M185 80q0 -25 14 -32t58 -7q62 0 93 3t54.5 17.5t33 36t21.5 66.5l41 5l2 -5q-28 -82 -47 -166l-5 -5q-199 7 -289 7q-32 0 -65 -2.5t-50 -5.5l-17 -2l11 43q44 6 62 23.5t23 60.5l53 425q4 33 -1.5 43.5t-27.5 10.5l-33 -2l-1 3l11 42q74 -3 131 -3q204 0 289 12l2 -5
q-25 -72 -42 -164l-44 -4q9 39 9 65q0 33 -25.5 41.5t-116.5 8.5q-48 0 -58.5 -5.5t-14.5 -33.5l-31 -199q10 0 46.5 -0.5t52.5 -0.5l118 11l3 -4l-20 -56q-82 3 -135 3q-37 0 -74 -7q-6 -41 -14.5 -94.5t-12.5 -81t-4 -42.5zM504 837l12 -22l-148 -111h-13l-120 111l16 22
l10 1l109 -65l125 65z" />
    <glyph glyph-name="ecaron" unicode="&#x11b;" horiz-adv-x="359" 
d="M340 386q0 -63 -55 -108t-183 -88q-4 -64 15.5 -103t54.5 -39q30 0 60 23.5t50 62.5l14 -1l15 -24q-29 -53 -73.5 -87t-87.5 -34q-54 0 -85 44t-31 121q0 115 71.5 213t155.5 98q38 0 58.5 -20.5t20.5 -57.5zM229 406q-39 0 -75.5 -51.5t-47.5 -122.5q87 27 125 57t38 71
q0 46 -40 46zM116 686l19 23l8 1q47 -48 110 -101q98 71 135 101l8 -1l13 -23q-33 -32 -73 -72l-64 -64l-23 -24h-13q-63 89 -120 160z" />
    <glyph glyph-name="Gcircumflex" unicode="&#x11c;" horiz-adv-x="640" 
d="M307 -12q-118 0 -190 72t-72 193q0 168 107 281.5t265 113.5q35 0 78.5 -6t68.5 -12l26 -5l3 -6q-28 -74 -45 -164l-43 -4q9 39 9 59q0 84 -131 84q-111 0 -181 -86.5t-70 -225.5q0 -114 51 -181.5t139 -67.5q35 0 69 9.5t50 19.5l16 10l15 126q4 34 -5 44t-42 10h-67
l-1 4l14 47h3q4 0 10.5 -0.5t15.5 -1t20 -1t22.5 -1t24.5 -0.5h25l83 5l1 -20q-30 -20 -40 -89q-14 -84 -14 -122l1 -30l-6 -8q-10 -5 -28 -13t-73 -21t-109 -13zM252 702l-12 22l152 153h14l115 -153l-17 -22l-9 -1l-105 97l-129 -97z" />
    <glyph glyph-name="gcircumflex" unicode="&#x11d;" horiz-adv-x="444" 
d="M339 0q-11 -87 -93.5 -164t-165.5 -77q-62 0 -112.5 39.5t-47.5 86.5l2 5q55 44 187 122l1 9q-51 30 -51 128q0 112 69.5 211.5t148.5 99.5l102 -16l11 25l5 1l31 -15l8 -9q-70 -130 -79 -208q-4 -36 -9 -128.5t-7 -109.5zM153 8q-21 -15 -64.5 -43.5t-66.5 -45.5
t-23 -26q0 -26 37.5 -51t76.5 -25q64 0 109 46.5t55 125.5l25 207l-8 2q-46 -85 -75 -124t-66 -66zM166 87q47 0 181 288q-62 31 -101 31q-45 0 -81.5 -65t-36.5 -145q0 -43 11.5 -76t26.5 -33zM174 527l-12 22l152 153h14l115 -153l-17 -22l-9 -1l-105 97l-129 -97z" />
    <glyph glyph-name="Gbreve" unicode="&#x11e;" horiz-adv-x="640" 
d="M307 -12q-118 0 -190 72t-72 193q0 168 107 281.5t265 113.5q35 0 78.5 -6t68.5 -12l26 -5l3 -6q-28 -74 -45 -164l-43 -4q9 39 9 59q0 84 -131 84q-111 0 -181 -86.5t-70 -225.5q0 -114 51 -181.5t139 -67.5q35 0 69 9.5t50 19.5l16 10l15 126q4 34 -5 44t-42 10h-67
l-1 4l14 47h3q4 0 10.5 -0.5t15.5 -1t20 -1t22.5 -1t24.5 -0.5h25l83 5l1 -20q-30 -20 -40 -89q-14 -84 -14 -122l1 -30l-6 -8q-10 -5 -28 -13t-73 -21t-109 -13zM404 788q69 0 99 50h8l15 -10q-17 -42 -49.5 -70t-79.5 -28t-72.5 28t-32.5 70l18 10h8q18 -50 86 -50z" />
    <glyph glyph-name="gbreve" unicode="&#x11f;" horiz-adv-x="444" 
d="M166 87q47 0 181 288q-62 31 -101 31q-45 0 -81.5 -65t-36.5 -145q0 -43 11.5 -76t26.5 -33zM153 8q-21 -15 -64.5 -43.5t-66.5 -45.5t-23 -26q0 -26 37.5 -51t76.5 -25q64 0 109 46.5t55 125.5l25 207l-8 2q-46 -85 -75 -124t-66 -66zM339 0q-11 -87 -93.5 -164
t-165.5 -77q-62 0 -112.5 39.5t-47.5 86.5l2 5q55 44 187 122l1 9q-51 30 -51 128q0 112 69.5 211.5t148.5 99.5l102 -16l11 25l5 1l31 -15l8 -9q-70 -130 -79 -208q-4 -36 -9 -128.5t-7 -109.5zM299 616q31 0 58 17t42 49h9l14 -10q-17 -48 -50 -81t-80 -33t-72.5 33
t-30.5 81l17 10h8q8 -32 30.5 -49t54.5 -17z" />
    <glyph glyph-name="Gdotaccent" unicode="&#x120;" horiz-adv-x="640" 
d="M307 -12q-118 0 -190 72t-72 193q0 168 107 281.5t265 113.5q35 0 78.5 -6t68.5 -12l26 -5l3 -6q-28 -74 -45 -164l-43 -4q9 39 9 59q0 84 -131 84q-111 0 -181 -86.5t-70 -225.5q0 -114 51 -181.5t139 -67.5q35 0 69 9.5t50 19.5l16 10l15 126q4 34 -5 44t-42 10h-67
l-1 4l14 47h3q4 0 10.5 -0.5t15.5 -1t20 -1t22.5 -1t24.5 -0.5h25l83 5l1 -20q-30 -20 -40 -89q-14 -84 -14 -122l1 -30l-6 -8q-10 -5 -28 -13t-73 -21t-109 -13zM395 719q-21 0 -32 13t-11 32q0 26 19 45.5t47 19.5q20 0 31 -13t11 -32q0 -26 -19 -45.5t-46 -19.5z" />
    <glyph glyph-name="gdotaccent" unicode="&#x121;" horiz-adv-x="444" 
d="M166 87q47 0 181 288q-62 31 -101 31q-45 0 -81.5 -65t-36.5 -145q0 -43 11.5 -76t26.5 -33zM153 8q-21 -15 -64.5 -43.5t-66.5 -45.5t-23 -26q0 -26 37.5 -51t76.5 -25q64 0 109 46.5t55 125.5l25 207l-8 2q-46 -85 -75 -124t-66 -66zM339 0q-11 -87 -93.5 -164
t-165.5 -77q-62 0 -112.5 39.5t-47.5 86.5l2 5q55 44 187 122l1 9q-51 30 -51 128q0 112 69.5 211.5t148.5 99.5l102 -16l11 25l5 1l31 -15l8 -9q-70 -130 -79 -208q-4 -36 -9 -128.5t-7 -109.5zM280 602q-20 0 -31 13t-11 32q0 26 19 45.5t46 19.5q21 0 32 -13t11 -32
q0 -26 -19.5 -45.5t-46.5 -19.5z" />
    <glyph glyph-name="Gcommaaccent" unicode="&#x122;" horiz-adv-x="640" 
d="M307 -12q-118 0 -190 72t-72 193q0 168 107 281.5t265 113.5q35 0 78.5 -6t68.5 -12l26 -5l3 -6q-28 -74 -45 -164l-43 -4q9 39 9 59q0 84 -131 84q-111 0 -181 -86.5t-70 -225.5q0 -114 51 -181.5t139 -67.5q35 0 69 9.5t50 19.5l16 10l15 126q4 34 -5 44t-42 10h-67
l-1 4l14 47h3q4 0 10.5 -0.5t15.5 -1t20 -1t22.5 -1t24.5 -0.5h25l83 5l1 -20q-30 -20 -40 -89q-14 -84 -14 -122l1 -30l-6 -8q-10 -5 -28 -13t-73 -21t-109 -13zM231 -107l2 14q34 26 58 26q23 0 38.5 -19.5t15.5 -51.5q0 -49 -38 -88.5t-90 -66.5l-18 15v10
q31 19 51.5 46.5t20.5 52.5q0 38 -40 62z" />
    <glyph glyph-name="gcommaaccent" unicode="&#x123;" horiz-adv-x="444" 
d="M166 87q47 0 181 288q-62 31 -101 31q-45 0 -81.5 -65t-36.5 -145q0 -43 11.5 -76t26.5 -33zM153 8q-21 -15 -64.5 -43.5t-66.5 -45.5t-23 -26q0 -26 37.5 -51t76.5 -25q64 0 109 46.5t55 125.5l25 207l-8 2q-46 -85 -75 -124t-66 -66zM339 0q-11 -87 -93.5 -164
t-165.5 -77q-62 0 -112.5 39.5t-47.5 86.5l2 5q55 44 187 122l1 9q-51 30 -51 128q0 112 69.5 211.5t148.5 99.5l102 -16l11 25l5 1l31 -15l8 -9q-70 -130 -79 -208q-4 -36 -9 -128.5t-7 -109.5zM358 554l-2 -14q-34 -26 -58 -26q-23 0 -38.5 19.5t-15.5 51.5q0 49 38 88.5
t90 66.5l18 -15v-10q-31 -19 -51.5 -46.5t-20.5 -52.5q0 -38 40 -62z" />
    <glyph glyph-name="Hcircumflex" unicode="&#x124;" horiz-adv-x="723" 
d="M633 546q-68 -415 -68 -462q0 -24 8 -33.5t28 -9.5l44 3q1 -2 0 -3l-13 -44q-77 3 -119 3h-31q-15 0 -34.5 -0.5t-29.5 -1.5h-11l13 43q45 1 62 21.5t25 86.5l18 154q-103 1 -148 1l-162 -11l-17 -120q-12 -92 -10 -106q2 -15 9.5 -20t25.5 -5l44 3q0 -1 0.5 -2t0.5 -2
l-14 -44q0 3 -78 3q-43 0 -95 -4t-53 -8l11 43q53 11 69 33t22 87l48 391q4 33 -1.5 43.5t-27.5 10.5l-32 -2l-2 3l12 43q69 -4 106 -4q18 0 43 2.5t41 5.5l16 2l-8 -43q-43 -7 -55 -22t-20 -70l-26 -164q27 0 81.5 -0.5t81.5 -0.5q62 0 145 10l24 186q5 32 -1.5 43
t-27.5 11l-33 -2l-2 3l13 43l15 -1q15 -1 37.5 -2t37.5 -1q20 0 49 2.5t48 5.5l19 2l-8 -43q-37 -5 -51 -16.5t-19 -40.5zM301 728l-12 22l152 153h14l115 -153l-17 -22l-9 -1l-105 97l-129 -97z" />
    <glyph glyph-name="hcircumflex" unicode="&#x125;" horiz-adv-x="490" 
d="M340 64l3 -4q7 0 20 10t59 49l12 -1l13 -24q-107 -106 -140 -106q-31 0 -31 29t38 153t38 160q0 18 -9.5 29.5t-24.5 11.5q-31 0 -82.5 -75.5t-103.5 -197.5l-11 -84q-1 -5 -25.5 -14t-36.5 -9l-7 9q96 610 96 650q0 39 -42 39h-41l6 38l161 6l9 -12q-64 -269 -101 -519
l5 -3q107 209 203 265q32 0 55.5 -28.5t23.5 -68.5q0 -39 -40.5 -156t-46.5 -147zM60 765l-12 22l152 153h14l115 -153l-17 -22l-9 -1l-105 97l-129 -97z" />
    <glyph glyph-name="Hbar" unicode="&#x126;" horiz-adv-x="723" 
d="M633 546q-6 -32 -8 -49l87 3l13 -13l-4 -37l-104 -1q-52 -322 -52 -365q0 -24 8 -33.5t28 -9.5l44 3q1 -2 0 -3l-13 -44q-77 3 -119 3h-31q-15 0 -34.5 -0.5t-29.5 -1.5h-11l13 43q45 1 62 21.5t25 86.5l18 154q-103 1 -148 1l-162 -11l-17 -120q-12 -92 -10 -106
q2 -15 9.5 -20t25.5 -5l44 3q0 -1 0.5 -2t0.5 -2l-14 -44q0 3 -78 3q-43 0 -95 -4t-53 -8l11 43q53 11 69 33t22 87l36 297h-97l-9 9l7 39q46 -1 105 -1l6 47q4 33 -1.5 43.5t-27.5 10.5l-32 -2l-2 3l12 43q69 -4 106 -4q18 0 43 2.5t41 5.5l16 2l-8 -43q-43 -7 -55 -22
t-20 -70l-3 -16h167q90 0 136 1l6 46q5 32 -1.5 43t-27.5 11l-33 -2l-2 3l13 43l15 -1q15 -1 37.5 -2t37.5 -1q20 0 49 2.5t48 5.5l19 2l-8 -43q-37 -5 -51 -16.5t-19 -40.5zM392 449h-152l-16 -102q27 0 81.5 -0.5t81.5 -0.5q62 0 145 10l12 93h-152z" />
    <glyph glyph-name="hbar" unicode="&#x127;" horiz-adv-x="490" 
d="M340 64l3 -4q7 0 20 10t59 49l12 -1l13 -24q-107 -106 -140 -106q-31 0 -31 29t38 153t38 160q0 18 -9.5 29.5t-24.5 11.5q-31 0 -82.5 -75.5t-103.5 -197.5l-11 -84q-1 -5 -25.5 -14t-36.5 -9l-7 9q52 332 79 522l-90 -1l-9 9l7 39l99 -1q10 73 10 82q0 39 -42 39h-41
l6 38l161 6l9 -12q-15 -61 -34 -152l77 4l13 -13l-4 -37l-96 -1q-38 -184 -57 -320l5 -3q107 209 203 265q32 0 55.5 -28.5t23.5 -68.5q0 -39 -40.5 -156t-46.5 -147z" />
    <glyph glyph-name="Itilde" unicode="&#x128;" horiz-adv-x="347" 
d="M256 546q-70 -406 -70 -461q0 -24 8.5 -33.5t28.5 -9.5l51 3l2 -4l-14 -44q-79 3 -125 3q-21 0 -49 -3t-45 -6l-17 -3l12 43q46 9 64.5 27t23.5 60l52 424q4 32 -2 43t-27 11l-41 -2v1q-1 1 -1 2l12 43h4q4 0 11 -0.5t16.5 -1t20.5 -1t21.5 -1t21 -0.5h18.5
q20 0 47.5 2.5t44.5 5.5l18 2l-10 -43q-41 -5 -56.5 -17t-19.5 -40zM103 726h-7l-19 21l1 5l84 89l15 4q17 0 70.5 -16.5t66.5 -16.5q10 0 26.5 14t28.5 28l12 13h6l20 -21l-1 -5l-84 -89l-16 -4q-17 0 -70 16.5t-66 16.5q-10 0 -27 -13.5t-29 -27.5z" />
    <glyph glyph-name="itilde" unicode="&#x129;" horiz-adv-x="282" 
d="M39 551h-7l-19 21l1 5l84 89l15 4q17 0 70.5 -16.5t66.5 -16.5q10 0 26.5 13.5t28.5 27.5l12 14h6l20 -21l-1 -5l-84 -89l-16 -4q-17 0 -70 16.5t-66 16.5q-10 0 -27 -14t-29 -28zM130 64l3 -4q12 0 79 59l12 -1l13 -24q-106 -106 -140 -106q-30 0 -30 35q51 308 51 343
q0 22 -10 32t-32 10h-41l7 38l162 6l9 -12q-57 -190 -83 -376z" />
    <glyph glyph-name="Imacron" unicode="&#x12a;" horiz-adv-x="347" 
d="M256 546q-70 -406 -70 -461q0 -24 8.5 -33.5t28.5 -9.5l51 3l2 -4l-14 -44q-79 3 -125 3q-21 0 -49 -3t-45 -6l-17 -3l12 43q46 9 64.5 27t23.5 60l52 424q4 32 -2 43t-27 11l-41 -2v1q-1 1 -1 2l12 43h4q4 0 11 -0.5t16.5 -1t20.5 -1t21.5 -1t21 -0.5h18.5
q20 0 47.5 2.5t44.5 5.5l18 2l-10 -43q-41 -5 -56.5 -17t-19.5 -40zM382 788l5 -10l-13 -47l-137 -1l-138 -1l-5 9l16 45q91 -1 147 -1z" />
    <glyph glyph-name="imacron" unicode="&#x12b;" horiz-adv-x="282" 
d="M307 653l3 -10l-11 -47l-123 -1l-124 -1l-5 9l14 45q82 -1 133 -1zM130 64l3 -4q12 0 79 59l12 -1l13 -24q-106 -106 -140 -106q-30 0 -30 35q51 308 51 343q0 22 -10 32t-32 10h-41l7 38l162 6l9 -12q-57 -190 -83 -376z" />
    <glyph glyph-name="Ibreve" unicode="&#x12c;" horiz-adv-x="347" 
d="M256 546q-70 -406 -70 -461q0 -24 8.5 -33.5t28.5 -9.5l51 3l2 -4l-14 -44q-79 3 -125 3q-21 0 -49 -3t-45 -6l-17 -3l12 43q46 9 64.5 27t23.5 60l52 424q4 32 -2 43t-27 11l-41 -2v1q-1 1 -1 2l12 43h4q4 0 11 -0.5t16.5 -1t20.5 -1t21.5 -1t21 -0.5h18.5
q20 0 47.5 2.5t44.5 5.5l18 2l-10 -43q-41 -5 -56.5 -17t-19.5 -40zM237 778q69 0 99 50h8l15 -10q-17 -42 -50 -70t-79 -28t-72 28t-33 70l18 10h8q18 -50 86 -50z" />
    <glyph glyph-name="ibreve" unicode="&#x12d;" horiz-adv-x="282" 
d="M179 616q68 0 100 66h9l14 -10q-17 -48 -50 -81t-80 -33t-72.5 33t-30.5 81l17 10h8q8 -32 30.5 -49t54.5 -17zM130 64l3 -4q12 0 79 59l12 -1l13 -24q-106 -106 -140 -106q-30 0 -30 35q51 308 51 343q0 22 -10 32t-32 10h-41l7 38l162 6l9 -12q-57 -190 -83 -376z" />
    <glyph glyph-name="Iogonek" unicode="&#x12e;" horiz-adv-x="347" 
d="M258 -160l10 -19q-53 -46 -104 -63q-44 0 -70 22t-26 61q0 36 27.5 72.5t81.5 86.5h-40q-21 0 -49 -3t-45 -6l-17 -3l12 43q46 9 64.5 27t23.5 60l52 424q4 32 -2 43t-27 11l-41 -2v1q-1 1 -1 2l12 43h4q4 0 11 -0.5t16.5 -1t20.5 -1t21.5 -1t21 -0.5h18.5q20 0 47.5 2.5
t44.5 5.5l18 2l-10 -43q-41 -5 -56.5 -17t-19.5 -40q-70 -406 -70 -461q0 -24 8.5 -33.5t28.5 -9.5l51 3l2 -4l-14 -44q-20 1 -43 2q-50 -48 -68.5 -76t-18.5 -58q0 -21 13.5 -34.5t35.5 -13.5q16 0 35.5 5.5t30.5 11.5z" />
    <glyph glyph-name="iogonek" unicode="&#x12f;" horiz-adv-x="282" 
d="M174 -159l10 -19q-53 -46 -104 -63q-44 0 -70 22t-26 61q0 34 24.5 68t73.5 80q-15 7 -15 33q51 308 51 343q0 22 -10 32t-32 10h-41l7 38l162 6l9 -12q-57 -190 -83 -376l3 -4q12 0 79 59l12 -1l13 -24q-21 -20 -50 -46.5t-43.5 -40t-33.5 -32.5t-28 -30.5t-18 -25.5
t-12.5 -26.5t-3.5 -26.5q0 -21 13.5 -34.5t35.5 -13.5q16 0 35.5 6t30.5 12zM178 592q-20 0 -31 13t-11 31q0 26 18.5 46t45.5 20q19 0 30 -13t11 -31q0 -27 -18 -46.5t-45 -19.5z" />
    <glyph glyph-name="Idotaccent" unicode="&#x130;" horiz-adv-x="347" 
d="M256 546q-70 -406 -70 -461q0 -24 8.5 -33.5t28.5 -9.5l51 3l2 -4l-14 -44q-79 3 -125 3q-21 0 -49 -3t-45 -6l-17 -3l12 43q46 9 64.5 27t23.5 60l52 424q4 32 -2 43t-27 11l-41 -2v1q-1 1 -1 2l12 43h4q4 0 11 -0.5t16.5 -1t20.5 -1t21.5 -1t21 -0.5h18.5
q20 0 47.5 2.5t44.5 5.5l18 2l-10 -43q-41 -5 -56.5 -17t-19.5 -40zM233 719q-21 0 -32 13t-11 32q0 26 19 45.5t47 19.5q20 0 31 -13t11 -32q0 -26 -19 -45.5t-46 -19.5z" />
    <glyph glyph-name="dotlessi" unicode="&#x131;" horiz-adv-x="264" 
d="M130 64l3 -4q12 0 79 59l12 -1l13 -24q-106 -106 -140 -106q-30 0 -30 35q51 308 51 343q0 22 -10 32t-32 10h-41l7 38l162 6l9 -12q-57 -190 -83 -376z" />
    <glyph glyph-name="IJ" unicode="&#x132;" horiz-adv-x="660" 
d="M256 546q-70 -406 -70 -461q0 -24 8.5 -33.5t28.5 -9.5l51 3l2 -4l-14 -44q-79 3 -125 3q-21 0 -49 -3t-45 -6l-17 -3l12 43q46 9 64.5 27t23.5 60l52 424q4 32 -2 43t-27 11l-41 -2v1q-1 1 -1 2l12 43h4q4 0 11 -0.5t16.5 -1t20.5 -1t21.5 -1t21 -0.5h18.5
q20 0 47.5 2.5t44.5 5.5l18 2l-10 -43q-41 -5 -56.5 -17t-19.5 -40zM461 114l54 428q4 32 -2 42.5t-27 10.5l-47 -4v3l11 42h103l110 9l-8 -42q-35 -5 -46.5 -15.5t-16.5 -41.5q-31 -184 -65 -428q-13 -102 -56.5 -164t-127.5 -97l-12 32l3 8q63 36 89.5 82t37.5 135z" />
    <glyph glyph-name="ij" unicode="&#x133;" horiz-adv-x="509" 
d="M178 592q-20 0 -31 13t-11 31q0 26 18.5 46t45.5 20q19 0 30 -13t11 -31q0 -27 -18 -46.5t-45 -19.5zM130 64l3 -4q12 0 79 59l12 -1l13 -24q-106 -106 -140 -106q-30 0 -30 35q51 308 51 343q0 22 -10 32t-32 10h-41l7 38l162 6l9 -12q-57 -190 -83 -376zM388 21
q-14 -101 -56 -162.5t-116 -99.5l-15 19l3 8q59 42 87 95.5t41 156.5q50 292 50 327q0 43 -44 43h-41l8 38l159 6l10 -12q-65 -261 -86 -419zM439 592q-19 0 -30.5 12t-11.5 32q0 27 19 46.5t45 19.5q19 0 30.5 -12t11.5 -32q0 -27 -19 -46.5t-45 -19.5z" />
    <glyph glyph-name="Jcircumflex" unicode="&#x134;" horiz-adv-x="314" 
d="M114 114l54 428q4 32 -2 42.5t-27 10.5l-47 -4v3l11 42h103l110 9l-8 -42q-35 -5 -46.5 -15.5t-16.5 -41.5q-31 -184 -65 -428q-13 -102 -56.5 -164t-127.5 -97l-12 32l3 8q63 36 89.5 82t37.5 135zM103 702l-12 22l152 153h14l115 -153l-17 -22l-9 -1l-105 97l-129 -97z
" />
    <glyph glyph-name="jcircumflex" unicode="&#x135;" horiz-adv-x="250" 
d="M124 21q-14 -101 -56 -162.5t-116 -99.5l-15 19l3 8q59 42 87 95.5t41 156.5q50 292 50 327q0 43 -44 43h-41l8 38l159 6l10 -12q-65 -261 -86 -419zM29 528l-12 22l152 153h14l115 -153l-17 -22l-9 -1l-105 97l-129 -97z" />
    <glyph glyph-name="Kcommaaccent" unicode="&#x136;" horiz-adv-x="605" 
d="M126 118l52 424q4 33 -1.5 43.5t-27.5 10.5l-32 -2l-2 3l12 43q68 -4 105 -4q18 0 43.5 2.5t41.5 5.5l16 2l-8 -43q-37 -5 -52 -18t-20 -42l-65 -434q-6 -39 1.5 -53t33.5 -14l44 3l2 -4l-15 -44q-74 3 -117 3l-109 -1l15 43q46 5 62 19t21 57zM242 315l2 13l198 189
q36 35 36 54q0 24 -57 28l-2 4l12 41q68 -8 104 -8l87 4l2 -6l-10 -39q-26 -5 -49 -20.5t-72 -61.5l-178 -174l136 -221q30 -47 55 -66t58 -19l3 -3l-9 -32q-69 -12 -79 -12q-47 0 -97 86zM220 -107l2 14q34 26 58 26q23 0 38.5 -19.5t15.5 -51.5q0 -49 -38 -88.5t-90 -66.5
l-18 15v10q31 19 51.5 46.5t20.5 52.5q0 38 -40 62z" />
    <glyph glyph-name="kcommaaccent" unicode="&#x137;" horiz-adv-x="432" 
d="M320 -17l-108 196l4 15q136 69 136 140q0 16 -9.5 26.5t-23.5 10.5q-31 0 -83.5 -76.5t-103.5 -197.5l-11 -83q-1 -5 -25.5 -14t-36.5 -9l-7 9q96 610 96 650q0 39 -42 39h-41l6 38l161 6l9 -12q-64 -269 -101 -519l5 -3q107 209 203 265q32 0 54 -27t22 -65
q0 -95 -154 -186q28 -44 58.5 -85.5t47.5 -60.5l16 -20l2 -12l-61 -32zM152 -107l2 14q34 26 58 26q23 0 38.5 -19.5t15.5 -51.5q0 -49 -38 -88.5t-90 -66.5l-18 15v10q31 19 51.5 46.5t20.5 52.5q0 38 -40 62z" />
    <glyph glyph-name="kgreenlandic" unicode="&#x138;" horiz-adv-x="493" 
d="M14 -6l10 41q34 5 44.5 22.5t18.5 77.5l27 223q3 29 -7.5 39t-41.5 10l-5 5l8 35l133 17l4 -13q-9 -35 -32.5 -189t-23.5 -181q0 -39 29 -39l33 2l2 -4l-14 -43q-53 3 -88 3zM283 71l-92 167l4 14l129 112q27 22 27 37q0 19 -50 19l-2 5l12 29q60 -2 95 -2l93 6l2 -5
l-11 -31q-36 -11 -78.5 -43t-144.5 -126l83 -135q27 -44 51 -63t54 -19l2 -5l-9 -29q-58 -16 -73 -16q-16 0 -33 10q-27 13 -59 75z" />
    <glyph glyph-name="Lacute" unicode="&#x139;" horiz-adv-x="488" 
d="M167 0q-32 0 -64.5 -2.5t-48.5 -5.5l-16 -2l12 43q38 6 54 24t21 60l53 425q4 32 -2 43t-27 11l-33 -2v1q-1 1 -1 2l12 43q-1 0 18 -1t45.5 -2t42.5 -1q18 0 43 2.5t41 5.5l16 2l-8 -42q-42 -7 -52.5 -20.5t-22.5 -75.5q-16 -86 -39 -239.5t-23 -177.5q0 -31 14.5 -40.5
t61.5 -9.5q85 0 115 24.5t56 116.5l42 4l1 -2v-2q-28 -89 -51 -186l-5 -5q-166 9 -255 9zM407 787l-4 -10q-101 -34 -206 -74l-8 5l-6 24l199 109l9 -6z" />
    <glyph glyph-name="lacute" unicode="&#x13a;" horiz-adv-x="250" 
d="M118 64l3 -4q12 0 79 59l12 -1l13 -24q-106 -106 -140 -106q-31 0 -31 29q0 6 47 307.5t47 324.5q0 40 -42 40h-41l6 38l161 6l9 -12q-89 -400 -123 -657zM292 902l-1 -11q-84 -64 -168 -140l-9 2l-20 19q32 35 69.5 78t58.5 69l22 26l10 -2z" />
    <glyph glyph-name="Lcommaaccent" unicode="&#x13b;" horiz-adv-x="488" 
d="M167 0q-32 0 -64.5 -2.5t-48.5 -5.5l-16 -2l12 43q38 6 54 24t21 60l53 425q4 32 -2 43t-27 11l-33 -2v1q-1 1 -1 2l12 43q-1 0 18 -1t45.5 -2t42.5 -1q18 0 43 2.5t41 5.5l16 2l-8 -42q-42 -7 -52.5 -20.5t-22.5 -75.5q-16 -86 -39 -239.5t-23 -177.5q0 -31 14.5 -40.5
t61.5 -9.5q85 0 115 24.5t56 116.5l42 4l1 -2v-2q-28 -89 -51 -186l-5 -5q-166 9 -255 9zM190 -107l2 14q34 26 58 26q23 0 38.5 -19.5t15.5 -51.5q0 -49 -38 -88.5t-90 -66.5l-18 15v10q31 19 51.5 46.5t20.5 52.5q0 38 -40 62z" />
    <glyph glyph-name="lcommaaccent" unicode="&#x13c;" horiz-adv-x="250" 
d="M118 64l3 -4q12 0 79 59l12 -1l13 -24q-106 -106 -140 -106q-31 0 -31 29q0 6 47 307.5t47 324.5q0 40 -42 40h-41l6 38l161 6l9 -12q-89 -400 -123 -657zM25 -107l2 14q34 26 58 26q23 0 38.5 -19.5t15.5 -51.5q0 -49 -38 -88.5t-90 -66.5l-18 15v10q31 19 51.5 46.5
t20.5 52.5q0 38 -40 62z" />
    <glyph glyph-name="Lcaron" unicode="&#x13d;" horiz-adv-x="488" 
d="M496 634l7 -8q-14 -110 -35 -212l-25 -14l-11 2q2 57 0.5 105.5t-4.5 80.5l-2 32zM167 0q-32 0 -64.5 -2.5t-48.5 -5.5l-16 -2l12 43q38 6 54 24t21 60l53 425q4 32 -2 43t-27 11l-33 -2v1q-1 1 -1 2l12 43q-1 0 18 -1t45.5 -2t42.5 -1q18 0 43 2.5t41 5.5l16 2l-8 -42
q-42 -7 -52.5 -20.5t-22.5 -75.5q-16 -86 -39 -239.5t-23 -177.5q0 -31 14.5 -40.5t61.5 -9.5q85 0 115 24.5t56 116.5l42 4l1 -2v-2q-28 -89 -51 -186l-5 -5q-166 9 -255 9z" />
    <glyph glyph-name="lcaron" unicode="&#x13e;" horiz-adv-x="326" 
d="M118 64l3 -4q12 0 79 59l12 -1l13 -24q-106 -106 -140 -106q-31 0 -31 29q0 6 47 307.5t47 324.5q0 40 -42 40h-41l6 38l161 6l9 -12q-89 -400 -123 -657zM371 709l5 -8q-27 -110 -59 -212l-28 -14l-10 2q8 49 13 103.5t6 84.5l2 30z" />
    <glyph glyph-name="Ldot" unicode="&#x13f;" horiz-adv-x="488" 
d="M167 0q-32 0 -64.5 -2.5t-48.5 -5.5l-16 -2l12 43q38 6 54 24t21 60l53 425q4 32 -2 43t-27 11l-33 -2v1q-1 1 -1 2l12 43q-1 0 18 -1t45.5 -2t42.5 -1q18 0 43 2.5t41 5.5l16 2l-8 -42q-42 -7 -52.5 -20.5t-22.5 -75.5q-16 -86 -39 -239.5t-23 -177.5q0 -31 14.5 -40.5
t61.5 -9.5q85 0 115 24.5t56 116.5l42 4l1 -2v-2q-28 -89 -51 -186l-5 -5q-166 9 -255 9zM435 413q-24 0 -36 14.5t-12 35.5q0 28 19.5 48.5t48.5 20.5q24 0 37 -14t13 -36q0 -28 -20 -48.5t-50 -20.5z" />
    <glyph glyph-name="ldot" unicode="&#x140;" horiz-adv-x="316" 
d="M118 64l3 -4q12 0 79 59l12 -1l13 -24q-106 -106 -140 -106q-31 0 -31 29q0 6 47 307.5t47 324.5q0 40 -42 40h-41l6 38l161 6l9 -12q-89 -400 -123 -657zM253 219q-24 0 -36 14.5t-12 35.5q0 28 19.5 48.5t48.5 20.5q24 0 37 -14t13 -36q0 -28 -20 -48.5t-50 -20.5z" />
    <glyph glyph-name="Lslash" unicode="&#x141;" horiz-adv-x="488" 
d="M167 0q-32 0 -64.5 -2.5t-48.5 -5.5l-16 -2l12 43q38 6 54 24t21 60l24 191l-101 -50l-9 3l-5 32l120 60l24 189q4 32 -2 43t-27 11l-33 -2v1q-1 1 -1 2l12 43q-1 0 18 -1t45.5 -2t42.5 -1q18 0 43 2.5t41 5.5l16 2l-8 -42q-42 -7 -52.5 -20.5t-22.5 -75.5l-22 -125
l143 71l8 -5l5 -31l-163 -80q-33 -215 -33 -247q0 -31 14.5 -40.5t61.5 -9.5q85 0 115 24.5t56 116.5l42 4l1 -2v-2q-28 -89 -51 -186l-5 -5q-166 9 -255 9z" />
    <glyph glyph-name="lslash" unicode="&#x142;" horiz-adv-x="250" 
d="M118 64l3 -4q12 0 79 59l12 -1l13 -24q-106 -106 -140 -106q-31 0 -31 29q0 13 50 327l-66 -36l-9 2l-6 32l88 49q37 235 37 258q0 40 -42 40h-41l6 38l161 6l9 -12q-30 -134 -62 -296l69 38l8 -4l6 -31l-92 -51q-37 -197 -52 -313z" />
    <glyph glyph-name="Nacute" unicode="&#x143;" horiz-adv-x="691" 
d="M520 134h4l52 418q4 43 -27 43h-10.5t-10 -0.5t-8 -0.5h-5.5h-2l-2 4l14 42q57 -4 89 -4q18 0 41.5 2t38.5 4l15 3l-10 -44q-66 -9 -74 -63l-82 -566l-25 -14q-68 138 -141 279t-113 213l-39 72h-4l-60 -441q-3 -22 2.5 -30.5t22.5 -8.5h49l2 -3l-14 -43q-58 4 -100 4
l-89 -8l11 43q59 7 67 63l67 443q4 30 -12.5 43t-64.5 18q0 1 -0.5 2.5t-0.5 2.5l11 34q55 -5 81 -5l62 4q58 -117 124 -243.5t103 -194.5zM578 787l-4 -10q-101 -34 -206 -74l-8 5l-6 24l199 109l9 -6z" />
    <glyph glyph-name="nacute" unicode="&#x144;" horiz-adv-x="502" 
d="M352 64l3 -4q7 0 20 10t59 49l12 -1l13 -24q-106 -106 -140 -106q-31 0 -31 29t38 153t38 160q0 18 -9.5 29.5t-24.5 11.5q-31 0 -82.5 -76t-103.5 -199l-11 -82q-1 -5 -25.5 -14t-36.5 -9l-7 9q55 336 55 368q0 21 -10 30.5t-33 9.5h-41l7 38l162 6l9 -12
q-42 -121 -61 -238l5 -3q107 209 203 265q32 0 54 -27.5t22 -68.5q0 -39 -39 -157.5t-45 -146.5zM436 672l-1 -11q-84 -64 -168 -140l-9 2l-20 19q32 35 69.5 78t58.5 69l22 26l10 -2z" />
    <glyph glyph-name="Ncommaaccent" unicode="&#x145;" horiz-adv-x="691" 
d="M520 134h4l52 418q4 43 -27 43h-10.5t-10 -0.5t-8 -0.5h-5.5h-2l-2 4l14 42q57 -4 89 -4q18 0 41.5 2t38.5 4l15 3l-10 -44q-66 -9 -74 -63l-82 -566l-25 -14q-68 138 -141 279t-113 213l-39 72h-4l-60 -441q-3 -22 2.5 -30.5t22.5 -8.5h49l2 -3l-14 -43q-58 4 -100 4
l-89 -8l11 43q59 7 67 63l67 443q4 30 -12.5 43t-64.5 18q0 1 -0.5 2.5t-0.5 2.5l11 34q55 -5 81 -5l62 4q58 -117 124 -243.5t103 -194.5zM256 -107l2 14q34 26 58 26q23 0 38.5 -19.5t15.5 -51.5q0 -49 -38 -88.5t-90 -66.5l-18 15v10q31 19 51.5 46.5t20.5 52.5
q0 38 -40 62z" />
    <glyph glyph-name="ncommaaccent" unicode="&#x146;" horiz-adv-x="502" 
d="M352 64l3 -4q7 0 20 10t59 49l12 -1l13 -24q-106 -106 -140 -106q-31 0 -31 29t38 153t38 160q0 18 -9.5 29.5t-24.5 11.5q-31 0 -82.5 -76t-103.5 -199l-11 -82q-1 -5 -25.5 -14t-36.5 -9l-7 9q55 336 55 368q0 21 -10 30.5t-33 9.5h-41l7 38l162 6l9 -12
q-42 -121 -61 -238l5 -3q107 209 203 265q32 0 54 -27.5t22 -68.5q0 -39 -39 -157.5t-45 -146.5zM169 -107l2 14q34 26 58 26q23 0 38.5 -19.5t15.5 -51.5q0 -49 -38 -88.5t-90 -66.5l-18 15v10q31 19 51.5 46.5t20.5 52.5q0 38 -40 62z" />
    <glyph glyph-name="Ncaron" unicode="&#x147;" horiz-adv-x="691" 
d="M520 134h4l52 418q4 43 -27 43h-10.5t-10 -0.5t-8 -0.5h-5.5h-2l-2 4l14 42q57 -4 89 -4q18 0 41.5 2t38.5 4l15 3l-10 -44q-66 -9 -74 -63l-82 -566l-25 -14q-68 138 -141 279t-113 213l-39 72h-4l-60 -441q-3 -22 2.5 -30.5t22.5 -8.5h49l2 -3l-14 -43q-58 4 -100 4
l-89 -8l11 43q59 7 67 63l67 443q4 30 -12.5 43t-64.5 18q0 1 -0.5 2.5t-0.5 2.5l11 34q55 -5 81 -5l62 4q58 -117 124 -243.5t103 -194.5zM555 837l12 -22l-148 -111h-13l-120 111l16 22l10 1l109 -65l125 65z" />
    <glyph glyph-name="ncaron" unicode="&#x148;" horiz-adv-x="502" 
d="M352 64l3 -4q7 0 20 10t59 49l12 -1l13 -24q-106 -106 -140 -106q-31 0 -31 29t38 153t38 160q0 18 -9.5 29.5t-24.5 11.5q-31 0 -82.5 -76t-103.5 -199l-11 -82q-1 -5 -25.5 -14t-36.5 -9l-7 9q55 336 55 368q0 21 -10 30.5t-33 9.5h-41l7 38l162 6l9 -12
q-42 -121 -61 -238l5 -3q107 209 203 265q32 0 54 -27.5t22 -68.5q0 -39 -39 -157.5t-45 -146.5zM172 686l19 23l8 1q47 -48 110 -101q98 71 135 101l8 -1l13 -23q-33 -32 -73 -72l-64 -64l-23 -24h-13q-63 89 -120 160z" />
    <glyph glyph-name="Eng" unicode="&#x14a;" horiz-adv-x="691" 
d="M189 637l71 4q48 -99 112.5 -223t105.5 -198l40 -75h5l50 405q4 43 -27 43l-36 -1l-2 4l15 45q61 -4 92 -4q18 0 42.5 2t39.5 4l15 2l-10 -46q-35 -4 -51.5 -19t-21.5 -44l-64 -450q-16 -97 -62 -153t-136 -87l-13 33l4 8q98 40 132 121q-62 125 -127.5 250.5
t-100.5 189.5l-34 63h-5l-57 -427q-3 -23 2.5 -31.5t22.5 -8.5l48 2l2 -4l-14 -46q-63 4 -109 4q-17 0 -38.5 -2t-34.5 -4l-13 -2l11 46q33 3 48 20.5t23 65.5l62 414q4 29 -11 42t-64 20l-3 5l12 37q58 -5 79 -5z" />
    <glyph glyph-name="eng" unicode="&#x14b;" horiz-adv-x="502" 
d="M300 38q3 11 22 82.5t30.5 125t11.5 84.5q0 18 -9.5 29.5t-24.5 11.5q-31 0 -82.5 -76t-103.5 -199l-11 -82q-1 -5 -25.5 -14t-36.5 -9l-7 9q55 336 55 368q0 21 -10 30.5t-33 9.5h-41l7 38l162 6l9 -12q-42 -121 -61 -238l5 -3q107 209 203 265q32 0 54 -27.5t22 -68.5
q0 -31 -14.5 -92t-40.5 -151.5t-29 -101.5q-32 -114 -71 -171t-117 -93l-15 19l3 8q66 41 91.5 85t56.5 167z" />
    <glyph glyph-name="Omacron" unicode="&#x14c;" horiz-adv-x="663" 
d="M311 35q106 0 176 87.5t70 220.5q0 113 -51.5 181.5t-137.5 68.5q-103 0 -172 -88.5t-69 -219.5q0 -113 50.5 -181.5t133.5 -68.5zM286 -12q-107 0 -174 74t-67 192q0 162 103.5 278t248.5 116q109 0 178 -74.5t69 -191.5q0 -163 -105.5 -278.5t-252.5 -115.5zM540 788
l5 -10l-13 -47l-137 -1l-138 -1l-5 9l16 45q91 -1 147 -1z" />
    <glyph glyph-name="omacron" unicode="&#x14d;" horiz-adv-x="406" 
d="M186 43q49 0 81.5 61.5t32.5 155.5q0 67 -21.5 105.5t-59.5 38.5q-49 0 -81 -57.5t-32 -144.5q0 -70 22.5 -114.5t57.5 -44.5zM146 -12q-50 0 -81 45t-31 119q0 123 68.5 217.5t158.5 94.5q53 0 83.5 -39.5t30.5 -109.5q0 -132 -68 -229.5t-161 -97.5zM406 653l4 -10
l-13 -47l-136 -1l-138 -1l-5 9l15 45q91 -1 148 -1z" />
    <glyph glyph-name="Obreve" unicode="&#x14e;" horiz-adv-x="663" 
d="M311 35q106 0 176 87.5t70 220.5q0 113 -51.5 181.5t-137.5 68.5q-103 0 -172 -88.5t-69 -219.5q0 -113 50.5 -181.5t133.5 -68.5zM286 -12q-107 0 -174 74t-67 192q0 162 103.5 278t248.5 116q109 0 178 -74.5t69 -191.5q0 -163 -105.5 -278.5t-252.5 -115.5zM386 791
q68 0 100 66h9l14 -10q-17 -48 -50 -81t-80 -33t-72.5 33t-30.5 81l17 10h8q17 -66 85 -66z" />
    <glyph glyph-name="obreve" unicode="&#x14f;" horiz-adv-x="406" 
d="M186 43q49 0 81.5 61.5t32.5 155.5q0 67 -21.5 105.5t-59.5 38.5q-49 0 -81 -57.5t-32 -144.5q0 -70 22.5 -114.5t57.5 -44.5zM146 -12q-50 0 -81 45t-31 119q0 123 68.5 217.5t158.5 94.5q53 0 83.5 -39.5t30.5 -109.5q0 -132 -68 -229.5t-161 -97.5zM263 616
q31 0 58 17t42 49h9l14 -10q-17 -48 -50 -81t-80 -33t-72.5 33t-30.5 81l17 10h8q8 -32 30.5 -49t54.5 -17z" />
    <glyph glyph-name="Ohungarumlaut" unicode="&#x150;" horiz-adv-x="663" 
d="M311 35q106 0 176 87.5t70 220.5q0 113 -51.5 181.5t-137.5 68.5q-103 0 -172 -88.5t-69 -219.5q0 -113 50.5 -181.5t133.5 -68.5zM286 -12q-107 0 -174 74t-67 192q0 162 103.5 278t248.5 116q109 0 178 -74.5t69 -191.5q0 -163 -105.5 -278.5t-252.5 -115.5zM445 790
l-3 -9q-80 -40 -164 -87l-8 5l-9 21l153 117l9 -4zM585 781l-3 -9q-80 -40 -164 -87l-7 4l-10 21l153 118l9 -5z" />
    <glyph glyph-name="ohungarumlaut" unicode="&#x151;" horiz-adv-x="406" 
d="M186 43q49 0 81.5 61.5t32.5 155.5q0 67 -21.5 105.5t-59.5 38.5q-49 0 -81 -57.5t-32 -144.5q0 -70 22.5 -114.5t57.5 -44.5zM146 -12q-50 0 -81 45t-31 119q0 123 68.5 217.5t158.5 94.5q53 0 83.5 -39.5t30.5 -109.5q0 -132 -68 -229.5t-161 -97.5zM318 664l-2 -9
q-76 -55 -155 -121l-9 2l-16 18l140 151l9 -3zM446 664l-2 -9q-76 -55 -155 -121l-9 2l-16 18l140 151l9 -3z" />
    <glyph glyph-name="OE" unicode="&#x152;" horiz-adv-x="923" 
d="M546 105q-5 -41 5.5 -50.5t62.5 -9.5q60 0 90 3t53 17t33 36t22 66l45 5l2 -5q-27 -83 -46 -168l-6 -6q-199 8 -292 8q-53 0 -129 -6.5t-106 -6.5q-104 0 -169.5 74t-65.5 191q0 165 101 280.5t244 115.5q31 0 104.5 -7t114.5 -7q196 0 294 14l3 -6q-26 -74 -43 -166
l-49 -4q9 38 9 63q0 34 -25.5 42.5t-113.5 8.5q-46 0 -56 -5.5t-15 -33.5l-32 -194l99 -1l119 11l3 -5l-21 -59q-82 3 -133 3l-76 -7zM306 40q91 0 133 38t55 130l33 259q9 74 -22.5 99t-133.5 25q-101 0 -168.5 -87.5t-67.5 -223.5q0 -108 46 -174t125 -66z" />
    <glyph glyph-name="oe" unicode="&#x153;" horiz-adv-x="622" 
d="M603 386q0 -63 -55 -108t-183 -88q-4 -64 15.5 -103t54.5 -39q30 0 60 23.5t50 62.5l14 -1l15 -24q-29 -53 -73.5 -87t-87.5 -34q-86 0 -105 107q-64 -107 -162 -107q-50 0 -81 45t-31 119q0 123 68.5 217.5t158.5 94.5q88 0 102 -112q32 51 74.5 81.5t86.5 30.5
q38 0 58.5 -20.5t20.5 -57.5zM186 43q49 0 81.5 61.5t32.5 155.5q0 67 -21.5 105.5t-59.5 38.5q-49 0 -81 -57.5t-32 -144.5q0 -70 22.5 -114.5t57.5 -44.5zM492 406q-39 0 -75.5 -51.5t-47.5 -122.5q87 27 125 57t38 71q0 46 -40 46z" />
    <glyph glyph-name="Racute" unicode="&#x154;" horiz-adv-x="589" 
d="M303 276h-91l-22 -154q-8 -55 2.5 -69t56.5 -14l1 -3l-13 -40q-55 2 -100 3l-109 -3l14 43q46 5 62.5 20t21.5 58l52 424q4 33 -2 44t-27 11l-32 -2l-2 4l12 42q69 -4 105 -4l107 4q82 0 132.5 -37.5t50.5 -99.5q0 -67 -40 -121.5t-117 -88.5l85 -178q24 -48 47.5 -66.5
t62.5 -18.5l3 -3l-9 -32l-81 -11q-24 0 -48 26t-42 69zM221 328l98 -10l30 12q91 53 94 156q0 116 -162 116q-9 0 -13 -4.5t-8 -18.5q-21 -107 -39 -251zM512 787l-4 -10q-101 -34 -206 -74l-8 5l-6 24l199 109l9 -6z" />
    <glyph glyph-name="racute" unicode="&#x155;" horiz-adv-x="346" 
d="M64 0q55 324 55 364q0 24 -9.5 34t-33.5 10h-41l7 38l162 6l9 -12q-35 -108 -54 -207l4 -1q41 94 94.5 161t86.5 67q29 -25 29 -69q0 -13 -5 -35l-8 -3q-11 5 -28 5q-43 0 -93 -62.5t-91 -168.5l-15 -113q-1 -5 -25.5 -14t-36.5 -9zM311 672l-1 -11q-84 -64 -168 -140
l-9 2l-20 19q32 35 69.5 78t59.5 69l21 26l10 -2z" />
    <glyph glyph-name="Rcommaaccent" unicode="&#x156;" horiz-adv-x="589" 
d="M303 276h-91l-22 -154q-8 -55 2.5 -69t56.5 -14l1 -3l-13 -40q-55 2 -100 3l-109 -3l14 43q46 5 62.5 20t21.5 58l52 424q4 33 -2 44t-27 11l-32 -2l-2 4l12 42q69 -4 105 -4l107 4q82 0 132.5 -37.5t50.5 -99.5q0 -67 -40 -121.5t-117 -88.5l85 -178q24 -48 47.5 -66.5
t62.5 -18.5l3 -3l-9 -32l-81 -11q-24 0 -48 26t-42 69zM221 328l98 -10l30 12q91 53 94 156q0 116 -162 116q-9 0 -13 -4.5t-8 -18.5q-21 -107 -39 -251zM210 -107l2 14q34 26 58 26q23 0 38.5 -19.5t15.5 -51.5q0 -49 -38 -88.5t-90 -66.5l-18 15v10q31 19 51.5 46.5
t20.5 52.5q0 38 -40 62z" />
    <glyph glyph-name="rcommaaccent" unicode="&#x157;" horiz-adv-x="346" 
d="M64 0q55 324 55 364q0 24 -9.5 34t-33.5 10h-41l7 38l162 6l9 -12q-35 -108 -54 -207l4 -1q41 94 94.5 161t86.5 67q29 -25 29 -69q0 -13 -5 -35l-8 -3q-11 5 -28 5q-43 0 -93 -62.5t-91 -168.5l-15 -113q-1 -5 -25.5 -14t-36.5 -9zM52 -107l2 14q34 26 58 26
q23 0 38.5 -19.5t15.5 -51.5q0 -49 -38 -88.5t-90 -66.5l-18 15v10q31 19 51.5 46.5t20.5 52.5q0 38 -40 62z" />
    <glyph glyph-name="Rcaron" unicode="&#x158;" horiz-adv-x="589" 
d="M303 276h-91l-22 -154q-8 -55 2.5 -69t56.5 -14l1 -3l-13 -40q-55 2 -100 3l-109 -3l14 43q46 5 62.5 20t21.5 58l52 424q4 33 -2 44t-27 11l-32 -2l-2 4l12 42q69 -4 105 -4l107 4q82 0 132.5 -37.5t50.5 -99.5q0 -67 -40 -121.5t-117 -88.5l85 -178q24 -48 47.5 -66.5
t62.5 -18.5l3 -3l-9 -32l-81 -11q-24 0 -48 26t-42 69zM221 328l98 -10l30 12q91 53 94 156q0 116 -162 116q-9 0 -13 -4.5t-8 -18.5q-21 -107 -39 -251zM489 837l12 -22l-148 -111h-13l-120 111l16 22l10 1l109 -65l125 65z" />
    <glyph glyph-name="rcaron" unicode="&#x159;" horiz-adv-x="346" 
d="M64 0q55 324 55 364q0 24 -9.5 34t-33.5 10h-41l7 38l162 6l9 -12q-35 -108 -54 -207l4 -1q41 94 94.5 161t86.5 67q29 -25 29 -69q0 -13 -5 -35l-8 -3q-11 5 -28 5q-43 0 -93 -62.5t-91 -168.5l-15 -113q-1 -5 -25.5 -14t-36.5 -9zM47 686l19 23l8 1q47 -48 110 -101
q98 71 135 101l8 -1l13 -23q-33 -32 -73 -72t-63 -64l-24 -24h-13q-63 89 -120 160z" />
    <glyph glyph-name="Sacute" unicode="&#x15a;" horiz-adv-x="509" 
d="M192 -12q-40 0 -79 8t-58 16l-19 9l-4 10q22 75 34 174l41 5q-13 -112 6 -145t98 -33q66 0 108 34t42 88q0 36 -27 63.5t-79 58.5q-85 50 -110 74q-48 46 -49 100q0 82 67 140t165 58q38 0 76 -6t57 -12l19 -6l2 -5q-24 -77 -41 -169l-36 -4l-5 5q11 44 11 74
q0 41 -23.5 57.5t-81.5 16.5q-57 0 -96.5 -30.5t-39.5 -76.5q0 -50 73 -102q17 -11 50.5 -31t55 -34t45.5 -34t36 -44t12 -52q0 -89 -70 -148t-180 -59zM479 787l-4 -10q-101 -34 -206 -74l-8 5l-6 24l199 109l9 -6z" />
    <glyph glyph-name="sacute" unicode="&#x15b;" horiz-adv-x="339" 
d="M43 138h14q0 -104 96 -104q29 0 49.5 19t20.5 45q0 37 -63 91q-26 22 -35 30.5t-27 28.5t-25 38t-7 38q0 56 47 98t109 42q73 0 103 -40q-7 -21 -34 -78h-14q-24 70 -87 70q-24 0 -40.5 -15.5t-16.5 -38.5q0 -28 30 -60q9 -10 48.5 -44t58.5 -61.5t19 -59.5
q0 -58 -50.5 -103.5t-114.5 -45.5q-46 0 -77.5 15t-39.5 41q16 59 36 94zM369 672l-1 -11q-84 -64 -168 -140l-9 2l-20 19q32 35 69.5 78t59.5 69l21 26l10 -2z" />
    <glyph glyph-name="Scircumflex" unicode="&#x15c;" horiz-adv-x="509" 
d="M192 -12q-40 0 -79 8t-58 16l-19 9l-4 10q22 75 34 174l41 5q-13 -112 6 -145t98 -33q66 0 108 34t42 88q0 36 -27 63.5t-79 58.5q-85 50 -110 74q-48 46 -49 100q0 82 67 140t165 58q38 0 76 -6t57 -12l19 -6l2 -5q-24 -77 -41 -169l-36 -4l-5 5q11 44 11 74
q0 41 -23.5 57.5t-81.5 16.5q-57 0 -96.5 -30.5t-39.5 -76.5q0 -50 73 -102q17 -11 50.5 -31t55 -34t45.5 -34t36 -44t12 -52q0 -89 -70 -148t-180 -59zM197 702l-12 22l152 153h14l115 -153l-17 -22l-9 -1l-105 97l-129 -97z" />
    <glyph glyph-name="scircumflex" unicode="&#x15d;" horiz-adv-x="339" 
d="M43 138h14q0 -104 96 -104q29 0 49.5 19t20.5 45q0 37 -63 91q-26 22 -35 30.5t-27 28.5t-25 38t-7 38q0 56 47 98t109 42q73 0 103 -40q-7 -21 -34 -78h-14q-24 70 -87 70q-24 0 -40.5 -15.5t-16.5 -38.5q0 -28 30 -60q9 -10 48.5 -44t58.5 -61.5t19 -59.5
q0 -58 -50.5 -103.5t-114.5 -45.5q-46 0 -77.5 15t-39.5 41q16 59 36 94zM105 528l-12 22l152 153h14l115 -153l-17 -22l-9 -1l-105 97l-129 -97z" />
    <glyph glyph-name="Scedilla" unicode="&#x15e;" horiz-adv-x="509" 
d="M161 -85l30 73q-40 0 -78.5 8t-57.5 16l-19 9l-4 10q22 75 34 174l41 5q-13 -112 6 -145t98 -33q66 0 108 34t42 88q0 36 -27 63.5t-79 58.5q-85 50 -110 74q-48 46 -49 100q0 82 67 140t165 58q38 0 76 -6t57 -12l19 -6l2 -5q-24 -77 -41 -169l-36 -4l-5 5q11 44 11 74
q0 41 -23.5 57.5t-81.5 16.5q-57 0 -96.5 -30.5t-39.5 -76.5q0 -50 73 -102q17 -11 50.5 -31t55 -34t45.5 -34t36 -44t12 -52q0 -80 -58 -137t-151 -67l-18 -41q3 -2 14.5 -11t17 -13.5t14.5 -13t13.5 -15t8.5 -15.5t4 -17q0 -38 -42 -68t-86 -30q-23 0 -42.5 9.5
t-19.5 24.5q0 16 32 58h8q-2 -27 10.5 -42t35.5 -15q21 0 36 11.5t15 28.5q0 26 -73 73z" />
    <glyph glyph-name="scedilla" unicode="&#x15f;" horiz-adv-x="339" 
d="M81 -85l30 73q-89 5 -104 56q16 59 36 94h14q0 -104 96 -104q29 0 49.5 19t20.5 45q0 37 -63 91q-26 22 -35 30.5t-27 28.5t-25 38t-7 38q0 56 47 98t109 42q73 0 103 -40q-7 -21 -34 -78h-14q-24 70 -87 70q-24 0 -40.5 -15.5t-16.5 -38.5q0 -28 30 -60q9 -10 48.5 -44
t58.5 -61.5t19 -59.5q0 -51 -40 -93.5t-96 -52.5l-18 -41q3 -2 14.5 -11t17 -13.5t14.5 -13t13.5 -15t8.5 -15.5t4 -17q0 -38 -42 -68t-86 -30q-23 0 -42.5 9.5t-19.5 24.5q0 16 32 58h8q-2 -27 10.5 -42t35.5 -15q21 0 36 11.5t15 28.5q0 26 -73 73z" />
    <glyph glyph-name="Scaron" unicode="&#x160;" horiz-adv-x="509" 
d="M192 -12q-40 0 -79 8t-58 16l-19 9l-4 10q22 75 34 174l41 5q-13 -112 6 -145t98 -33q66 0 108 34t42 88q0 36 -27 63.5t-79 58.5q-85 50 -110 74q-48 46 -49 100q0 82 67 140t165 58q38 0 76 -6t57 -12l19 -6l2 -5q-24 -77 -41 -169l-36 -4l-5 5q11 44 11 74
q0 41 -23.5 57.5t-81.5 16.5q-57 0 -96.5 -30.5t-39.5 -76.5q0 -50 73 -102q17 -11 50.5 -31t55 -34t45.5 -34t36 -44t12 -52q0 -89 -70 -148t-180 -59zM466 837l12 -22l-148 -111h-13l-120 111l16 22l10 1l109 -65l125 65z" />
    <glyph glyph-name="scaron" unicode="&#x161;" horiz-adv-x="339" 
d="M43 138h14q0 -104 96 -104q29 0 49.5 19t20.5 45q0 37 -63 91q-26 22 -35 30.5t-27 28.5t-25 38t-7 38q0 56 47 98t109 42q73 0 103 -40q-7 -21 -34 -78h-14q-24 70 -87 70q-24 0 -40.5 -15.5t-16.5 -38.5q0 -28 30 -60q9 -10 48.5 -44t58.5 -61.5t19 -59.5
q0 -58 -50.5 -103.5t-114.5 -45.5q-46 0 -77.5 15t-39.5 41q16 59 36 94zM105 686l19 23l8 1q47 -48 110 -101q98 71 135 101l8 -1l13 -23q-33 -32 -73 -72t-63 -64l-24 -24h-13q-63 89 -120 160z" />
    <glyph glyph-name="Tcedilla" unicode="&#x162;" horiz-adv-x="526" 
d="M183 -85l35 85l-124 -4l12 40q68 7 85 26t27 100l53 440q-46 -2 -66 -3t-44 -7t-31 -11t-18 -22.5t-15 -32t-13 -49.5l-44 -4q22 85 35 168l10 7l76 -11h298l82 11l8 -7q-2 -23 -3.5 -48.5t-2 -45.5t-0.5 -36v-25v-9l-44 -4q-1 35 -1.5 51t-7 33.5t-12.5 22.5t-26.5 11.5
t-39.5 7.5t-61 3q-15 -71 -46.5 -276.5t-31.5 -233.5q0 -27 11 -39t36 -12l55 3l2 -4l-14 -43q-57 2 -104 3l-22 -50q3 -2 14.5 -11t17 -13.5t14.5 -13t13.5 -15t8.5 -15.5t4 -17q0 -38 -42 -68t-86 -30q-23 0 -42.5 9.5t-19.5 24.5q0 16 32 58h8q-2 -27 10.5 -42t35.5 -15
q21 0 36 11.5t15 28.5q0 26 -73 73z" />
    <glyph glyph-name="tcedilla" unicode="&#x163;" horiz-adv-x="285" 
d="M86 -85l30 73q-30 0 -46 18t-12 49l55 343l-5 4l-69 3l-3 5l4 29l80 13l16 120l90 35l6 -12q-22 -68 -40 -146l122 1l4 -3l-8 -40l-118 1l-11 -6l-61 -307q-5 -35 23 -35q26 0 99 69l13 -1l12 -24q-57 -63 -99 -93l-28 -61q3 -2 14.5 -11t17 -13.5t14.5 -13t13.5 -15
t8.5 -15.5t4 -17q0 -38 -42 -68t-86 -30q-23 0 -42.5 9.5t-19.5 24.5q0 16 32 58h8q-2 -27 10.5 -42t35.5 -15q21 0 36 11.5t15 28.5q0 26 -73 73z" />
    <glyph glyph-name="Tcaron" unicode="&#x164;" horiz-adv-x="526" 
d="M218 162l53 440q-46 -2 -66 -3t-44 -7t-31 -11t-18 -22.5t-15 -32t-13 -49.5l-44 -4q22 85 35 168l10 7l76 -11h298l82 11l8 -7q-2 -23 -3.5 -48.5t-2 -45.5t-0.5 -36v-25v-9l-44 -4q-1 35 -1.5 51t-7 33.5t-12.5 22.5t-26.5 11.5t-39.5 7.5t-61 3q-15 -71 -46.5 -276.5
t-31.5 -233.5q0 -27 11 -39t36 -12l55 3l2 -4l-14 -43q-94 3 -140 3l-129 -4l12 40q68 7 85 26t27 100zM470 837l12 -22l-148 -111h-13l-120 111l16 22l10 1l109 -65l125 65z" />
    <glyph glyph-name="tcaron" unicode="&#x165;" horiz-adv-x="371" 
d="M242 129l13 -1l12 -24q-105 -116 -151 -116q-30 0 -46 18t-12 49l55 343l-5 4l-69 3l-3 5l4 29l80 13l16 120l90 35l6 -12q-22 -68 -40 -146l92 1l4 -3l-8 -40l-88 1l-11 -6l-61 -307q-5 -35 23 -35q26 0 99 69zM397 511l5 -8q-27 -110 -59 -212l-28 -14l-10 2
q8 49 13 103.5t6 84.5l2 30z" />
    <glyph glyph-name="Tbar" unicode="&#x166;" horiz-adv-x="526" 
d="M218 162l17 147l-89 -1l-9 9l7 39l97 -1l30 247q-46 -2 -66 -3t-44 -7t-31 -11t-18 -22.5t-15 -32t-13 -49.5l-44 -4q22 85 35 168l10 7l76 -11h298l82 11l8 -7q-2 -23 -3.5 -48.5t-2 -45.5t-0.5 -36v-25v-9l-44 -4q-1 35 -1.5 51t-7 33.5t-12.5 22.5t-26.5 11.5
t-39.5 7.5t-61 3q-14 -65 -42 -246l80 4l13 -13l-4 -37l-96 -1q-29 -188 -29 -217q0 -27 11 -39t36 -12l55 3l2 -4l-14 -43q-94 3 -140 3l-129 -4l12 40q68 7 85 26t27 100z" />
    <glyph glyph-name="tbar" unicode="&#x167;" horiz-adv-x="285" 
d="M242 129l13 -1l12 -24q-105 -116 -151 -116q-30 0 -46 18t-12 49l29 183h-74l-9 9l7 39l84 -1l18 113l-5 4l-69 3l-3 5l4 29l80 13l16 120l90 35l6 -12q-22 -68 -40 -146l122 1l4 -3l-8 -40l-118 1l-11 -6l-23 -117l98 5l13 -13l-4 -37l-117 -1l-28 -144q-5 -35 23 -35
q26 0 99 69z" />
    <glyph glyph-name="Utilde" unicode="&#x168;" horiz-adv-x="652" 
d="M222 546l-44 -294q-3 -27 -3 -50q0 -78 35.5 -119.5t104.5 -41.5q80 0 127.5 44.5t57.5 129.5l35 327q2 35 -3 44.5t-26 9.5l-43 -2v4l11 41q71 -3 107 -3q18 0 41.5 2.5t37.5 5.5l15 2l-10 -43q-43 -5 -56 -15.5t-17 -41.5l-42 -340q-13 -103 -82 -160.5t-182 -57.5
q-90 0 -138 47.5t-47 134.5q0 19 3 40l41 332q4 33 -2 43.5t-28 10.5l-33 -2l-1 4l12 41q70 -3 106 -3q18 0 43.5 2.5t41.5 5.5l16 2l-9 -43q-36 -5 -50 -16.5t-19 -40.5zM254 726h-7l-19 21l1 5l84 89l15 4q17 0 70.5 -16.5t66.5 -16.5q10 0 26.5 14t28.5 28l12 13h6
l20 -21l-1 -5l-84 -89l-16 -4q-17 0 -70 16.5t-66 16.5q-10 0 -27 -13.5t-28 -27.5z" />
    <glyph glyph-name="utilde" unicode="&#x169;" horiz-adv-x="486" 
d="M330 225l-9 3q-89 -171 -182 -240q-40 0 -64 23t-24 61q0 30 37 155t37 145q0 36 -42 36h-41l8 38l162 6l9 -12q-99 -278 -99 -338q0 -35 30 -35q28 0 83 82t112 209l18 95l9 3l58 -9l7 -8q-57 -189 -83 -375l3 -4q7 0 20 10t59 49l12 -1l13 -24q-113 -106 -140 -106
q-36 0 -36 28q0 12 10.5 64t21.5 98zM173 551h-7l-19 21l1 5l84 89l15 4q17 0 70.5 -16.5t66.5 -16.5q10 0 26.5 13.5t28.5 27.5l12 14h6l20 -21l-1 -5l-84 -89l-16 -4q-17 0 -70 16.5t-66 16.5q-10 0 -27 -14t-29 -28z" />
    <glyph glyph-name="Umacron" unicode="&#x16a;" horiz-adv-x="652" 
d="M222 546l-44 -294q-3 -27 -3 -50q0 -78 35.5 -119.5t104.5 -41.5q80 0 127.5 44.5t57.5 129.5l35 327q2 35 -3 44.5t-26 9.5l-43 -2v4l11 41q71 -3 107 -3q18 0 41.5 2.5t37.5 5.5l15 2l-10 -43q-43 -5 -56 -15.5t-17 -41.5l-42 -340q-13 -103 -82 -160.5t-182 -57.5
q-90 0 -138 47.5t-47 134.5q0 19 3 40l41 332q4 33 -2 43.5t-28 10.5l-33 -2l-1 4l12 41q70 -3 106 -3q18 0 43.5 2.5t41.5 5.5l16 2l-9 -43q-36 -5 -50 -16.5t-19 -40.5zM545 788l5 -10l-13 -47l-137 -1l-138 -1l-5 9l16 45q91 -1 147 -1z" />
    <glyph glyph-name="umacron" unicode="&#x16b;" horiz-adv-x="486" 
d="M330 225l-9 3q-89 -171 -182 -240q-40 0 -64 23t-24 61q0 30 37 155t37 145q0 36 -42 36h-41l8 38l162 6l9 -12q-99 -278 -99 -338q0 -35 30 -35q28 0 83 82t112 209l18 95l9 3l58 -9l7 -8q-57 -189 -83 -375l3 -4q7 0 20 10t59 49l12 -1l13 -24q-113 -106 -140 -106
q-36 0 -36 28q0 12 10.5 64t21.5 98zM439 653l4 -10l-13 -47l-136 -1l-138 -1l-5 9l15 45q91 -1 148 -1z" />
    <glyph glyph-name="Ubreve" unicode="&#x16c;" horiz-adv-x="652" 
d="M222 546l-44 -294q-3 -27 -3 -50q0 -78 35.5 -119.5t104.5 -41.5q80 0 127.5 44.5t57.5 129.5l35 327q2 35 -3 44.5t-26 9.5l-43 -2v4l11 41q71 -3 107 -3q18 0 41.5 2.5t37.5 5.5l15 2l-10 -43q-43 -5 -56 -15.5t-17 -41.5l-42 -340q-13 -103 -82 -160.5t-182 -57.5
q-90 0 -138 47.5t-47 134.5q0 19 3 40l41 332q4 33 -2 43.5t-28 10.5l-33 -2l-1 4l12 41q70 -3 106 -3q18 0 43.5 2.5t41.5 5.5l16 2l-9 -43q-36 -5 -50 -16.5t-19 -40.5zM394 791q68 0 100 66h9l14 -10q-17 -48 -50 -81t-80 -33t-72.5 33t-30.5 81l17 10h8q17 -66 85 -66z
" />
    <glyph glyph-name="ubreve" unicode="&#x16d;" horiz-adv-x="486" 
d="M330 225l-9 3q-89 -171 -182 -240q-40 0 -64 23t-24 61q0 30 37 155t37 145q0 36 -42 36h-41l8 38l162 6l9 -12q-99 -278 -99 -338q0 -35 30 -35q28 0 83 82t112 209l18 95l9 3l58 -9l7 -8q-57 -189 -83 -375l3 -4q7 0 20 10t59 49l12 -1l13 -24q-113 -106 -140 -106
q-36 0 -36 28q0 12 10.5 64t21.5 98zM313 616q31 0 58 17t42 49h9l14 -10q-17 -48 -50 -81t-80 -33t-72.5 33t-30.5 81l17 10h8q8 -32 30.5 -49t54.5 -17z" />
    <glyph glyph-name="Uring" unicode="&#x16e;" horiz-adv-x="652" 
d="M222 546l-44 -294q-3 -27 -3 -50q0 -78 35.5 -119.5t104.5 -41.5q80 0 127.5 44.5t57.5 129.5l35 327q2 35 -3 44.5t-26 9.5l-43 -2v4l11 41q71 -3 107 -3q18 0 41.5 2.5t37.5 5.5l15 2l-10 -43q-43 -5 -56 -15.5t-17 -41.5l-42 -340q-13 -103 -82 -160.5t-182 -57.5
q-90 0 -138 47.5t-47 134.5q0 19 3 40l41 332q4 33 -2 43.5t-28 10.5l-33 -2l-1 4l12 41q70 -3 106 -3q18 0 43.5 2.5t41.5 5.5l16 2l-9 -43q-36 -5 -50 -16.5t-19 -40.5zM401 712q48 0 48 45q0 42 -44 42q-22 0 -34.5 -12t-12.5 -33t13.5 -31.5t29.5 -10.5zM390 674
q-31 0 -48 18.5t-17 49.5q0 41 26.5 68.5t66.5 27.5q34 0 50 -19t16 -47q0 -39 -26.5 -68.5t-67.5 -29.5z" />
    <glyph glyph-name="uring" unicode="&#x16f;" horiz-adv-x="486" 
d="M330 225l-9 3q-89 -171 -182 -240q-40 0 -64 23t-24 61q0 30 37 155t37 145q0 36 -42 36h-41l8 38l162 6l9 -12q-99 -278 -99 -338q0 -35 30 -35q28 0 83 82t112 209l18 95l9 3l58 -9l7 -8q-57 -189 -83 -375l3 -4q7 0 20 10t59 49l12 -1l13 -24q-113 -106 -140 -106
q-36 0 -36 28q0 12 10.5 64t21.5 98zM294 582q48 0 48 45q0 42 -44 42q-22 0 -34.5 -12t-12.5 -33t13.5 -31.5t29.5 -10.5zM283 544q-31 0 -48 18.5t-17 49.5q0 41 26.5 68.5t66.5 27.5q34 0 50 -19t16 -47q0 -39 -26.5 -68.5t-67.5 -29.5z" />
    <glyph glyph-name="Uhungarumlaut" unicode="&#x170;" horiz-adv-x="652" 
d="M222 546l-44 -294q-3 -27 -3 -50q0 -78 35.5 -119.5t104.5 -41.5q80 0 127.5 44.5t57.5 129.5l35 327q2 35 -3 44.5t-26 9.5l-43 -2v4l11 41q71 -3 107 -3q18 0 41.5 2.5t37.5 5.5l15 2l-10 -43q-43 -5 -56 -15.5t-17 -41.5l-42 -340q-13 -103 -82 -160.5t-182 -57.5
q-90 0 -138 47.5t-47 134.5q0 19 3 40l41 332q4 33 -2 43.5t-28 10.5l-33 -2l-1 4l12 41q70 -3 106 -3q18 0 43.5 2.5t41.5 5.5l16 2l-9 -43q-36 -5 -50 -16.5t-19 -40.5zM480 790l-3 -9q-80 -40 -164 -87l-8 5l-9 21l153 117l9 -4zM620 781l-3 -9q-80 -40 -164 -87l-7 4
l-10 21l153 118l9 -5z" />
    <glyph glyph-name="uhungarumlaut" unicode="&#x171;" horiz-adv-x="486" 
d="M330 225l-9 3q-89 -171 -182 -240q-40 0 -64 23t-24 61q0 30 37 155t37 145q0 36 -42 36h-41l8 38l162 6l9 -12q-99 -278 -99 -338q0 -35 30 -35q28 0 83 82t112 209l18 95l9 3l58 -9l7 -8q-57 -189 -83 -375l3 -4q7 0 20 10t59 49l12 -1l13 -24q-113 -106 -140 -106
q-36 0 -36 28q0 12 10.5 64t21.5 98zM361 664l-2 -9q-76 -55 -155 -121l-9 2l-16 18l140 151l9 -3zM489 664l-2 -9q-76 -55 -155 -121l-9 2l-16 18l140 151l9 -3z" />
    <glyph glyph-name="Uogonek" unicode="&#x172;" horiz-adv-x="652" 
d="M467 -159l10 -19q-53 -46 -104 -63q-44 0 -70 22.5t-26 60.5q0 57 102 158q-42 -12 -93 -12q-90 0 -138 47t-47 135q0 19 3 40l41 332q4 33 -2 43.5t-28 10.5l-33 -2l-1 4l12 41q70 -3 106 -3q18 0 43.5 2.5t41.5 5.5l16 2l-9 -43q-37 -5 -50.5 -16.5t-18.5 -40.5
l-44 -294q-3 -27 -3 -50q0 -79 36 -120t104 -41q80 0 127.5 44.5t57.5 129.5l35 327q2 35 -3 44.5t-26 9.5l-43 -2v4l11 41q71 -3 107 -3q18 0 41.5 2.5t37.5 5.5l15 2l-10 -43q-45 -7 -58 -17t-15 -40l-42 -340q-12 -96 -77 -161q-83 -84 -107.5 -117.5t-24.5 -61.5
q0 -22 13.5 -35t35.5 -13q16 0 35.5 6t30.5 12z" />
    <glyph glyph-name="uogonek" unicode="&#x173;" horiz-adv-x="486" 
d="M400 -159l10 -19q-53 -46 -104 -63q-44 0 -70 22t-26 61q0 34 24.5 68t73.5 80q-21 4 -21 26q0 12 10.5 64t21.5 98l11 47l-9 3q-89 -171 -182 -240q-40 0 -64 23t-24 61q0 30 37 155t37 145q0 36 -42 36h-41l8 38l162 6l9 -12q-99 -278 -99 -338q0 -35 30 -35
q28 0 83 82t112 209l18 95l9 3l58 -9l7 -8q-57 -189 -83 -375l3 -4q7 0 20 10t59 49l12 -1l13 -24q-18 -17 -51 -47t-47.5 -44t-36 -36t-30.5 -36t-16.5 -31.5t-7.5 -33.5q0 -21 13.5 -34.5t35.5 -13.5q16 0 35.5 6t30.5 12z" />
    <glyph glyph-name="Wcircumflex" unicode="&#x174;" horiz-adv-x="897" 
d="M592 5l-57 -22l-68 432h-6l-189 -410l-59 -22q-43 288 -92 555q-10 56 -79 57l-2 4l11 40q76 -3 106 -3t65 3t55 6l20 3l2 -7l-7 -37q-57 -4 -73.5 -12.5t-16.5 -32.5q0 -25 16 -141.5t32 -220.5l15 -104h6q27 58 57.5 122t68 141.5t59.5 123.5q-4 10 -11 56
q-12 56 -81 59l-1 4l12 40q75 -3 106 -3q25 0 60 3t57 6l23 3l1 -7l-8 -37q-58 -4 -74 -12.5t-16 -31.5q0 -21 16 -138t32 -223l16 -106h6q12 26 46 97.5t58.5 123.5t52.5 112t43 97t15 45q0 31 -62 31h-48l-2 4l12 41q71 -8 132 -8l101 4l-12 -45q-28 -2 -41 -10.5
t-27 -37.5zM392 713l-11 22l147 111h14l120 -111l-17 -22l-9 -1l-110 65l-125 -65z" />
    <glyph glyph-name="wcircumflex" unicode="&#x175;" horiz-adv-x="643" 
d="M187 58h9q93 136 127 236l-17 143l7 10l56 17q35 -22 35 -76q0 -29 -18 -75l27 -255h9q62 91 98 169t36 120q0 23 -12 42.5t-24 27.5l-12 8l4 17l81 22q35 -24 35 -76q0 -104 -196 -399h-58l-15 12l-21 198h-7q-44 -83 -125 -210h-58l-15 12q-5 183 -36 361
q-4 23 -12.5 31.5t-28.5 8.5l-52 -5l3 38l148 24l11 -10q22 -177 21 -391zM258 528l-12 22l152 153h14l115 -153l-17 -22l-9 -1l-105 97l-129 -97z" />
    <glyph glyph-name="Ycircumflex" unicode="&#x176;" horiz-adv-x="520" 
d="M195 567q0 -16 19.5 -82t38.5 -124.5t19 -56.5h4l139 218q21 32 21 53q0 24 -57 28l-2 4l11 37q-1 0 18 -2t44.5 -4t41.5 -2l89 4l3 -6l-11 -35q-45 -8 -65 -26.5t-63 -82.5q-9 -14 -14 -21l-117 -175q-6 -8 -10 -15.5t-7.5 -18.5t-6 -18t-5 -24.5t-4 -27.5t-5.5 -37
t-6 -43q-5 -40 1 -54.5t32 -14.5l47 3l2 -4l-14 -43q-78 3 -119 3q-21 0 -48.5 -3t-44.5 -6l-16 -3l11 43q51 11 66.5 31.5t21.5 78.5l5 45q6 60 -14 115l-63 182q-2 6 -8 23t-7.5 21t-6 16.5t-7 15.5t-7.5 11t-9 10t-10.5 7t-14 6.5t-16.5 3.5t-21 3l-2 4l11 36
q59 -4 103 -4q24 0 58.5 2t56.5 4l22 3l2 -7l-8 -33q-48 -4 -63 -12t-15 -26zM211 713l-11 22l147 111h14l120 -111l-17 -22l-9 -1l-110 65l-125 -65z" />
    <glyph glyph-name="ycircumflex" unicode="&#x177;" horiz-adv-x="438" 
d="M303 425l4 17l81 22q35 -22 35 -76q0 -95 -180 -367q-93 -138 -159 -201t-118 -63q-29 0 -50.5 10.5t-25.5 26.5q0 21 18 80h14q24 -39 67 -39q40 0 75 26.5t87 95.5q-11 207 -38 405q-4 23 -12.5 31.5t-28.5 8.5l-52 -5l3 38l148 24l11 -10q21 -173 20 -401h10
q139 218 139 298q0 47 -48 79zM134 528l-12 22l152 153h14l115 -153l-17 -22l-9 -1l-105 97l-129 -97z" />
    <glyph glyph-name="Ydieresis" unicode="&#x178;" horiz-adv-x="520" 
d="M195 567q0 -16 19.5 -82t38.5 -124.5t19 -56.5h4l139 218q21 32 21 53q0 24 -57 28l-2 4l11 37q-1 0 18 -2t44.5 -4t41.5 -2l89 4l3 -6l-11 -35q-45 -8 -65 -26.5t-63 -82.5q-9 -14 -14 -21l-117 -175q-6 -8 -10 -15.5t-7.5 -18.5t-6 -18t-5 -24.5t-4 -27.5t-5.5 -37
t-6 -43q-5 -40 1 -54.5t32 -14.5l47 3l2 -4l-14 -43q-78 3 -119 3q-21 0 -48.5 -3t-44.5 -6l-16 -3l11 43q51 11 66.5 31.5t21.5 78.5l5 45q6 60 -14 115l-63 182q-2 6 -8 23t-7.5 21t-6 16.5t-7 15.5t-7.5 11t-9 10t-10.5 7t-14 6.5t-16.5 3.5t-21 3l-2 4l11 36
q59 -4 103 -4q24 0 58.5 2t56.5 4l22 3l2 -7l-8 -33q-48 -4 -63 -12t-15 -26zM414 725q-17 0 -26 11t-9 27q0 22 16.5 38.5t38.5 16.5q17 0 26.5 -11t9.5 -27q0 -22 -16.5 -38.5t-39.5 -16.5zM254 725q-17 0 -26 11t-9 27q0 22 16 38.5t39 16.5q17 0 26.5 -11t9.5 -27
q0 -22 -16.5 -38.5t-39.5 -16.5z" />
    <glyph glyph-name="Zacute" unicode="&#x179;" horiz-adv-x="546" 
d="M447 13l-16 -16l-344 6l-69 -6l-8 31l429 568l-170 -6q-66 -1 -98 -31.5t-49 -107.5l-44 -4q28 101 41 192l11 9l167 -11l244 -7l7 -28q-213 -252 -442 -566l199 7q50 1 85.5 41t62.5 126l43 5q-33 -107 -49 -202zM509 787l-4 -10q-101 -34 -206 -74l-8 5l-6 24l199 109
l9 -6z" />
    <glyph glyph-name="zacute" unicode="&#x17a;" horiz-adv-x="398" 
d="M90 320l-39 -6q24 78 34 140l14 10q114 -28 205 -28q18 0 31 15l16 20l44 -7l5 -19q-191 -223 -295 -363l29 7q21 0 70.5 -11t71.5 -11q58 0 73 65l18 -2q8 -26 8 -39q0 -42 -26 -72.5t-62 -30.5q-29 0 -88 22.5t-97 22.5q-42 0 -92 -30l-11 17l284 364l-101 1
q-40 0 -60 -14t-32 -51zM403 672l-1 -11q-84 -64 -168 -140l-9 2l-20 19q32 35 69.5 78t59.5 69l21 26l10 -2z" />
    <glyph glyph-name="Zdotaccent" unicode="&#x17b;" horiz-adv-x="546" 
d="M447 13l-16 -16l-344 6l-69 -6l-8 31l429 568l-170 -6q-66 -1 -98 -31.5t-49 -107.5l-44 -4q28 101 41 192l11 9l167 -11l244 -7l7 -28q-213 -252 -442 -566l199 7q50 1 85.5 41t62.5 126l43 5q-33 -107 -49 -202zM341 719q-21 0 -32 13t-11 32q0 26 19 45.5t47 19.5
q20 0 31 -13t11 -32q0 -26 -19 -45.5t-46 -19.5z" />
    <glyph glyph-name="zdotaccent" unicode="&#x17c;" horiz-adv-x="398" 
d="M90 320l-39 -6q24 78 34 140l14 10q114 -28 205 -28q18 0 31 15l16 20l44 -7l5 -19q-191 -223 -295 -363l29 7q21 0 70.5 -11t71.5 -11q58 0 73 65l18 -2q8 -26 8 -39q0 -42 -26 -72.5t-62 -30.5q-29 0 -88 22.5t-97 22.5q-42 0 -92 -30l-11 17l284 364l-101 1
q-40 0 -60 -14t-32 -51zM269 602q-20 0 -31 13t-11 32q0 26 19 45.5t46 19.5q21 0 32 -13t11 -32q0 -26 -19.5 -45.5t-46.5 -19.5z" />
    <glyph glyph-name="Zcaron" unicode="&#x17d;" horiz-adv-x="546" 
d="M447 13l-16 -16l-344 6l-69 -6l-8 31l429 568l-170 -6q-66 -1 -98 -31.5t-49 -107.5l-44 -4q28 101 41 192l11 9l167 -11l244 -7l7 -28q-213 -252 -442 -566l199 7q50 1 85.5 41t62.5 126l43 5q-33 -107 -49 -202zM486 837l12 -22l-148 -111h-13l-120 111l16 22l10 1
l109 -65l125 65z" />
    <glyph glyph-name="zcaron" unicode="&#x17e;" horiz-adv-x="398" 
d="M90 320l-39 -6q24 78 34 140l14 10q114 -28 205 -28q18 0 31 15l16 20l44 -7l5 -19q-191 -223 -295 -363l29 7q21 0 70.5 -11t71.5 -11q58 0 73 65l18 -2q8 -26 8 -39q0 -42 -26 -72.5t-62 -30.5q-29 0 -88 22.5t-97 22.5q-42 0 -92 -30l-11 17l284 364l-101 1
q-40 0 -60 -14t-32 -51zM139 686l19 23l8 1q47 -48 110 -101q98 71 135 101l8 -1l13 -23q-33 -32 -73 -72t-63 -64l-24 -24h-13q-63 89 -120 160z" />
    <glyph glyph-name="florin" unicode="&#x192;" horiz-adv-x="369" 
d="M109 -43l32 319q0 24 -9.5 28.5t-55.5 5.5l-4 6l7 34l70 10l10 97q6 62 48 101.5t100 39.5q36 0 66.5 -10.5t30.5 -25.5q0 -16 -6 -41.5t-12 -32.5h-13q-13 27 -39.5 47t-55.5 20q-18 0 -30 -8.5t-18 -29t-8 -34t-4 -45.5v-3.5t-0.5 -4t-0.5 -4.5l-6 -69l130 3l3 -3
l-10 -53l-128 3l-30 -328q-6 -60 -53 -99t-104 -39q-30 0 -54.5 10t-24.5 24q0 15 6 39.5t12 30.5h11q11 -26 34 -44.5t49 -18.5q50 0 57 75z" />
    <glyph glyph-name="Aringacute" unicode="&#x1fa;" horiz-adv-x="558" 
d="M456 111q7 -38 24.5 -52.5t59.5 -19.5l2 -3l-11 -39q-69 3 -101 3t-68 -2.5t-56 -5.5l-19 -2l-2 7l8 36q55 4 73.5 14t18.5 36q0 12 -4 38l-18 113q-24 1 -100 1q-43 0 -107 -8l-49 -108q-14 -29 -14 -46q0 -36 53 -36h56v-3l-10 -41q-68 7 -132 7l-105 -3l13 45
q29 3 47.5 19.5t38.5 58.5l248 511l56 17l8 1q44 -307 90 -538zM304 544l-125 -273h85q47 0 91 6l-44 267h-7zM355 704q43 0 43 40q0 38 -40 38q-42 0 -42 -41q0 -18 12.5 -27.5t26.5 -9.5zM345 669q-28 0 -43.5 17t-15.5 45q0 37 24 61.5t60 24.5q30 0 45 -17t15 -42
q0 -35 -24 -62t-61 -27zM474 893l-3 -9q-91 -30 -186 -66l-7 4l-5 22l179 98l8 -6z" />
    <glyph glyph-name="aringacute" unicode="&#x1fb;" horiz-adv-x="461" 
d="M331 64l3 -4q7 0 20 10t59 49l12 -1l13 -24q-112 -106 -140 -106q-36 0 -36 29q0 11 11 63t21 98l11 47l-6 2q-94 -174 -187 -239q-38 0 -59 35.5t-21 100.5q0 123 72.5 229.5t156.5 106.5l100 -16l9 25l5 1l31 -15l8 -12q-57 -193 -83 -379zM131 69q28 0 86.5 89.5
t113.5 214.5q-54 33 -101 33q-49 0 -88.5 -72t-39.5 -161q0 -43 8.5 -73.5t20.5 -30.5zM284 516q43 0 43 40q0 38 -40 38q-42 0 -42 -41q0 -18 12.5 -27.5t26.5 -9.5zM274 481q-28 0 -43.5 17t-15.5 45q0 37 24 61.5t60 24.5q30 0 45 -17t15 -42q0 -35 -24 -62t-61 -27z
M401 702l-3 -9q-91 -30 -186 -66l-7 4l-5 22l179 98l8 -6z" />
    <glyph glyph-name="AEacute" unicode="&#x1fc;" horiz-adv-x="781" 
d="M266 35q47 3 74 25t27 57v36l-2 124l-96 -8l-89 -9l-84 -140q-21 -35 -21 -51q0 -17 11 -23.5t38 -6.5h54l-11 -46q-71 7 -132 7l-66 -4l-2 34q36 35 71 91l291 458q-3 16 -22 16l-33 -2l-2 4l13 43q0 -3 153 -3q212 0 288 12l2 -6q-25 -73 -42 -165l-47 -4q9 38 9 63
q0 33 -26.5 42t-119.5 9q-43 0 -56 -6.5t-13 -24.5l2 -230l116 11l90 13l4 -5l-19 -52l-83 -2l-108 -9l6 -171q1 -37 17.5 -52.5t56.5 -15.5q45 0 70 2.5t45.5 8.5t32 21t20 34.5t17.5 55.5l44 5l3 -5q-28 -83 -47 -167l-5 -6q1 1 -50.5 2.5t-122.5 3t-118 1.5
q-33 0 -68.5 -2.5t-55.5 -5.5l-19 -2l-1 7zM213 310l80 5l71 6l-1 219h-9zM639 847l-1 -11q-84 -64 -168 -140l-9 2l-20 19q32 35 69.5 78t59.5 69l21 26l10 -2z" />
    <glyph glyph-name="aeacute" unicode="&#x1fd;" horiz-adv-x="587" 
d="M568 386q0 -63 -55 -108t-183 -88q-4 -64 15.5 -103t54.5 -39q30 0 60 23.5t50 62.5l14 -1l15 -24q-29 -53 -73.5 -87t-87.5 -34q-54 0 -85 44t-31 121v9q-74 -120 -150 -174q-38 0 -59 35.5t-21 100.5q0 123 72.5 229.5t156.5 106.5l156 -17q37 21 72 21
q38 0 58.5 -20.5t20.5 -57.5zM131 69q28 0 86.5 92.5t113.5 221.5q-54 23 -101 23q-49 0 -88.5 -72t-39.5 -161q0 -43 8.5 -73.5t20.5 -30.5zM457 406q-39 0 -75.5 -51.5t-47.5 -122.5q87 27 125 57t38 71q0 46 -40 46zM508 672l-1 -11q-84 -64 -168 -140l-9 2l-20 19
q32 35 69.5 78t58.5 69l22 26l10 -2z" />
    <glyph glyph-name="Oslashacute" unicode="&#x1fe;" horiz-adv-x="663" 
d="M108 -82l53 103q-55 33 -85.5 94t-30.5 139q0 162 103.5 278t248.5 116q45 0 85 -14l39 74l29 -7l3 -12l-38 -70q60 -32 94.5 -94.5t34.5 -142.5q0 -163 -105.5 -278.5t-252.5 -115.5q-47 0 -94 18l-55 -104l-27 6zM311 35q106 0 176 87.5t70 220.5q0 141 -78 209
l-258 -491q40 -26 90 -26zM127 285q0 -132 67 -201l256 488q-39 21 -82 21q-103 0 -172 -88.5t-69 -219.5zM526 787l-4 -10q-101 -34 -206 -74l-8 5l-6 24l199 109l9 -6z" />
    <glyph glyph-name="oslashacute" unicode="&#x1ff;" horiz-adv-x="406" 
d="M22 -82l53 102q-41 44 -41 132q0 123 68.5 217.5t158.5 94.5q23 0 41 -7l43 82l29 -7l3 -12l-45 -83q43 -40 43 -122q0 -132 -68 -229.5t-161 -97.5q-24 0 -44 11l-51 -97l-27 6zM186 43q49 0 81.5 61.5t32.5 155.5q0 52 -14 89l-147 -280q20 -26 47 -26zM106 202
q0 -55 14 -95l144 277q-20 20 -45 20q-49 0 -81 -57.5t-32 -144.5zM389 672l-1 -11q-84 -64 -168 -140l-9 2l-20 19q32 35 69.5 78t59.5 69l21 26l10 -2z" />
    <glyph glyph-name="Scommaaccent" unicode="&#x218;" horiz-adv-x="509" 
d="M192 -12q-40 0 -79 8t-58 16l-19 9l-4 10q22 75 34 174l41 5q-13 -112 6 -145t98 -33q66 0 108 34t42 88q0 36 -27 63.5t-79 58.5q-85 50 -110 74q-48 46 -49 100q0 82 67 140t165 58q38 0 76 -6t57 -12l19 -6l2 -5q-24 -77 -41 -169l-36 -4l-5 5q11 44 11 74
q0 41 -23.5 57.5t-81.5 16.5q-57 0 -96.5 -30.5t-39.5 -76.5q0 -50 73 -102q17 -11 50.5 -31t55 -34t45.5 -34t36 -44t12 -52q0 -89 -70 -148t-180 -59zM143 -107l2 14q34 26 58 26q23 0 38.5 -19.5t15.5 -51.5q0 -49 -38 -88.5t-90 -66.5l-18 15v10q31 19 51.5 46.5
t20.5 52.5q0 38 -40 62z" />
    <glyph glyph-name="scommaaccent" unicode="&#x219;" horiz-adv-x="339" 
d="M43 138h14q0 -104 96 -104q29 0 49.5 19t20.5 45q0 37 -63 91q-26 22 -35 30.5t-27 28.5t-25 38t-7 38q0 56 47 98t109 42q73 0 103 -40q-7 -21 -34 -78h-14q-24 70 -87 70q-24 0 -40.5 -15.5t-16.5 -38.5q0 -28 30 -60q9 -10 48.5 -44t58.5 -61.5t19 -59.5
q0 -58 -50.5 -103.5t-114.5 -45.5q-46 0 -77.5 15t-39.5 41q16 59 36 94zM93 -107l2 14q34 26 58 26q23 0 38.5 -19.5t15.5 -51.5q0 -49 -38 -88.5t-90 -66.5l-18 15v10q31 19 51.5 46.5t20.5 52.5q0 38 -40 62z" />
    <glyph glyph-name="uni021A" unicode="&#x21a;" horiz-adv-x="526" 
d="M218 162l53 440q-46 -2 -66 -3t-44 -7t-31 -11t-18 -22.5t-15 -32t-13 -49.5l-44 -4q22 85 35 168l10 7l76 -11h298l82 11l8 -7q-2 -23 -3.5 -48.5t-2 -45.5t-0.5 -36v-25v-9l-44 -4q-1 35 -1.5 51t-7 33.5t-12.5 22.5t-26.5 11.5t-39.5 7.5t-61 3q-15 -71 -46.5 -276.5
t-31.5 -233.5q0 -27 11 -39t36 -12l55 3l2 -4l-14 -43q-94 3 -140 3l-129 -4l12 40q68 7 85 26t27 100zM165 -107l2 14q34 26 58 26q23 0 38.5 -19.5t15.5 -51.5q0 -49 -38 -88.5t-90 -66.5l-18 15v10q31 19 51.5 46.5t20.5 52.5q0 38 -40 62z" />
    <glyph glyph-name="uni021B" unicode="&#x21b;" horiz-adv-x="285" 
d="M242 129l13 -1l12 -24q-105 -116 -151 -116q-30 0 -46 18t-12 49l55 343l-5 4l-69 3l-3 5l4 29l80 13l16 120l90 35l6 -12q-22 -68 -40 -146l122 1l4 -3l-8 -40l-118 1l-11 -6l-61 -307q-5 -35 23 -35q26 0 99 69zM68 -107l2 14q34 26 58 26q23 0 38.5 -19.5t15.5 -51.5
q0 -49 -38 -88.5t-90 -66.5l-18 15v10q31 19 51.5 46.5t20.5 52.5q0 38 -40 62z" />
    <glyph glyph-name="dotlessj" unicode="&#x237;" horiz-adv-x="245" 
d="M124 21q-14 -101 -56 -162.5t-116 -99.5l-15 19l3 8q59 42 87 95.5t41 156.5q50 292 50 327q0 43 -44 43h-41l8 38l159 6l10 -12q-65 -261 -86 -419z" />
    <glyph glyph-name="circumflex" unicode="&#x2c6;" 
d="M103 528l-12 22l152 153h14l115 -153l-17 -22l-9 -1l-105 97l-129 -97z" />
    <glyph glyph-name="caron" unicode="&#x2c7;" 
d="M102 686l19 23l8 1q47 -48 110 -101q98 71 135 101l8 -1l13 -23q-33 -32 -73 -72l-64 -64l-23 -24h-13q-63 89 -120 160z" />
    <glyph glyph-name="breve" unicode="&#x2d8;" 
d="M240 616q68 0 100 66h9l14 -10q-17 -48 -50 -81t-80 -33t-72.5 33t-30.5 81l17 10h8q17 -66 85 -66z" />
    <glyph glyph-name="dotaccent" unicode="&#x2d9;" 
d="M233 602q-20 0 -31 13t-11 32q0 26 19 45.5t46 19.5q21 0 32 -13t11 -32q0 -26 -19.5 -45.5t-46.5 -19.5z" />
    <glyph glyph-name="ring" unicode="&#x2da;" 
d="M237 582q48 0 48 45q0 42 -44 42q-22 0 -34.5 -12t-12.5 -33t13.5 -31.5t29.5 -10.5zM226 544q-31 0 -48 18.5t-17 49.5q0 41 26.5 68.5t66.5 27.5q34 0 50 -19t16 -47q0 -39 -26.5 -68.5t-67.5 -29.5z" />
    <glyph glyph-name="ogonek" unicode="&#x2db;" 
d="M232 -159l10 -19q-53 -46 -104 -63q-44 0 -70 22t-26 61q0 28 20.5 60t45 56.5t69.5 65.5q13 12 20 18h41q-81 -77 -106.5 -109t-25.5 -67q0 -21 13.5 -34.5t35.5 -13.5q16 0 35.5 6t30.5 12z" />
    <glyph glyph-name="tilde" unicode="&#x2dc;" 
d="M102 551h-7l-19 21l1 5l84 89l15 4q17 0 70.5 -16.5t66.5 -16.5q10 0 26.5 13.5t28.5 27.5l12 14h6l20 -21l-1 -5l-84 -89l-16 -4q-17 0 -70 16.5t-66 16.5q-10 0 -27 -14t-28 -28z" />
    <glyph glyph-name="hungarumlaut" unicode="&#x2dd;" 
d="M295 664l-2 -9q-76 -55 -155 -121l-9 2l-16 18l140 151l9 -3zM423 664l-2 -9q-76 -55 -155 -121l-9 2l-16 18l140 151l9 -3z" />
    <glyph glyph-name="dotbelowcomb" unicode="&#x323;" horiz-adv-x="378" 
d="M135 -192q-23 0 -35.5 14.5t-12.5 35.5q0 28 19.5 48.5t49.5 20.5q23 0 36 -14t13 -36q0 -29 -19.5 -49t-50.5 -20z" />
    <glyph glyph-name="Delta" unicode="&#x394;" horiz-adv-x="520" 
d="M-10 0l-8 13l299 619l68 17h8q62 -417 107 -642l-8 -7h-466zM297 540h-7l-226 -483h309z" />
    <glyph glyph-name="Delta" unicode="&#x2206;" horiz-adv-x="520" 
d="M-10 0l-8 13l299 619l68 17h8q62 -417 107 -642l-8 -7h-466zM297 540h-7l-226 -483h309z" />
    <glyph glyph-name="Omega" unicode="&#x3a9;" horiz-adv-x="816" 
d="M728 10l-17 -16l-244 14l-41 -6l-4 21q113 93 158.5 173.5t45.5 181.5q0 95 -47.5 153t-127.5 58q-105 0 -173 -74.5t-68 -195.5q0 -85 32 -164t90 -131l-10 -23l-40 7l-237 -14l-14 16q3 32 3.5 71.5t-0.5 63.5l-1 24l39 5q1 -68 18.5 -93t64.5 -25h87q-56 51 -87 121.5
t-31 143.5q0 136 98.5 232t236.5 96q114 0 186.5 -68.5t72.5 -177.5q0 -99 -55.5 -192.5t-147.5 -154.5h101q46 0 69 23.5t42 89.5l41 5q-30 -92 -40 -164z" />
    <glyph glyph-name="Omega" unicode="&#x2126;" horiz-adv-x="816" 
d="M728 10l-17 -16l-244 14l-41 -6l-4 21q113 93 158.5 173.5t45.5 181.5q0 95 -47.5 153t-127.5 58q-105 0 -173 -74.5t-68 -195.5q0 -85 32 -164t90 -131l-10 -23l-40 7l-237 -14l-14 16q3 32 3.5 71.5t-0.5 63.5l-1 24l39 5q1 -68 18.5 -93t64.5 -25h87q-56 51 -87 121.5
t-31 143.5q0 136 98.5 232t236.5 96q114 0 186.5 -68.5t72.5 -177.5q0 -99 -55.5 -192.5t-147.5 -154.5h101q46 0 69 23.5t42 89.5l41 5q-30 -92 -40 -164z" />
    <glyph glyph-name="pi" unicode="&#x3c0;" horiz-adv-x="577" 
d="M406 131q0 -41 18.5 -60t59.5 -19l5 -7q-1 -8 -23.5 -32.5t-28.5 -24.5q-116 0 -97 131l38 269q5 38 -6 46t-67 8q-47 0 -59 -7.5t-18 -42.5q-34 -186 -57 -370l-9 -101l-5 -7l-74 -16l-5 12q7 12 42.5 236.5t35.5 259.5q0 21 -8 28.5t-27 7.5q-13 0 -29.5 -16.5
t-26.5 -33.5l-10 -16l-7 -1l-23 18v7l71 98l15 7q61 0 184 -5t145 -5q25 0 60.5 2.5t58.5 4.5l23 3l5 -7l-16 -46l-7 -7q-64 0 -84.5 -10t-27.5 -45q-7 -34 -15.5 -77.5t-13 -66t-9 -48t-6.5 -41t-2 -26.5z" />
    <glyph glyph-name="Wgrave" unicode="&#x1e80;" horiz-adv-x="897" 
d="M592 5l-57 -22l-68 432h-6l-189 -410l-59 -22q-43 288 -92 555q-10 56 -79 57l-2 4l11 40q76 -3 106 -3t65 3t55 6l20 3l2 -7l-7 -37q-57 -4 -73.5 -12.5t-16.5 -32.5q0 -25 16 -141.5t32 -220.5l15 -104h6q27 58 57.5 122t68 141.5t59.5 123.5q-4 10 -11 56
q-12 56 -81 59l-1 4l12 40q75 -3 106 -3q25 0 60 3t57 6l23 3l1 -7l-8 -37q-58 -4 -74 -12.5t-16 -31.5q0 -21 16 -138t32 -223l16 -106h6q12 26 46 97.5t58.5 123.5t52.5 112t43 97t15 45q0 31 -62 31h-48l-2 4l12 41q71 -8 132 -8l101 4l-12 -45q-28 -2 -41 -10.5
t-27 -37.5zM380 777l-4 10l16 48l9 6q105 -60 199 -109l-6 -24l-8 -5z" />
    <glyph glyph-name="wgrave" unicode="&#x1e81;" horiz-adv-x="643" 
d="M187 58h9q93 136 127 236l-17 143l7 10l56 17q35 -22 35 -76q0 -29 -18 -75l27 -255h9q62 91 98 169t36 120q0 23 -12 42.5t-24 27.5l-12 8l4 17l81 22q35 -24 35 -76q0 -104 -196 -399h-58l-15 12l-21 198h-7q-44 -83 -125 -210h-58l-15 12q-5 183 -36 361
q-4 23 -12.5 31.5t-28.5 8.5l-52 -5l3 38l148 24l11 -10q22 -177 21 -391zM272 660l-1 11l38 41l10 2q78 -94 150 -172l-20 -19l-9 -2q-37 34 -79 68.5t-65 52.5z" />
    <glyph glyph-name="Wacute" unicode="&#x1e82;" horiz-adv-x="897" 
d="M592 5l-57 -22l-68 432h-6l-189 -410l-59 -22q-43 288 -92 555q-10 56 -79 57l-2 4l11 40q76 -3 106 -3t65 3t55 6l20 3l2 -7l-7 -37q-57 -4 -73.5 -12.5t-16.5 -32.5q0 -25 16 -141.5t32 -220.5l15 -104h6q27 58 57.5 122t68 141.5t59.5 123.5q-4 10 -11 56
q-12 56 -81 59l-1 4l12 40q75 -3 106 -3q25 0 60 3t57 6l23 3l1 -7l-8 -37q-58 -4 -74 -12.5t-16 -31.5q0 -21 16 -138t32 -223l16 -106h6q12 26 46 97.5t58.5 123.5t52.5 112t43 97t15 45q0 31 -62 31h-48l-2 4l12 41q71 -8 132 -8l101 4l-12 -45q-28 -2 -41 -10.5
t-27 -37.5zM683 787l-4 -10q-101 -34 -206 -74l-8 5l-6 24l199 109l9 -6z" />
    <glyph glyph-name="wacute" unicode="&#x1e83;" horiz-adv-x="643" 
d="M187 58h9q93 136 127 236l-17 143l7 10l56 17q35 -22 35 -76q0 -29 -18 -75l27 -255h9q62 91 98 169t36 120q0 23 -12 42.5t-24 27.5l-12 8l4 17l81 22q35 -24 35 -76q0 -104 -196 -399h-58l-15 12l-21 198h-7q-44 -83 -125 -210h-58l-15 12q-5 183 -36 361
q-4 23 -12.5 31.5t-28.5 8.5l-52 -5l3 38l148 24l11 -10q22 -177 21 -391zM522 672l-1 -11q-84 -64 -168 -140l-9 2l-20 19q32 35 69.5 78t58.5 69l22 26l10 -2z" />
    <glyph glyph-name="Wdieresis" unicode="&#x1e84;" horiz-adv-x="897" 
d="M592 5l-57 -22l-68 432h-6l-189 -410l-59 -22q-43 288 -92 555q-10 56 -79 57l-2 4l11 40q76 -3 106 -3t65 3t55 6l20 3l2 -7l-7 -37q-57 -4 -73.5 -12.5t-16.5 -32.5q0 -25 16 -141.5t32 -220.5l15 -104h6q27 58 57.5 122t68 141.5t59.5 123.5q-4 10 -11 56
q-12 56 -81 59l-1 4l12 40q75 -3 106 -3q25 0 60 3t57 6l23 3l1 -7l-8 -37q-58 -4 -74 -12.5t-16 -31.5q0 -21 16 -138t32 -223l16 -106h6q12 26 46 97.5t58.5 123.5t52.5 112t43 97t15 45q0 31 -62 31h-48l-2 4l12 41q71 -8 132 -8l101 4l-12 -45q-28 -2 -41 -10.5
t-27 -37.5zM595 725q-17 0 -26 11t-9 27q0 22 16.5 38.5t38.5 16.5q17 0 26.5 -11t9.5 -27q0 -22 -16.5 -38.5t-39.5 -16.5zM435 725q-17 0 -26 11t-9 27q0 22 16 38.5t39 16.5q17 0 26.5 -11t9.5 -27q0 -22 -16.5 -38.5t-39.5 -16.5z" />
    <glyph glyph-name="wdieresis" unicode="&#x1e85;" horiz-adv-x="643" 
d="M187 58h9q93 136 127 236l-17 143l7 10l56 17q35 -22 35 -76q0 -29 -18 -75l27 -255h9q62 91 98 169t36 120q0 23 -12 42.5t-24 27.5l-12 8l4 17l81 22q35 -24 35 -76q0 -104 -196 -399h-58l-15 12l-21 198h-7q-44 -83 -125 -210h-58l-15 12q-5 183 -36 361
q-4 23 -12.5 31.5t-28.5 8.5l-52 -5l3 38l148 24l11 -10q22 -177 21 -391zM463 566q-17 0 -26.5 11.5t-9.5 26.5q0 22 16.5 38.5t39.5 16.5q17 0 26 -11t9 -27q0 -22 -16 -38.5t-39 -16.5zM303 566q-17 0 -26.5 11.5t-9.5 26.5q0 22 16.5 38.5t39.5 16.5q17 0 26 -11t9 -27
q0 -22 -16 -38.5t-39 -16.5z" />
    <glyph glyph-name="Ygrave" unicode="&#x1ef2;" horiz-adv-x="520" 
d="M195 567q0 -16 19.5 -82t38.5 -124.5t19 -56.5h4l139 218q21 32 21 53q0 24 -57 28l-2 4l11 37q-1 0 18 -2t44.5 -4t41.5 -2l89 4l3 -6l-11 -35q-45 -8 -65 -26.5t-63 -82.5q-9 -14 -14 -21l-117 -175q-6 -8 -10 -15.5t-7.5 -18.5t-6 -18t-5 -24.5t-4 -27.5t-5.5 -37
t-6 -43q-5 -40 1 -54.5t32 -14.5l47 3l2 -4l-14 -43q-78 3 -119 3q-21 0 -48.5 -3t-44.5 -6l-16 -3l11 43q51 11 66.5 31.5t21.5 78.5l5 45q6 60 -14 115l-63 182q-2 6 -8 23t-7.5 21t-6 16.5t-7 15.5t-7.5 11t-9 10t-10.5 7t-14 6.5t-16.5 3.5t-21 3l-2 4l11 36
q59 -4 103 -4q24 0 58.5 2t56.5 4l22 3l2 -7l-8 -33q-48 -4 -63 -12t-15 -26zM199 777l-4 10l16 48l9 6q105 -60 199 -109l-6 -24l-8 -5z" />
    <glyph glyph-name="ygrave" unicode="&#x1ef3;" horiz-adv-x="438" 
d="M303 425l4 17l81 22q35 -22 35 -76q0 -95 -180 -367q-93 -138 -159 -201t-118 -63q-29 0 -50.5 10.5t-25.5 26.5q0 21 18 80h14q24 -39 67 -39q40 0 75 26.5t87 95.5q-11 207 -38 405q-4 23 -12.5 31.5t-28.5 8.5l-52 -5l3 38l148 24l11 -10q21 -173 20 -401h10
q139 218 139 298q0 47 -48 79zM148 660l-1 11l38 41l10 2q78 -94 150 -172l-20 -19l-9 -2q-37 34 -79 68.5t-65 52.5z" />
    <glyph glyph-name="endash" unicode="&#x2013;" horiz-adv-x="439" 
d="M448 287l4 -10l-14 -51q-90 0 -260.5 -1t-177.5 -1l-4 9l16 49q144 -1 230 -1q165 0 206 6z" />
    <glyph glyph-name="emdash" unicode="&#x2014;" horiz-adv-x="879" 
d="M887 287l5 -10l-14 -51q-182 0 -522.5 -1t-355.5 -1l-4 9l16 49h32h81t107.5 -0.5t120 -0.5h108.5q67 0 169.5 1.5t178.5 3t78 1.5z" />
    <glyph glyph-name="quoteleft" unicode="&#x2018;" horiz-adv-x="171" 
d="M177 463l-2 -14q-34 -26 -58 -26q-23 0 -38.5 19.5t-15.5 51.5q0 49 38 88.5t90 66.5l18 -15v-10q-31 -19 -51.5 -46.5t-20.5 -52.5q0 -38 40 -62z" />
    <glyph glyph-name="quoteright" unicode="&#x2019;" horiz-adv-x="171" 
d="M73 609l2 14q34 26 58 26q23 0 38.5 -19.5t15.5 -51.5q0 -49 -38 -88.5t-90 -66.5l-18 15v10q31 19 51.5 46.5t20.5 52.5q0 38 -40 62z" />
    <glyph glyph-name="quotesinglbase" unicode="&#x201a;" horiz-adv-x="228" 
d="M28 59l2 14q34 26 58 26q22 0 36.5 -20.5t14.5 -57.5q0 -52 -42 -98.5t-98 -79.5l-18 15v10q35 24 57 57t22 64q0 40 -32 70z" />
    <glyph glyph-name="quotedblleft" unicode="&#x201c;" horiz-adv-x="322" 
d="M389 463l-2 -14q-34 -26 -58 -26q-23 0 -38.5 19.5t-15.5 51.5q0 49 38 88.5t90 66.5l18 -15v-10q-31 -19 -51.5 -46.5t-20.5 -52.5q0 -38 40 -62zM239 463l-2 -14q-34 -26 -58 -26q-23 0 -38.5 19.5t-15.5 51.5q0 49 38 88.5t90 66.5l18 -15v-10q-31 -19 -51.5 -46.5
t-20.5 -52.5q0 -38 40 -62z" />
    <glyph glyph-name="quotedblright" unicode="&#x201d;" horiz-adv-x="322" 
d="M288 609l2 14q34 26 58 26q23 0 38.5 -19.5t15.5 -51.5q0 -49 -38 -88.5t-90 -66.5l-18 15v10q31 19 51.5 46.5t20.5 52.5q0 38 -40 62zM138 609l2 14q34 26 58 26q23 0 38.5 -19.5t15.5 -51.5q0 -49 -38 -88.5t-90 -66.5l-18 15v10q31 19 51.5 46.5t20.5 52.5
q0 38 -40 62z" />
    <glyph glyph-name="quotedblbase" unicode="&#x201e;" horiz-adv-x="383" 
d="M29 59l2 14q34 26 58 26q23 0 38.5 -19.5t15.5 -51.5q0 -49 -38 -88.5t-90 -66.5l-18 15v10q31 19 51.5 46.5t20.5 52.5q0 38 -40 62zM184 59l2 14q34 26 58 26q23 0 38.5 -19.5t15.5 -51.5q0 -49 -38 -88.5t-90 -66.5l-18 15v10q31 19 51.5 46.5t20.5 52.5q0 38 -40 62z
" />
    <glyph glyph-name="dagger" unicode="&#x2020;" horiz-adv-x="454" 
d="M218 308l51 3l-43 -395l-61 -9l-10 8zM281 404l-51 -3l18 188l60 9l10 -8zM289 333l9 53l159 13l6 -9l-16 -62zM214 386l-9 -53l-157 -15l-6 11l16 62z" />
    <glyph glyph-name="daggerdbl" unicode="&#x2021;" horiz-adv-x="454" 
d="M191 90l52 3l-17 -177l-61 -9l-10 8zM263 116l8 53l159 13l7 -9l-17 -62zM188 169l-10 -53l-156 -15l-7 11l17 62zM221 335l54 4l-19 -150l-53 -4zM284 431l-51 -3l15 161l60 9l10 -8zM293 361l8 53l159 13l7 -9l-16 -62zM218 414l-10 -53l-156 -15l-6 11l16 62z" />
    <glyph glyph-name="bullet" unicode="&#x2022;" horiz-adv-x="326" 
d="M149 117q-43 0 -67.5 27.5t-24.5 68.5q0 51 35.5 88t86.5 37q43 0 68 -28t25 -69q0 -51 -35.5 -87.5t-87.5 -36.5z" />
    <glyph glyph-name="onedotenleader" unicode="&#x2024;" horiz-adv-x="229" 
d="M83 -12q-24 0 -36.5 14.5t-12.5 35.5q0 28 20 48.5t49 20.5q24 0 37 -14t13 -36q0 -28 -20 -48.5t-50 -20.5z" />
    <glyph glyph-name="twodotenleader" unicode="&#x2025;" horiz-adv-x="431" 
d="M89 -12q-24 0 -36.5 14.5t-12.5 35.5q0 28 20 48.5t49 20.5q24 0 37 -14t13 -36q0 -28 -20 -48.5t-50 -20.5zM278 -12q-24 0 -36.5 14.5t-12.5 35.5q0 28 20 48.5t49 20.5q24 0 37 -14t13 -36q0 -28 -20 -48.5t-50 -20.5z" />
    <glyph glyph-name="ellipsis" unicode="&#x2026;" horiz-adv-x="633" 
d="M284 -12q-24 0 -36.5 14.5t-12.5 35.5q0 28 20 48.5t49 20.5q24 0 37 -14t13 -36q0 -28 -20 -48.5t-50 -20.5zM487 -12q-24 0 -36.5 14.5t-12.5 35.5q0 28 20 48.5t49 20.5q24 0 37 -14t13 -36q0 -28 -20 -48.5t-50 -20.5zM82 -12q-24 0 -36.5 14.5t-12.5 35.5
q0 28 20 48.5t49 20.5q24 0 37 -14t13 -36q0 -28 -20 -48.5t-50 -20.5z" />
    <glyph glyph-name="perthousand" unicode="&#x2030;" horiz-adv-x="966" 
d="M197 390q38 0 67.5 22.5t29.5 78.5q0 40 -23.5 66t-64.5 26q-43 0 -69 -28.5t-26 -73.5t25.5 -68t60.5 -23zM183 326q-54 0 -87 37.5t-33 95.5q0 81 45.5 135.5t115.5 54.5q56 0 87.5 -38t31.5 -91q0 -78 -43.5 -136t-116.5 -58zM484 52q37 0 66.5 22.5t29.5 78.5
q0 41 -23 66.5t-64 25.5q-43 0 -69 -28.5t-26 -73.5t25.5 -68t60.5 -23zM470 -12q-54 0 -87 37.5t-33 95.5q0 81 45.5 135.5t115.5 54.5q56 0 87.5 -38t31.5 -91q0 -78 -43.5 -136t-116.5 -58zM804 52q37 0 66.5 22.5t29.5 78.5q0 41 -23 66.5t-64 25.5q-43 0 -69 -28.5
t-26 -73.5t25 -68t61 -23zM789 -12q-53 0 -86 37.5t-33 95.5q0 81 45 135.5t115 54.5q57 0 88.5 -38t31.5 -91q0 -77 -44 -135.5t-117 -58.5zM582 659l5 -14q-174 -259 -262 -400l-215 -340l-38 19l-5 12q131 199 220 339l256 403z" />
    <glyph glyph-name="guilsinglleft" unicode="&#x2039;" horiz-adv-x="251" 
d="M206 400l20 -15v-10l-120 -149l83 -155l-3 -10l-24 -15l-144 166l2 15z" />
    <glyph glyph-name="guilsinglright" unicode="&#x203a;" horiz-adv-x="251" 
d="M46 46l-21 15l1 10l119 149l-82 155l2 10l24 15l145 -166l-2 -15z" />
    <glyph glyph-name="fraction" unicode="&#x2044;" horiz-adv-x="125" 
d="M277 659l5 -14q-174 -259 -262 -400l-215 -340l-38 19l-5 12q131 199 220 339l256 403z" />
    <glyph glyph-name="zero.sups" unicode="&#x2070;" horiz-adv-x="338" 
d="M148 343q-53 0 -82 40.5t-29 111.5q0 101 50 167t125 66q51 0 80.5 -40.5t29.5 -109.5q0 -102 -49.5 -168.5t-124.5 -66.5zM166 409q48 0 77.5 39t29.5 104q0 49 -22 78t-60 29q-48 0 -77 -39.5t-29 -104.5q0 -49 21.5 -77.5t59.5 -28.5z" />
    <glyph glyph-name="four.sups" unicode="&#x2074;" horiz-adv-x="301" 
d="M10 458l6 34l192 235l4 1l39 -6l-25 -219h52l4 -7l-11 -44l-51 2l-8 -97l-5 -6l-62 -7l-4 6q11 58 17 105zM173 628l-100 -125h91l15 125h-6z" />
    <glyph glyph-name="five.sups" unicode="&#x2075;" horiz-adv-x="280" 
d="M245 491q0 -54 -61 -101t-127 -47q-23 0 -32.5 13t-8.5 44l8 7q26 -8 50 -8q43 0 71.5 21.5t28.5 53.5q0 55 -114 61l-4 7l31 168l6 5l120 4q31 1 42 25l30 3l-27 -85l-7 -6q-60 5 -128 5l-15 -77q71 -8 104 -30.5t33 -62.5z" />
    <glyph glyph-name="six.sups" unicode="&#x2076;" horiz-adv-x="302" 
d="M285 697q-5 -2 -13 -5t-30.5 -16t-42.5 -28.5t-42.5 -41.5t-35.5 -56l1 -4q41 27 63 28q44 0 68.5 -27.5t24.5 -66.5q0 -57 -40.5 -97t-102.5 -40q-47 0 -75.5 32.5t-28.5 83.5q0 57 25 105.5t60.5 77.5t71 49.5t60.5 28.5l25 8l5 -4zM159 526q-28 0 -57 -20
q-6 -26 -6 -46q0 -74 52 -74q30 0 47 21t17 56q0 27 -14.5 45t-38.5 18z" />
    <glyph glyph-name="seven.sups" unicode="&#x2077;" horiz-adv-x="279" 
d="M112 344h-8l-47 14l-5 15l180 292l-93 -5q-29 -2 -40 -12.5t-21 -44.5l-33 -4q17 68 27 121l4 3q36 -3 75 -3h132l17 -25q-57 -94 -163 -287z" />
    <glyph glyph-name="eight.sups" unicode="&#x2078;" horiz-adv-x="315" 
d="M33 423q0 68 86 106q-53 35 -53 83q0 47 37.5 81.5t91.5 34.5q40 0 68 -21t28 -57q0 -61 -69 -97q57 -34 57 -85t-41.5 -88t-101.5 -37q-44 0 -73.5 22t-29.5 58zM151 382q26 0 45.5 18t19.5 44q0 12 -5 21.5t-18.5 19t-19.5 13.5t-27 15q-52 -26 -52 -73q0 -24 16 -41
t41 -17zM129 635q0 -14 10.5 -27.5t20.5 -20t32 -18.5q37 24 37 68q0 24 -12 37t-33 13q-23 0 -39 -15.5t-16 -36.5z" />
    <glyph glyph-name="nine.sups" unicode="&#x2079;" horiz-adv-x="301" 
d="M37 375q5 2 13 5t30.5 16t42 28t42 41.5t36.5 56.5l-2 3q-41 -26 -62 -27q-44 0 -68.5 27.5t-24.5 66.5q0 57 40 96.5t103 39.5q47 0 75.5 -32t28.5 -83q0 -57 -25 -106t-60.5 -77.5t-71 -49t-60.5 -28.5l-25 -8l-5 3zM163 546q24 0 56 19q7 25 7 47q0 34 -13.5 54
t-38.5 20q-31 0 -48 -21t-17 -57q0 -27 14.5 -44.5t39.5 -17.5z" />
    <glyph glyph-name="n.sups" unicode="&#x207f;" horiz-adv-x="346" 
d="M256 408l2 -2q8 0 46 34l9 -2l10 -19q-74 -75 -101 -75q-26 0 -26 23q0 18 23 92t23 93q0 24 -20 24q-17 0 -46.5 -45.5t-59.5 -117.5l-6 -48q-1 -5 -20 -12t-34 -7l-7 8q33 199 34 223q1 14 -5 20t-21 6h-24l6 32l114 4l6 -9q-23 -68 -34 -135l4 -1q59 119 115 153
q27 0 44 -17.5t17 -45.5q0 -22 -23 -92.5t-26 -83.5z" />
    <glyph glyph-name="zero.sinf" unicode="&#x2080;" horiz-adv-x="338" 
d="M148 -128q-53 0 -82 40.5t-29 111.5q0 101 50 167t125 66q51 0 80.5 -40.5t29.5 -109.5q0 -102 -49.5 -168.5t-124.5 -66.5zM166 -62q48 0 77.5 39t29.5 104q0 49 -22 78t-60 29q-48 0 -77 -39.5t-29 -104.5q0 -49 21.5 -77.5t59.5 -28.5z" />
    <glyph glyph-name="one.sinf" unicode="&#x2081;" horiz-adv-x="240" 
d="M184 191q-9 -46 -22 -137.5t-13 -109.5q0 -29 24 -29l32 2l1 -3l-11 -36q-55 2 -86 2l-90 -7l9 35q30 2 44 13t17 38l26 209q2 22 -4 28.5t-24 6.5l-32 -3l-2 3l7 32q48 6 72 10l78 12l4 -15q-23 -19 -30 -51z" />
    <glyph glyph-name="two.sinf" unicode="&#x2082;" horiz-adv-x="318" 
d="M16 -127l-4 25l77 77q113 125 113 185q0 38 -44 38q-52 0 -95 -62h-8l-4 41q24 35 60 57.5t70 22.5q43 0 70 -21t27 -56q0 -38 -35.5 -90.5t-130.5 -153.5l2 -5h76q31 0 44.5 11t25.5 46l39 4q-22 -62 -32 -111l-9 -6q-145 5 -201 5z" />
    <glyph glyph-name="three.sinf" unicode="&#x2083;" horiz-adv-x="284" 
d="M23 -71l7 7q26 -8 50 -8q42 0 70.5 20.5t28.5 51.5q0 52 -91 52l-5 5v32l42 9q25 12 41.5 32t16.5 40q0 16 -10 25.5t-26 9.5q-37 0 -73 -28h-7l-6 37q74 43 112 43q36 0 59 -18.5t23 -48.5q0 -28 -21.5 -54t-57.5 -42l-1 -5q74 -22 74 -79q0 -49 -61 -93.5t-127 -44.5
q-24 0 -32.5 13t-5.5 44z" />
    <glyph glyph-name="four.sinf" unicode="&#x2084;" horiz-adv-x="301" 
d="M10 -13l6 34l192 235l4 1l39 -6l-25 -219h52l4 -7l-11 -44l-51 2l-8 -97l-5 -6l-62 -7l-4 6q11 58 17 105zM173 157l-100 -125h91l15 125h-6z" />
    <glyph glyph-name="five.sinf" unicode="&#x2085;" horiz-adv-x="280" 
d="M245 20q0 -54 -61 -101t-127 -47q-23 0 -32.5 13t-8.5 44l8 7q26 -8 50 -8q43 0 71.5 21.5t28.5 53.5q0 55 -114 61l-4 7l31 168l6 5l120 4q31 1 42 25l30 3l-27 -85l-7 -6q-60 5 -128 5l-15 -77q71 -8 104 -30.5t33 -62.5z" />
    <glyph glyph-name="six.sinf" unicode="&#x2086;" horiz-adv-x="302" 
d="M285 226q-5 -2 -13 -5t-30.5 -16t-42.5 -28.5t-42.5 -41.5t-35.5 -56l1 -4q41 27 63 28q44 0 68.5 -27.5t24.5 -66.5q0 -57 -40.5 -97t-102.5 -40q-47 0 -75.5 32.5t-28.5 83.5q0 57 25 105.5t60.5 77.5t71 49.5t60.5 28.5l25 8l5 -4zM159 55q-28 0 -57 -20
q-6 -26 -6 -46q0 -74 52 -74q30 0 47 21t17 56q0 27 -14.5 45t-38.5 18z" />
    <glyph glyph-name="seven.sinf" unicode="&#x2087;" horiz-adv-x="279" 
d="M112 -127h-8l-47 14l-5 15l180 292l-93 -5q-29 -2 -40 -12.5t-21 -44.5l-33 -4q17 68 27 121l4 3q36 -3 75 -3h132l17 -25q-57 -94 -163 -287z" />
    <glyph glyph-name="eight.sinf" unicode="&#x2088;" horiz-adv-x="315" 
d="M33 -48q0 68 86 106q-53 35 -53 83q0 47 37.5 81.5t91.5 34.5q40 0 68 -21t28 -57q0 -61 -69 -97q57 -34 57 -85t-41.5 -88t-101.5 -37q-44 0 -73.5 22t-29.5 58zM151 -89q26 0 45.5 18t19.5 44q0 12 -5 21.5t-18.5 19t-19.5 13.5t-27 15q-52 -26 -52 -73q0 -24 16 -41
t41 -17zM129 164q0 -14 10.5 -27.5t20.5 -20t32 -18.5q37 24 37 68q0 24 -12 37t-33 13q-23 0 -39 -15.5t-16 -36.5z" />
    <glyph glyph-name="nine.sinf" unicode="&#x2089;" horiz-adv-x="301" 
d="M37 -96q5 2 13 5t30.5 16t42 28t42 41.5t36.5 56.5l-2 3q-41 -26 -62 -27q-44 0 -68.5 27.5t-24.5 66.5q0 57 40 96.5t103 39.5q47 0 75.5 -32t28.5 -83q0 -57 -25 -106t-60.5 -77.5t-71 -49t-60.5 -28.5l-25 -8l-5 3zM163 75q24 0 56 19q7 25 7 47q0 34 -13.5 54
t-38.5 20q-31 0 -48 -21t-17 -57q0 -27 14.5 -44.5t39.5 -17.5z" />
    <glyph glyph-name="franc" unicode="&#x20a3;" horiz-adv-x="431" 
d="M176 90q-3 -28 2 -38t22 -10q7 0 21 0.5t23 1.5h10l1 -8l-13 -38h-11t-26.5 0.5t-33.5 0.5q-10 0 -25.5 0.5t-21.5 0.5q-17 0 -41.5 -2.5t-40.5 -5.5l-15 -2l10 43q45 8 56.5 24.5t18.5 71.5h-64l-5 7l9 30h64l33 258q2 23 -1.5 30t-19.5 7l-32 -1l-1 8l11 37
q68 -3 117 -3h48q68 0 182 11l4 -7q-21 -63 -35 -136l-50 -3q7 35 7 53q0 23 -18 29.5t-78 6.5q-20 0 -34 -2q-7 -1 -12 -8t-8 -19t-5 -21.5t-3.5 -25t-2.5 -21.5l-13 -79q21 -1 77 -1l88 10l5 -8l-20 -51h-11q-11 1 -31 2t-35 1l-81 -5l-11 -62h91l4 -7l-8 -30h-91z" />
    <glyph glyph-name="Euro" unicode="&#x20ac;" horiz-adv-x="564" 
d="M352 210l5 -9l-7 -30l-175 -1q11 -63 47.5 -98t93.5 -35q100 0 142 120l46 4q-24 -74 -36 -131l-6 -8q-65 -31 -160 -31q-90 0 -147.5 48t-67.5 131h-79l-4 7l8 29h74q0 37 10 79h-74l-4 7l8 29h82q33 85 107.5 135.5t173.5 50.5q29 0 65.5 -4.5t58.5 -9.5l22 -5l3 -6
q-23 -60 -37 -134l-46 -4q7 33 7 48q0 63 -101 63q-63 0 -109 -35.5t-66 -98.5h5l175 4l5 -9l-7 -30l-187 -1q-6 -30 -6 -65v-14h6z" />
    <glyph glyph-name="trademark" unicode="&#x2122;" horiz-adv-x="543" 
d="M376 397l-26 -3q-20 98 -40 173h-3q-25 -128 -25 -134q0 -10 11 -10l14 1l1 -2l-7 -23q-32 1 -44 1l-39 -3l6 24q21 3 26 27q33 139 33 153q0 12 -28 15l-1 2l5 21q35 -2 48 -2l41 2q6 -38 14 -76.5t13 -58.5l5 -20h3q33 70 70 154q4 0 20.5 -0.5t24.5 -0.5l39 2
q1 0 1 -0.5t1 -0.5l-5 -22q-17 -1 -23 -5t-8 -15q-3 -26 -6 -139q-1 -20 2 -27t12 -7l11 1l2 -2l-7 -23q-23 1 -38 1q-49 0 -55 -3l5 24q23 3 24 18l8 128h-3q-38 -73 -82 -170zM80 461l19 149q-31 -1 -40 -8t-17 -40l-31 -3q8 43 14 79l4 3l37 -4h121l39 4l4 -3l-5 -76
l-31 -3q-1 35 -7.5 42.5t-35.5 8.5q-25 -138 -25 -167q0 -19 18 -19l22 1l1 -2l-7 -25q-45 2 -65 2l-64 -2l6 23q26 3 33 9.5t10 30.5z" />
    <glyph glyph-name="estimated" unicode="&#x212e;" horiz-adv-x="797" 
d="M180 311q-5 0 -5 -4v-181q0 -10 9 -21q91 -97 226 -97q144 0 237 109h54q-51 -60 -128 -94.5t-164 -34.5q-152 0 -260.5 97t-108.5 234q0 138 108 235t261 97q152 0 260 -97t108 -235v-8h-597zM643 516q0 12 -10 22q-93 93 -223 93q-132 0 -225 -96q-10 -10 -10 -23v-178
q0 -5 5 -5h458q5 0 5 5v182z" />
    <glyph glyph-name="partialdiff" unicode="&#x2202;" horiz-adv-x="488" 
d="M349 427l2 2q-48 175 -242 275l20 33l10 4q140 -65 227.5 -181t87.5 -268q0 -128 -73 -216t-176 -88q-83 0 -125.5 55t-42.5 135q0 112 72.5 193.5t167.5 81.5q13 0 31 -6.5t30 -12.5zM369 277q0 47 -3 75q-33 47 -106 47q-65 0 -102.5 -52t-37.5 -145q0 -72 31 -118.5
t86 -46.5q58 0 95 62t37 178z" />
    <glyph glyph-name="product" unicode="&#x220f;" horiz-adv-x="680" 
d="M592 538q-68 -404 -68 -450q0 -25 8 -34.5t28 -9.5l51 3l1 -4l-14 -46q-81 3 -126 3q-22 0 -50.5 -3t-45.5 -6l-18 -3l11 46q46 9 64 26t23 60q6 51 20 157t23 179.5t9 89.5q0 25 -22 31.5t-99 6.5q-76 0 -99.5 -8t-28.5 -38q-68 -392 -68 -450q0 -31 11 -38q10 -6 25 -6
l50 3l2 -4l-14 -46l-13 1q-13 0 -35.5 1t-40.5 1q-40 0 -95 -4t-57 -8l12 46q45 9 63 26t24 60q6 52 20 159t23.5 182.5t9.5 92.5q0 19 -7 26.5t-24 7.5l-40 -2l-1 4l13 50q75 -3 115 -3h296q32 0 90 3t60 6l-10 -51q-41 -5 -56 -16.5t-20 -40.5z" />
    <glyph glyph-name="summation" unicode="&#x2211;" horiz-adv-x="513" 
d="M407 13l-17 -16l-341 6l-52 -8l-17 13l259 296l-168 295l17 32l1 -1h1q0 1 1 1l224 7q23 1 49 2t46 2.5t37 3t27 2.5l10 1l9 -9q-4 -41 -6.5 -86.5t-2.5 -71.5l-1 -25l-44 -8q2 73 -20.5 104t-90.5 34l-159 7l146 -262l-2 -16l-230 -271l179 7q54 2 88 42t58 119l48 5
q-35 -109 -49 -205z" />
    <glyph glyph-name="minus" unicode="&#x2212;" horiz-adv-x="486" 
d="M472 297l5 -10l-14 -51l-218 -1l-220 -1l-5 9l17 49q143 -1 229 -1z" />
    <glyph glyph-name="radical" unicode="&#x221a;" horiz-adv-x="486" 
d="M91 366q-11 48 -61 46l-3 4l9 33q59 3 81 4l42 2l6 -8q0 -33 15 -123t30 -163l15 -73h6l257 641l17 13h45l-303 -734l-67 -20q-67 294 -89 378z" />
    <glyph glyph-name="infinity" unicode="&#x221e;" horiz-adv-x="486" 
d="M159 400q70 0 106 -87q52 87 119 87q43 0 68 -33.5t25 -80.5q0 -72 -42.5 -120.5t-97.5 -48.5q-72 0 -107 89q-51 -89 -118 -89q-44 0 -69 33.5t-25 80.5q0 71 43 120t98 49zM130 177q55 0 90 58q-12 35 -20.5 54.5t-26.5 37t-40 17.5q-29 0 -52 -26t-23 -66
q0 -33 19 -54t53 -21zM364 340q-52 0 -89 -56q13 -37 21.5 -56.5t26 -37t39.5 -17.5q29 0 52 26t23 66q0 33 -19 54t-54 21z" />
    <glyph glyph-name="integral" unicode="&#x222b;" horiz-adv-x="386" 
d="M148 -42l32 507q3 54 46.5 94t100.5 40q32 0 59.5 -10.5t27.5 -25.5t-6 -41t-12 -33h-13q-11 27 -35 47t-50 20q-22 0 -37.5 -15.5t-16.5 -43.5l-31 -513q-4 -62 -50.5 -102t-104.5 -40q-30 0 -54.5 10t-24.5 24q0 15 6 39.5t12 30.5h11q11 -26 34 -44.5t49 -18.5
q23 0 39 18.5t18 56.5z" />
    <glyph glyph-name="approxequal" unicode="&#x2248;" horiz-adv-x="486" 
d="M78 284h-6l-19 21v5l85 89l16 4q26 0 113 -21.5t107 -21.5q10 0 27 14t29 28l12 13h6l20 -21l-1 -5l-85 -89l-16 -4q-26 0 -112.5 21.5t-107.5 21.5q-10 0 -27 -13.5t-29 -27.5zM58 122h-6l-19 21v5l85 89l16 4q26 0 113 -21.5t108 -21.5q10 0 26.5 14t28.5 28l12 13h6
l20 -21l-1 -5l-85 -89l-16 -4q-26 0 -112.5 21.5t-107.5 21.5q-10 0 -27 -13.5t-29 -27.5z" />
    <glyph glyph-name="notequal" unicode="&#x2260;" horiz-adv-x="486" 
d="M482 377l5 -10l-15 -51q-32 0 -97.5 -0.5t-98.5 -0.5l-38 -101q33 0 88 1.5t96 2.5t41 2l4 -10l-14 -51q-36 0 -108 -0.5t-108 -0.5h-20l-50 -134h-28l-5 8l46 126l-165 -1l-5 9l17 49q94 -1 175 -1l37 101l-204 -1l-5 9l17 49q127 -1 213 -1l51 135h27l7 -10l-48 -125z
" />
    <glyph glyph-name="lessequal" unicode="&#x2264;" horiz-adv-x="484" 
d="M40 239l-6 11l7 47l205 86l202 81l8 -5l1 -50q-111 -39 -194 -73l-153 -60l-1 -6l151 -70l163 -79q-1 -2 -1 -5.5v-5.5l-34 -40l-18 10q-18 9 -51.5 26.5t-62.5 30.5l-37 18zM433 -12l4 -10l-14 -51q-90 0 -259.5 -1t-176.5 -1l-4 9l16 49h16q16 0 41.5 -0.5t54.5 -0.5
h61h56q35 0 85 1.5t84.5 2.5t35.5 2z" />
    <glyph glyph-name="greaterequal" unicode="&#x2265;" horiz-adv-x="485" 
d="M456 295l6 -11l-7 -47l-205 -86l-201 -81l-9 5l-1 50q112 39 194 73l154 60v6l-150 70l-163 79v11l34 40l18 -10q18 -9 51.5 -26.5t62.5 -30.5l38 -18q176 -86 178 -84zM433 -12l4 -10l-14 -51q-91 0 -260 -1t-176 -1l-5 9l17 49h16q16 0 41.5 -0.5t54.5 -0.5h61h56
q35 0 85 1.5t84.5 2.5t35.5 2z" />
    <glyph glyph-name="lozenge" unicode="&#x25ca;" horiz-adv-x="487" 
d="M63 262l2 21l95 177l107 189l48 2l10 -7l59 -185l55 -162l-2 -26l-94 -174l-107 -189l-48 -2l-10 7l-58 185zM205 439l-83 -163l47 -145l48 -156h6l75 143l84 162l-48 146l-48 156h-6z" />
    <glyph glyph-name="fi" unicode="&#xfb01;" horiz-adv-x="521" 
d="M387 64l3 -4q12 0 79 59l12 -1l13 -24q-84 -84 -123 -102q-9 -4 -17 -4q-30 0 -30 35q51 308 51 343q0 22 -9.5 32t-32.5 10h-143l-10 -6l-44 -404q-7 -61 -16 -101.5t-27 -74t-47.5 -49t-72.5 -15.5q-31 0 -57 13t-33 33q12 46 34 84h14q-1 -37 18.5 -60t51.5 -23
q26 0 47 22.5t25 56.5q6 52 10 141l30 372l-7 5l-69 3l-3 5l4 29l79 12l6 53q14 121 82 179.5t152 58.5q73 0 121 -25l4 -11l-31 -63l-19 -3q-67 43 -119 43q-56 0 -82 -34.5t-35 -109.5l-11 -90h102q174 0 174 3l9 -12q-57 -190 -83 -376z" />
    <glyph glyph-name="fl" unicode="&#xfb02;" horiz-adv-x="507" 
d="M375 64l3 -4q12 0 79 59l12 -1l13 -24q-106 -106 -140 -106q-31 0 -31 29q94 592 94 632q0 6 -1 8q-64 26 -111 26q-79 0 -93 -114l-15 -120l145 1l4 -3l-8 -40l-136 1l-10 -6l-52 -477q-9 -79 -50 -123t-105 -44q-31 0 -57 13t-33 33q12 46 34 84h14q-1 -37 18.5 -60
t51.5 -23q26 0 47 22.5t25 56.5q5 39 8 102.5t4 70.5l28 340l-7 5l-69 3l-3 5l4 29l79 12l9 80q11 91 71 151t140 60q43 0 88 -13l64 4l9 -12q-89 -400 -123 -657z" />
    <glyph glyph-name="acute.cap" 
d="M406 787l-4 -10q-101 -34 -206 -74l-8 5l-6 24l199 109l9 -6z" />
    <glyph glyph-name="breve.cap" 
d="M258 768q69 0 99 50h8l15 -10q-17 -42 -49.5 -70t-79.5 -28t-72.5 28t-32.5 70l18 10h8q18 -50 86 -50z" />
    <glyph glyph-name="circumflex.cap" 
d="M125 713l-11 22l147 111h14l120 -111l-17 -22l-9 -1l-110 65l-125 -65z" />
    <glyph glyph-name="dieresis.cap" 
d="M328 725q-17 0 -26 11t-9 27q0 22 16.5 38.5t38.5 16.5q17 0 26.5 -11t9.5 -27q0 -22 -16.5 -38.5t-39.5 -16.5zM168 725q-17 0 -26 11t-9 27q0 22 16 38.5t39 16.5q17 0 26.5 -11t9.5 -27q0 -22 -16.5 -38.5t-39.5 -16.5z" />
    <glyph glyph-name="grave.cap" horiz-adv-x="383" 
d="M116 777l-4 10l16 48l9 6q105 -60 199 -109l-6 -24l-8 -5z" />
    <glyph glyph-name="macron.cap" 
d="M398 788l5 -10l-13 -47l-137 -1l-138 -1l-5 9l16 45q91 -1 147 -1z" />
    <glyph glyph-name="ring.cap" 
d="M253 712q48 0 48 45q0 42 -44 42q-22 0 -34.5 -12t-12.5 -33t13.5 -31.5t29.5 -10.5zM242 674q-31 0 -48 18.5t-17 49.5q0 41 26.5 68.5t66.5 27.5q34 0 50 -19t16 -47q0 -39 -26.5 -68.5t-67.5 -29.5z" />
    <glyph glyph-name="tilde.cap" 
d="M120 699h-6l-20 21l1 5l83 79l15 4q17 0 70.5 -16.5t66.5 -16.5q10 0 26.5 11.5t27.5 22.5l12 11h6l19 -21v-5l-83 -79l-16 -4q-17 0 -70 16.5t-66 16.5q-10 0 -26.5 -11t-27.5 -23z" />
    <glyph glyph-name="caron.cap" 
d="M393 837l12 -22l-148 -111h-13l-120 111l16 22l10 1l109 -65l125 65z" />
    <glyph glyph-name="dotaccent.cap" 
d="M248 719q-21 0 -32 13t-11 32q0 26 19.5 45.5t46.5 19.5q20 0 31 -13t11 -32q0 -26 -19 -45.5t-46 -19.5z" />
    <glyph glyph-name="commaaccent" 
d="M83 -107l2 14q34 26 58 26q23 0 38.5 -19.5t15.5 -51.5q0 -49 -38 -88.5t-90 -66.5l-18 15v10q31 19 51.5 46.5t20.5 52.5q0 38 -40 62z" />
    <glyph glyph-name="hungarumlaut.cap" 
d="M328 790l-3 -9q-80 -40 -164 -87l-8 5l-9 21l153 117l9 -4zM468 781l-3 -9q-80 -40 -164 -87l-7 4l-10 21l153 118l9 -5z" />
    <glyph glyph-name="zero.lf" horiz-adv-x="510" 
d="M214 -12q-81 0 -127.5 66t-46.5 177q0 155 81 261t195 106q79 0 126 -66.5t47 -173.5q0 -155 -80.5 -262.5t-194.5 -107.5zM240 61q81 0 134.5 73.5t53.5 187.5q0 89 -38.5 143.5t-103.5 54.5q-82 0 -134 -74t-52 -190q0 -89 37.5 -142t102.5 -53z" />
    <glyph glyph-name="one.lf" horiz-adv-x="340" 
d="M249 497q-16 -89 -36.5 -236t-20.5 -172t9 -35t32 -10l51 3l1 -4l-14 -46q-81 3 -128 3q-22 0 -53.5 -3t-51.5 -6l-20 -3l12 46q47 4 69 22t28 64l43 349q4 36 -6.5 46.5t-38.5 10.5l-51 -6l-3 3l9 42q25 0 108 15q82 13 102 18h1l4 -17q-21 -17 -30.5 -34t-15.5 -50z
" />
    <glyph glyph-name="two.lf" horiz-adv-x="458" 
d="M6 -12l-8 18l110 113q203 231 203 345q0 67 -77 67q-90 0 -159 -109h-9l-5 45q31 55 89.5 93t111.5 38q64 0 101.5 -31.5t37.5 -84.5q0 -59 -58.5 -146t-218.5 -266l3 -7h144q52 0 74 17t44 74l41 5q-33 -86 -49 -159l-13 -7q-225 7 -308 7z" />
    <glyph glyph-name="three.lf" horiz-adv-x="408" 
d="M21 61l6 6q39 -9 76 -9q72 0 122.5 38t50.5 94q0 50 -38 73.5t-119 23.5l-5 5l-1 35l65 16q44 22 72.5 57t28.5 70q0 29 -17 47t-46 18q-62 0 -117 -46h-10l-5 42l11 7q11 7 29 16.5t38.5 19.5t45 17t44.5 7q50 0 81.5 -29t31.5 -75q0 -43 -34 -85t-90 -70l-1 -7
q114 -32 114 -122q0 -77 -93 -149.5t-187 -72.5q-33 0 -45 17t-8 56z" />
    <glyph glyph-name="four.lf" horiz-adv-x="429" 
d="M-3 183l9 37l310 378l4 1l33 -10l-43 -352h88l5 -8l-14 -55l-87 3l-14 -169l-6 -7l-72 -12l-5 9q18 103 28 181zM259 461l-180 -224h161l28 224h-9z" />
    <glyph glyph-name="five.lf" horiz-adv-x="404" 
d="M348 223q0 -54 -45 -109.5t-112 -90.5t-129 -35q-31 0 -43 16.5t-10 56.5l7 6q39 -9 76 -9q76 0 126.5 40t50.5 101q0 104 -188 108l-7 11l47 254l9 8l183 8q29 2 42 9.5t23 29.5l34 4l-38 -118l-7 -6q-97 8 -208 8l-27 -149q216 -16 216 -143z" />
    <glyph glyph-name="six.lf" horiz-adv-x="437" 
d="M417 563q-8 -3 -22.5 -9t-53.5 -29t-73 -51t-71.5 -76t-57.5 -103l2 -3q75 52 112 52q70 0 108.5 -44.5t38.5 -103.5q0 -84 -63 -146t-154 -62q-70 0 -110 50t-40 129q0 66 20.5 125t53 101.5t72 78t79.5 58.5t72.5 39t53.5 23l20 6l6 -5zM224 285q-44 0 -101 -37
q-11 -47 -11 -77q0 -62 25 -98.5t71 -36.5q51 0 83 37t32 98q0 47 -27.5 80.5t-71.5 33.5z" />
    <glyph glyph-name="seven.lf" horiz-adv-x="404" 
d="M136 -12h-8l-57 18l-7 22l299 490l-165 -7q-47 -2 -65 -20t-34 -73l-40 -6q26 97 40 173l6 5q57 -4 117 -4h203l18 -28q-82 -138 -272 -484z" />
    <glyph glyph-name="eight.lf" horiz-adv-x="466" 
d="M40 110q0 111 144 179q-89 54 -89 131q0 70 55 124t135 54q57 0 99 -31t42 -88q0 -101 -114 -160q97 -59 97 -138t-63 -136t-152 -57q-64 0 -109 32.5t-45 89.5zM217 31q46 0 82.5 34t36.5 82q0 21 -8 38t-27 32.5t-33 24.5t-42 24q-6 3 -9 5q-102 -43 -102 -135
q0 -43 28.5 -74t73.5 -31zM169 456q0 -20 7.5 -36.5t28 -33t32 -24t41.5 -25.5q71 41 71 123q0 44 -22.5 68t-58.5 24q-42 0 -70.5 -29t-28.5 -67z" />
    <glyph glyph-name="nine.lf" horiz-adv-x="437" 
d="M38 24q8 3 22.5 9t54 29t73 51t71 76t58.5 103l-3 3q-73 -52 -111 -52q-71 0 -109 44.5t-38 103.5q0 84 63 146t154 62q70 0 110 -50t40 -129q0 -66 -20.5 -125t-53 -101.5t-72 -78t-79.5 -58.5t-72.5 -39t-53.5 -22l-20 -7l-7 5zM232 302q43 0 100 37q11 41 11 77
q0 62 -25 98.5t-70 36.5q-52 0 -84 -37t-32 -98q0 -48 27.5 -81t72.5 -33z" />
    <glyph glyph-name="zero.tf" horiz-adv-x="450" 
d="M187 -12q-74 0 -116.5 65t-42.5 174q0 157 76 264t183 107q72 0 115 -65t43 -171q0 -157 -75.5 -265.5t-182.5 -108.5zM212 61q75 0 124 74.5t49 189.5q0 88 -34 141.5t-93 53.5q-76 0 -124 -75t-48 -192q0 -87 34 -139.5t92 -52.5z" />
    <glyph glyph-name="one.tf" horiz-adv-x="450" 
d="M301 497q-16 -88 -37 -233.5t-21 -173.5q0 -26 11 -36t39 -10l61 3l1 -4l-14 -46q-94 3 -149 3q-25 0 -60 -3t-58 -6l-22 -3l12 46q55 4 81 22t32 64l44 349q4 35 -9.5 46t-45.5 11l-61 -6l-3 3l9 42q25 0 125 15q103 14 113 18l4 -17q-24 -17 -35 -34t-17 -50z" />
    <glyph glyph-name="two.tf" horiz-adv-x="450" 
d="M5 -12l-8 18l109 113q200 231 200 345q0 67 -76 67q-89 0 -156 -109h-9l-5 45q32 55 89.5 93t109.5 38q63 0 100 -31.5t37 -84.5q0 -59 -58 -146.5t-216 -265.5l3 -7h142q50 0 72 17t44 74l41 5q-33 -86 -49 -159l-13 -7q-222 7 -304 7z" />
    <glyph glyph-name="three.tf" horiz-adv-x="450" 
d="M32 61l5 6q42 -9 81 -9q77 0 131 37.5t54 93.5q0 51 -41 74.5t-129 23.5l-5 5l-1 35l69 16q47 21 77.5 56.5t30.5 70.5q0 29 -19 47t-50 18q-29 0 -64 -13t-60 -33h-11l-5 42q11 8 30 19t66 29.5t81 18.5q53 0 86 -29.5t33 -75.5q0 -43 -36 -84.5t-95 -69.5l-1 -7
q122 -32 122 -123q0 -76 -97.5 -148.5t-196.5 -72.5q-34 0 -46.5 17t-8.5 56z" />
    <glyph glyph-name="four.tf" horiz-adv-x="450" 
d="M1 183l9 37l318 378l5 1l32 -10l-43 -352h91l5 -8l-14 -55l-90 3l-14 -169l-6 -7l-73 -12l-5 9q18 103 28 181zM270 461l-186 -224h167l29 224h-10z" />
    <glyph glyph-name="five.tf" horiz-adv-x="450" 
d="M377 222q0 -54 -47 -109.5t-117.5 -90t-136.5 -34.5q-33 0 -45.5 16.5t-10.5 56.5l6 6q42 -9 81 -9q81 0 136 40t55 100q0 105 -203 109l-8 11l48 254l10 8l194 8q31 2 44.5 9.5t24.5 29.5l35 4l-40 -118l-6 -6q-105 8 -224 8l-28 -149q118 -8 175 -43.5t57 -100.5z" />
    <glyph glyph-name="six.tf" horiz-adv-x="450" 
d="M426 563q-9 -3 -23.5 -9t-54.5 -29t-74.5 -51t-72.5 -76t-59 -103l2 -3q78 52 115 52q72 0 111 -44.5t39 -103.5q0 -84 -64 -146t-156 -62q-72 0 -112.5 50t-40.5 130q0 66 21 125t54 101t73 77.5t80.5 58.5t73.5 39t54 23l21 6l6 -5zM230 285q-43 0 -104 -37
q-11 -47 -11 -77q0 -62 26 -98.5t73 -36.5q53 0 85.5 37t32.5 98q0 47 -28 80.5t-74 33.5z" />
    <glyph glyph-name="seven.tf" horiz-adv-x="450" 
d="M152 -12h-7l-59 18l-8 22l318 490l-179 -7q-51 -2 -69.5 -19.5t-35.5 -73.5l-41 -6q27 97 41 173l6 5q61 -4 125 -4h216l18 -28q-130 -207 -289 -484z" />
    <glyph glyph-name="eight.tf" horiz-adv-x="450" 
d="M36 110q0 111 141 179q-86 53 -86 131q0 70 54 124t133 54q56 0 97 -31.5t41 -87.5q0 -100 -112 -160q94 -59 94 -138t-61.5 -136t-149.5 -57q-63 0 -107 32.5t-44 89.5zM209 31q45 0 80.5 34t35.5 82q0 22 -8 39t-30 34.5t-33 24.5t-44 26q-100 -43 -100 -135
q0 -43 27.5 -74t71.5 -31zM164 456q0 -20 7.5 -36.5t27.5 -33t30.5 -23.5t40.5 -26q69 41 69 123q0 44 -21.5 68t-56.5 24q-41 0 -69 -29t-28 -67z" />
    <glyph glyph-name="nine.tf" horiz-adv-x="450" 
d="M41 24q9 3 23.5 9t54.5 29t75 51t73 76t59 103l-3 3q-75 -52 -114 -52q-72 0 -111 44.5t-39 103.5q0 84 63.5 146t156.5 62q71 0 112 -50.5t41 -129.5q0 -66 -21 -125t-54 -101t-73 -77.5t-80.5 -58.5t-73.5 -39t-54 -22l-21 -7l-7 5zM238 302q42 0 103 37q11 41 11 77
q0 62 -25.5 98.5t-72.5 36.5q-53 0 -86 -37t-33 -98q0 -48 28.5 -81t74.5 -33z" />
    <glyph glyph-name="zero.tosf" horiz-adv-x="440" 
d="M182 -12q-75 0 -118 56.5t-43 150.5q0 131 72.5 220.5t176.5 89.5q74 0 117.5 -56.5t43.5 -148.5q0 -131 -72.5 -221.5t-176.5 -90.5zM208 64q72 0 119 55.5t47 142.5q0 72 -36.5 117t-96.5 45q-72 0 -118 -56t-46 -145q0 -71 35.5 -115t95.5 -44z" />
    <glyph glyph-name="one.tosf" horiz-adv-x="440" 
d="M281 404q-44 -258 -44 -314q0 -26 11 -36t38 -10l60 3l1 -4l-14 -46q-92 3 -146 3q-25 0 -59.5 -3t-56.5 -6l-22 -3l11 46q62 5 84.5 26.5t29.5 87.5l29 228q5 35 -8 46t-45 11l-61 -6l-2 3l9 42q12 0 123 15q92 13 108 18h2l4 -17q-24 -16 -34 -32.5t-18 -51.5z" />
    <glyph glyph-name="two.tosf" horiz-adv-x="440" 
d="M2 -12l-6 18l84 88q186 195 186 283q0 29 -16 45t-45 16q-31 0 -65 -24t-60 -65h-9l-6 45q31 48 80 79.5t95 31.5q53 0 85 -28.5t32 -77.5t-47 -114t-191 -217l3 -7h138q51 0 73 17t42 74l41 5q-29 -84 -46 -157l-12 -7q-221 7 -302 7z" />
    <glyph glyph-name="three.tosf" horiz-adv-x="440" 
d="M-3 -32l5 6q42 -9 80 -9q81 0 139.5 41.5t58.5 101.5q0 90 -170 91l-5 5l-1 35l68 16q47 21 77.5 55.5t30.5 69.5q0 28 -20 45t-52 17q-62 0 -122 -51h-10l-5 42q11 8 30 20t66 32t81 20q54 0 86.5 -27t32.5 -73q0 -43 -35.5 -84.5t-94.5 -69.5l-1 -5q123 -28 123 -113
q0 -53 -48 -109t-120.5 -92.5t-138.5 -36.5q-34 0 -46.5 17t-8.5 56z" />
    <glyph glyph-name="four.tosf" horiz-adv-x="440" 
d="M-11 89q1 6 4 18.5t4 18.5l316 378q1 0 2 0.5t2 0.5l31 -10l-43 -352h91l5 -8l-15 -55q-36 1 -88 3l-14 -169l-6 -7l-72 -12l-5 9q17 103 28 181q-150 4 -240 4zM255 367l-184 -224h165l28 224h-9z" />
    <glyph glyph-name="five.tosf" horiz-adv-x="440" 
d="M357 140q0 -60 -52.5 -118.5t-125.5 -92.5t-136 -34q-31 0 -44.5 15.5t-9.5 57.5l6 6q41 -9 80 -9q85 0 143.5 40.5t58.5 103.5q0 44 -43.5 70t-150.5 45l-7 11l46 244l9 8l191 8q29 2 43 9.5t24 29.5l34 4l-38 -118l-7 -6q-102 8 -218 8l-22 -129q103 -21 161 -56.5
t58 -96.5z" />
    <glyph glyph-name="six.tosf" horiz-adv-x="440" 
d="M419 563q-8 -3 -22.5 -9t-54 -29.5t-74 -51.5t-72 -76t-58.5 -103l3 -2l9 6q9 5 23 12.5t29 15t29.5 13t22.5 5.5q71 0 109.5 -44.5t38.5 -103.5q0 -84 -63 -146t-155 -62q-70 0 -110.5 50t-40.5 129q0 66 20.5 125t53.5 101.5t72.5 78t79.5 58.5t73 39t54 23l20 6l6 -5z
M225 285q-45 0 -102 -37q-11 -46 -11 -77q0 -62 25.5 -98.5t71.5 -36.5q52 0 84 37t32 97q0 48 -27.5 81.5t-72.5 33.5z" />
    <glyph glyph-name="seven.tosf" horiz-adv-x="440" 
d="M137 -105h-7l-58 18l-8 22l313 490l-175 -7q-51 -2 -70 -20t-35 -73l-40 -6q26 97 40 173l7 5q60 -4 122 -4h214l19 -28q-149 -239 -287 -484z" />
    <glyph glyph-name="eight.tosf" horiz-adv-x="440" 
d="M34 109q0 112 138 180q-84 54 -84 130q0 70 56 124.5t134 54.5q55 0 93 -31t38 -87q0 -101 -110 -161q92 -59 92 -137q0 -79 -63 -136.5t-151 -57.5q-61 0 -102 32.5t-41 88.5zM205 31q44 0 78.5 34t34.5 82q0 22 -8 39t-29.5 34.5t-32 24.5t-43.5 26q-97 -43 -97 -135
q0 -43 27 -74t70 -31zM161 456q0 -16 7 -31.5t13.5 -24.5t25.5 -23.5t26 -19t32 -20.5q68 41 68 124q0 43 -21 67t-56 24q-40 0 -67.5 -29t-27.5 -67z" />
    <glyph glyph-name="nine.tosf" horiz-adv-x="440" 
d="M26 -70q4 2 12 5t31 14t45 25t51.5 37t54 48.5t48.5 62t39 76.5l-3 3q-83 -52 -112 -52q-71 0 -109.5 44.5t-38.5 103.5q0 84 63 146t155 62q71 0 111 -50t40 -129q0 -66 -20.5 -125t-53.5 -101.5t-72.5 -78t-79.5 -58.5t-73 -39t-54 -22l-20 -7l-6 5zM221 208
q45 0 102 37q10 43 10 76q0 63 -25 99.5t-71 36.5q-51 0 -83.5 -37.5t-32.5 -98.5q0 -47 27.5 -80t72.5 -33z" />
    <glyph glyph-name="caron.alt" 
d="M285 709l5 -8q-27 -110 -59 -212l-28 -14l-10 2q8 49 13 103.5t6 84.5l2 30z" />
    <glyph glyph-name="zero.numr" horiz-adv-x="338" 
d="M148 259q-53 0 -82 40.5t-29 111.5q0 101 50 167t125 66q51 0 80.5 -40.5t29.5 -109.5q0 -102 -49.5 -168.5t-124.5 -66.5zM166 325q48 0 77.5 39t29.5 104q0 49 -22 78t-60 29q-48 0 -77 -39.5t-29 -104.5q0 -49 21.5 -77.5t59.5 -28.5z" />
    <glyph glyph-name="one.numr" horiz-adv-x="240" 
d="M184 578q-9 -46 -22 -137.5t-13 -109.5q0 -29 24 -29l32 2l1 -3l-11 -36q-55 2 -86 2l-90 -7l9 35q30 2 44 13t17 38l26 209q2 22 -4 28.5t-24 6.5l-32 -3l-2 3l7 32q48 6 72 10l78 12l4 -15q-23 -19 -30 -51z" />
    <glyph glyph-name="two.numr" horiz-adv-x="318" 
d="M16 260l-4 25l77 77q113 125 113 185q0 38 -44 38q-52 0 -95 -62h-8l-4 41q24 35 60 57.5t70 22.5q43 0 70 -21t27 -56q0 -38 -35.5 -90.5t-130.5 -153.5l2 -5h76q31 0 44.5 11t25.5 46l39 4q-22 -62 -32 -111l-9 -6q-145 5 -201 5z" />
    <glyph glyph-name="three.numr" horiz-adv-x="284" 
d="M23 316l7 7q26 -8 50 -8q42 0 70.5 20.5t28.5 51.5q0 52 -91 52l-5 5v32l42 9q25 12 41.5 32t16.5 40q0 16 -10 25.5t-26 9.5q-37 0 -73 -28h-7l-6 37q74 43 112 43q36 0 59 -18.5t23 -48.5q0 -28 -21.5 -54t-57.5 -42l-1 -5q74 -22 74 -79q0 -49 -61 -93.5t-127 -44.5
q-24 0 -32.5 13t-5.5 44z" />
    <glyph glyph-name="four.numr" horiz-adv-x="301" 
d="M10 374l6 34l192 235l4 1l39 -6l-25 -219h52l4 -7l-11 -44l-51 2l-8 -97l-5 -6l-62 -7l-4 6q11 58 17 105zM173 544l-100 -125h91l15 125h-6z" />
    <glyph glyph-name="five.numr" horiz-adv-x="280" 
d="M245 407q0 -54 -61 -101t-127 -47q-23 0 -32.5 13t-8.5 44l8 7q26 -8 50 -8q43 0 71.5 21.5t28.5 53.5q0 55 -114 61l-4 7l31 168l6 5l120 4q31 1 42 25l30 3l-27 -85l-7 -6q-60 5 -128 5l-15 -77q71 -8 104 -30.5t33 -62.5z" />
    <glyph glyph-name="six.numr" horiz-adv-x="302" 
d="M285 613q-5 -2 -13 -5t-30.5 -16t-42.5 -28.5t-42.5 -41.5t-35.5 -56l1 -4q41 27 63 28q44 0 68.5 -27.5t24.5 -66.5q0 -57 -40.5 -97t-102.5 -40q-47 0 -75.5 32.5t-28.5 83.5q0 57 25 105.5t60.5 77.5t71 49.5t60.5 28.5l25 8l5 -4zM159 442q-28 0 -57 -20
q-6 -26 -6 -46q0 -74 52 -74q30 0 47 21t17 56q0 27 -14.5 45t-38.5 18z" />
    <glyph glyph-name="seven.numr" horiz-adv-x="279" 
d="M112 260h-8l-47 14l-5 15l180 292l-93 -5q-29 -2 -40 -12.5t-21 -44.5l-33 -4q17 68 27 121l4 3q36 -3 75 -3h132l17 -25q-57 -94 -163 -287z" />
    <glyph glyph-name="eight.numr" horiz-adv-x="315" 
d="M33 339q0 68 86 106q-53 35 -53 83q0 47 37.5 81.5t91.5 34.5q40 0 68 -21t28 -57q0 -61 -69 -97q57 -34 57 -85t-41.5 -88t-101.5 -37q-44 0 -73.5 22t-29.5 58zM151 298q26 0 45.5 18t19.5 44q0 12 -5 21.5t-18.5 19t-19.5 13.5t-27 15q-52 -26 -52 -73q0 -24 16 -41
t41 -17zM129 551q0 -14 10.5 -27.5t20.5 -20t32 -18.5q37 24 37 68q0 24 -12 37t-33 13q-23 0 -39 -15.5t-16 -36.5z" />
    <glyph glyph-name="nine.numr" horiz-adv-x="301" 
d="M37 291q5 2 13 5t30.5 16t42 28t42 41.5t36.5 56.5l-2 3q-41 -26 -62 -27q-44 0 -68.5 27.5t-24.5 66.5q0 57 40 96.5t103 39.5q47 0 75.5 -32t28.5 -83q0 -57 -25 -106t-60.5 -77.5t-71 -49t-60.5 -28.5l-25 -8l-5 3zM163 462q24 0 56 19q7 25 7 47q0 34 -13.5 54
t-38.5 20q-31 0 -48 -21t-17 -57q0 -27 14.5 -44.5t39.5 -17.5z" />
    <glyph glyph-name="zero.dnom" horiz-adv-x="338" 
d="M148 -8q-53 0 -82 40.5t-29 111.5q0 101 50 167t125 66q51 0 80.5 -40.5t29.5 -109.5q0 -102 -49.5 -168.5t-124.5 -66.5zM166 58q48 0 77.5 39t29.5 104q0 49 -22 78t-60 29q-48 0 -77 -39.5t-29 -104.5q0 -49 21.5 -77.5t59.5 -28.5z" />
    <glyph glyph-name="one.dnom" horiz-adv-x="240" 
d="M184 311q-9 -46 -22 -137.5t-13 -109.5q0 -29 24 -29l32 2l1 -3l-11 -36q-55 2 -86 2l-90 -7l9 35q30 2 44 13t17 38l26 209q2 22 -4 28.5t-24 6.5l-32 -3l-2 3l7 32q48 6 72 10l78 12l4 -15q-23 -19 -30 -51z" />
    <glyph glyph-name="two.dnom" horiz-adv-x="318" 
d="M16 -7l-4 25l77 77q113 125 113 185q0 38 -44 38q-52 0 -95 -62h-8l-4 41q24 35 60 57.5t70 22.5q43 0 70 -21t27 -56q0 -38 -35.5 -90.5t-130.5 -153.5l2 -5h76q31 0 44.5 11t25.5 46l39 4q-22 -62 -32 -111l-9 -6q-145 5 -201 5z" />
    <glyph glyph-name="three.dnom" horiz-adv-x="284" 
d="M23 49l7 7q26 -8 50 -8q42 0 70.5 20.5t28.5 51.5q0 52 -91 52l-5 5v32l42 9q25 12 41.5 32t16.5 40q0 16 -10 25.5t-26 9.5q-37 0 -73 -28h-7l-6 37q74 43 112 43q36 0 59 -18.5t23 -48.5q0 -28 -21.5 -54t-57.5 -42l-1 -5q74 -22 74 -79q0 -49 -61 -93.5t-127 -44.5
q-24 0 -32.5 13t-5.5 44z" />
    <glyph glyph-name="four.dnom" horiz-adv-x="301" 
d="M10 107l6 34l192 235l4 1l39 -6l-25 -219h52l4 -7l-11 -44l-51 2l-8 -97l-5 -6l-62 -7l-4 6q11 58 17 105zM173 277l-100 -125h91l15 125h-6z" />
    <glyph glyph-name="five.dnom" horiz-adv-x="280" 
d="M245 140q0 -54 -61 -101t-127 -47q-23 0 -32.5 13t-8.5 44l8 7q26 -8 50 -8q43 0 71.5 21.5t28.5 53.5q0 55 -114 61l-4 7l31 168l6 5l120 4q31 1 42 25l30 3l-27 -85l-7 -6q-60 5 -128 5l-15 -77q71 -8 104 -30.5t33 -62.5z" />
    <glyph glyph-name="six.dnom" horiz-adv-x="302" 
d="M285 346q-5 -2 -13 -5t-30.5 -16t-42.5 -28.5t-42.5 -41.5t-35.5 -56l1 -4q41 27 63 28q44 0 68.5 -27.5t24.5 -66.5q0 -57 -40.5 -97t-102.5 -40q-47 0 -75.5 32.5t-28.5 83.5q0 57 25 105.5t60.5 77.5t71 49.5t60.5 28.5l25 8l5 -4zM159 175q-28 0 -57 -20
q-6 -25 -6 -46q0 -74 52 -74q30 0 47 21t17 56q0 27 -14.5 45t-38.5 18z" />
    <glyph glyph-name="seven.dnom" horiz-adv-x="279" 
d="M112 -7h-8l-47 14l-5 15l180 292l-93 -5q-29 -2 -40 -12.5t-21 -44.5l-33 -4q17 68 27 121l4 3q36 -3 75 -3h132l17 -25q-57 -94 -163 -287z" />
    <glyph glyph-name="eight.dnom" horiz-adv-x="315" 
d="M33 72q0 68 86 106q-53 35 -53 83q0 47 37.5 81.5t91.5 34.5q40 0 68 -21t28 -57q0 -61 -69 -97q57 -34 57 -85t-41.5 -88t-101.5 -37q-44 0 -73.5 22t-29.5 58zM151 31q26 0 45.5 18t19.5 44q0 12 -5 21.5t-18.5 19t-19.5 13.5t-27 15q-52 -26 -52 -73q0 -24 16 -41
t41 -17zM129 284q0 -14 10.5 -27.5t20.5 -20t32 -18.5q37 24 37 68q0 24 -12 37t-33 13q-23 0 -39 -15.5t-16 -36.5z" />
    <glyph glyph-name="nine.dnom" horiz-adv-x="301" 
d="M37 24q5 2 13 5t30.5 16t42 28t42 41.5t36.5 56.5l-2 3q-41 -26 -62 -27q-44 0 -68.5 27.5t-24.5 66.5q0 57 40 96.5t103 39.5q47 0 75.5 -32t28.5 -83q0 -57 -25 -106t-60.5 -77.5t-71 -49t-60.5 -28.5l-25 -8l-5 3zM163 195q24 0 56 19q7 25 7 47q0 34 -13.5 54
t-38.5 20q-31 0 -48 -21t-17 -57q0 -27 14.5 -44.5t39.5 -17.5z" />
    <glyph glyph-name="a.sups" horiz-adv-x="324" 
d="M244 407l2 -2q6 0 46 34l10 -1l9 -19q-75 -76 -101 -76t-26 22q0 4 24 116l-4 1q-58 -102 -110 -139q-30 0 -47 23.5t-17 66.5q0 77 48 143.5t103 66.5l59 -11l5 15l6 3l37 -9l5 -10q-33 -116 -49 -224zM110 407q16 0 49 51.5t62 121.5q-31 20 -60 20q-25 0 -46 -41.5
t-21 -91.5q0 -60 16 -60z" />
    <glyph glyph-name="b.sups" horiz-adv-x="320" 
d="M43 380q57 350 57 374t-25 24h-24l5 32l114 4l7 -9q-38 -164 -61 -310h3q56 111 104 150q34 0 54.5 -27.5t20.5 -73.5q0 -78 -46.5 -138.5t-105.5 -60.5q-24 0 -48 5.5t-36 11.5l-11 5zM211 583q-13 0 -42 -49t-61 -128q45 -15 62 -15q26 0 45.5 37.5t19.5 86.5
q0 27 -7 47.5t-17 20.5z" />
    <glyph glyph-name="c.sups" horiz-adv-x="246" 
d="M164 599q-27 0 -48.5 -39.5t-21.5 -88.5q0 -35 11 -55.5t30 -20.5q17 0 35 14.5t29 37.5l10 -1l16 -21q-17 -35 -48.5 -58.5t-62.5 -23.5q-38 0 -60 28.5t-22 78.5q0 76 47 136.5t106 60.5q35 0 59 -14l3 -8l-25 -53l-13 -2q-19 29 -45 29z" />
    <glyph glyph-name="d.sups" horiz-adv-x="325" 
d="M244 407l2 -2q6 0 46 34l10 -1l9 -19q-76 -76 -101 -76q-26 0 -26 22q0 5 5 30t11.5 53.5t7.5 32.5l-5 1q-56 -102 -109 -139q-30 0 -47 23.5t-17 66.5q0 77 48 143.5t103 66.5l45 -9l16 116q3 28 -25 28h-24l5 32l114 4l7 -9q-55 -262 -75 -398zM110 407q16 0 48.5 51.5
t61.5 122.5q-32 19 -59 19q-25 0 -46 -42t-21 -92q0 -59 16 -59z" />
    <glyph glyph-name="e.sups" horiz-adv-x="260" 
d="M247 591q0 -40 -35.5 -68.5t-118.5 -54.5q-1 -33 10.5 -53t31.5 -20q40 0 67 51l11 -1l16 -21q-18 -35 -50.5 -58t-63.5 -23q-38 0 -60.5 29t-22.5 79q0 75 47.5 135.5t106.5 60.5q29 0 45 -15t16 -41zM165 599q-23 0 -43 -28t-27 -70q93 30 93 73q0 25 -23 25z" />
    <glyph glyph-name="f.sups" horiz-adv-x="194" 
d="M32 602l-2 3l4 24l52 8l5 45q7 57 50.5 96.5t97.5 39.5q42 0 66 -9l3 -7l-24 -51l-13 -2q-35 22 -61 22q-47 0 -56 -66l-8 -69h89l3 -2l-5 -31h-85l-6 -3l-31 -284q-6 -51 -38 -84t-76 -33q-23 0 -41.5 9t-23.5 22q10 34 28 61h10q0 -24 12 -37.5t33 -13.5q17 0 30 14
t15 36q2 19 4 51t2 37l17 218l-6 4z" />
    <glyph glyph-name="g.sups" horiz-adv-x="312" 
d="M128 415q13 0 40.5 45.5t60.5 121.5q-36 18 -60 18q-23 0 -42.5 -38.5t-19.5 -84.5q0 -26 6 -44t15 -18zM114 353q-12 -8 -36.5 -24t-37 -25.5t-12.5 -13.5q0 -15 22 -29t47 -14q39 0 65.5 26.5t32.5 72.5l15 125l-6 1q-53 -93 -90 -119zM250 357q-7 -54 -65 -106
t-113 -52q-45 0 -78 25.5t-30 57.5l1 5q36 25 115 69l1 5q-37 19 -37 83q0 72 46.5 135.5t98.5 63.5l60 -11l6 15l6 3l37 -9l6 -9q-38 -72 -44 -124q-2 -19 -5.5 -78.5t-4.5 -72.5z" />
    <glyph glyph-name="h.sups" horiz-adv-x="338" 
d="M248 408l2 -2q8 0 46 34l9 -2l10 -19q-74 -75 -101 -75q-26 0 -26 23q0 18 23 92t23 93q0 24 -20 24q-17 0 -46.5 -45t-59.5 -117l-6 -49q-1 -5 -20 -12t-34 -7l-7 8q58 366 60 399q1 25 -25 25h-24l5 32l114 4l7 -9q-39 -164 -61 -310l4 -1q59 119 115 153
q27 0 44.5 -18t17.5 -45q0 -22 -23.5 -92t-26.5 -84z" />
    <glyph glyph-name="i.sups" horiz-adv-x="194" 
d="M111 407l2 -2q6 0 46 34l9 -1l10 -19q-72 -76 -101 -76q-6 0 -6.5 3.5t1.5 17.5q3 18 4.5 33.5t4 55.5t2.5 88v37q0 25 -26 25h-24l5 32l114 4l7 -9q-33 -112 -48 -223zM128 716q-33 0 -33 34q0 21 14 35.5t35 14.5q15 0 24 -9t9 -24q0 -22 -14 -36.5t-35 -14.5z" />
    <glyph glyph-name="j.sups" horiz-adv-x="184" 
d="M107 363q-16 -115 -119 -165l-14 16l2 6q37 27 53.5 59t24.5 95q32 182 32 204q0 25 -27 25h-24l6 32l113 4l7 -9q-37 -144 -54 -267zM130 716q-33 0 -33 34q0 22 14 36t35 14q15 0 24 -9t9 -24q0 -22 -14.5 -36.5t-34.5 -14.5z" />
    <glyph glyph-name="k.sups" horiz-adv-x="304" 
d="M215 342l-60 125l3 10q77 39 77 78q0 21 -18 21t-48.5 -45.5t-60.5 -117.5l-6 -48q-1 -5 -20 -12t-34 -7l-7 8q60 376 60 400t-25 24h-24l5 32l114 4l7 -9q-39 -164 -61 -310l4 -1q60 120 115 153q28 0 45.5 -17.5t17.5 -43.5q0 -61 -92 -116q16 -25 34 -51t28 -40
l10 -14v-9l-56 -18z" />
    <glyph glyph-name="l.sups" horiz-adv-x="185" 
d="M103 407l2 -2q6 0 46 34l9 -1l10 -19q-72 -76 -101 -76q-26 0 -26 25q0 6 29 189.5t29 196.5q0 24 -25 24h-24l5 32l114 4l7 -9q-56 -254 -75 -398z" />
    <glyph glyph-name="m.sups" horiz-adv-x="499" 
d="M409 408l2 -2q7 0 46 34l10 -2l9 -19q-74 -75 -102 -75q-26 0 -26 23q0 17 24.5 91.5t24.5 93.5q0 24 -19 24q-18 0 -50 -48.5t-64 -124.5l-6 -38q-1 -5 -20 -12t-34 -7l-7 8q42 175 42 199q0 23 -19 23q-17 0 -46 -45t-58 -117l-6 -49q-1 -5 -20 -12t-34 -7l-7 8
q33 199 34 223q1 14 -5 20t-21 6h-24l6 32l114 4l6 -9q-23 -68 -34 -135l3 -1q60 121 113 153q26 0 43.5 -17.5t17.5 -43.5q0 -9 -5 -31.5t-11 -40.5l-5 -19l2 -1q59 117 117 153q27 0 44 -17t17 -44q0 -23 -24.5 -94.5t-27.5 -83.5z" />
    <glyph glyph-name="o.sups" horiz-adv-x="291" 
d="M141 387q28 0 45 35t17 93q0 84 -44 84q-27 0 -44.5 -34t-17.5 -87q0 -42 12 -66.5t32 -24.5zM116 343q-38 0 -60.5 29.5t-22.5 80.5q0 80 44.5 137t107.5 57q40 0 62 -26.5t22 -74.5q0 -85 -44.5 -144t-108.5 -59z" />
    <glyph glyph-name="p.sups" horiz-adv-x="328" 
d="M-5 203l6 30q15 2 22.5 10.5t13.5 31.5q7 31 26.5 159t19.5 145q0 24 -26 24h-24l6 32l114 4l6 -8q-23 -66 -34 -132l3 -1q58 114 103 149q34 0 54.5 -27.5t20.5 -72.5q0 -73 -45.5 -136.5t-96.5 -63.5l-61 10l-13 -87q-2 -18 3.5 -24t23.5 -6h28v-4l-5 -29zM219 585
q-13 0 -42 -49t-60 -125q41 -18 68 -18q22 0 40.5 40t18.5 85q0 27 -7.5 47t-17.5 20z" />
    <glyph glyph-name="q.sups" horiz-adv-x="312" 
d="M171 278l19 104l18 99l-5 1q-55 -100 -102 -139q-32 0 -51 26.5t-19 70.5q0 74 47.5 138.5t102.5 64.5l58 -11l12 32l7 3l38 -7l4 -10q-12 -21 -43.5 -178.5t-31.5 -206.5q0 -25 18 -25h24l1 -3l-5 -30q-36 0 -73 -1.5t-56 -3.5l-18 -2l6 32q27 3 35.5 11t13.5 35z
M115 407q13 0 42 48t63 126q-36 19 -59 19q-25 0 -46 -40t-21 -89q0 -25 6.5 -44.5t14.5 -19.5z" />
    <glyph glyph-name="r.sups" horiz-adv-x="251" 
d="M49 354q34 199 34 223q0 14 -5.5 20t-20.5 6h-24l6 32l114 4l6 -9q-19 -61 -30 -117h3q23 54 54.5 93t51.5 39q24 -19 24 -54q0 -10 -5 -28l-7 -3q-9 6 -22 6q-27 0 -56 -36.5t-54 -100.5l-8 -64q-1 -5 -20 -12t-34 -7z" />
    <glyph glyph-name="s.sups" horiz-adv-x="246" 
d="M43 445h11q1 -28 16.5 -44t42.5 -16q17 0 28.5 9.5t11.5 23.5q0 21 -41 51q-20 15 -29.5 23t-20 24.5t-10.5 34.5q0 40 32.5 68t78.5 28q50 0 74 -26q-12 -29 -27 -58h-11q-14 41 -51 41q-14 0 -23 -8.5t-9 -21.5q0 -17 19 -33q7 -6 24.5 -19.5t27.5 -22.5t19.5 -24.5
t9.5 -31.5q0 -41 -35 -70.5t-83 -29.5q-31 0 -54 10t-28 27q10 42 27 65z" />
    <glyph glyph-name="t.sups" horiz-adv-x="208" 
d="M177 444l10 -2l9 -19q-68 -80 -98 -80q-25 0 -38.5 14.5t-10.5 39.5l33 200l-4 3l-42 2l-2 3l3 24l50 8l10 74l71 22l5 -7q-13 -43 -24 -90h73l3 -2l-5 -31h-72l-7 -4l-35 -174q-2 -21 14 -21t57 40z" />
    <glyph glyph-name="u.sups" horiz-adv-x="336" 
d="M221 484l-5 1q-54 -104 -106 -141q-31 0 -48.5 15.5t-17.5 41.5q0 18 22 92t22 88q0 22 -26 22h-24l6 32l114 4l7 -9q-59 -168 -59 -201q0 -20 17 -20q16 0 47.5 47.5t64.5 122.5l10 59l7 3l46 -4l7 -8q-33 -114 -49 -222l2 -2q7 0 46 34l10 -1l9 -19q-76 -76 -101 -76
q-26 0 -26 22q0 2 25 119z" />
    <glyph glyph-name="v.sups" horiz-adv-x="298" 
d="M160 346l-57 -2l-10 9q-6 123 -24 224q-2 13 -7.5 18.5t-16.5 5.5l-30 -3l2 31l105 14l7 -6q13 -98 13 -234h7q75 117 75 165q0 19 -11.5 32t-20.5 16l4 16l70 15q21 -16 21 -52q0 -68 -127 -249z" />
    <glyph glyph-name="w.sups" horiz-adv-x="443" 
d="M142 403h7q52 85 70 136l-13 87l5 7l52 14q22 -16 22 -51q0 -17 -11 -46l15 -147h7q73 117 73 165q0 19 -11.5 32t-19.5 16l4 16l69 15q21 -18 21 -53q0 -68 -125 -248l-51 -2l-10 9l-13 114h-5q-23 -47 -70 -121l-55 -2l-10 9q-5 113 -24 224q-2 13 -7.5 18.5t-16.5 5.5
l-30 -3l2 31l105 14l7 -6q13 -100 13 -234z" />
    <glyph glyph-name="x.sups" horiz-adv-x="320" 
d="M282 647q28 0 45 -21q-16 -39 -27 -61h-11q-9 35 -27 35q-14 0 -29 -21t-38 -72q17 -64 25.5 -86t17.5 -22q8 0 50 33h8l10 -21q-39 -39 -60 -53.5t-39 -14.5q-16 0 -28 22t-31 86q-26 -57 -50.5 -82.5t-54.5 -25.5q-33 0 -43 24q11 35 28 64h11q0 -43 22 -43
q30 0 72 101q-19 66 -27 84t-16 18q-9 0 -45 -33h-8l-10 21q64 68 99 68q16 0 27 -20.5t28 -81.5q25 54 49 78t52 24z" />
    <glyph glyph-name="y.sups" horiz-adv-x="307" 
d="M201 616l4 16l70 15q21 -16 21 -52q0 -63 -118 -234q-61 -87 -104 -125t-80 -38q-21 0 -37 8t-20 20q4 27 20 61h11q12 -33 44 -33q42 0 94 68q-12 147 -29 255q-2 14 -7 19t-17 5l-29 -3l2 31l105 14l7 -6q11 -102 11 -241h7q77 124 77 172q0 30 -32 48z" />
    <glyph glyph-name="z.sups" horiz-adv-x="282" 
d="M74 543l-30 -4q16 56 23 101l14 7q76 -18 129 -18q17 0 26 11l12 14l32 -14l3 -12q-107 -118 -185 -214l17 4q12 0 41 -5.5t42 -5.5q37 0 46 44l13 -1q7 -18 7 -35q0 -29 -19 -50.5t-45 -21.5q-19 0 -56 14.5t-60 14.5q-29 0 -64 -21l-10 16l179 217h-55q-26 0 -39 -9
t-21 -32z" />
    <glyph glyph-name="foundryicon" horiz-adv-x="783" 
d="M328 344l-48 -28q-6 -4 -9 -4q-6 0 -6 9v116h-74v-344h74v180q0 12 24 12q43 0 43 -56v-136h74v178q0 32 -22 52.5t-56 20.5zM435 320v-18h26q10 0 10 -10v-132q0 -32 22 -52.5t56 -20.5l63 37v25q-12 -4 -26 -4q-41 0 -41 57v90q0 10 10 10h58v36h-58q-10 0 -10 10v28
h-21zM180 -59q-80 0 -80 80v423q0 80 80 80h423q80 0 80 -80v-423q0 -80 -80 -80h-423z" />
    <glyph glyph-name="square1" horiz-adv-x="434" 
d="M-26 0l56 452h434l-55 -452h-435z" />
    <glyph glyph-name="square2" horiz-adv-x="612" 
d="M-26 0l78 637h612l-78 -637h-612z" />
    <glyph glyph-name="f.f" horiz-adv-x="257" 
d="M37 405l-3 5l4 29l79 12l9 50q12 92 74.5 151.5t146.5 59.5q68 0 121 -25l4 -11l-29 -48l-19 -3q-66 28 -121 28q-88 0 -103 -114l-15 -93l211 1l4 -3l-8 -40l-202 1l-10 -6l-52 -474q-9 -79 -50 -123t-105 -44q-31 0 -57 13t-33 33q12 46 34 84h14q-1 -37 18.5 -60
t51.5 -23q26 0 47 22.5t25 56.5q5 39 8 102.5t4 70.5l28 340l-7 5z" />
    <glyph glyph-name="f.l" horiz-adv-x="257" 
d="M37 405l-3 5l4 29l79 12l9 80q12 92 74.5 151.5t146.5 59.5q66 0 111 -20l4 -11l-28 -63l-19 -3q-64 38 -112 38q-88 0 -103 -114l-15 -120l145 1l4 -3l-8 -40l-136 1l-10 -6l-52 -477q-9 -79 -50 -123t-105 -44q-31 0 -57 13t-33 33q12 46 34 84h14q-1 -37 18.5 -60
t51.5 -23q26 0 47 22.5t25 56.5q5 39 8 102.5t4 70.5l28 340l-7 5z" />
    <glyph glyph-name="f.t" horiz-adv-x="257" 
d="M37 405l-3 5l4 29l79 12l9 80q11 91 71 151t140 60q59 0 101 -15l4 -11l-31 -63l-19 -3q-56 33 -99 33q-79 0 -93 -114l-15 -123h225l4 -3l-7 -38h-217l-10 -6l-52 -474q-9 -79 -50 -123t-105 -44q-31 0 -57 13t-33 33q12 46 34 84h14q-1 -37 18.5 -60t51.5 -23
q26 0 47 22.5t25 56.5q5 39 8 102.5t4 70.5l28 340l-7 5z" />
    <glyph glyph-name="fj" horiz-adv-x="502" 
d="M381 21q-14 -101 -56 -162.5t-116 -99.5l-15 19l3 8q59 42 87 95.5t41 156.5q50 292 50 327q0 43 -44 43h-141l-10 -6l-52 -477q-9 -79 -50 -123t-105 -44q-31 0 -57 13t-33 33q12 46 34 84h14q-1 -37 18.5 -60t51.5 -23q26 0 47 22.5t25 56.5q5 39 8 102.5t4 70.5
l28 340l-7 5l-69 3l-3 5l4 29l79 12l9 80q13 92 78 151.5t153 59.5q73 0 121 -25l4 -11l-31 -63l-19 -3q-67 43 -119 43q-98 0 -113 -114l-15 -120h220l52 3l10 -12q-65 -261 -86 -419z" />
    <glyph glyph-name="idotaccent" horiz-adv-x="264" 
d="M178 592q-20 0 -31 13t-11 31q0 26 18.5 46t45.5 20q19 0 30 -13t11 -31q0 -27 -18 -46.5t-45 -19.5zM130 64l3 -4q12 0 79 59l12 -1l13 -24q-106 -106 -140 -106q-30 0 -30 35q51 308 51 343q0 22 -10 32t-32 10h-41l7 38l162 6l9 -12q-57 -190 -83 -376z" />
    </font>
</defs>
</svg>
